<?xml version="1.0" encoding="utf-8"?>
<!-- Generator: Adobe Illustrator 20.0.0, SVG Export Plug-In . SVG Version: 6.00 Build 0)  -->
<svg version="1.1" id="点をなぞる" xmlns="http://www.w3.org/2000/svg" xmlns:xlink="http://www.w3.org/1999/xlink" x="0px"
	 y="0px" width="841.9px" height="595.3px" viewBox="0 0 841.9 595.3" enable-background="new 0 0 841.9 595.3"
	 xml:space="preserve">
<g>
	<path fill="#444444" d="M333.7,446.5c-0.4,0.1-0.6,0.2-1.2,0.4c-0.2,0.1-0.3,0.1-0.4,0.1c-0.4,0-0.7-0.7-1-2.2
		c1.1-0.1,1.5-0.1,3.4-0.4c2-0.3,4.6-0.7,6-0.9c1.5-0.2,2.8-0.4,3.4-0.5c0.1,0,0.2,0,0.3,0c0.2,0,0.3,0.1,0.5,0.5
		c0.1,0.4,0.2,0.9,0.2,1.1c0,0.2-0.1,0.3-0.3,0.3c-0.4,0-0.7,0-1,0.1c-2.9,0.5-5.2,3-5.2,5.6c0,2,1.6,3.3,4.2,3.5
		c0.2,0,0.3,0.1,0.3,0.3c0,0.4-0.2,1.2-0.3,1.6c-0.1,0.2-0.2,0.3-0.4,0.3c-0.2,0-0.7-0.1-1.3-0.3c-2.9-0.8-4.4-2.7-4.4-5.3
		c0-1.4,0.5-2.7,1.3-3.8c0.5-0.6,0.9-1,1.9-1.6C337.3,445.7,335,446.2,333.7,446.5z M342.4,446.9c0.2,0,1.7,1.6,1.7,1.9
		c0,0.1-0.1,0.2-0.4,0.5c-0.3,0.3-0.3,0.3-0.5,0.3c-0.1,0-0.1,0-0.1,0c-0.1,0-0.1,0-0.4-0.5c-0.3-0.4-0.6-0.8-1.1-1.4
		c0,0-0.1-0.1-0.1-0.1c0-0.1,0.1-0.1,0.1-0.1c0.1-0.1,0.3-0.3,0.4-0.4c0.2-0.1,0.3-0.2,0.3-0.2C342.3,446.9,342.3,446.9,342.4,446.9
		L342.4,446.9L342.4,446.9z M345.3,448.1c-0.3,0.2-0.4,0.3-0.5,0.3c-0.1,0-0.1,0-0.2-0.2c-0.5-0.8-0.8-1.1-1.3-1.6
		c0-0.1-0.1-0.1-0.1-0.1c0-0.1,0.1-0.2,0.3-0.4s0.4-0.3,0.5-0.3c0.1,0,0.3,0.2,0.7,0.5c0.5,0.5,1,1.1,1,1.3
		C345.8,447.8,345.6,447.9,345.3,448.1z"/>
	<path fill="#444444" d="M358,445.8c-1.5,0.3-3,0.4-3.9,0.4c-0.3,0-0.4-0.1-0.4-0.2c-0.1-0.3-0.1-0.8-0.2-1.4c1.4,0,2.4-0.1,3.9-0.3
		c-0.1-0.3-0.1-0.3-0.3-0.9c-0.2-0.4-0.3-0.7-0.5-1.1c0.7-0.2,1.4-0.2,2-0.2c0.2,0,0.2,0.1,0.2,0.3c0,0,0,0.1,0,0.1
		c0,0.1,0,0.1,0,0.2c0,0.3,0.1,0.7,0.2,1.4c1.3-0.3,2.4-0.6,3.2-1c0.1-0.1,0.2-0.1,0.2-0.1c0.1,0,0.1,0.1,0.3,0.4
		c0.2,0.4,0.3,0.8,0.3,0.9c0,0.1,0,0.1-0.1,0.2c-1,0.4-1.5,0.6-3.4,1.1c0.2,0.6,0.3,0.8,0.6,1.4c0.9-0.3,1.4-0.4,1.7-0.6
		c1.6-0.8,1.6-0.8,1.6-0.8c0,0,0.1,0,0.1,0c0,0,0.1,0,0.1,0c0.1,0,0.1,0.1,0.3,0.4c0.2,0.4,0.4,0.9,0.4,1c0,0.1,0,0.1-0.4,0.3
		c-0.9,0.5-1.7,0.8-2.9,1.1c0.7,1,1.7,2.1,2.2,2.5c0.6,0.4,0.6,0.4,0.6,0.6c0,0.2-0.2,0.5-0.5,1.1c-0.3,0.5-0.4,0.6-0.6,0.6
		c-0.1,0-0.1,0-0.4-0.2c-0.9-0.7-2.6-1.1-4.3-1.1c-1.5,0-2.4,0.5-2.4,1.4c0,0.5,0.4,1,1.1,1.2c0.7,0.2,2.1,0.4,3.7,0.4
		c0.4,0,0.7,0,1.4-0.1c-0.3,0.4-0.5,0.8-0.7,1.5c-0.1,0.4-0.2,0.4-0.7,0.4c-1.8,0-3.4-0.2-4.5-0.6c-1.4-0.5-2.2-1.5-2.2-2.7
		c0-1.8,1.5-2.9,4-2.9c1.5,0,2.5,0.2,3.6,0.6c-1-0.9-1.5-1.5-2-2.3c-0.8,0.2-1.2,0.2-1.8,0.3c-1,0.1-2.7,0.3-3.5,0.3
		c-0.5,0-0.6,0-0.7-1.6c0.4,0,0.7,0,0.8,0c1.1,0,3.2-0.2,4.3-0.5C358.4,446.8,358.1,446.3,358,445.8z"/>
	<path fill="#444444" d="M378.6,453.7c1.4,0,2.9-0.2,4.5-0.6c0.1,0,0.1,0,0.2,0c0.1,0,0.2,0.1,0.2,0.2c0.1,0.4,0.1,0.9,0.1,1.5
		c0,0.3,0,0.4-0.2,0.5c-0.5,0.3-2.8,0.5-4.8,0.5c-2.6,0-4-0.4-5.2-1.5c-0.6-0.5-1.1-1.4-1.1-1.8c0-0.3,0.2-0.4,1.5-1.2
		C374.4,452.9,375.8,453.7,378.6,453.7z M378.8,443.9c1,0,1.6,0,2.7-0.2c0,0,0.1,0,0.1,0c0.1,0,0.2,0.1,0.2,0.2
		c0,0.2,0.1,0.7,0.1,1.3c0,0.4,0,0.5-0.1,0.6c-0.1,0.1-1.6,0.2-2.8,0.2c-1.5,0-2.8-0.1-4.2-0.4c-1-0.2-1-0.2-1-0.8
		c0-0.4,0-1,0.1-1.5C375.4,443.6,377,443.9,378.8,443.9z M383.7,444.7c-0.1,0-0.1,0-0.2-0.1c-0.4-0.7-0.7-1.1-1.3-1.7
		c-0.1-0.1-0.1-0.1-0.1-0.1c0-0.1,0.7-0.7,0.9-0.7c0.1,0,0.3,0.2,0.7,0.6c0.5,0.6,1,1.1,1,1.3C384.7,444.1,384,444.7,383.7,444.7z
		 M385.5,441.5c0.5,0.6,0.9,1.1,0.9,1.2c0,0.1-0.1,0.2-0.3,0.4c-0.3,0.3-0.5,0.4-0.6,0.4c-0.1,0-0.1-0.1-0.2-0.2
		c-0.5-0.7-0.8-1.1-1.3-1.6c-0.1,0-0.1-0.1-0.1-0.1c0-0.2,0.7-0.6,0.9-0.6C384.9,441,385.1,441.2,385.5,441.5z"/>
	<path fill="#444444" d="M394.9,447.5c-0.2-0.7-0.3-1.2-0.5-3.3c-0.1-0.8-0.1-1.2-0.3-1.8c1,0,1.7,0.1,2.2,0.2
		c0.3,0.1,0.4,0.2,0.4,0.4c0,0.1,0,0.2-0.1,0.3c-0.1,0.4-0.2,0.7-0.2,1.2c0,0.8,0.2,2.2,0.4,2.8c0.1,0.3,0.2,0.4,0.4,0.4
		c0.4,0,1.9-0.8,2.7-1.4c0.2-0.2,0.3-0.2,0.3-0.2c0.2,0,0.3,0.1,0.6,0.4c0.4,0.6,0.8,1.2,0.8,1.4c0,0.2-0.1,0.3-0.4,0.4
		c-1.1,0.3-2.8,1-4,1.5c-2.1,1-3,2-3,3c0,1,0.9,1.5,3.1,1.5c1.3,0,2.4-0.1,4-0.4c0.1,0,0.2,0,0.2,0c0.1,0,0.2,0.1,0.3,0.2
		c0.1,0.2,0.2,1.2,0.2,1.6c0,0.2-0.1,0.3-0.3,0.4c-0.4,0.1-2.4,0.2-3.7,0.2c-2.2,0-3.6-0.3-4.5-0.9c-0.8-0.5-1.2-1.4-1.2-2.4
		c0-0.8,0.2-1.5,0.7-2.2c0.6-0.9,1.2-1.4,2.7-2.3C395.2,448.3,395,448,394.9,447.5z"/>
	<path fill="#444444" d="M416,452.7c-0.8,1.4-1.9,2.2-3.1,2.2c-1.8,0-3-1.7-3-4.2c0-2.7,1.4-5,3.7-6.2c1.1-0.6,2.4-0.9,4-0.9
		c3.6,0,6.2,2.5,6.2,5.9c0,3-1.5,5.1-4.3,6.3c-0.6,0.2-1,0.4-1.2,0.4c-0.2,0-0.3-0.1-0.5-0.4c-0.3-0.4-0.6-0.8-1.1-1.1
		c3.5-0.9,5.1-2.6,5.1-5.3c0-1.4-0.6-2.6-1.7-3.4c-0.6-0.4-1.1-0.6-2-0.7C417.6,449,417.1,451,416,452.7z M413.6,446.7
		c-1.1,1-1.8,2.4-1.8,4c0,1.3,0.4,2.1,1.1,2.1c0.9,0,1.7-1.2,2.4-3.2c0.4-1.3,0.6-2.2,0.9-4.1C415,445.7,414.4,446,413.6,446.7z"/>
	<path fill="#444444" d="M433,448.1c-0.1,0-0.2,0.1-0.3,0.1c-0.1,0.1-0.1,0.1-0.2,0.1c-0.4,0-0.6-0.7-0.8-1.9c0.1,0,0.3,0,0.3,0
		c0.7,0,2.5-0.2,3.6-0.4c0.4-1.5,0.5-2.6,0.5-3.4c0-0.1,0-0.2,0-0.3c0.7,0.1,1.4,0.2,1.9,0.4c0.3,0.1,0.4,0.3,0.4,0.4
		c0,0.1,0,0.1-0.1,0.3c-0.3,0.5-0.3,0.5-0.8,2.3c0.4-0.1,0.9-0.1,1.2-0.1c0.7,0,1.2,0.1,1.6,0.4c0.7,0.5,1,1.5,1,3
		c0,2.5-0.5,4.7-1.2,5.8c-0.5,0.7-1.3,1.1-2.3,1.1c-0.6,0-1.2-0.1-1.4-0.2c-0.1-0.1-0.1-0.1-0.2-0.7c-0.1-0.5-0.2-0.8-0.4-1.3
		c0.9,0.3,1.1,0.3,1.7,0.3c0.8,0,1.2-0.4,1.5-1.8c0.3-0.9,0.4-2.1,0.4-3.3c0-1.3-0.3-1.8-1.2-1.8c-0.3,0-0.8,0-1.2,0.1
		c-0.1,0.2-0.1,0.2-0.1,0.4c-0.5,1.7-1.3,4-2.2,5.9c-0.9,1.9-1.1,2.2-1.3,2.2c-0.1,0-0.6-0.2-1.1-0.6c-0.4-0.2-0.5-0.3-0.5-0.5
		c0-0.1,0-0.1,0.7-1.2c0.9-1.4,2.2-4.3,2.6-6C433.8,447.9,433.1,448.1,433,448.1z M441.7,446.2c0-0.1,0.2-0.3,0.6-0.7
		c0.3-0.3,0.5-0.4,0.6-0.4c0.1,0,0.2,0.1,0.4,0.3c1,1,1.9,2.3,2.5,3.4c0.2,0.4,0.3,0.6,0.3,0.7c0,0.2-0.1,0.2-0.6,0.7
		c-0.3,0.3-0.7,0.5-0.9,0.5c-0.1,0-0.2-0.1-0.3-0.3c-0.3-0.8-0.7-1.5-1.1-2.1c-0.4-0.7-0.5-0.8-1.5-1.9
		C441.7,446.3,441.7,446.3,441.7,446.2z"/>
	<path fill="#444444" d="M453.5,447.3c0,0-0.1,0-0.1,0c-0.1,0-0.2,0-0.2,0c-0.2,0-0.2-0.1-0.3-0.3c-0.1-0.4-0.2-1-0.2-1.6
		c0.2,0,0.4,0,0.5,0c0.9,0,2-0.1,2.9-0.2c0.2-1.1,0.3-2,0.3-2.7c0-0.1,0-0.2,0-0.4c2,0.3,2.3,0.4,2.3,0.7c0,0.1,0,0.1-0.1,0.3
		c-0.2,0.4-0.2,0.4-0.5,1.8c0.7-0.1,1.5-0.3,1.9-0.5c0.1,0,0.1,0,0.1,0c0.2,0,0.2,0.1,0.3,0.7c0.1,0.3,0.1,0.8,0.1,1
		c0,0.1-0.1,0.2-0.2,0.2c-0.3,0.1-0.3,0.1-2.6,0.5c-0.8,3.5-1.6,6-2.9,9.1c-0.1,0.2-0.2,0.3-0.3,0.3c-0.2,0-0.8-0.2-1.4-0.6
		c-0.3-0.2-0.4-0.2-0.4-0.3c0-0.1,0.1-0.2,0.1-0.4c1.3-2.4,2.2-5.1,2.9-7.9C455,447.2,454.5,447.2,453.5,447.3z M460.7,453.8
		c0.5,0.3,1.2,0.5,2.2,0.5c1.1,0,2.1-0.1,2.6-0.3c0.1,0,0.2-0.1,0.2-0.1c0.2,0,0.2,0.1,0.3,0.2c0.1,0.4,0.2,1.1,0.2,1.6
		c0,0.2-0.1,0.3-0.3,0.4c-0.6,0.1-1.5,0.2-2.5,0.2c-2.1,0-3.3-0.3-4.1-1.2c-0.3-0.3-0.5-0.7-0.7-1.1c-0.1-0.2-0.2-0.5-0.2-0.6
		c0-0.3,0.5-0.6,1.4-0.9C460.1,453.2,460.3,453.5,460.7,453.8z M465.5,448.8c-0.3-0.1-1.1-0.1-1.7-0.1c-1.3,0-1.8,0.1-3.3,0.3
		c0,0-0.1,0-0.1,0c-0.1,0-0.2,0-0.2-0.1c-0.1-0.1-0.1-1-0.1-1.3c0-0.2,0-0.3,0.2-0.4c0.1,0,0.2-0.1,0.5-0.1c1.2-0.2,2.1-0.3,3.3-0.3
		c1,0,1.5,0,1.6,0.1c0.1,0.1,0.1,0.2,0.1,0.8c0,0.5,0,0.9-0.1,1c0,0.1-0.1,0.1-0.2,0.1C465.6,448.8,465.6,448.8,465.5,448.8z"/>
	<path fill="#444444" d="M474.5,446.8c-0.9,0-1,0-1.1-0.2c-0.1-0.2-0.2-0.9-0.3-1.6c0.6,0.1,1.2,0.1,2.1,0.1c0.5,0,1.2,0,1.9-0.1
		c0.1-1,0.2-1.4,0.2-2c0-0.3,0-0.5-0.1-0.9c0.8,0.1,1.8,0.2,2.2,0.3c0.1,0.1,0.2,0.1,0.2,0.2c0,0.1,0,0.2-0.1,0.4
		c-0.2,0.3-0.2,0.6-0.3,1.2c-0.1,0.3-0.1,0.4-0.1,0.6c1.4-0.2,2.8-0.5,3.8-0.8c0.1,0,0.2-0.1,0.3-0.1c0.1,0,0.2,0.1,0.2,0.4
		c0.1,0.4,0.2,1.1,0.2,1.2c0,0.2-0.1,0.2-0.6,0.4c-1.3,0.3-3,0.5-4.2,0.6c-0.5,2-0.7,2.7-1.4,3.8c1-0.7,1.5-1,2.3-1.3
		c0.7-0.3,1.4-0.4,2.2-0.4c1.2,0,2.2,0.3,2.9,1c0.6,0.6,0.9,1.5,0.9,2.4c0,1.3-0.6,2.3-1.9,3.1c-0.9,0.6-2.5,1.2-4,1.4
		c-0.3,0-0.5,0.1-0.6,0.1c-0.3,0-0.4-0.1-0.5-0.3c-0.3-0.6-0.6-1-1-1.4c1.6-0.1,2.8-0.3,4-0.7c1.3-0.5,2-1.2,2-2.1
		c0-1.2-0.7-1.9-1.9-1.9c-1.9,0-4.1,1.2-5.4,3c-0.1,0.1-0.2,0.2-0.3,0.2c-0.3,0-1.5-1.1-1.5-1.3c0-0.1,0-0.1,0.2-0.3
		c0.9-1.2,1.6-2.9,2.1-5.1C476.5,446.7,474.7,446.8,474.5,446.8z"/>
	<path fill="#444444" d="M506.6,452.4c-0.5,0.4-0.5,0.4-1.2,1.1c-0.3,0.3-0.4,0.3-0.8,0.6c1.1,0.6,1.9,0.8,3.5,1.1
		c-0.5,0.6-0.7,0.9-1,1.7c-2.2-0.7-3.5-1.3-4.9-2.5v1.2c-1.3,0.3-2.7,0.6-5.8,1.1c-0.3,0.1-0.4,0.1-0.6,0.1l-0.3-1.9
		c0.2,0,0.2,0,0.3,0c0.4,0,0.9,0,1.7-0.1v-3.2h-1.7c-0.3,2.2-0.7,3.7-1.7,5.3c-0.5-0.6-0.8-1-1.5-1.5c0.6-1,1-1.9,1.2-3.1
		c0.3-1.7,0.5-4.2,0.5-7.7c0-1.3,0-1.8-0.1-2.5c0.6,0.1,1.2,0.1,2.1,0.1h8.9c0.9,0,1.4,0,1.9-0.1c0,0.5-0.1,0.8-0.1,1.4v1.3
		c0,0.7,0,1,0.1,1.4c-0.5,0-1.1-0.1-1.8-0.1h-1v1.1h1c0.9,0,1.2,0,1.6-0.1v1.6c-0.5,0-1-0.1-1.6-0.1h-0.9v1.3h1.4
		c0.9,0,1.4,0,1.8-0.1v1.7c-0.5-0.1-1.1-0.1-1.8-0.1h-0.7L506.6,452.4z M498.4,446.6v-0.2H496c0,1.8-0.1,2.9-0.2,3.9h2.6v-1.3h-0.6
		c-0.6,0-1,0-1.4,0.1v-1.6c0.4,0.1,0.8,0.1,1.4,0.1h0.6V446.6z M505.3,445v-1.1H496v1.1H505.3z M499.1,451.7v3c1-0.2,1-0.2,2.8-0.5
		c-0.8-0.8-1.2-1.4-1.7-2.4H499.1z M502.6,447.4v-1.1h-2.5v1.1H502.6z M502.6,450.2v-1.3h-2.5v1.3H502.6z M501.9,451.7
		c0.3,0.6,0.6,1,1.3,1.5c0.6-0.5,1.2-1,1.6-1.5H501.9z"/>
</g>
<g>
	<defs>
		<path id="SVGID_1_" d="M420.9,403.6c-69.5,0-126-56.5-126-126s56.5-126,126-126s126,56.5,126,126S490.4,403.6,420.9,403.6z
			 M420.9,212.6c-35.9,0-65,29.2-65,65c0,35.9,29.2,65,65,65c35.9,0,65-29.2,65-65C486,241.8,456.8,212.6,420.9,212.6z"/>
	</defs>
	<clipPath id="SVGID_2_">
		<use xlink:href="#SVGID_1_"  overflow="visible"/>
	</clipPath>
	
		<path opacity="3.000000e-02" clip-path="url(#SVGID_2_)" fill="none" stroke="#E8468C" stroke-width="22.6772" stroke-miterlimit="10" d="
		M362.9,280.9c1.5,21.7,9,43.4,23.9,59.3c15.7,16.8,39.1,25.9,62.1,25.4c23-0.5,45.5-10.2,62.7-25.5c13-11.7,23.3-27.1,25.9-44.4
		c1.5-10.4,0.2-21.1-2.1-31.4c-2.9-12.8-7.4-25.3-14.8-36.1c-14.4-20.9-38.6-33.3-63.3-39.5c-9.7-2.4-19.7-4-29.7-3.3
		c-18.3,1.4-35.4,10.7-48.8,23.3c-9.6,9-17.7,19.9-21.4,32.5s-2.7,26.9,4.5,37.9c1.5,2.2,3.1,5.6,0.9,7.2"/>
	
		<path opacity="3.000000e-02" clip-path="url(#SVGID_2_)" fill="none" stroke="#FFFFFF" stroke-width="22.6772" stroke-miterlimit="10" d="
		M342.7,265.6c0.8-27.8,12.3-55.2,32.2-74.7c19.8-19.4,47.9-30.4,75.7-28.8c27.7,1.6,54.6,16.1,70.5,38.9c7.5,10.7,12.6,23,16,35.6
		c3.5,13,5.4,26.7,3.8,40.1c-3.5,28.7-23.4,54.2-49.2,67.4c-25.8,13.1-56.7,14.6-84.6,6.9c-25.7-7-51.2-24-57.6-49.9
		c-2.8-11.4-1.8-23.9-7.2-34.4"/>
	
		<path opacity="3.000000e-02" clip-path="url(#SVGID_2_)" fill="none" stroke="#3EBDDF" stroke-width="22.6772" stroke-miterlimit="10" d="
		M354.1,284.2c-1.2-24.7,10.5-49.7,30.2-64.6c19.7-14.9,46.9-19.4,70.4-11.6c7.8,2.6,15.1,6.4,21.8,11.1
		c9.9,6.9,18.7,15.7,23.9,26.6c4.3,8.9,6.1,19,6.2,28.9c0.1,27.6-14,55.1-37.1,70.3c-23.1,15.2-54.5,17.1-78.8,4.1
		c-24.4-13-40.3-40.7-38.5-68.3"/>
	
		<path opacity="3.000000e-02" clip-path="url(#SVGID_2_)" fill="none" stroke="#5BB757" stroke-width="22.6772" stroke-miterlimit="10" d="
		M320.4,221.9c-3.8,6.7-5.2,14.5-6.1,22.1c-2.1,16.6-2.3,33.4-0.6,50c0.9,8.6,2.2,17.2,5.4,25.2c3.6,9.1,9.3,17.3,15.5,24.9
		c11.5,14.3,24.9,27.3,40.7,36.7c10.4,6.2,22,10.9,34,12.1c10.5,1,21-0.6,31.2-3c41.8-9.9,82-35.5,99.2-74.9
		c4.1-9.4,6.8-19.4,7.2-29.6c0.5-12.2-2.3-24.4-6.6-35.8c-17.1-45.5-59.2-80.8-107-89.6c-10.5-1.9-21.3-2.7-31.9-1.3
		c-13.1,1.7-25.5,6.5-37.3,12.4c-11.1,5.6-21.8,12.3-30.1,21.5s-14.1,21.1-14.1,33.5"/>
	
		<path opacity="3.000000e-02" clip-path="url(#SVGID_2_)" fill="none" stroke="#EA4F23" stroke-width="22.6772" stroke-miterlimit="10" d="
		M343.2,247.6c-2.9,19,0.5,38.9,9.5,55.9c11.2,21,31,37.1,53.6,44.7c22.6,7.6,47.7,6.9,70.1-1.1c9.2-3.3,18-7.7,25.4-14
		c6.4-5.4,11.6-12,16-19.1c16.5-26.8,20.1-61.6,7.5-90.4s-41.9-50.1-73.3-51.3c-18.8-0.7-37.1,5.3-54.6,12.1
		C385,189,372,195,365.7,206.6c-5.5,10.1-5.1,23.6-13.7,31.3c-2.6,2.4-6,4-8.1,6.8c-2.2,2.8-2.5,7.6,0.6,9.3"/>
	
		<path opacity="3.000000e-02" clip-path="url(#SVGID_2_)" fill="none" stroke="#421008" stroke-width="22.6772" stroke-miterlimit="10" d="
		M375.7,389c7,3.2,14.9,3.9,22.6,4.2c16.7,0.6,33.5-0.7,49.9-3.8c8.5-1.6,16.9-3.7,24.6-7.6c8.8-4.4,16.4-10.8,23.5-17.6
		c13.2-12.7,25-27.2,33-43.7c5.3-10.9,8.9-22.8,9-35c0.1-10.5-2.4-20.9-5.7-30.9c-13.5-40.8-42.5-78.6-83.2-92.3
		c-9.7-3.2-19.9-5.1-30.2-4.6c-12.2,0.6-24.1,4.5-35.1,9.7c-43.9,21-75.3,66-79.9,114.4c-1,10.6-0.8,21.5,1.5,31.9
		c2.8,12.9,8.7,24.9,15.6,36.1c6.5,10.5,14.2,20.6,24,28.1c9.9,7.5,22.3,12.2,34.6,11.1"/>
	
		<path opacity="3.000000e-02" clip-path="url(#SVGID_2_)" fill="none" stroke="#B5CA29" stroke-width="22.6772" stroke-miterlimit="10" d="
		M342.1,273c-4,27.5,2.5,56.5,18.7,79.1c16.2,22.6,41.9,38.3,69.5,41.5c27.6,3.2,56.6-6.4,76.2-26.1c9.2-9.2,16.4-20.4,21.9-32.3
		c5.8-12.2,10-25.4,10.7-38.9c1.6-28.9-13.6-57.5-36.7-74.9c-23.1-17.4-53.3-24.2-82.1-21.5c-26.5,2.5-54.6,14.8-65.4,39.1
		c-4.8,10.7-6,23.2-13.1,32.6"/>
	
		<path opacity="3.000000e-02" clip-path="url(#SVGID_2_)" fill="none" stroke="#BBDFC9" stroke-width="22.6772" stroke-miterlimit="10" d="
		M332.3,272.7c1.6-17.6,9.4-34.3,20-48.4c26.8-35.3,75-54.6,117.7-42.6c42.7,12,74.6,57.6,66.7,101.2c-3.3,17.9-12.4,34.3-23.7,48.7
		c-20.2,25.7-49.2,46.3-81.7,49.3c-28.7,2.7-58.3-9.1-77.3-30.7c-19-21.6-26.9-52.5-20.6-80.6"/>
	
		<path opacity="3.000000e-02" clip-path="url(#SVGID_2_)" fill="none" stroke="#CFD7D4" stroke-width="22.6772" stroke-miterlimit="10" d="
		M357.4,261.4c5.3-21.1,16.4-41.2,33.8-54.2c18.4-13.8,43-18.7,65.6-14.2c22.6,4.5,43.1,17.9,57.3,36c10.8,13.8,18.3,30.8,17.8,48.2
		c-0.3,10.6-3.5,20.8-7.5,30.6c-5,12.1-11.6,23.7-20.8,33c-17.8,18.1-43.8,26.1-69.1,27.9c-10,0.7-20.1,0.5-29.8-1.9
		c-17.8-4.5-33-16.7-44-31.4c-7.9-10.5-14-22.7-15.5-35.7c-1.5-13,2-27,11-36.5c1.9-1.9,4-5,2.1-6.9"/>
	
		<path opacity="3.000000e-02" clip-path="url(#SVGID_2_)" fill="none" stroke="#6E1A7F" stroke-width="22.6772" stroke-miterlimit="10" d="
		M466.2,391.1c-7,3.2-14.9,3.9-22.6,4.2c-16.7,0.6-33.5-0.7-49.9-3.8c-8.5-1.6-16.9-3.7-24.6-7.6c-8.8-4.4-16.4-10.8-23.5-17.6
		c-13.2-12.7-25-27.2-33-43.7c-5.3-10.9-8.9-22.8-9-35c-0.1-10.5,2.4-20.9,5.7-30.9c13.5-40.8,42.5-78.6,83.2-92.3
		c9.7-3.2,19.9-5.1,30.2-4.6c12.2,0.6,24.1,4.5,35.1,9.7c43.9,21,75.3,66,79.9,114.4c1,10.6,0.8,21.5-1.5,31.9
		c-2.8,12.9-8.7,24.9-15.6,36.1c-6.5,10.5-14.2,20.6-24,28.1c-9.9,7.5-22.3,12.2-34.6,11.1"/>
	
		<path opacity="3.000000e-02" clip-path="url(#SVGID_2_)" fill="none" stroke="#7F258A" stroke-width="22.6772" stroke-miterlimit="10" d="
		M348.6,285.2c-2-10.3,0.5-21,5-30.4c4.5-9.4,11-17.7,17.4-26c5.5-7.1,11.2-14.4,18.7-19.4c8.2-5.5,18-8,27.7-9.3
		c15.9-2.2,32.5-1.4,47.4,4.6c21.1,8.5,37.3,27.5,43.9,49.3c6.6,21.8,4,45.9-5.8,66.5c-9.8,20.7-27,38.2-48.4,46.4
		s-46.9,6.3-65.7-6.7c-12.4-8.6-21.5-21.3-27.9-35c-6.4-13.7-10.3-28.4-14.2-42.9"/>
	
		<path opacity="3.000000e-02" clip-path="url(#SVGID_2_)" fill="none" stroke="#F18D1A" stroke-width="22.6772" stroke-miterlimit="10" d="
		M337.6,282.1c0.4-19.4,7.3-38.6,19.3-53.9c14.8-18.9,37.3-31.4,61-35c23.7-3.6,48.6,1.5,69.4,13.4c8.5,4.8,16.5,10.8,22.8,18.4
		c5.4,6.5,9.4,14,12.5,21.8c11.7,29.5,9.2,64.7-8.4,91.1c-17.6,26.4-50.4,42.5-81.8,38.1c-18.8-2.6-35.9-11.8-52.2-21.6
		c-11.4-6.9-23.3-15.1-27.5-27.7c-3.6-11-0.9-24.3-8.1-33.5c-2.2-2.8-5.2-5-6.9-8.2c-1.6-3.2-1.1-8,2.3-9.2"/>
	
		<path opacity="3.000000e-02" clip-path="url(#SVGID_2_)" fill="none" stroke="#EB70A7" stroke-width="22.6772" stroke-miterlimit="10" d="
		M342.1,273c-4,27.5,2.5,56.5,18.7,79.1c16.2,22.6,41.9,38.3,69.5,41.5c27.6,3.2,56.6-6.4,76.2-26.1c9.2-9.2,16.4-20.4,21.9-32.3
		c5.8-12.2,10-25.4,10.7-38.9c1.6-28.9-13.6-57.5-36.7-74.9c-23.1-17.4-53.3-24.2-82.1-21.5c-26.5,2.5-54.6,14.8-65.4,39.1
		c-4.8,10.7-6,23.2-13.1,32.6"/>
	
		<path opacity="3.000000e-02" clip-path="url(#SVGID_2_)" fill="none" stroke="#7F258A" stroke-width="22.6772" stroke-miterlimit="10" d="
		M348.6,285.2c-2-10.3,0.5-21,5-30.4c4.5-9.4,11-17.7,17.4-26c5.5-7.1,11.2-14.4,18.7-19.4c8.2-5.5,18-8,27.7-9.3
		c15.9-2.2,32.5-1.4,47.4,4.6c21.1,8.5,37.3,27.5,43.9,49.3c6.6,21.8,4,45.9-5.8,66.5c-9.8,20.7-27,38.2-48.4,46.4
		s-46.9,6.3-65.7-6.7c-12.4-8.6-21.5-21.3-27.9-35c-6.4-13.7-10.3-28.4-14.2-42.9"/>
	
		<path opacity="3.000000e-02" clip-path="url(#SVGID_2_)" fill="none" stroke="#F5BC31" stroke-width="22.6772" stroke-miterlimit="10" d="
		M312.5,312.1c-2.5-7.3-2.6-15.2-2.2-22.9c0.8-16.7,3.6-33.3,8.1-49.4c2.3-8.3,5.2-16.5,9.7-23.9c5.1-8.4,12.2-15.4,19.6-21.8
		c13.8-12.1,29.3-22.6,46.4-29.1c11.3-4.3,23.5-6.9,35.6-6c10.5,0.8,20.6,4.3,30.2,8.4c39.5,17,74.6,49.2,84.7,91
		c2.4,9.9,3.3,20.3,2,30.4c-1.6,12.1-6.5,23.6-12.8,34.1c-24.7,41.9-72.3,69.3-120.9,69.7c-10.7,0.1-21.5-1.1-31.7-4.2
		c-12.6-3.9-24-10.8-34.6-18.7c-9.9-7.4-19.3-15.9-25.9-26.4s-10.2-23.3-8-35.5"/>
	
		<path opacity="3.000000e-02" clip-path="url(#SVGID_2_)" fill="none" stroke="#90C76B" stroke-width="22.6772" stroke-miterlimit="10" d="
		M320.4,221.9c-3.8,6.7-5.2,14.5-6.1,22.1c-2.1,16.6-2.3,33.4-0.6,50c0.9,8.6,2.2,17.2,5.4,25.2c3.6,9.1,9.3,17.3,15.5,24.9
		c11.5,14.3,24.9,27.3,40.7,36.7c10.4,6.2,22,10.9,34,12.1c10.5,1,21-0.6,31.2-3c41.8-9.9,82-35.5,99.2-74.9
		c4.1-9.4,6.8-19.4,7.2-29.6c0.5-12.2-2.3-24.4-6.6-35.8c-17.1-45.5-59.2-80.8-107-89.6c-10.5-1.9-21.3-2.7-31.9-1.3
		c-13.1,1.7-25.5,6.5-37.3,12.4c-11.1,5.6-21.8,12.3-30.1,21.5s-14.1,21.1-14.1,33.5"/>
	
		<path opacity="3.000000e-02" clip-path="url(#SVGID_2_)" fill="none" stroke="#8B4395" stroke-width="22.6772" stroke-miterlimit="10" d="
		M422.3,372c16.2,0,32.1-5.8,45.8-14.5c34.4-21.7,56-64.2,48.4-104.2c-7.6-40-46.7-72.8-87.2-69.1c-16.7,1.5-32.4,8.6-46.4,17.8
		c-25.2,16.4-46.3,41.3-51.7,70.8c-4.7,26,3.7,54.1,21.9,73.2c18.3,19.1,45.9,28.8,72.1,25.3"/>
	
		<path opacity="3.000000e-02" clip-path="url(#SVGID_2_)" fill="none" stroke="#D6CCE5" stroke-width="22.6772" stroke-miterlimit="10" d="
		M323.3,310c-2.3-6.8-2.4-14.1-2-21.3c0.8-15.5,3.3-31,7.6-45.9c2.2-7.7,4.8-15.4,9-22.2c4.7-7.8,11.3-14.3,18.2-20.3
		c12.9-11.2,27.2-21,43.2-27.1c10.6-4,21.9-6.4,33.1-5.5c9.7,0.8,19.2,4,28.1,7.8c36.7,15.8,69.4,45.8,78.8,84.6
		c2.2,9.3,3.1,18.9,1.8,28.3c-1.5,11.3-6.1,22-11.9,31.8c-23,39-67.3,64.4-112.5,64.8c-10,0.1-20-1-29.5-3.9
		c-11.7-3.6-22.3-10.1-32.2-17.4c-9.2-6.9-18-14.8-24.1-24.6s-9.5-21.6-7.5-33"/>
	
		<path opacity="3.000000e-02" clip-path="url(#SVGID_2_)" fill="none" stroke="#3EBDDF" stroke-width="22.6772" stroke-miterlimit="10" d="
		M434.7,352.2c-24.5,3.3-50.4-6.1-67-24.5c-16.6-18.3-23.4-45-17.6-69.1c1.9-8,5.1-15.6,9.2-22.7c6-10.5,14-20,24.4-26.2
		c8.5-5.1,18.4-7.8,28.2-8.7c27.5-2.6,56.1,9.2,73.2,30.8c17.1,21.7,21.8,52.8,11,78.2c-10.8,25.4-37.1,43.7-64.7,44.3"/>
	
		<path opacity="3.000000e-02" clip-path="url(#SVGID_2_)" fill="none" stroke="#F6BDB6" stroke-width="22.6772" stroke-miterlimit="10" d="
		M405.7,357.5c10,2.9,20.9,1.4,30.7-2.3s18.6-9.4,27.4-15.1c7.6-4.9,15.3-9.9,21-16.9c6.2-7.7,9.5-17.2,11.7-26.8
		c3.5-15.7,4.2-32.3-0.4-47.6c-6.7-21.8-24.2-39.6-45.3-48.1c-21.1-8.5-45.4-7.9-66.8-0.1c-21.5,7.9-40.5,23.6-50.5,44.2
		c-10,20.6-10.4,46.1,0.9,66.1c7.4,13.1,19.4,23.3,32.4,30.9c13.1,7.6,27.3,12.8,41.5,17.9"/>
	
		<path opacity="3.000000e-02" clip-path="url(#SVGID_2_)" fill="none" stroke="#001116" stroke-width="22.6772" stroke-miterlimit="10" d="
		M414.7,369.2c27.3,3.7,56.1-6.8,74.5-27.2s26-50.1,19.6-76.9c-2.1-8.9-5.7-17.4-10.2-25.3c-6.6-11.6-15.6-22.2-27.1-29.1
		c-9.5-5.7-20.4-8.7-31.4-9.7c-30.6-2.8-62.4,10.2-81.5,34.3s-24.2,58.7-12.2,87c12,28.3,41.2,48.6,71.9,49.2"/>
	
		<path opacity="3.000000e-02" clip-path="url(#SVGID_2_)" fill="none" stroke="#001116" stroke-width="22.6772" stroke-miterlimit="10" d="
		M412.3,363.8c26.4,3.6,54.3-6.6,72.1-26.4s25.2-48.5,19-74.4c-2.1-8.6-5.5-16.8-9.9-24.5c-6.4-11.3-15.1-21.5-26.2-28.2
		c-9.2-5.5-19.8-8.4-30.4-9.4c-29.6-2.8-60.4,9.9-78.9,33.2c-18.4,23.3-23.5,56.8-11.8,84.2s39.9,47.1,69.6,47.7"/>
	
		<path opacity="3.000000e-02" clip-path="url(#SVGID_2_)" fill="none" stroke="#B5CA29" stroke-width="22.6772" stroke-miterlimit="10" d="
		M424.7,365.1c27.7,1.6,56.1-7.5,77.2-25.5s34.5-45.1,35.3-72.9c0.8-27.8-11.3-55.8-32.6-73.7c-10-8.4-21.8-14.5-34-19
		c-12.7-4.7-26.1-7.7-39.6-7.3c-28.9,1-56.1,18.6-71.4,43.1S340,265,345.2,293.5c4.8,26.2,19.5,53.1,44.7,61.7
		c11.1,3.8,23.7,3.9,33.6,10.2"/>
	
		<path opacity="3.000000e-02" clip-path="url(#SVGID_2_)" fill="none" stroke="#F6BDB6" stroke-width="22.6772" stroke-miterlimit="10" d="
		M405.7,357.5c10,2.9,20.9,1.4,30.7-2.3s18.6-9.4,27.4-15.1c7.6-4.9,15.3-9.9,21-16.9c6.2-7.7,9.5-17.2,11.7-26.8
		c3.5-15.7,4.2-32.3-0.4-47.6c-6.7-21.8-24.2-39.6-45.3-48.1c-21.1-8.5-45.4-7.9-66.8-0.1c-21.5,7.9-40.5,23.6-50.5,44.2
		c-10,20.6-10.4,46.1,0.9,66.1c7.4,13.1,19.4,23.3,32.4,30.9c13.1,7.6,27.3,12.8,41.5,17.9"/>
	
		<path opacity="3.000000e-02" clip-path="url(#SVGID_2_)" fill="none" stroke="#CEE7CF" stroke-width="22.6772" stroke-miterlimit="10" d="
		M434.7,352.2c-24.5,3.3-50.4-6.1-67-24.5c-16.6-18.3-23.4-45-17.6-69.1c1.9-8,5.1-15.6,9.2-22.7c6-10.5,14-20,24.4-26.2
		c8.5-5.1,18.4-7.8,28.2-8.7c27.5-2.6,56.1,9.2,73.2,30.8c17.1,21.7,21.8,52.8,11,78.2c-10.8,25.4-37.1,43.7-64.7,44.3"/>
	
		<path opacity="3.000000e-02" clip-path="url(#SVGID_2_)" fill="none" stroke="#E8468C" stroke-width="22.6772" stroke-miterlimit="10" d="
		M430.7,343.7c21.4-3.4,42.4-12.8,56.9-28.9c15.4-17.2,22.4-41.2,19.9-64.1s-14.1-44.5-30.9-60.2c-12.8-12-29-20.9-46.5-21.9
		c-10.5-0.6-21.1,1.6-31.1,4.8c-12.5,4-24.6,9.5-34.7,17.9c-19.6,16.2-29.8,41.4-33.8,66.5c-1.6,9.9-2.3,20-0.7,29.9
		c3,18.1,13.7,34.3,27.4,46.6c9.8,8.8,21.4,15.9,34.2,18.5c12.9,2.6,27.1,0.4,37.3-7.8c2.1-1.7,5.3-3.5,7.1-1.5"/>
	
		<path opacity="3.000000e-02" clip-path="url(#SVGID_2_)" fill="none" stroke="#CFD7D4" stroke-width="22.6772" stroke-miterlimit="10" d="
		M411.2,343.7c-21.4-3.4-42.4-12.8-56.9-28.9c-15.4-17.2-22.4-41.2-19.9-64.1s14.1-44.5,30.9-60.2c12.8-12,29-20.9,46.5-21.9
		c10.5-0.6,21.1,1.6,31.1,4.8c12.5,4,24.6,9.5,34.7,17.9c19.6,16.2,29.8,41.4,33.8,66.5c1.6,9.9,2.3,20,0.7,29.9
		c-3,18.1-13.7,34.3-27.4,46.6c-9.8,8.8-21.4,15.9-34.2,18.5c-12.9,2.6-27.1,0.4-37.3-7.8c-2.1-1.7-5.3-3.5-7.1-1.5"/>
	
		<path opacity="3.000000e-02" clip-path="url(#SVGID_2_)" fill="none" stroke="#2572BA" stroke-width="22.6772" stroke-miterlimit="10" d="
		M333,269.1c1.5-16.9,9-32.9,19.3-46.5c25.8-33.9,72.1-52.5,113.1-41c41,11.5,71.7,55.3,64.1,97.2c-3.1,17.2-11.9,33-22.8,46.8
		c-19.4,24.7-47.3,44.5-78.6,47.4c-27.6,2.6-56.1-8.7-74.3-29.5c-18.3-20.8-25.9-50.5-19.8-77.5"/>
	
		<path opacity="3.000000e-02" clip-path="url(#SVGID_2_)" fill="none" stroke="#E8468C" stroke-width="22.6772" stroke-miterlimit="10" d="
		M430.7,343.7c21.4-3.4,42.4-12.8,56.9-28.9c15.4-17.2,22.4-41.2,19.9-64.1s-14.1-44.5-30.9-60.2c-12.8-12-29-20.9-46.5-21.9
		c-10.5-0.6-21.1,1.6-31.1,4.8c-12.5,4-24.6,9.5-34.7,17.9c-19.6,16.2-29.8,41.4-33.8,66.5c-1.6,9.9-2.3,20-0.7,29.9
		c3,18.1,13.7,34.3,27.4,46.6c9.8,8.8,21.4,15.9,34.2,18.5c12.9,2.6,27.1,0.4,37.3-7.8c2.1-1.7,5.3-3.5,7.1-1.5"/>
	
		<path opacity="3.000000e-02" clip-path="url(#SVGID_2_)" fill="none" stroke="#FFFFFF" stroke-width="22.6772" stroke-miterlimit="10" d="
		M417.2,365.1c-27.7,1.6-56.1-7.5-77.2-25.5c-21.1-18.1-34.5-45.1-35.3-72.9c-0.8-27.8,11.3-55.8,32.6-73.7c10-8.4,21.8-14.5,34-19
		c12.7-4.7,26.1-7.7,39.6-7.3c28.9,1,56.1,18.6,71.4,43.1c15.3,24.5,19.5,55.2,14.3,83.7c-4.8,26.2-19.5,53.1-44.7,61.7
		c-11.1,3.8-23.7,3.9-33.6,10.2"/>
	
		<path opacity="3.000000e-02" clip-path="url(#SVGID_2_)" fill="none" stroke="#00704D" stroke-width="22.6772" stroke-miterlimit="10" d="
		M424.7,365.1c27.7,1.6,56.1-7.5,77.2-25.5s34.5-45.1,35.3-72.9c0.8-27.8-11.3-55.8-32.6-73.7c-10-8.4-21.8-14.5-34-19
		c-12.7-4.7-26.1-7.7-39.6-7.3c-28.9,1-56.1,18.6-71.4,43.1S340,265,345.2,293.5c4.8,26.2,19.5,53.1,44.7,61.7
		c11.1,3.8,23.7,3.9,33.6,10.2"/>
	
		<path opacity="3.000000e-02" clip-path="url(#SVGID_2_)" fill="none" stroke="#F9E8A0" stroke-width="22.6772" stroke-miterlimit="10" d="
		M337.6,271.5c0.4-17.5,6.6-34.8,17.4-48.5c13.4-17,33.6-28.3,55-31.5c21.4-3.3,43.8,1.4,62.6,12c7.7,4.4,14.9,9.8,20.5,16.5
		c4.8,5.8,8.5,12.6,11.3,19.6c10.5,26.6,8.3,58.3-7.6,82.1c-15.8,23.8-45.4,38.3-73.7,34.4c-16.9-2.3-32.4-10.6-47-19.4
		c-10.3-6.2-21-13.6-24.8-25c-3.3-9.9-0.9-21.9-7.3-30.1c-2-2.5-4.7-4.5-6.2-7.4c-1.5-2.9-1-7.2,2-8.3"/>
	
		<path opacity="3.000000e-02" clip-path="url(#SVGID_2_)" fill="none" stroke="#BBDFC9" stroke-width="22.6772" stroke-miterlimit="10" d="
		M424.4,362c-15.3,0-30.2-5.5-43.1-13.6c-32.4-20.4-52.6-60.4-45.5-98c7.1-37.6,43.9-68.5,82-65c15.7,1.5,30.5,8.1,43.6,16.7
		c23.7,15.5,43.5,38.8,48.6,66.6c4.5,24.5-3.4,50.9-20.6,68.8c-17.2,18-43.2,27.1-67.8,23.8"/>
	
		<path opacity="3.000000e-02" clip-path="url(#SVGID_2_)" fill="none" stroke="#7F258A" stroke-width="22.6772" stroke-miterlimit="10" d="
		M436.2,357.5c-10,2.9-20.9,1.4-30.7-2.3s-18.6-9.4-27.4-15.1c-7.6-4.9-15.3-9.9-21-16.9c-6.2-7.7-9.5-17.2-11.7-26.8
		c-3.5-15.7-4.2-32.3,0.4-47.6c6.7-21.8,24.2-39.6,45.3-48.1c21.1-8.5,45.4-7.9,66.8-0.1c21.5,7.9,40.5,23.6,50.5,44.2
		s10.4,46.1-0.9,66.1c-7.4,13.1-19.4,23.3-32.4,30.9c-13.1,7.6-27.3,12.8-41.5,17.9"/>
	
		<path opacity="3.000000e-02" clip-path="url(#SVGID_2_)" fill="none" stroke="#FFFFFF" stroke-width="22.6772" stroke-miterlimit="10" d="
		M417.2,365.1c-27.7,1.6-56.1-7.5-77.2-25.5c-21.1-18.1-34.5-45.1-35.3-72.9c-0.8-27.8,11.3-55.8,32.6-73.7c10-8.4,21.8-14.5,34-19
		c12.7-4.7,26.1-7.7,39.6-7.3c28.9,1,56.1,18.6,71.4,43.1c15.3,24.5,19.5,55.2,14.3,83.7c-4.8,26.2-19.5,53.1-44.7,61.7
		c-11.1,3.8-23.7,3.9-33.6,10.2"/>
	
		<path opacity="3.000000e-02" clip-path="url(#SVGID_2_)" fill="none" stroke="#327EC2" stroke-width="22.6772" stroke-miterlimit="10" d="
		M419,371.1c17.6,1.2,35.5-3.5,50.3-13.2c18.3-11.9,31.4-31.3,36.5-52.5s2.5-44.1-6.6-63.9c-3.7-8.1-8.5-15.8-14.8-22
		c-5.4-5.4-11.9-9.6-18.7-13.1c-25.8-12.9-57.9-13.4-83.2,0.4c-25.3,13.8-42.4,42.3-41,71c0.9,17.2,7.8,33.5,15.4,48.9
		c5.3,10.9,11.8,22.3,22.9,27.1c9.7,4.2,21.9,2.8,29.6,10c2.4,2.2,4.1,5.1,6.9,6.9c2.7,1.7,7.1,1.6,8.5-1.3"/>
	
		<path opacity="3.000000e-02" clip-path="url(#SVGID_2_)" fill="none" stroke="#7F258A" stroke-width="22.6772" stroke-miterlimit="10" d="
		M436.2,357.5c-10,2.9-20.9,1.4-30.7-2.3s-18.6-9.4-27.4-15.1c-7.6-4.9-15.3-9.9-21-16.9c-6.2-7.7-9.5-17.2-11.7-26.8
		c-3.5-15.7-4.2-32.3,0.4-47.6c6.7-21.8,24.2-39.6,45.3-48.1c21.1-8.5,45.4-7.9,66.8-0.1c21.5,7.9,40.5,23.6,50.5,44.2
		s10.4,46.1-0.9,66.1c-7.4,13.1-19.4,23.3-32.4,30.9c-13.1,7.6-27.3,12.8-41.5,17.9"/>
	
		<path opacity="3.000000e-02" clip-path="url(#SVGID_2_)" fill="none" stroke="#0C6F38" stroke-width="22.6772" stroke-miterlimit="10" d="
		M411.2,343.7c-21.4-3.4-42.4-12.8-56.9-28.9c-15.4-17.2-22.4-41.2-19.9-64.1s14.1-44.5,30.9-60.2c12.8-12,29-20.9,46.5-21.9
		c10.5-0.6,21.1,1.6,31.1,4.8c12.5,4,24.6,9.5,34.7,17.9c19.6,16.2,29.8,41.4,33.8,66.5c1.6,9.9,2.3,20,0.7,29.9
		c-3,18.1-13.7,34.3-27.4,46.6c-9.8,8.8-21.4,15.9-34.2,18.5c-12.9,2.6-27.1,0.4-37.3-7.8c-2.1-1.7-5.3-3.5-7.1-1.5"/>
	
		<path opacity="3.000000e-02" clip-path="url(#SVGID_2_)" fill="none" stroke="#F9E8A0" stroke-width="22.6772" stroke-miterlimit="10" d="
		M445.8,364.2c-18,1.2-36.4-3.6-51.6-13.5c-18.7-12.2-32.2-32.1-37.5-53.8c-5.3-21.8-2.6-45.2,6.8-65.6c3.8-8.3,8.7-16.2,15.2-22.6
		c5.6-5.5,12.2-9.9,19.2-13.4c26.4-13.3,59.4-13.8,85.3,0.4c26,14.2,43.5,43.4,42.1,72.9c-0.9,17.6-8,34.3-15.8,50.2
		c-5.5,11.1-12.1,22.9-23.5,27.8c-9.9,4.3-22.5,2.9-30.4,10.2c-2.4,2.3-4.2,5.3-7,7c-2.8,1.8-7.3,1.7-8.7-1.4"/>
	
		<path opacity="3.000000e-02" clip-path="url(#SVGID_2_)" fill="none" stroke="#BBDFC9" stroke-width="22.6772" stroke-miterlimit="10" d="
		M434.8,372.2c-15.2,0-30.1-5.5-43-13.6c-32.3-20.4-52.5-60.3-45.4-97.8c7.1-37.5,43.8-68.4,81.9-64.8c15.6,1.5,30.4,8.1,43.6,16.7
		c23.6,15.4,43.4,38.7,48.5,66.5c4.5,24.4-3.4,50.8-20.6,68.7c-17.1,18-43.1,27-67.7,23.7"/>
	
		<path opacity="3.000000e-02" clip-path="url(#SVGID_2_)" fill="none" stroke="#5BB757" stroke-width="22.6772" stroke-miterlimit="10" d="
		M375.7,391.1c7,3.2,14.9,3.9,22.6,4.2c16.7,0.6,33.5-0.7,49.9-3.8c8.5-1.6,16.9-3.7,24.6-7.6c8.8-4.4,16.4-10.8,23.5-17.6
		c13.2-12.7,25-27.2,33-43.7c5.3-10.9,8.9-22.8,9-35c0.1-10.5-2.4-20.9-5.7-30.9c-13.5-40.8-42.5-78.6-83.2-92.3
		c-9.7-3.2-19.9-5.1-30.2-4.6c-12.2,0.6-24.1,4.5-35.1,9.7c-43.9,21-75.3,66-79.9,114.4c-1,10.6-0.8,21.5,1.5,31.9
		c2.8,12.9,8.7,24.9,15.6,36.1c6.5,10.5,14.2,20.6,24,28.1s22.3,12.2,34.6,11.1"/>
	
		<path opacity="3.000000e-02" clip-path="url(#SVGID_2_)" fill="none" stroke="#F5BC31" stroke-width="22.6772" stroke-miterlimit="10" d="
		M466.2,391.1c-7,3.2-14.9,3.9-22.6,4.2c-16.7,0.6-33.5-0.7-49.9-3.8c-8.5-1.6-16.9-3.7-24.6-7.6c-8.8-4.4-16.4-10.8-23.5-17.6
		c-13.2-12.7-25-27.2-33-43.7c-5.3-10.9-8.9-22.8-9-35c-0.1-10.5,2.4-20.9,5.7-30.9c13.5-40.8,42.5-78.6,83.2-92.3
		c9.7-3.2,19.9-5.1,30.2-4.6c12.2,0.6,24.1,4.5,35.1,9.7c43.9,21,75.3,66,79.9,114.4c1,10.6,0.8,21.5-1.5,31.9
		c-2.8,12.9-8.7,24.9-15.6,36.1c-6.5,10.5-14.2,20.6-24,28.1c-9.9,7.5-22.3,12.2-34.6,11.1"/>
	
		<path opacity="3.000000e-02" clip-path="url(#SVGID_2_)" fill="none" stroke="#841B20" stroke-width="22.6772" stroke-miterlimit="10" d="
		M422.3,392.7c19.1-0.1,37.8-6.8,54-17c40.6-25.6,65.9-75.7,57-122.8c-8.9-47.1-55-85.8-102.8-81.4c-19.6,1.8-38.2,10.1-54.7,20.9
		c-29.6,19.4-54.5,48.6-60.9,83.5c-5.6,30.7,4.3,63.7,25.8,86.3s54.1,34,85,29.8"/>
	
		<path opacity="3.000000e-02" clip-path="url(#SVGID_2_)" fill="none" stroke="#F9E8A0" stroke-width="22.6772" stroke-miterlimit="10" d="
		M445.2,364.1c-18.1,1.2-36.6-3.7-51.9-13.6c-18.9-12.3-32.4-32.3-37.7-54.1c-5.3-21.9-2.6-45.5,6.8-65.9
		c3.8-8.4,8.8-16.3,15.3-22.7c5.6-5.6,12.3-9.9,19.3-13.5c26.6-13.3,59.7-13.9,85.8,0.4c26.1,14.3,43.8,43.6,42.3,73.3
		c-0.9,17.7-8.1,34.5-15.9,50.5c-5.5,11.2-12.2,23-23.6,27.9c-10,4.3-22.6,2.9-30.6,10.3c-2.4,2.3-4.3,5.3-7.1,7.1
		c-2.8,1.8-7.4,1.7-8.8-1.4"/>
	
		<path opacity="3.000000e-02" clip-path="url(#SVGID_2_)" fill="none" stroke="#E8468C" stroke-width="22.6772" stroke-miterlimit="10" d="
		M362.9,280.9c1.5,21.7,9,43.4,23.9,59.3c15.7,16.8,39.1,25.9,62.1,25.4c23-0.5,45.5-10.2,62.7-25.5c13-11.7,23.3-27.1,25.9-44.4
		c1.5-10.4,0.2-21.1-2.1-31.4c-2.9-12.8-7.4-25.3-14.8-36.1c-14.4-20.9-38.6-33.3-63.3-39.5c-9.7-2.4-19.7-4-29.7-3.3
		c-18.3,1.4-35.4,10.7-48.8,23.3c-9.6,9-17.7,19.9-21.4,32.5s-2.7,26.9,4.5,37.9c1.5,2.2,3.1,5.6,0.9,7.2"/>
	
		<path opacity="3.000000e-02" clip-path="url(#SVGID_2_)" fill="none" stroke="#327EC2" stroke-width="22.6772" stroke-miterlimit="10" d="
		M419.2,384.7c20.1,1.3,40.6-4.1,57.5-15.1c20.9-13.6,35.9-35.8,41.8-60s2.8-50.4-7.5-73.1c-4.2-9.3-9.7-18-17-25.2
		c-6.2-6.2-13.6-11-21.4-14.9c-29.5-14.8-66.2-15.4-95.1,0.4s-48.5,48.3-46.9,81.2c1,19.7,8.9,38.3,17.6,55.9
		c6.1,12.4,13.5,25.5,26.2,31c11.1,4.8,25.1,3.2,33.9,11.4c2.7,2.5,4.7,5.9,7.9,7.9c3.1,2,8.2,1.9,9.7-1.5"/>
	
		<path opacity="3.000000e-02" clip-path="url(#SVGID_2_)" fill="none" stroke="#8B4395" stroke-width="22.6772" stroke-miterlimit="10" d="
		M340.2,266c-1.4,16.2,3,32.6,10.5,47.1c18.7,36.3,59.4,61.6,100,57.5s76.9-40.3,76.7-81.2c-0.1-16.8-5.8-33.2-13.7-48
		c-14.2-26.6-37.2-49.9-66.3-57.9c-25.6-7-54.4-1.1-75.1,15.5s-32.8,43.4-31.6,69.9"/>
	
		<path opacity="3.000000e-02" clip-path="url(#SVGID_2_)" fill="none" stroke="#8B4395" stroke-width="22.6772" stroke-miterlimit="10" d="
		M351.1,273c-1.3,15.3,2.8,30.7,9.9,44.4c17.6,34.2,55.9,58,94.2,54.2c38.3-3.8,72.5-38,72.3-76.5c-0.1-15.8-5.4-31.2-12.9-45.2
		c-13.4-25.1-35.1-47-62.5-54.5c-24.1-6.6-51.3-1-70.8,14.6c-19.5,15.6-30.9,40.9-29.8,65.9"/>
	
		<path opacity="3.000000e-02" clip-path="url(#SVGID_2_)" fill="none" stroke="#001116" stroke-width="22.6772" stroke-miterlimit="10" d="
		M356.5,256.7c-5.4,24.1,1.7,50.7,18.5,68.8c16.8,18.1,42.8,27.2,67.3,23.6c8.1-1.2,16-3.7,23.4-7.1c10.9-5,21.1-12.2,28.2-22
		c5.8-8,9.3-17.6,11.1-27.4c4.9-27.2-4.2-56.7-24.3-75.6s-50.7-26.3-76.9-17.7c-26.2,8.6-46.8,33.1-49.7,60.6"/>
	
		<path opacity="3.000000e-02" clip-path="url(#SVGID_2_)" fill="none" stroke="#F6BDB6" stroke-width="22.6772" stroke-miterlimit="10" d="
		M351.3,254.8c-3.8,9.7-3.2,20.7-0.4,30.8c2.8,10.1,7.7,19.4,12.6,28.6c4.2,8,8.6,16.1,15.1,22.3c7.1,6.8,16.3,11,25.7,14
		c15.3,4.9,31.8,7,47.5,3.7c22.3-4.7,41.5-20.6,51.8-41c10.3-20.3,11.9-44.6,5.9-66.5c-6-22.1-19.9-42.4-39.6-54.1
		c-19.6-11.8-45.1-14.4-65.9-4.8c-13.7,6.3-24.9,17.2-33.6,29.6c-8.7,12.4-15.1,26.1-21.5,39.8"/>
	
		<path opacity="3.000000e-02" clip-path="url(#SVGID_2_)" fill="none" stroke="#CFD7D4" stroke-width="22.6772" stroke-miterlimit="10" d="
		M364.6,261.4c5.3-21.1,16.4-41.2,33.8-54.2c18.4-13.8,43-18.7,65.6-14.2s43.1,17.9,57.3,36c10.8,13.8,18.3,30.8,17.8,48.2
		c-0.3,10.6-3.5,20.8-7.5,30.6c-5,12.1-11.6,23.7-20.8,33C493,359,467,367,441.6,368.7c-10,0.7-20.1,0.5-29.8-1.9
		c-17.8-4.5-33-16.7-44-31.4c-7.9-10.5-14-22.7-15.5-35.7c-1.5-13,2-27,11-36.5c1.9-1.9,4-5,2.1-6.9"/>
	
		<path opacity="3.000000e-02" clip-path="url(#SVGID_2_)" fill="none" stroke="#F6BDB6" stroke-width="22.6772" stroke-miterlimit="10" d="
		M351.3,254.8c-3.8,9.7-3.2,20.7-0.4,30.8c2.8,10.1,7.7,19.4,12.6,28.6c4.2,8,8.6,16.1,15.1,22.3c7.1,6.8,16.3,11,25.7,14
		c15.3,4.9,31.8,7,47.5,3.7c22.3-4.7,41.5-20.6,51.8-41c10.3-20.3,11.9-44.6,5.9-66.5c-6-22.1-19.9-42.4-39.6-54.1
		c-19.6-11.8-45.1-14.4-65.9-4.8c-13.7,6.3-24.9,17.2-33.6,29.6c-8.7,12.4-15.1,26.1-21.5,39.8"/>
	
		<path opacity="3.000000e-02" clip-path="url(#SVGID_2_)" fill="none" stroke="#3EBDDF" stroke-width="22.6772" stroke-miterlimit="10" d="
		M354.1,284.2c-1.2-24.7,10.5-49.7,30.2-64.6c19.7-14.9,46.9-19.4,70.4-11.6c7.8,2.6,15.1,6.4,21.8,11.1
		c9.9,6.9,18.7,15.7,23.9,26.6c4.3,8.9,6.1,19,6.2,28.9c0.1,27.6-14,55.1-37.1,70.3c-23.1,15.2-54.5,17.1-78.8,4.1
		c-24.4-13-40.3-40.7-38.5-68.3"/>
	
		<path opacity="3.000000e-02" clip-path="url(#SVGID_2_)" fill="none" stroke="#FFFFFF" stroke-width="22.6772" stroke-miterlimit="10" d="
		M342.7,265.6c0.8-27.8,12.3-55.2,32.2-74.7c19.8-19.4,47.9-30.4,75.7-28.8c27.7,1.6,54.6,16.1,70.5,38.9c7.5,10.7,12.6,23,16,35.6
		c3.5,13,5.4,26.7,3.8,40.1c-3.5,28.7-23.4,54.2-49.2,67.4c-25.8,13.1-56.7,14.6-84.6,6.9c-25.7-7-51.2-24-57.6-49.9
		c-2.8-11.4-1.8-23.9-7.2-34.4"/>
	
		<path opacity="3.000000e-02" clip-path="url(#SVGID_2_)" fill="none" stroke="#001116" stroke-width="22.6772" stroke-miterlimit="10" d="
		M356.5,256.7c-5.4,24.1,1.7,50.7,18.5,68.8c16.8,18.1,42.8,27.2,67.3,23.6c8.1-1.2,16-3.7,23.4-7.1c10.9-5,21.1-12.2,28.2-22
		c5.8-8,9.3-17.6,11.1-27.4c4.9-27.2-4.2-56.7-24.3-75.6s-50.7-26.3-76.9-17.7c-26.2,8.6-46.8,33.1-49.7,60.6"/>
	<g opacity="3.000000e-02" clip-path="url(#SVGID_2_)">
		<path fill="none" stroke="#327EC2" stroke-width="22.6772" stroke-miterlimit="10" d="M357.9,257.6c-2.7,17.6,0.4,36.1,8.9,51.8
			c10.4,19.5,28.7,34.4,49.7,41.4c20.9,7.1,44.2,6.4,65-1c8.5-3,16.6-7.2,23.5-13c5.9-5,10.8-11.1,14.8-17.7
			c15.3-24.8,18.6-57.1,6.9-83.8c-11.7-26.7-38.8-46.5-68-47.6c-17.4-0.6-34.4,4.9-50.7,11.2c-11.4,4.4-23.5,9.9-29.3,20.7
			c-5.1,9.4-4.7,21.9-12.7,29c-2.4,2.2-5.5,3.7-7.5,6.3c-2,2.6-2.3,7,0.6,8.7"/>
	</g>
</g>
<path display="none" fill="none" d="M420.9,1687.2c-69.5,0-126-56.5-126-126s56.5-126,126-126s126,56.5,126,126
	S490.4,1687.2,420.9,1687.2z M420.9,1476.9c-46.5,0-84.3,37.8-84.3,84.3c0,46.5,37.8,84.3,84.3,84.3c46.5,0,84.3-37.8,84.3-84.3
	C505.2,1514.7,467.4,1476.9,420.9,1476.9z"/>
</svg>
