<?xml version="1.0" encoding="utf-8"?>
<!-- Generator: Adobe Illustrator 20.0.0, SVG Export Plug-In . SVG Version: 6.00 Build 0)  -->
<svg version="1.1" id="レイヤー_1" xmlns="http://www.w3.org/2000/svg" xmlns:xlink="http://www.w3.org/1999/xlink" x="0px"
	 y="0px" width="438.5px" height="133px" viewBox="0 0 438.5 133" style="enable-background:new 0 0 438.5 133;"
	 xml:space="preserve">
<style type="text/css">
	.st0{fill:#D2E2E1;}
	.st1{fill:none;stroke:#FFFFFF;stroke-width:2;stroke-linecap:round;stroke-linejoin:round;}
	.st2{fill:#3E4142;}
	.st3{fill:none;stroke:#FFFFFF;stroke-width:3;stroke-linecap:round;stroke-linejoin:round;}
	.st4{fill:#7F979A;}
	.st5{fill:#819A9D;}
	.st6{fill:none;stroke:#FFFFFF;stroke-width:3;stroke-linecap:round;stroke-linejoin:round;stroke-miterlimit:10;}
	.st7{fill:none;stroke:#FFFFFF;stroke-width:3;}
	.st8{fill:#3D4142;}
	.st9{fill:#FFFFFF;}
	.st10{fill:none;stroke:#3E4142;stroke-miterlimit:10;}
</style>
<g>
	<polygon class="st0" points="422.2,59 335.2,59 335.2,0 329.2,0 329.2,59 282.2,59 282.2,0 267.2,0 267.2,59 204.2,59 204.2,0 
		199.2,0 199.2,59 157.2,59 157.2,0 148.2,0 148.2,59 125.2,59 125.2,0 116.2,0 116.2,59 90.2,59 90.2,0 75.2,0 75.2,61.7 17,120.6 
		27.8,132.2 87.4,74 148.2,74 148.2,133 157.2,133 157.2,74 267.2,74 267.2,127 282.2,127 282.2,74 347.2,74 347.2,127 355.2,127 
		355.2,74 422.2,74 	"/>
	<rect x="164.2" y="75" class="st0" width="14" height="14"/>
	<rect x="253.2" y="42" class="st0" width="14" height="14"/>
	<rect x="221.2" y="26" class="st0" width="25" height="30"/>
	<rect x="389.2" y="42" class="st0" width="12" height="14"/>
	<g>
		<g>
			<path class="st1" d="M320.5,35c-0.1,0.1-0.1,0.1-0.2,0.5c-0.5,1.4-1.3,2.8-2.2,3.7c-0.3-0.3-0.5-0.5-0.9-0.7c0.6-0.5,1-1,1.4-1.8
				c0.3-0.5,0.5-1,0.7-1.6c0-0.1,0.1-0.2,0.1-0.4L320.5,35z M320.8,32.2c0-0.3,0-0.5-0.1-0.8h1.1c0,0.3-0.1,0.5-0.1,0.8V33h2.2
				c0.4,0,0.8,0,1.2-0.1V34c-0.4,0-0.4,0-1.2-0.1h-5.3c-0.6,0-0.8,0-1.2,0.1v-1.1c0.3,0,0.8,0.1,1.2,0.1h2L320.8,32.2L320.8,32.2z
				 M323,34.6c0.1,0.4,0.2,0.7,0.5,1.4c0.4,1,1,1.8,1.7,2.5c-0.3,0.2-0.5,0.4-0.9,0.7c-1-1.1-1.7-2.3-2.2-3.9
				c-0.1-0.1-0.1-0.2-0.1-0.3L323,34.6z"/>
			<path class="st1" d="M327.5,33.7c-0.4,0-0.7,0-1,0.1v-1.1c0.3,0,0.6,0.1,1,0.1h2.2v-0.6c0-0.3,0-0.5-0.1-0.8h1.1
				c0,0.2-0.1,0.5-0.1,0.8v0.6h2.3c0.4,0,0.7,0,1-0.1v1.1c-0.4,0-0.7-0.1-1-0.1h-1.8c0.4,0.7,0.8,1.3,1.3,1.8
				c0.6,0.6,1.2,1.1,1.9,1.4c-0.3,0.3-0.4,0.5-0.6,0.9c-0.5-0.4-0.9-0.7-1.4-1.2v1c-0.3,0-0.5,0-0.9,0h-0.8v0.6c0,0.4,0,0.8,0.1,1.1
				h-1.1c0-0.3,0.1-0.7,0.1-1.1v-0.6H329c-0.4,0-0.6,0-0.9,0v-1c-0.5,0.5-0.8,0.8-1.4,1.2c-0.2-0.4-0.3-0.6-0.6-0.9
				c1.3-0.8,2.3-2,3-3.3H327.5z M329.7,35.3c0-0.3,0-0.6,0.1-1c-0.4,0.9-0.9,1.5-1.6,2.3c0.2,0,0.4,0,0.8,0h0.7L329.7,35.3
				L329.7,35.3z M331.5,36.7c0.4,0,0.5,0,0.8,0c-0.7-0.7-1-1.2-1.7-2.3c0.1,0.4,0.1,0.7,0.1,1v1.4H331.5z"/>
			<path class="st1" d="M339.9,33.9c0.7,1.4,1.8,2.5,3.3,3.3c-0.3,0.4-0.4,0.5-0.7,0.9c-0.8-0.5-1.2-0.9-1.7-1.4
				c-0.6-0.6-1-1.1-1.4-1.9c0,0.4,0.1,0.7,0.1,1v2.4c0,0.4,0,0.8,0.1,1.1h-1.1c0-0.3,0.1-0.7,0.1-1.1v-2.4c0-0.2,0-0.6,0-0.9
				c-0.6,1.3-1.6,2.3-2.9,3.3c-0.2-0.4-0.4-0.6-0.6-0.9c1.4-0.8,2.6-2.1,3.2-3.4h-1.9c-0.4,0-0.7,0-1,0.1v-1c0.3,0,0.6,0.1,1,0.1
				h2.2v-0.8c0-0.3,0-0.5-0.1-0.8h1.1c0,0.2-0.1,0.5-0.1,0.8V33h2.3c0.4,0,0.8,0,1-0.1v1c-0.3,0-0.7-0.1-1-0.1H339.9z"/>
			<path class="st1" d="M346,37.9c0.3-1,0.5-1.6,0.8-2.7H346c-0.3,0-0.6,0-0.9,0v-1c0.2,0,0.6,0,0.9,0h0.9c0.2-0.9,0.2-1.2,0.3-1.7
				h-1.4c-0.5,0-0.8,0-1.1,0.1v-1c0.3,0,0.6,0.1,1.1,0.1h4.7c0.5,0,0.7,0,1.1-0.1v1c-0.3,0-0.6-0.1-1.1-0.1h-2.3
				c-0.1,0.7-0.1,0.9-0.3,1.7h1.6c0.4,0,0.7,0,1,0c0,0.3,0,0.6,0,1v2.6h0.4c0.5,0,0.7,0,1-0.1v1c-0.4,0-0.6-0.1-1.1-0.1h-5.5
				c-0.4,0-0.7,0-1.1,0.1v-1c0.3,0,0.6,0.1,1.1,0.1H346z M349.6,37.9v-2.7h-1.8c-0.2,1-0.4,1.9-0.7,2.7H349.6z"/>
			<path class="st1" d="M354.3,32.7c-0.4,0-0.7,0-1.1,0.1v-1.1c0.3,0,0.6,0.1,1.1,0.1h5.5c0.4,0,0.7,0,1.1-0.1v1.1
				c-0.4,0-0.7-0.1-1.1-0.1h-2.1v5.4c0,0.4-0.1,0.7-0.4,0.8c-0.2,0.1-0.5,0.2-1.2,0.2c-0.3,0-0.7,0-1-0.1c0-0.4-0.1-0.5-0.2-1
				c0.4,0.1,0.9,0.1,1.2,0.1c0.5,0,0.5,0,0.5-0.2v-5.2C356.7,32.7,354.3,32.7,354.3,32.7z"/>
			<path class="st1" d="M368,31.7c0.4,0,0.7,0,0.9,0c0,0.3,0,0.6,0,0.9v5.6c0,0.4,0,0.7,0.1,1h-1v-0.5h-4v0.5h-1
				c0-0.3,0.1-0.6,0.1-1v-5.7c0-0.3,0-0.6,0-0.9c0.3,0,0.6,0,1,0C363.8,31.7,368,31.7,368,31.7z M367.9,33.7v-1.1h-4v1.1H367.9z
				 M363.9,35.7h4v-1.1h-4V35.7z M363.9,37.8h4v-1.2h-4V37.8z"/>
			<path class="st1" d="M374,33.4c0,0,0,0.1-0.1,0.2c-0.1,0.2-0.1,0.3-0.2,0.8c-0.3,1.2-0.7,2.3-1.4,3.2c-0.3,0.4-0.4,0.5-0.6,0.5
				c0,0-0.1,0-0.1-0.1c-0.3-0.2-0.5-0.3-0.9-0.3c0.8-0.7,1.4-1.9,1.8-3.2c0.1-0.5,0.2-0.9,0.2-1.3c0,0,0-0.1,0-0.2
				C373.5,33.1,374,33.3,374,33.4z M377.4,37.9c-0.5-1.6-1.1-3.1-1.9-4.2c-0.1-0.2-0.1-0.2-0.1-0.2c0-0.1,0.1-0.1,0.3-0.3
				c0.3-0.2,0.4-0.2,0.5-0.2c0.1,0,0.1,0,0.5,0.6c0.4,0.6,0.8,1.4,1.3,2.6c0.3,0.8,0.5,1.3,0.5,1.5c0,0.1,0,0.1-0.3,0.2
				c-0.2,0.1-0.6,0.2-0.6,0.2C377.4,38,377.4,38,377.4,37.9z M377.3,33.4c-0.2-0.4-0.4-0.6-0.7-0.9c0-0.1-0.1-0.1-0.1-0.1
				c0-0.1,0.1-0.1,0.2-0.2c0.1-0.1,0.2-0.1,0.2-0.1c0.1,0,0.2,0.1,0.4,0.3c0.3,0.3,0.5,0.6,0.5,0.7
				C377.9,33.2,377.5,33.5,377.3,33.4C377.4,33.5,377.4,33.5,377.3,33.4z M378.6,32.8c-0.1,0.1-0.2,0.1-0.2,0.1c0,0,0,0-0.1-0.1
				c-0.2-0.4-0.4-0.6-0.7-0.9c0,0,0-0.1,0-0.1c0-0.1,0.4-0.3,0.5-0.3c0.1,0,0.2,0.1,0.4,0.3c0.3,0.3,0.5,0.6,0.5,0.7
				C378.8,32.6,378.8,32.6,378.6,32.8z"/>
			<path class="st1" d="M386.3,37c0.6,0.5,0.9,0.9,0.9,1c0,0.1-0.1,0.2-0.4,0.5c-0.2,0.2-0.3,0.3-0.4,0.3c0,0-0.1,0-0.1-0.1
				c-0.1-0.1-0.1-0.1-0.5-0.6c-0.5-0.6-1.2-1.1-1.9-1.7c-0.6,0.6-1.4,1.3-2,1.7c-0.5,0.3-1,0.6-1.1,0.6c-0.1,0-0.1,0-0.3-0.2
				c-0.1-0.1-0.3-0.3-0.6-0.5c1-0.5,1.8-1,2.6-1.8c0.9-0.8,1.5-1.6,2.2-2.8c-3,0-3,0-3.5,0.1c-0.1,0-0.1,0-0.1,0
				c-0.1,0-0.2,0-0.2-0.1c0-0.3-0.1-0.6-0.1-1c0.6,0.1,1.5,0.1,2.8,0.1c0.5,0,1.1,0,1.4-0.1c0.1,0,0.1,0,0.3-0.1c0,0,0.1,0,0.1,0
				c0.2,0,0.3,0.1,0.5,0.4c0.2,0.2,0.3,0.4,0.3,0.5c0,0.1,0,0.1-0.3,0.4c-0.1,0.1-0.2,0.2-0.5,0.7c-0.3,0.4-0.7,1-1,1.4
				C385.3,36.1,385.7,36.4,386.3,37z"/>
			<path class="st1" d="M389.6,35.8c0-0.3,0-0.5,0-1c-0.3,0.4-0.4,0.7-0.6,1c-0.1-0.4-0.2-0.7-0.4-1c0.4-0.5,0.8-1,1.1-1.6
				c0.3-0.6,0.5-1.4,0.6-1.8l1,0.2c-0.4,1.1-0.5,1.5-0.7,1.9v4.8c0,0.4,0,0.6,0,1h-1c0-0.3,0.1-0.6,0.1-1L389.6,35.8L389.6,35.8z
				 M392.3,37.2c-0.4,0-0.6,0-0.8,0v-0.5h-0.6c0-0.2,0-0.3,0-0.6v-0.4c0-0.2,0-0.4,0-0.6c0.2,0,0.4,0,0.8,0h4.1c0.4,0,0.6,0,0.9,0
				c0,0.2,0,0.3,0,0.6v0.4c0,0.2,0,0.4,0,0.6H396v0.5c-0.2,0-0.5,0-0.8,0h-0.9v1.1c0,0.7-0.2,0.8-1.3,0.8c-0.2,0-0.4,0-0.7,0
				c0-0.3-0.1-0.6-0.2-0.9c0.3,0.1,0.7,0.1,1,0.1s0.3,0,0.3-0.2v-0.9C393.3,37.2,392.3,37.2,392.3,37.2z M393.2,31.9
				c0-0.2,0-0.4,0-0.5h1c0,0.2,0,0.3,0,0.5V32h1.4c0.4,0,0.7,0,0.9-0.1v0.9c-0.3,0-0.5,0-0.8,0h-3.8c-0.3,0-0.5,0-0.8,0v-0.9
				c0.2,0,0.5,0,0.9,0h1.3L393.2,31.9L393.2,31.9z M391.5,33.7c0-0.2,0-0.4,0-0.6c0.2,0,0.5,0,0.8,0h2.8c0.3,0,0.6,0,0.8,0
				c0,0.2,0,0.3,0,0.6v0.7c0,0.2,0,0.4,0,0.6c-0.2,0-0.4,0-0.8,0h-2.7c-0.3,0-0.6,0-0.8,0c0-0.2,0-0.3,0-0.6V33.7z M395.6,36h-3.9
				v0.4c0.2,0,0.3,0,0.5,0h2.9c0.2,0,0.3,0,0.5,0L395.6,36L395.6,36z M392.4,34.2h2.6v-0.4h-2.6V34.2z"/>
		</g>
		<g>
			<path class="st2" d="M320.5,35c-0.1,0.1-0.1,0.1-0.2,0.5c-0.5,1.4-1.3,2.8-2.2,3.7c-0.3-0.3-0.5-0.5-0.9-0.7c0.6-0.5,1-1,1.4-1.8
				c0.3-0.5,0.5-1,0.7-1.6c0-0.1,0.1-0.2,0.1-0.4L320.5,35z M320.8,32.2c0-0.3,0-0.5-0.1-0.8h1.1c0,0.3-0.1,0.5-0.1,0.8V33h2.2
				c0.4,0,0.8,0,1.2-0.1V34c-0.4,0-0.4,0-1.2-0.1h-5.3c-0.6,0-0.8,0-1.2,0.1v-1.1c0.3,0,0.8,0.1,1.2,0.1h2L320.8,32.2L320.8,32.2z
				 M323,34.6c0.1,0.4,0.2,0.7,0.5,1.4c0.4,1,1,1.8,1.7,2.5c-0.3,0.2-0.5,0.4-0.9,0.7c-1-1.1-1.7-2.3-2.2-3.9
				c-0.1-0.1-0.1-0.2-0.1-0.3L323,34.6z"/>
			<path class="st2" d="M327.5,33.7c-0.4,0-0.7,0-1,0.1v-1.1c0.3,0,0.6,0.1,1,0.1h2.2v-0.6c0-0.3,0-0.5-0.1-0.8h1.1
				c0,0.2-0.1,0.5-0.1,0.8v0.6h2.3c0.4,0,0.7,0,1-0.1v1.1c-0.4,0-0.7-0.1-1-0.1h-1.8c0.4,0.7,0.8,1.3,1.3,1.8
				c0.6,0.6,1.2,1.1,1.9,1.4c-0.3,0.3-0.4,0.5-0.6,0.9c-0.5-0.4-0.9-0.7-1.4-1.2v1c-0.3,0-0.5,0-0.9,0h-0.8v0.6c0,0.4,0,0.8,0.1,1.1
				h-1.1c0-0.3,0.1-0.7,0.1-1.1v-0.6H329c-0.4,0-0.6,0-0.9,0v-1c-0.5,0.5-0.8,0.8-1.4,1.2c-0.2-0.4-0.3-0.6-0.6-0.9
				c1.3-0.8,2.3-2,3-3.3H327.5z M329.7,35.3c0-0.3,0-0.6,0.1-1c-0.4,0.9-0.9,1.5-1.6,2.3c0.2,0,0.4,0,0.8,0h0.7L329.7,35.3
				L329.7,35.3z M331.5,36.7c0.4,0,0.5,0,0.8,0c-0.7-0.7-1-1.2-1.7-2.3c0.1,0.4,0.1,0.7,0.1,1v1.4H331.5z"/>
			<path class="st2" d="M339.9,33.9c0.7,1.4,1.8,2.5,3.3,3.3c-0.3,0.4-0.4,0.5-0.7,0.9c-0.8-0.5-1.2-0.9-1.7-1.4
				c-0.6-0.6-1-1.1-1.4-1.9c0,0.4,0.1,0.7,0.1,1v2.4c0,0.4,0,0.8,0.1,1.1h-1.1c0-0.3,0.1-0.7,0.1-1.1v-2.4c0-0.2,0-0.6,0-0.9
				c-0.6,1.3-1.6,2.3-2.9,3.3c-0.2-0.4-0.4-0.6-0.6-0.9c1.4-0.8,2.6-2.1,3.2-3.4h-1.9c-0.4,0-0.7,0-1,0.1v-1c0.3,0,0.6,0.1,1,0.1
				h2.2v-0.8c0-0.3,0-0.5-0.1-0.8h1.1c0,0.2-0.1,0.5-0.1,0.8V33h2.3c0.4,0,0.8,0,1-0.1v1c-0.3,0-0.7-0.1-1-0.1H339.9z"/>
			<path class="st2" d="M346,37.9c0.3-1,0.5-1.6,0.8-2.7H346c-0.3,0-0.6,0-0.9,0v-1c0.2,0,0.6,0,0.9,0h0.9c0.2-0.9,0.2-1.2,0.3-1.7
				h-1.4c-0.5,0-0.8,0-1.1,0.1v-1c0.3,0,0.6,0.1,1.1,0.1h4.7c0.5,0,0.7,0,1.1-0.1v1c-0.3,0-0.6-0.1-1.1-0.1h-2.3
				c-0.1,0.7-0.1,0.9-0.3,1.7h1.6c0.4,0,0.7,0,1,0c0,0.3,0,0.6,0,1v2.6h0.4c0.5,0,0.7,0,1-0.1v1c-0.4,0-0.6-0.1-1.1-0.1h-5.5
				c-0.4,0-0.7,0-1.1,0.1v-1c0.3,0,0.6,0.1,1.1,0.1H346z M349.6,37.9v-2.7h-1.8c-0.2,1-0.4,1.9-0.7,2.7H349.6z"/>
			<path class="st2" d="M354.3,32.7c-0.4,0-0.7,0-1.1,0.1v-1.1c0.3,0,0.6,0.1,1.1,0.1h5.5c0.4,0,0.7,0,1.1-0.1v1.1
				c-0.4,0-0.7-0.1-1.1-0.1h-2.1v5.4c0,0.4-0.1,0.7-0.4,0.8c-0.2,0.1-0.5,0.2-1.2,0.2c-0.3,0-0.7,0-1-0.1c0-0.4-0.1-0.5-0.2-1
				c0.4,0.1,0.9,0.1,1.2,0.1c0.5,0,0.5,0,0.5-0.2v-5.2C356.7,32.7,354.3,32.7,354.3,32.7z"/>
			<path class="st2" d="M368,31.7c0.4,0,0.7,0,0.9,0c0,0.3,0,0.6,0,0.9v5.6c0,0.4,0,0.7,0.1,1h-1v-0.5h-4v0.5h-1
				c0-0.3,0.1-0.6,0.1-1v-5.7c0-0.3,0-0.6,0-0.9c0.3,0,0.6,0,1,0C363.8,31.7,368,31.7,368,31.7z M367.9,33.7v-1.1h-4v1.1H367.9z
				 M363.9,35.7h4v-1.1h-4V35.7z M363.9,37.8h4v-1.2h-4V37.8z"/>
			<path class="st2" d="M374,33.4c0,0,0,0.1-0.1,0.2c-0.1,0.2-0.1,0.3-0.2,0.8c-0.3,1.2-0.7,2.3-1.4,3.2c-0.3,0.4-0.4,0.5-0.6,0.5
				c0,0-0.1,0-0.1-0.1c-0.3-0.2-0.5-0.3-0.9-0.3c0.8-0.7,1.4-1.9,1.8-3.2c0.1-0.5,0.2-0.9,0.2-1.3c0,0,0-0.1,0-0.2
				C373.5,33.1,374,33.3,374,33.4z M377.4,37.9c-0.5-1.6-1.1-3.1-1.9-4.2c-0.1-0.2-0.1-0.2-0.1-0.2c0-0.1,0.1-0.1,0.3-0.3
				c0.3-0.2,0.4-0.2,0.5-0.2c0.1,0,0.1,0,0.5,0.6c0.4,0.6,0.8,1.4,1.3,2.6c0.3,0.8,0.5,1.3,0.5,1.5c0,0.1,0,0.1-0.3,0.2
				c-0.2,0.1-0.6,0.2-0.6,0.2C377.4,38,377.4,38,377.4,37.9z M377.3,33.4c-0.2-0.4-0.4-0.6-0.7-0.9c0-0.1-0.1-0.1-0.1-0.1
				c0-0.1,0.1-0.1,0.2-0.2c0.1-0.1,0.2-0.1,0.2-0.1c0.1,0,0.2,0.1,0.4,0.3c0.3,0.3,0.5,0.6,0.5,0.7
				C377.9,33.2,377.5,33.5,377.3,33.4C377.4,33.5,377.4,33.5,377.3,33.4z M378.6,32.8c-0.1,0.1-0.2,0.1-0.2,0.1c0,0,0,0-0.1-0.1
				c-0.2-0.4-0.4-0.6-0.7-0.9c0,0,0-0.1,0-0.1c0-0.1,0.4-0.3,0.5-0.3c0.1,0,0.2,0.1,0.4,0.3c0.3,0.3,0.5,0.6,0.5,0.7
				C378.8,32.6,378.8,32.6,378.6,32.8z"/>
			<path class="st2" d="M386.3,37c0.6,0.5,0.9,0.9,0.9,1c0,0.1-0.1,0.2-0.4,0.5c-0.2,0.2-0.3,0.3-0.4,0.3c0,0-0.1,0-0.1-0.1
				c-0.1-0.1-0.1-0.1-0.5-0.6c-0.5-0.6-1.2-1.1-1.9-1.7c-0.6,0.6-1.4,1.3-2,1.7c-0.5,0.3-1,0.6-1.1,0.6c-0.1,0-0.1,0-0.3-0.2
				c-0.1-0.1-0.3-0.3-0.6-0.5c1-0.5,1.8-1,2.6-1.8c0.9-0.8,1.5-1.6,2.2-2.8c-3,0-3,0-3.5,0.1c-0.1,0-0.1,0-0.1,0
				c-0.1,0-0.2,0-0.2-0.1c0-0.3-0.1-0.6-0.1-1c0.6,0.1,1.5,0.1,2.8,0.1c0.5,0,1.1,0,1.4-0.1c0.1,0,0.1,0,0.3-0.1c0,0,0.1,0,0.1,0
				c0.2,0,0.3,0.1,0.5,0.4c0.2,0.2,0.3,0.4,0.3,0.5c0,0.1,0,0.1-0.3,0.4c-0.1,0.1-0.2,0.2-0.5,0.7c-0.3,0.4-0.7,1-1,1.4
				C385.3,36.1,385.7,36.4,386.3,37z"/>
			<path class="st2" d="M389.6,35.8c0-0.3,0-0.5,0-1c-0.3,0.4-0.4,0.7-0.6,1c-0.1-0.4-0.2-0.7-0.4-1c0.4-0.5,0.8-1,1.1-1.6
				c0.3-0.6,0.5-1.4,0.6-1.8l1,0.2c-0.4,1.1-0.5,1.5-0.7,1.9v4.8c0,0.4,0,0.6,0,1h-1c0-0.3,0.1-0.6,0.1-1L389.6,35.8L389.6,35.8z
				 M392.3,37.2c-0.4,0-0.6,0-0.8,0v-0.5h-0.6c0-0.2,0-0.3,0-0.6v-0.4c0-0.2,0-0.4,0-0.6c0.2,0,0.4,0,0.8,0h4.1c0.4,0,0.6,0,0.9,0
				c0,0.2,0,0.3,0,0.6v0.4c0,0.2,0,0.4,0,0.6H396v0.5c-0.2,0-0.5,0-0.8,0h-0.9v1.1c0,0.7-0.2,0.8-1.3,0.8c-0.2,0-0.4,0-0.7,0
				c0-0.3-0.1-0.6-0.2-0.9c0.3,0.1,0.7,0.1,1,0.1s0.3,0,0.3-0.2v-0.9C393.3,37.2,392.3,37.2,392.3,37.2z M393.2,31.9
				c0-0.2,0-0.4,0-0.5h1c0,0.2,0,0.3,0,0.5V32h1.4c0.4,0,0.7,0,0.9-0.1v0.9c-0.3,0-0.5,0-0.8,0h-3.8c-0.3,0-0.5,0-0.8,0v-0.9
				c0.2,0,0.5,0,0.9,0h1.3L393.2,31.9L393.2,31.9z M391.5,33.7c0-0.2,0-0.4,0-0.6c0.2,0,0.5,0,0.8,0h2.8c0.3,0,0.6,0,0.8,0
				c0,0.2,0,0.3,0,0.6v0.7c0,0.2,0,0.4,0,0.6c-0.2,0-0.4,0-0.8,0h-2.7c-0.3,0-0.6,0-0.8,0c0-0.2,0-0.3,0-0.6V33.7z M395.6,36h-3.9
				v0.4c0.2,0,0.3,0,0.5,0h2.9c0.2,0,0.3,0,0.5,0L395.6,36L395.6,36z M392.4,34.2h2.6v-0.4h-2.6V34.2z"/>
		</g>
	</g>
	<g>
		<g>
			<path class="st3" d="M406.5,50.5c0,0.1,0,0.2-0.1,0.2c-0.1,0-0.4,0.1-0.7,0.1c-0.3,0-0.3,0-0.3-0.2c0,0,0-0.1,0-0.3
				c0-0.5,0.1-3.3,0.1-4.5c0-0.2,0-0.7,0-0.9c0.8,0,2,0.1,3.3,0.1c1.1,0,1.9,0,2.5,0c0,0.4,0,1.8,0,2.9c0,0.7,0,1.5,0.1,2.6
				c0,0,0,0,0,0.1c0,0.1,0,0.2-0.1,0.2c-0.1,0-0.4,0.1-0.7,0.1c-0.3,0-0.4,0-0.4-0.2v-0.5h-3.6L406.5,50.5L406.5,50.5z M410.1,45.9
				c-1.3,0-1.5,0-1.9,0c-0.6,0-0.6,0-1.7,0V49h3.6L410.1,45.9L410.1,45.9z"/>
			<path class="st3" d="M416.9,47.1c1.6,0,2.6,0,3.5-0.1c0,0,0.1,0,0.1,0c0.3,0,0.3,0,0.3,0.7c0,0.4,0,0.4-0.2,0.4c0,0,0,0,0,0
				c-0.6,0-0.9,0-3.5,0c-0.9,0-1.4,0-2.2,0c-0.1,0-0.1,0-0.3,0c-0.3,0-0.3,0-0.5,0c0,0-0.1,0-0.1,0c-0.1,0-0.2,0-0.2-0.1
				c-0.1-0.2-0.1-0.7-0.1-1.1C414.4,47.1,415,47.1,416.9,47.1z"/>
			<path class="st3" d="M423.9,46.8c-0.3-0.6-0.6-1.1-0.9-1.5c0-0.1-0.1-0.1-0.1-0.1c0-0.1,0.2-0.2,0.4-0.4c0.2-0.1,0.4-0.2,0.4-0.2
				c0,0,0.1,0,0.2,0.1c0.5,0.6,1.2,1.8,1.2,2c0,0.1,0,0.1-0.2,0.2c-0.2,0.1-0.7,0.4-0.8,0.4C424.1,47.3,424.1,47.3,423.9,46.8z
				 M429.5,45.1c0,0,0,0.1-0.1,0.2c-0.1,0.2-0.2,0.3-0.3,0.7c-0.3,0.9-0.5,1.2-0.7,1.7c-0.6,1.1-1.3,2-2.2,2.8
				c-0.4,0.4-0.9,0.7-1,0.7c-0.1,0-0.1,0-0.3-0.2c-0.1-0.1-0.4-0.3-0.7-0.4c1.8-1,3-2.4,3.7-4.4c0.2-0.6,0.3-1.2,0.4-1.7
				C429.2,44.8,429.5,44.9,429.5,45.1z"/>
			<path class="st3" d="M438.4,46.4c0,0.1,0.1,0.2,0.1,0.2c0,0.1,0,0.2-0.2,0.3c-0.5,0.6-1,1.2-1.8,1.8c-0.9,0.7-1.6,1.2-2.7,1.7
				c-0.7,0.3-0.7,0.3-0.8,0.4c-0.1,0.1-0.1,0.1-0.2,0.1c-0.1,0-0.2-0.1-0.3-0.3c-0.2-0.3-0.3-0.6-0.4-0.9c0.9-0.2,2-0.7,3-1.3
				c1.4-0.9,2.2-1.7,2.9-2.9C438.1,45.7,438.2,45.9,438.4,46.4z M432.5,44.9c0.2-0.2,0.2-0.2,0.3-0.2c0.2,0,0.8,0.4,1.4,0.9
				c0.3,0.3,0.4,0.4,0.4,0.5c0,0.1-0.2,0.3-0.4,0.5c-0.2,0.2-0.3,0.3-0.4,0.3c-0.1,0-0.1,0-0.4-0.3c-0.2-0.2-0.7-0.6-0.9-0.7
				c-0.3-0.2-0.3-0.2-0.4-0.2c0,0-0.1-0.1-0.1-0.1C432.1,45.4,432.3,45.1,432.5,44.9z"/>
		</g>
		<g>
			<path class="st4" d="M406.5,50.5c0,0.1,0,0.2-0.1,0.2c-0.1,0-0.4,0.1-0.7,0.1c-0.3,0-0.3,0-0.3-0.2c0,0,0-0.1,0-0.3
				c0-0.5,0.1-3.3,0.1-4.5c0-0.2,0-0.7,0-0.9c0.8,0,2,0.1,3.3,0.1c1.1,0,1.9,0,2.5,0c0,0.4,0,1.8,0,2.9c0,0.7,0,1.5,0.1,2.6
				c0,0,0,0,0,0.1c0,0.1,0,0.2-0.1,0.2c-0.1,0-0.4,0.1-0.7,0.1c-0.3,0-0.4,0-0.4-0.2v-0.5h-3.6L406.5,50.5L406.5,50.5z M410.1,45.9
				c-1.3,0-1.5,0-1.9,0c-0.6,0-0.6,0-1.7,0V49h3.6L410.1,45.9L410.1,45.9z"/>
			<path class="st4" d="M416.9,47.1c1.6,0,2.6,0,3.5-0.1c0,0,0.1,0,0.1,0c0.3,0,0.3,0,0.3,0.7c0,0.4,0,0.4-0.2,0.4c0,0,0,0,0,0
				c-0.6,0-0.9,0-3.5,0c-0.9,0-1.4,0-2.2,0c-0.1,0-0.1,0-0.3,0c-0.3,0-0.3,0-0.5,0c0,0-0.1,0-0.1,0c-0.1,0-0.2,0-0.2-0.1
				c-0.1-0.2-0.1-0.7-0.1-1.1C414.4,47.1,415,47.1,416.9,47.1z"/>
			<path class="st4" d="M423.9,46.8c-0.3-0.6-0.6-1.1-0.9-1.5c0-0.1-0.1-0.1-0.1-0.1c0-0.1,0.2-0.2,0.4-0.4c0.2-0.1,0.4-0.2,0.4-0.2
				c0,0,0.1,0,0.2,0.1c0.5,0.6,1.2,1.8,1.2,2c0,0.1,0,0.1-0.2,0.2c-0.2,0.1-0.7,0.4-0.8,0.4C424.1,47.3,424.1,47.3,423.9,46.8z
				 M429.5,45.1c0,0,0,0.1-0.1,0.2c-0.1,0.2-0.2,0.3-0.3,0.7c-0.3,0.9-0.5,1.2-0.7,1.7c-0.6,1.1-1.3,2-2.2,2.8
				c-0.4,0.4-0.9,0.7-1,0.7c-0.1,0-0.1,0-0.3-0.2c-0.1-0.1-0.4-0.3-0.7-0.4c1.8-1,3-2.4,3.7-4.4c0.2-0.6,0.3-1.2,0.4-1.7
				C429.2,44.8,429.5,44.9,429.5,45.1z"/>
			<path class="st4" d="M438.4,46.4c0,0.1,0.1,0.2,0.1,0.2c0,0.1,0,0.2-0.2,0.3c-0.5,0.6-1,1.2-1.8,1.8c-0.9,0.7-1.6,1.2-2.7,1.7
				c-0.7,0.3-0.7,0.3-0.8,0.4c-0.1,0.1-0.1,0.1-0.2,0.1c-0.1,0-0.2-0.1-0.3-0.3c-0.2-0.3-0.3-0.6-0.4-0.9c0.9-0.2,2-0.7,3-1.3
				c1.4-0.9,2.2-1.7,2.9-2.9C438.1,45.7,438.2,45.9,438.4,46.4z M432.5,44.9c0.2-0.2,0.2-0.2,0.3-0.2c0.2,0,0.8,0.4,1.4,0.9
				c0.3,0.3,0.4,0.4,0.4,0.5c0,0.1-0.2,0.3-0.4,0.5c-0.2,0.2-0.3,0.3-0.4,0.3c-0.1,0-0.1,0-0.4-0.3c-0.2-0.2-0.7-0.6-0.9-0.7
				c-0.3-0.2-0.3-0.2-0.4-0.2c0,0-0.1-0.1-0.1-0.1C432.1,45.4,432.3,45.1,432.5,44.9z"/>
		</g>
	</g>
	<g>
		<g>
			<path class="st3" d="M144.8,94.2c2.5-0.6,2.7-0.7,2.9-0.9c0.1-0.1,0.1-0.1,0.2-0.1c0.1,0,0.3,0.2,0.6,0.4
				c0.2,0.3,0.4,0.5,0.4,0.6c0,0.1,0,0.2-0.2,0.3c-0.1,0.1-0.1,0.1-0.6,0.7c-0.3,0.4-0.9,1-1.2,1.3c-0.1,0.1-0.2,0.1-0.2,0.1
				c-0.1,0-0.1,0-0.2-0.1c-0.2-0.2-0.4-0.3-0.7-0.5c0.8-0.5,1.4-1.2,1.6-1.7l-0.4,0.1c0,0-0.8,0.2-2.3,0.6v1.6
				c0,0.5,0.1,0.7,0.4,0.8c0.3,0.1,0.6,0.1,1.2,0.1c0.4,0,1.1,0,1.6-0.1c0.2,0,0.2,0,0.3,0c0.2,0,0.2,0.1,0.3,0.8c0,0,0,0,0,0
				c0,0,0,0,0,0c0,0.1,0,0.2-0.1,0.2c-0.1,0-0.7,0.1-1.6,0.1c-1.1,0-1.7-0.1-2.1-0.3c-0.5-0.2-0.8-0.7-0.8-1.4v-1.6
				c-1.1,0.3-1.2,0.3-1.5,0.5c-0.1,0-0.1,0-0.1,0c-0.2,0-0.3-0.4-0.5-1.1c0.6-0.1,1.3-0.2,2.1-0.4v-0.8c0-0.7,0-1.2-0.1-1.5
				c0.4,0,0.9,0.1,1.1,0.1c0.1,0,0.1,0.1,0.1,0.1c0,0.1,0,0.1-0.1,0.2c-0.1,0.1-0.1,0.4-0.1,0.9L144.8,94.2L144.8,94.2z"/>
			<path class="st3" d="M154,93.7c-1.6,0-2.7,0.1-3,0.1c0,0,0,0,0,0c-0.2,0-0.2-0.3-0.2-1.2c0.4,0.1,1,0.1,2.3,0.1
				c1.2,0,2.6,0,2.8-0.1c0.2,0,0.2,0,0.4-0.1c0,0,0.1,0,0.1,0c0.2,0,0.3,0.1,0.6,0.5c0.2,0.2,0.2,0.3,0.2,0.4c0,0.1,0,0.1-0.1,0.2
				c-0.1,0.1-0.1,0.1-0.3,0.8c-0.5,1.6-1.5,3-2.8,4c-0.5,0.4-1,0.7-1.2,0.7c-0.1,0-0.1,0-0.3-0.2c-0.2-0.2-0.4-0.4-0.7-0.5
				c1.3-0.7,2-1.2,2.7-2.1c0.6-0.8,1-1.6,1.2-2.6C155,93.7,155,93.7,154,93.7z M157.9,92.8c-0.2,0.2-0.3,0.2-0.4,0.2
				c-0.1,0-0.1,0-0.2-0.3c-0.1-0.2-0.4-0.5-0.6-0.7c0,0,0-0.1,0-0.1c0-0.1,0.3-0.3,0.4-0.3c0.1,0,0.2,0.1,0.4,0.4
				c0.2,0.3,0.4,0.5,0.4,0.6S158,92.7,157.9,92.8z M158.3,92.3c-0.2-0.4-0.4-0.6-0.7-0.9c0,0,0-0.1,0-0.1c0,0,0-0.1,0.2-0.2
				c0.1-0.1,0.2-0.1,0.2-0.1c0.1,0,0.3,0.2,0.6,0.6c0.1,0.2,0.2,0.3,0.2,0.3c0,0,0,0.1-0.1,0.2C158.6,92.4,158.4,92.4,158.3,92.3
				C158.3,92.4,158.3,92.4,158.3,92.3z"/>
			<path class="st3" d="M166.7,94.3c0,0.1,0.1,0.2,0.1,0.2c0,0.1,0,0.2-0.2,0.3c-0.5,0.6-1,1.2-1.8,1.8c-0.9,0.7-1.6,1.2-2.7,1.7
				c-0.7,0.3-0.7,0.3-0.8,0.4c-0.1,0.1-0.1,0.1-0.2,0.1c-0.1,0-0.2-0.1-0.3-0.3c-0.2-0.3-0.3-0.6-0.4-0.9c0.9-0.2,2-0.7,3-1.3
				c1.4-0.9,2.2-1.7,2.9-2.9C166.4,93.6,166.5,93.8,166.7,94.3z M160.8,92.8c0.2-0.2,0.2-0.2,0.3-0.2c0.2,0,0.8,0.4,1.4,0.9
				c0.3,0.3,0.4,0.4,0.4,0.5c0,0.1-0.2,0.3-0.4,0.5c-0.2,0.2-0.3,0.3-0.4,0.3c-0.1,0-0.1,0-0.4-0.3c-0.2-0.2-0.7-0.6-0.9-0.7
				c-0.3-0.2-0.3-0.2-0.4-0.2c0,0-0.1-0.1-0.1-0.1C160.4,93.3,160.6,93,160.8,92.8z"/>
			<path class="st3" d="M173,96.3c0,1.1,0,2,0.1,2.6c0,0,0,0.1,0,0.1c0,0.1,0,0.1-0.1,0.1c-0.1,0-0.5,0-0.8,0c-0.3,0-0.3,0-0.3-0.2
				c0,0,0,0,0,0c0-0.5,0.1-1.5,0.1-2.6v-1.2c-0.6,0.4-0.9,0.6-1.4,0.8c-0.6,0.3-1,0.5-1.1,0.5c-0.1,0-0.1,0-0.2-0.1
				c-0.3-0.3-0.4-0.4-0.7-0.7c1.1-0.4,1.8-0.7,2.6-1.2c1-0.6,2-1.5,2.6-2.2c0.1-0.1,0.2-0.2,0.3-0.4c0.6,0.4,1,0.7,1,0.9
				c0,0.1,0,0.1-0.1,0.1c-0.2,0.1-0.2,0.1-0.6,0.5c-0.4,0.3-0.8,0.7-1.1,0.9L173,96.3L173,96.3z"/>
			<path class="st3" d="M178.9,94c0-0.6,0-1-0.1-1.5c0.4,0,0.8,0.1,1.1,0.1c0.1,0,0.2,0.1,0.2,0.2c0,0,0,0.1,0,0.2
				c-0.1,0.3-0.1,0.3-0.1,4.3c1.3-0.4,2.1-0.8,3-1.5c0.5-0.4,0.9-0.7,1.3-1.1c0,0,0,0.1,0,0.1c0,0.3,0,0.6,0.1,1c0,0.1,0,0.1,0,0.1
				c0,0.2-0.1,0.3-0.6,0.7c-0.5,0.4-1.3,0.9-1.8,1.2c-0.5,0.2-0.9,0.4-1.6,0.7c-0.2,0.1-0.3,0.1-0.4,0.2c-0.1,0.1-0.1,0.1-0.2,0.1
				c-0.2,0-0.9-0.6-0.9-0.9c0,0,0-0.1,0-0.2c0-0.1,0-0.2,0-0.6L178.9,94L178.9,94z"/>
			<path class="st3" d="M189.7,93.7c-1.6,0-2.7,0.1-3,0.1c0,0,0,0,0,0c-0.2,0-0.2-0.3-0.2-1.2c0.4,0.1,1,0.1,2.3,0.1
				c1.2,0,2.6,0,2.8-0.1c0.2,0,0.2,0,0.4-0.1c0,0,0.1,0,0.1,0c0.2,0,0.3,0.1,0.6,0.5c0.2,0.2,0.2,0.3,0.2,0.4c0,0.1,0,0.1-0.1,0.2
				c-0.1,0.1-0.1,0.1-0.3,0.8c-0.5,1.6-1.5,3-2.8,4c-0.5,0.4-1,0.7-1.2,0.7c-0.1,0-0.1,0-0.3-0.2c-0.2-0.2-0.4-0.4-0.7-0.5
				c1.3-0.7,2-1.2,2.7-2.1c0.6-0.8,1-1.6,1.2-2.6C190.7,93.7,190.7,93.7,189.7,93.7z M193.5,92.8c-0.2,0.2-0.3,0.2-0.4,0.2
				c-0.1,0-0.1,0-0.2-0.3c-0.1-0.2-0.4-0.5-0.6-0.7c0,0,0-0.1,0-0.1c0-0.1,0.3-0.3,0.4-0.3c0.1,0,0.2,0.1,0.4,0.4
				c0.2,0.3,0.4,0.5,0.4,0.6S193.6,92.7,193.5,92.8z M193.9,92.3c-0.2-0.4-0.4-0.6-0.7-0.9c0,0,0-0.1,0-0.1c0,0,0-0.1,0.2-0.2
				c0.1-0.1,0.2-0.1,0.2-0.1c0.1,0,0.3,0.2,0.6,0.6c0.1,0.2,0.2,0.3,0.2,0.3c0,0,0,0.1-0.1,0.2C194.2,92.4,194.1,92.4,193.9,92.3
				C194,92.4,194,92.4,193.9,92.3z"/>
			<path class="st3" d="M202.4,94.3c0,0.1,0.1,0.2,0.1,0.2c0,0.1,0,0.2-0.2,0.3c-0.5,0.6-1,1.2-1.8,1.8c-0.9,0.7-1.6,1.2-2.7,1.7
				c-0.7,0.3-0.7,0.3-0.8,0.4c-0.1,0.1-0.1,0.1-0.2,0.1c-0.1,0-0.2-0.1-0.3-0.3c-0.2-0.3-0.3-0.6-0.4-0.9c0.9-0.2,2-0.7,3-1.3
				c1.4-0.9,2.2-1.7,2.9-2.9C202.1,93.6,202.2,93.8,202.4,94.3z M196.5,92.8c0.2-0.2,0.2-0.2,0.3-0.2c0.2,0,0.8,0.4,1.4,0.9
				c0.3,0.3,0.4,0.4,0.4,0.5c0,0.1-0.2,0.3-0.4,0.5c-0.2,0.2-0.3,0.3-0.4,0.3c-0.1,0-0.1,0-0.4-0.3c-0.2-0.2-0.7-0.6-0.9-0.7
				c-0.3-0.2-0.3-0.2-0.4-0.2c0,0-0.1-0.1-0.1-0.1C196.1,93.3,196.2,93,196.5,92.8z"/>
		</g>
		<g>
			<path class="st5" d="M144.8,94.2c2.5-0.6,2.7-0.7,2.9-0.9c0.1-0.1,0.1-0.1,0.2-0.1c0.1,0,0.3,0.2,0.6,0.4
				c0.2,0.3,0.4,0.5,0.4,0.6c0,0.1,0,0.2-0.2,0.3c-0.1,0.1-0.1,0.1-0.6,0.7c-0.3,0.4-0.9,1-1.2,1.3c-0.1,0.1-0.2,0.1-0.2,0.1
				c-0.1,0-0.1,0-0.2-0.1c-0.2-0.2-0.4-0.3-0.7-0.5c0.8-0.5,1.4-1.2,1.6-1.7l-0.4,0.1c0,0-0.8,0.2-2.3,0.6v1.6
				c0,0.5,0.1,0.7,0.4,0.8c0.3,0.1,0.6,0.1,1.2,0.1c0.4,0,1.1,0,1.6-0.1c0.2,0,0.2,0,0.3,0c0.2,0,0.2,0.1,0.3,0.8c0,0,0,0,0,0
				c0,0,0,0,0,0c0,0.1,0,0.2-0.1,0.2c-0.1,0-0.7,0.1-1.6,0.1c-1.1,0-1.7-0.1-2.1-0.3c-0.5-0.2-0.8-0.7-0.8-1.4v-1.6
				c-1.1,0.3-1.2,0.3-1.5,0.5c-0.1,0-0.1,0-0.1,0c-0.2,0-0.3-0.4-0.5-1.1c0.6-0.1,1.3-0.2,2.1-0.4v-0.8c0-0.7,0-1.2-0.1-1.5
				c0.4,0,0.9,0.1,1.1,0.1c0.1,0,0.1,0.1,0.1,0.1c0,0.1,0,0.1-0.1,0.2c-0.1,0.1-0.1,0.4-0.1,0.9L144.8,94.2L144.8,94.2z"/>
			<path class="st5" d="M154,93.7c-1.6,0-2.7,0.1-3,0.1c0,0,0,0,0,0c-0.2,0-0.2-0.3-0.2-1.2c0.4,0.1,1,0.1,2.3,0.1
				c1.2,0,2.6,0,2.8-0.1c0.2,0,0.2,0,0.4-0.1c0,0,0.1,0,0.1,0c0.2,0,0.3,0.1,0.6,0.5c0.2,0.2,0.2,0.3,0.2,0.4c0,0.1,0,0.1-0.1,0.2
				c-0.1,0.1-0.1,0.1-0.3,0.8c-0.5,1.6-1.5,3-2.8,4c-0.5,0.4-1,0.7-1.2,0.7c-0.1,0-0.1,0-0.3-0.2c-0.2-0.2-0.4-0.4-0.7-0.5
				c1.3-0.7,2-1.2,2.7-2.1c0.6-0.8,1-1.6,1.2-2.6C155,93.7,155,93.7,154,93.7z M157.9,92.8c-0.2,0.2-0.3,0.2-0.4,0.2
				c-0.1,0-0.1,0-0.2-0.3c-0.1-0.2-0.4-0.5-0.6-0.7c0,0,0-0.1,0-0.1c0-0.1,0.3-0.3,0.4-0.3c0.1,0,0.2,0.1,0.4,0.4
				c0.2,0.3,0.4,0.5,0.4,0.6S158,92.7,157.9,92.8z M158.3,92.3c-0.2-0.4-0.4-0.6-0.7-0.9c0,0,0-0.1,0-0.1c0,0,0-0.1,0.2-0.2
				c0.1-0.1,0.2-0.1,0.2-0.1c0.1,0,0.3,0.2,0.6,0.6c0.1,0.2,0.2,0.3,0.2,0.3c0,0,0,0.1-0.1,0.2C158.6,92.4,158.4,92.4,158.3,92.3
				C158.3,92.4,158.3,92.4,158.3,92.3z"/>
			<path class="st5" d="M166.7,94.3c0,0.1,0.1,0.2,0.1,0.2c0,0.1,0,0.2-0.2,0.3c-0.5,0.6-1,1.2-1.8,1.8c-0.9,0.7-1.6,1.2-2.7,1.7
				c-0.7,0.3-0.7,0.3-0.8,0.4c-0.1,0.1-0.1,0.1-0.2,0.1c-0.1,0-0.2-0.1-0.3-0.3c-0.2-0.3-0.3-0.6-0.4-0.9c0.9-0.2,2-0.7,3-1.3
				c1.4-0.9,2.2-1.7,2.9-2.9C166.4,93.6,166.5,93.8,166.7,94.3z M160.8,92.8c0.2-0.2,0.2-0.2,0.3-0.2c0.2,0,0.8,0.4,1.4,0.9
				c0.3,0.3,0.4,0.4,0.4,0.5c0,0.1-0.2,0.3-0.4,0.5c-0.2,0.2-0.3,0.3-0.4,0.3c-0.1,0-0.1,0-0.4-0.3c-0.2-0.2-0.7-0.6-0.9-0.7
				c-0.3-0.2-0.3-0.2-0.4-0.2c0,0-0.1-0.1-0.1-0.1C160.4,93.3,160.6,93,160.8,92.8z"/>
			<path class="st5" d="M173,96.3c0,1.1,0,2,0.1,2.6c0,0,0,0.1,0,0.1c0,0.1,0,0.1-0.1,0.1c-0.1,0-0.5,0-0.8,0c-0.3,0-0.3,0-0.3-0.2
				c0,0,0,0,0,0c0-0.5,0.1-1.5,0.1-2.6v-1.2c-0.6,0.4-0.9,0.6-1.4,0.8c-0.6,0.3-1,0.5-1.1,0.5c-0.1,0-0.1,0-0.2-0.1
				c-0.3-0.3-0.4-0.4-0.7-0.7c1.1-0.4,1.8-0.7,2.6-1.2c1-0.6,2-1.5,2.6-2.2c0.1-0.1,0.2-0.2,0.3-0.4c0.6,0.4,1,0.7,1,0.9
				c0,0.1,0,0.1-0.1,0.1c-0.2,0.1-0.2,0.1-0.6,0.5c-0.4,0.3-0.8,0.7-1.1,0.9L173,96.3L173,96.3z"/>
			<path class="st5" d="M178.9,94c0-0.6,0-1-0.1-1.5c0.4,0,0.8,0.1,1.1,0.1c0.1,0,0.2,0.1,0.2,0.2c0,0,0,0.1,0,0.2
				c-0.1,0.3-0.1,0.3-0.1,4.3c1.3-0.4,2.1-0.8,3-1.5c0.5-0.4,0.9-0.7,1.3-1.1c0,0,0,0.1,0,0.1c0,0.3,0,0.6,0.1,1c0,0.1,0,0.1,0,0.1
				c0,0.2-0.1,0.3-0.6,0.7c-0.5,0.4-1.3,0.9-1.8,1.2c-0.5,0.2-0.9,0.4-1.6,0.7c-0.2,0.1-0.3,0.1-0.4,0.2c-0.1,0.1-0.1,0.1-0.2,0.1
				c-0.2,0-0.9-0.6-0.9-0.9c0,0,0-0.1,0-0.2c0-0.1,0-0.2,0-0.6L178.9,94L178.9,94z"/>
			<path class="st5" d="M189.7,93.7c-1.6,0-2.7,0.1-3,0.1c0,0,0,0,0,0c-0.2,0-0.2-0.3-0.2-1.2c0.4,0.1,1,0.1,2.3,0.1
				c1.2,0,2.6,0,2.8-0.1c0.2,0,0.2,0,0.4-0.1c0,0,0.1,0,0.1,0c0.2,0,0.3,0.1,0.6,0.5c0.2,0.2,0.2,0.3,0.2,0.4c0,0.1,0,0.1-0.1,0.2
				c-0.1,0.1-0.1,0.1-0.3,0.8c-0.5,1.6-1.5,3-2.8,4c-0.5,0.4-1,0.7-1.2,0.7c-0.1,0-0.1,0-0.3-0.2c-0.2-0.2-0.4-0.4-0.7-0.5
				c1.3-0.7,2-1.2,2.7-2.1c0.6-0.8,1-1.6,1.2-2.6C190.7,93.7,190.7,93.7,189.7,93.7z M193.5,92.8c-0.2,0.2-0.3,0.2-0.4,0.2
				c-0.1,0-0.1,0-0.2-0.3c-0.1-0.2-0.4-0.5-0.6-0.7c0,0,0-0.1,0-0.1c0-0.1,0.3-0.3,0.4-0.3c0.1,0,0.2,0.1,0.4,0.4
				c0.2,0.3,0.4,0.5,0.4,0.6S193.6,92.7,193.5,92.8z M193.9,92.3c-0.2-0.4-0.4-0.6-0.7-0.9c0,0,0-0.1,0-0.1c0,0,0-0.1,0.2-0.2
				c0.1-0.1,0.2-0.1,0.2-0.1c0.1,0,0.3,0.2,0.6,0.6c0.1,0.2,0.2,0.3,0.2,0.3c0,0,0,0.1-0.1,0.2C194.2,92.4,194.1,92.4,193.9,92.3
				C194,92.4,194,92.4,193.9,92.3z"/>
			<path class="st5" d="M202.4,94.3c0,0.1,0.1,0.2,0.1,0.2c0,0.1,0,0.2-0.2,0.3c-0.5,0.6-1,1.2-1.8,1.8c-0.9,0.7-1.6,1.2-2.7,1.7
				c-0.7,0.3-0.7,0.3-0.8,0.4c-0.1,0.1-0.1,0.1-0.2,0.1c-0.1,0-0.2-0.1-0.3-0.3c-0.2-0.3-0.3-0.6-0.4-0.9c0.9-0.2,2-0.7,3-1.3
				c1.4-0.9,2.2-1.7,2.9-2.9C202.1,93.6,202.2,93.8,202.4,94.3z M196.5,92.8c0.2-0.2,0.2-0.2,0.3-0.2c0.2,0,0.8,0.4,1.4,0.9
				c0.3,0.3,0.4,0.4,0.4,0.5c0,0.1-0.2,0.3-0.4,0.5c-0.2,0.2-0.3,0.3-0.4,0.3c-0.1,0-0.1,0-0.4-0.3c-0.2-0.2-0.7-0.6-0.9-0.7
				c-0.3-0.2-0.3-0.2-0.4-0.2c0,0-0.1-0.1-0.1-0.1C196.1,93.3,196.2,93,196.5,92.8z"/>
		</g>
	</g>
	<g>
		<g>
			<path class="st3" d="M233.3,31.2c-1.6,0-2.7,0.1-3,0.1c0,0,0,0,0,0c-0.2,0-0.2-0.3-0.2-1.2c0.4,0.1,1,0.1,2.3,0.1
				c1.2,0,2.6,0,2.8-0.1c0.2,0,0.2,0,0.4-0.1c0,0,0.1,0,0.1,0c0.1,0,0.3,0.1,0.6,0.5c0.2,0.2,0.2,0.3,0.2,0.4c0,0.1,0,0.1-0.1,0.2
				c-0.1,0.1-0.1,0.1-0.3,0.8c-0.5,1.6-1.5,3-2.8,4c-0.5,0.4-1,0.7-1.2,0.7c-0.1,0-0.1,0-0.3-0.2c-0.2-0.2-0.4-0.4-0.7-0.5
				c1.3-0.7,2-1.2,2.7-2.1c0.6-0.8,1-1.6,1.2-2.6C234.4,31.2,234.4,31.2,233.3,31.2z"/>
			<path class="st3" d="M241.9,31.6c0.3,0,1.7,0,1.9,0c0.1,0,0.2,0,0.2,0c0.1,0,0.1,0,0.2,0c0.1,0,0.3,0.2,0.5,0.6
				c0.1,0.2,0.1,0.2,0.1,0.3c0,0.1,0,0.1-0.1,0.2c-0.1,0.1-0.1,0.1-0.7,0.8c-0.1,0.2-0.6,0.6-0.7,0.7c-0.1,0.1-0.1,0.1-0.2,0.1
				c0,0-0.1,0-0.1-0.1c-0.2-0.2-0.4-0.4-0.6-0.5c0.5-0.3,0.9-0.7,1.2-1.2c-2.6,0-3.3,0-3.8,0.1c-0.1,0-0.1,0-0.1,0
				c-0.2,0-0.3-0.3-0.3-1C239.8,31.6,240.3,31.6,241.9,31.6z M242.3,33c0.1,0,0.2,0.1,0.2,0.1c0,0,0,0,0,0.1
				c-0.1,0.1-0.1,0.3-0.2,0.8c-0.1,0.9-0.5,1.7-1.1,2.2c-0.3,0.3-0.7,0.6-0.8,0.6c-0.1,0-0.1,0-0.2-0.1c-0.2-0.2-0.3-0.3-0.6-0.5
				c0.7-0.3,1.3-0.8,1.5-1.5c0.1-0.4,0.2-0.8,0.3-1.3c0-0.3,0-0.3,0-0.3c0,0,0-0.1,0-0.1c0-0.1,0-0.1,0-0.2
				C241.7,32.9,242,32.9,242.3,33z"/>
			<path class="st3" d="M249.8,34.6c0.9,0.2,2,0.5,3,0.8c0.7,0.3,0.9,0.4,0.9,0.5c0,0.1-0.1,0.5-0.2,0.8c-0.1,0.2-0.1,0.2-0.2,0.2
				c-0.1,0-0.1,0-1-0.4c-0.9-0.4-2.5-0.9-3.5-1c-0.3,0-0.4-0.1-0.4-0.2c0-0.1,0.1-0.5,0.2-0.7c0-0.1,0.1-0.2,0.2-0.2
				C248.8,34.4,249.5,34.5,249.8,34.6z M252.7,31.5c-0.5-0.2-1.2-0.5-1.7-0.6c-0.6-0.1-1.5-0.3-1.8-0.4c-0.1,0-0.2-0.1-0.2-0.1
				c0-0.1,0.1-0.6,0.2-0.8c0-0.1,0.1-0.1,0.2-0.1c0,0,0.1,0,0.1,0c0,0,0.1,0,0.2,0c0.9,0.1,2,0.4,2.9,0.7c0.5,0.2,0.6,0.2,0.6,0.3
				c0,0.1-0.1,0.6-0.2,0.8c0,0.1-0.1,0.1-0.2,0.1C252.8,31.6,252.7,31.6,252.7,31.5z M252,32.6c0.5,0.2,0.5,0.2,0.5,0.4
				c0,0.1-0.1,0.6-0.2,0.8c0,0.1-0.1,0.1-0.1,0.1c0,0-0.1,0-0.1,0c-0.3-0.2-0.7-0.3-1.1-0.5c-0.5-0.2-1.4-0.4-1.7-0.4
				c-0.2,0-0.2,0-0.2-0.1c0-0.1,0.1-0.7,0.2-0.8c0-0.1,0.1-0.1,0.1-0.1C249.7,31.9,251.3,32.3,252,32.6z"/>
			<path class="st3" d="M258.7,32.4c0,0.2,0,0.6,0,0.9c0,0.1,0,0.2,0,0.2c0,0.2-0.1,0.2-0.8,0.2c-0.3,0-0.3,0-0.3-0.2
				c0,0,0-0.1,0-0.2c0-0.7,0.1-1.1,0.1-1.7c0-1,0-1.4-0.1-1.9c0.5,0,0.9,0,1.1,0.1c0.1,0,0.2,0.1,0.2,0.2c0,0,0,0.1,0,0.1
				c-0.1,0.2-0.1,0.3-0.1,0.8L258.7,32.4L258.7,32.4z M262.2,31.2c0,1.3-0.1,2.1-0.2,2.7c-0.3,1.1-1,2-2.1,2.6
				c-0.2,0.1-0.4,0.2-0.5,0.2s-0.1,0-0.2-0.1c-0.2-0.3-0.4-0.4-0.7-0.6c0.6-0.2,1.1-0.5,1.4-0.9c0.5-0.4,0.7-1,0.9-1.6
				c0.1-0.5,0.2-1.5,0.2-2.5c0-0.7,0-1.1-0.1-1.4c0.5,0,0.9,0,1.1,0.1c0.1,0,0.2,0.1,0.2,0.2c0,0,0,0.1,0,0.2
				c-0.1,0.2-0.1,0.4-0.1,0.8L262.2,31.2L262.2,31.2z"/>
			<path class="st3" d="M268.5,32.6c1.6,0,2.6,0,3.5-0.1c0,0,0.1,0,0.1,0c0.3,0,0.3,0,0.3,0.7c0,0.4,0,0.4-0.2,0.4c0,0,0,0,0,0
				c-0.6,0-0.9,0-3.5,0c-0.9,0-1.4,0-2.2,0c-0.1,0-0.1,0-0.3,0c-0.3,0-0.3,0-0.5,0c0,0-0.1,0-0.1,0c-0.1,0-0.2,0-0.2-0.1
				c-0.1-0.2-0.1-0.7-0.1-1.1C266,32.6,266.6,32.6,268.5,32.6z"/>
			<path class="st3" d="M279.9,31.5c-3.1,0-3.1,0-4.1,0.1c-0.7,0-0.7,0-1,0.1c0,0-0.1,0-0.1,0c-0.1,0-0.2-0.1-0.2-0.2
				c-0.1-0.2-0.1-0.6-0.2-1c0.6,0.1,1.6,0.1,2.7,0.1c1.3,0,2.4,0,2.9,0c0.2,0,0.3,0,0.5-0.1c0.1,0,0.1,0,0.2,0
				c0.2,0,0.4,0.2,0.7,0.6c0.2,0.2,0.2,0.4,0.2,0.5c0,0.1,0,0.1-0.2,0.2c-0.1,0.1-0.2,0.2-0.5,0.5c-0.8,1-1.3,1.5-2.3,2.3
				c0.5,0.5,0.9,1,0.9,1.1c0,0.1-0.1,0.2-0.4,0.5c-0.2,0.2-0.3,0.2-0.4,0.2c-0.1,0-0.1,0-0.2-0.1c-0.6-0.7-0.7-1-1.2-1.4
				c-0.6-0.6-0.6-0.6-1.6-1.4c0,0-0.1-0.1-0.1-0.1c0-0.1,0.2-0.2,0.4-0.5c0.1-0.1,0.2-0.2,0.3-0.2c0,0,0.1,0,0.1,0
				c0.4,0.2,0.9,0.6,1.4,1.1C278.6,33.1,279.3,32.4,279.9,31.5z"/>
			<path class="st3" d="M286.3,32.6c1.6,0,2.6,0,3.5-0.1c0,0,0.1,0,0.1,0c0.3,0,0.3,0,0.3,0.7c0,0.4,0,0.4-0.2,0.4c0,0,0,0,0,0
				c-0.6,0-0.9,0-3.5,0c-0.9,0-1.4,0-2.2,0c-0.1,0-0.1,0-0.3,0c-0.3,0-0.3,0-0.5,0c0,0-0.1,0-0.1,0c-0.1,0-0.2,0-0.2-0.1
				c-0.1-0.2-0.1-0.7-0.1-1.1C283.8,32.6,284.5,32.6,286.3,32.6z"/>
			<path class="st3" d="M295.3,34.1c0,0.5,0,2,0,2.4c0,0,0,0,0,0c0,0.1,0,0.1-0.1,0.2c-0.1,0.1-0.4,0.1-0.7,0.1
				c-0.3,0-0.3,0-0.3-0.2c0,0,0,0,0,0c0-0.2,0-2.8,0-3.9c0-2,0-2.6-0.1-3.1c0.6,0,0.9,0.1,1.2,0.1c0.1,0,0.1,0.1,0.1,0.1
				c0,0,0,0,0,0.2c0,0.1-0.1,0.2-0.1,0.4c0,0,0,0.6,0,1.6c0.6,0.2,0.6,0.2,1,0.3c0.9,0.3,1.4,0.5,2.2,1c0.1,0.1,0.1,0.1,0.1,0.2
				c0,0.1-0.2,0.5-0.3,0.8c-0.1,0.2-0.1,0.2-0.2,0.2c0,0-0.1,0-0.1-0.1c-0.9-0.6-1.8-1-2.7-1.3L295.3,34.1L295.3,34.1z"/>
		</g>
		<g>
			<path class="st4" d="M233.3,31.2c-1.6,0-2.7,0.1-3,0.1c0,0,0,0,0,0c-0.2,0-0.2-0.3-0.2-1.2c0.4,0.1,1,0.1,2.3,0.1
				c1.2,0,2.6,0,2.8-0.1c0.2,0,0.2,0,0.4-0.1c0,0,0.1,0,0.1,0c0.1,0,0.3,0.1,0.6,0.5c0.2,0.2,0.2,0.3,0.2,0.4c0,0.1,0,0.1-0.1,0.2
				c-0.1,0.1-0.1,0.1-0.3,0.8c-0.5,1.6-1.5,3-2.8,4c-0.5,0.4-1,0.7-1.2,0.7c-0.1,0-0.1,0-0.3-0.2c-0.2-0.2-0.4-0.4-0.7-0.5
				c1.3-0.7,2-1.2,2.7-2.1c0.6-0.8,1-1.6,1.2-2.6C234.4,31.2,234.4,31.2,233.3,31.2z"/>
			<path class="st4" d="M241.9,31.6c0.3,0,1.7,0,1.9,0c0.1,0,0.2,0,0.2,0c0.1,0,0.1,0,0.2,0c0.1,0,0.3,0.2,0.5,0.6
				c0.1,0.2,0.1,0.2,0.1,0.3c0,0.1,0,0.1-0.1,0.2c-0.1,0.1-0.1,0.1-0.7,0.8c-0.1,0.2-0.6,0.6-0.7,0.7c-0.1,0.1-0.1,0.1-0.2,0.1
				c0,0-0.1,0-0.1-0.1c-0.2-0.2-0.4-0.4-0.6-0.5c0.5-0.3,0.9-0.7,1.2-1.2c-2.6,0-3.3,0-3.8,0.1c-0.1,0-0.1,0-0.1,0
				c-0.2,0-0.3-0.3-0.3-1C239.8,31.6,240.3,31.6,241.9,31.6z M242.3,33c0.1,0,0.2,0.1,0.2,0.1c0,0,0,0,0,0.1
				c-0.1,0.1-0.1,0.3-0.2,0.8c-0.1,0.9-0.5,1.7-1.1,2.2c-0.3,0.3-0.7,0.6-0.8,0.6c-0.1,0-0.1,0-0.2-0.1c-0.2-0.2-0.3-0.3-0.6-0.5
				c0.7-0.3,1.3-0.8,1.5-1.5c0.1-0.4,0.2-0.8,0.3-1.3c0-0.3,0-0.3,0-0.3c0,0,0-0.1,0-0.1c0-0.1,0-0.1,0-0.2
				C241.7,32.9,242,32.9,242.3,33z"/>
			<path class="st4" d="M249.8,34.6c0.9,0.2,2,0.5,3,0.8c0.7,0.3,0.9,0.4,0.9,0.5c0,0.1-0.1,0.5-0.2,0.8c-0.1,0.2-0.1,0.2-0.2,0.2
				c-0.1,0-0.1,0-1-0.4c-0.9-0.4-2.5-0.9-3.5-1c-0.3,0-0.4-0.1-0.4-0.2c0-0.1,0.1-0.5,0.2-0.7c0-0.1,0.1-0.2,0.2-0.2
				C248.8,34.4,249.5,34.5,249.8,34.6z M252.7,31.5c-0.5-0.2-1.2-0.5-1.7-0.6c-0.6-0.1-1.5-0.3-1.8-0.4c-0.1,0-0.2-0.1-0.2-0.1
				c0-0.1,0.1-0.6,0.2-0.8c0-0.1,0.1-0.1,0.2-0.1c0,0,0.1,0,0.1,0c0,0,0.1,0,0.2,0c0.9,0.1,2,0.4,2.9,0.7c0.5,0.2,0.6,0.2,0.6,0.3
				c0,0.1-0.1,0.6-0.2,0.8c0,0.1-0.1,0.1-0.2,0.1C252.8,31.6,252.7,31.6,252.7,31.5z M252,32.6c0.5,0.2,0.5,0.2,0.5,0.4
				c0,0.1-0.1,0.6-0.2,0.8c0,0.1-0.1,0.1-0.1,0.1c0,0-0.1,0-0.1,0c-0.3-0.2-0.7-0.3-1.1-0.5c-0.5-0.2-1.4-0.4-1.7-0.4
				c-0.2,0-0.2,0-0.2-0.1c0-0.1,0.1-0.7,0.2-0.8c0-0.1,0.1-0.1,0.1-0.1C249.7,31.9,251.3,32.3,252,32.6z"/>
			<path class="st4" d="M258.7,32.4c0,0.2,0,0.6,0,0.9c0,0.1,0,0.2,0,0.2c0,0.2-0.1,0.2-0.8,0.2c-0.3,0-0.3,0-0.3-0.2
				c0,0,0-0.1,0-0.2c0-0.7,0.1-1.1,0.1-1.7c0-1,0-1.4-0.1-1.9c0.5,0,0.9,0,1.1,0.1c0.1,0,0.2,0.1,0.2,0.2c0,0,0,0.1,0,0.1
				c-0.1,0.2-0.1,0.3-0.1,0.8L258.7,32.4L258.7,32.4z M262.2,31.2c0,1.3-0.1,2.1-0.2,2.7c-0.3,1.1-1,2-2.1,2.6
				c-0.2,0.1-0.4,0.2-0.5,0.2s-0.1,0-0.2-0.1c-0.2-0.3-0.4-0.4-0.7-0.6c0.6-0.2,1.1-0.5,1.4-0.9c0.5-0.4,0.7-1,0.9-1.6
				c0.1-0.5,0.2-1.5,0.2-2.5c0-0.7,0-1.1-0.1-1.4c0.5,0,0.9,0,1.1,0.1c0.1,0,0.2,0.1,0.2,0.2c0,0,0,0.1,0,0.2
				c-0.1,0.2-0.1,0.4-0.1,0.8L262.2,31.2L262.2,31.2z"/>
			<path class="st4" d="M268.5,32.6c1.6,0,2.6,0,3.5-0.1c0,0,0.1,0,0.1,0c0.3,0,0.3,0,0.3,0.7c0,0.4,0,0.4-0.2,0.4c0,0,0,0,0,0
				c-0.6,0-0.9,0-3.5,0c-0.9,0-1.4,0-2.2,0c-0.1,0-0.1,0-0.3,0c-0.3,0-0.3,0-0.5,0c0,0-0.1,0-0.1,0c-0.1,0-0.2,0-0.2-0.1
				c-0.1-0.2-0.1-0.7-0.1-1.1C266,32.6,266.6,32.6,268.5,32.6z"/>
			<path class="st4" d="M279.9,31.5c-3.1,0-3.1,0-4.1,0.1c-0.7,0-0.7,0-1,0.1c0,0-0.1,0-0.1,0c-0.1,0-0.2-0.1-0.2-0.2
				c-0.1-0.2-0.1-0.6-0.2-1c0.6,0.1,1.6,0.1,2.7,0.1c1.3,0,2.4,0,2.9,0c0.2,0,0.3,0,0.5-0.1c0.1,0,0.1,0,0.2,0
				c0.2,0,0.4,0.2,0.7,0.6c0.2,0.2,0.2,0.4,0.2,0.5c0,0.1,0,0.1-0.2,0.2c-0.1,0.1-0.2,0.2-0.5,0.5c-0.8,1-1.3,1.5-2.3,2.3
				c0.5,0.5,0.9,1,0.9,1.1c0,0.1-0.1,0.2-0.4,0.5c-0.2,0.2-0.3,0.2-0.4,0.2c-0.1,0-0.1,0-0.2-0.1c-0.6-0.7-0.7-1-1.2-1.4
				c-0.6-0.6-0.6-0.6-1.6-1.4c0,0-0.1-0.1-0.1-0.1c0-0.1,0.2-0.2,0.4-0.5c0.1-0.1,0.2-0.2,0.3-0.2c0,0,0.1,0,0.1,0
				c0.4,0.2,0.9,0.6,1.4,1.1C278.6,33.1,279.3,32.4,279.9,31.5z"/>
			<path class="st4" d="M286.3,32.6c1.6,0,2.6,0,3.5-0.1c0,0,0.1,0,0.1,0c0.3,0,0.3,0,0.3,0.7c0,0.4,0,0.4-0.2,0.4c0,0,0,0,0,0
				c-0.6,0-0.9,0-3.5,0c-0.9,0-1.4,0-2.2,0c-0.1,0-0.1,0-0.3,0c-0.3,0-0.3,0-0.5,0c0,0-0.1,0-0.1,0c-0.1,0-0.2,0-0.2-0.1
				c-0.1-0.2-0.1-0.7-0.1-1.1C283.8,32.6,284.5,32.6,286.3,32.6z"/>
			<path class="st4" d="M295.3,34.1c0,0.5,0,2,0,2.4c0,0,0,0,0,0c0,0.1,0,0.1-0.1,0.2c-0.1,0.1-0.4,0.1-0.7,0.1
				c-0.3,0-0.3,0-0.3-0.2c0,0,0,0,0,0c0-0.2,0-2.8,0-3.9c0-2,0-2.6-0.1-3.1c0.6,0,0.9,0.1,1.2,0.1c0.1,0,0.1,0.1,0.1,0.1
				c0,0,0,0,0,0.2c0,0.1-0.1,0.2-0.1,0.4c0,0,0,0.6,0,1.6c0.6,0.2,0.6,0.2,1,0.3c0.9,0.3,1.4,0.5,2.2,1c0.1,0.1,0.1,0.1,0.1,0.2
				c0,0.1-0.2,0.5-0.3,0.8c-0.1,0.2-0.1,0.2-0.2,0.2c0,0-0.1,0-0.1-0.1c-0.9-0.6-1.8-1-2.7-1.3L295.3,34.1L295.3,34.1z"/>
		</g>
	</g>
	<g>
		<g>
			<path class="st6" d="M205.6,16.7c0,0.6,0,2,0,2.4c0,0,0,0,0,0c0,0.1,0,0.1-0.1,0.2c-0.1,0.1-0.4,0.1-0.7,0.1
				c-0.3,0-0.3,0-0.3-0.2c0,0,0,0,0,0c0-0.2,0-2.8,0-3.9c0-2.1,0-2.6-0.1-3.1c0.6,0,0.9,0.1,1.2,0.1c0.1,0,0.1,0.1,0.1,0.1
				c0,0.1,0,0.1,0,0.2c0,0.1-0.1,0.2-0.1,0.4c0,0,0,0.6,0,1.6c0.6,0.2,0.6,0.2,1,0.3c0.9,0.3,1.4,0.5,2.2,1c0.1,0,0.1,0.1,0.1,0.2
				c0,0.1-0.2,0.5-0.3,0.8c-0.1,0.2-0.1,0.2-0.2,0.2c0,0-0.1,0-0.1-0.1c-0.9-0.6-1.8-1-2.7-1.3L205.6,16.7L205.6,16.7z M207.8,14
				c-0.2-0.3-0.4-0.6-0.7-0.9c0-0.1-0.1-0.1-0.1-0.1c0-0.1,0-0.1,0.2-0.2c0.1-0.1,0.2-0.1,0.2-0.1c0.1,0,0.2,0.1,0.4,0.3
				c0.3,0.3,0.5,0.6,0.5,0.7C208.4,13.7,208,14,207.8,14C207.9,14,207.8,14,207.8,14z M209.1,13.3c-0.1,0.1-0.2,0.1-0.2,0.1
				c0,0,0,0-0.1-0.1c-0.2-0.4-0.4-0.6-0.7-0.9c0,0,0-0.1,0-0.1c0-0.1,0.4-0.3,0.5-0.3c0,0,0.1,0,0.2,0.1c0.3,0.3,0.7,0.7,0.7,0.9
				C209.3,13.1,209.3,13.2,209.1,13.3z"/>
			<path class="st6" d="M218.4,14.5c0,0.1,0.1,0.2,0.1,0.2c0,0.1,0,0.2-0.2,0.3c-0.5,0.6-1,1.2-1.8,1.8c-0.9,0.7-1.6,1.2-2.7,1.7
				c-0.7,0.3-0.7,0.3-0.8,0.4c-0.1,0.1-0.1,0.1-0.2,0.1c-0.1,0-0.2-0.1-0.3-0.3c-0.2-0.3-0.3-0.6-0.4-0.9c0.9-0.2,2-0.7,3-1.3
				c1.4-0.9,2.2-1.7,2.9-2.9C218.1,13.9,218.1,14.1,218.4,14.5z M212.4,13c0.2-0.2,0.2-0.2,0.3-0.2c0.2,0,0.8,0.4,1.4,0.9
				c0.3,0.3,0.4,0.4,0.4,0.5c0,0.1-0.2,0.3-0.4,0.5c-0.2,0.2-0.3,0.3-0.4,0.3c-0.1,0-0.1,0-0.4-0.3c-0.2-0.2-0.7-0.6-0.9-0.7
				c-0.3-0.2-0.3-0.2-0.4-0.2c0,0-0.1-0.1-0.1-0.1C212.1,13.5,212.2,13.3,212.4,13z"/>
			<path class="st6" d="M224.9,15.8c0,0.6-0.5,1.1-1.1,1.1c-0.6,0-1.1-0.5-1.1-1.1c0-0.6,0.5-1.1,1.1-1.1
				C224.5,14.7,224.9,15.2,224.9,15.8z"/>
			<path class="st6" d="M231.5,12.2c0.4-0.1,0.8-0.1,1.1-0.1c0.2,0,0.2,0,0.2,0.2c0,0,0,0.1,0,0.2c0,0.1,0,0.1,0,0.2
				c0,0.2,0,0.3,0.1,1c0.9-0.2,1.6-0.3,2-0.4c0.1,0,0.1,0,0.1,0c0.1,0,0.1,0.1,0.1,0.2c0,0.2,0.1,0.6,0.1,0.7c0,0.1,0,0.1-0.4,0.2
				c-0.3,0-0.5,0.1-1.8,0.3c0.2,0.8,0.2,0.8,0.2,1.2c0.2,0,0.2,0,0.4-0.1c0.9-0.2,1.5-0.3,1.9-0.4c0.1,0,0.2-0.1,0.3-0.1
				c0.1,0,0.1,0,0.1,0.1c0.1,0.2,0.2,0.7,0.2,0.8c0,0.1,0,0.1-0.3,0.1c-0.1,0-0.1,0-0.4,0.1c-0.5,0.1-0.5,0.1-1.9,0.3
				c0.2,1.1,0.2,1.1,0.6,2.4c0,0.1,0,0.1,0,0.1c0,0.1,0,0.1-0.2,0.2c-0.2,0.1-0.7,0.2-0.8,0.2c-0.1,0-0.1,0-0.1-0.2
				c-0.1-0.4-0.2-1.2-0.4-2.5c-1.8,0.3-2,0.4-2.5,0.6c-0.1,0-0.2,0-0.2,0c-0.1,0-0.1,0-0.2-0.1c-0.1-0.2-0.2-0.5-0.3-0.9
				c0.5,0,1-0.1,3-0.4c-0.1-0.5-0.2-0.9-0.2-1.2c-1.6,0.3-1.6,0.3-2.1,0.4c-0.1,0-0.1,0-0.1,0c-0.1,0-0.1,0-0.4-1
				c0.5,0,0.5,0,2.4-0.3C231.8,13.1,231.7,12.6,231.5,12.2z"/>
			<path class="st6" d="M240.4,15.9c0,0,0,0.1-0.1,0.2c-0.1,0.1-0.1,0.1-0.2,0.3c-0.4,0.9-1.1,1.8-1.4,1.8c-0.1,0-0.1,0-0.3-0.2
				c-0.1-0.1-0.3-0.2-0.6-0.3c0.8-0.6,1.3-1.5,1.5-2.3C240.1,15.6,240.4,15.8,240.4,15.9z M241.2,14.6c-1.9,0-2,0-2.8,0.1
				c0,0,0,0,0,0c-0.1,0-0.1-0.1-0.2-0.1c-0.1-0.2-0.1-0.5-0.1-0.9c0.5,0.1,1.1,0.1,2.7,0.1h0.1c0.1,0,0.1,0,0.2,0v-0.2
				c0-0.5,0-0.8-0.1-1.2c0.5,0,1,0.1,1.2,0.1c0.1,0,0.1,0.1,0.1,0.1c0,0,0,0.1-0.1,0.2c-0.1,0.2-0.1,0.4-0.1,0.7v0.1
				c0,0,0,0.1,0,0.1h0.6c0.6,0,1.7,0,2.1-0.1c0,0,0,0,0.1,0c0.1,0,0.1,0,0.1,0.1c0,0,0,0.3,0,0.4c0,0.5,0,0.5-0.2,0.5
				c0,0-0.1,0-0.6,0c-0.3,0-0.4,0-2,0c0,0.4,0,1,0,1.7c0,0.9,0,0.9,0,1.6c0,0.1,0,0.2,0,0.2c0,0.9-0.3,1.1-1.2,1.1
				c-0.4,0-0.7,0-0.7-0.1c-0.1,0-0.1-0.1-0.1-0.2c-0.1-0.3-0.1-0.6-0.3-0.8c0.3,0.1,0.6,0.1,0.9,0.1c0.3,0,0.4-0.1,0.4-0.5
				L241.2,14.6z M244.9,18.1c-0.1,0-0.1,0.1-0.1,0.1c-0.2,0-0.5-0.4-0.9-1c-0.3-0.5-0.7-1.3-0.7-1.4c0-0.1,0.1-0.1,0.2-0.2
				c0.2-0.1,0.5-0.2,0.6-0.2s0.1,0,0.2,0.2c0.2,0.5,0.4,0.9,0.7,1.2c0.3,0.4,0.3,0.4,0.8,0.9C245.3,17.7,245.2,17.8,244.9,18.1z"/>
			<path class="st6" d="M250.3,15.3c1.6,0,2.6,0,3.5-0.1c0,0,0.1,0,0.1,0c0.3,0,0.3,0,0.3,0.7c0,0.4,0,0.4-0.2,0.4c0,0,0,0,0,0
				c-0.6,0-0.9,0-3.5,0c-0.9,0-1.4,0-2.2,0c-0.1,0-0.1,0-0.3,0c-0.3,0-0.3,0-0.5,0c0,0-0.1,0-0.1,0c-0.1,0-0.2,0-0.2-0.1
				c-0.1-0.2-0.1-0.7-0.1-1.1C247.8,15.3,248.4,15.3,250.3,15.3z"/>
			<path class="st6" d="M256.6,15.6c-0.1,0-0.2,0-0.2,0c0,0-0.1,0-0.1,0c0,0-0.1,0-0.1,0c-0.1,0-0.2,0-0.2-0.2
				c0-0.2-0.1-0.5-0.1-0.9c0.4,0,0.5,0,1.4,0.1c1.2,0,1.9,0,2.1,0c1.5,0,3.2,0,3.5-0.1c0,0,0.1,0,0.1,0c0.1,0,0.1,0,0.1,0.6
				c0,0.4,0,0.4-0.1,0.4c0,0,0,0-0.1,0c-0.4,0-0.6,0-2.7,0c0,0.7-0.1,1-0.2,1.4c-0.3,1-0.8,1.7-1.7,2.3c-0.2,0.2-0.4,0.2-0.5,0.2
				c0,0-0.1,0-0.2-0.1c-0.3-0.3-0.4-0.4-0.7-0.6c1.6-0.7,2.2-1.6,2.2-3.2C257.7,15.5,257.2,15.6,256.6,15.6z M259.7,12.6
				c0.9,0,1.8,0,2.2-0.1c0,0,0,0,0,0c0.1,0,0.2,0.1,0.2,0.3c0,0,0,0.1,0,0.2c0,0.1,0,0.1,0,0.2c0,0.2,0,0.3-0.2,0.3c0,0-0.1,0-0.1,0
				c-0.2,0-1.9,0-2.3,0c-1.1,0-1.8,0-2.1,0.1c0,0-0.1,0-0.1,0c-0.1,0-0.1,0-0.2-0.1c0-0.2-0.1-0.6-0.1-1
				C257.4,12.5,258.6,12.6,259.7,12.6z"/>
		</g>
		<g>
			<path class="st4" d="M205.6,16.7c0,0.6,0,2,0,2.4c0,0,0,0,0,0c0,0.1,0,0.1-0.1,0.2c-0.1,0.1-0.4,0.1-0.7,0.1
				c-0.3,0-0.3,0-0.3-0.2c0,0,0,0,0,0c0-0.2,0-2.8,0-3.9c0-2.1,0-2.6-0.1-3.1c0.6,0,0.9,0.1,1.2,0.1c0.1,0,0.1,0.1,0.1,0.1
				c0,0.1,0,0.1,0,0.2c0,0.1-0.1,0.2-0.1,0.4c0,0,0,0.6,0,1.6c0.6,0.2,0.6,0.2,1,0.3c0.9,0.3,1.4,0.5,2.2,1c0.1,0,0.1,0.1,0.1,0.2
				c0,0.1-0.2,0.5-0.3,0.8c-0.1,0.2-0.1,0.2-0.2,0.2c0,0-0.1,0-0.1-0.1c-0.9-0.6-1.8-1-2.7-1.3L205.6,16.7L205.6,16.7z M207.8,14
				c-0.2-0.3-0.4-0.6-0.7-0.9c0-0.1-0.1-0.1-0.1-0.1c0-0.1,0-0.1,0.2-0.2c0.1-0.1,0.2-0.1,0.2-0.1c0.1,0,0.2,0.1,0.4,0.3
				c0.3,0.3,0.5,0.6,0.5,0.7C208.4,13.7,208,14,207.8,14C207.9,14,207.8,14,207.8,14z M209.1,13.3c-0.1,0.1-0.2,0.1-0.2,0.1
				c0,0,0,0-0.1-0.1c-0.2-0.4-0.4-0.6-0.7-0.9c0,0,0-0.1,0-0.1c0-0.1,0.4-0.3,0.5-0.3c0,0,0.1,0,0.2,0.1c0.3,0.3,0.7,0.7,0.7,0.9
				C209.3,13.1,209.3,13.2,209.1,13.3z"/>
			<path class="st4" d="M218.4,14.5c0,0.1,0.1,0.2,0.1,0.2c0,0.1,0,0.2-0.2,0.3c-0.5,0.6-1,1.2-1.8,1.8c-0.9,0.7-1.6,1.2-2.7,1.7
				c-0.7,0.3-0.7,0.3-0.8,0.4c-0.1,0.1-0.1,0.1-0.2,0.1c-0.1,0-0.2-0.1-0.3-0.3c-0.2-0.3-0.3-0.6-0.4-0.9c0.9-0.2,2-0.7,3-1.3
				c1.4-0.9,2.2-1.7,2.9-2.9C218.1,13.9,218.1,14.1,218.4,14.5z M212.4,13c0.2-0.2,0.2-0.2,0.3-0.2c0.2,0,0.8,0.4,1.4,0.9
				c0.3,0.3,0.4,0.4,0.4,0.5c0,0.1-0.2,0.3-0.4,0.5c-0.2,0.2-0.3,0.3-0.4,0.3c-0.1,0-0.1,0-0.4-0.3c-0.2-0.2-0.7-0.6-0.9-0.7
				c-0.3-0.2-0.3-0.2-0.4-0.2c0,0-0.1-0.1-0.1-0.1C212.1,13.5,212.2,13.3,212.4,13z"/>
			<path class="st4" d="M224.9,15.8c0,0.6-0.5,1.1-1.1,1.1c-0.6,0-1.1-0.5-1.1-1.1c0-0.6,0.5-1.1,1.1-1.1
				C224.5,14.7,224.9,15.2,224.9,15.8z"/>
			<path class="st4" d="M231.5,12.2c0.4-0.1,0.8-0.1,1.1-0.1c0.2,0,0.2,0,0.2,0.2c0,0,0,0.1,0,0.2c0,0.1,0,0.1,0,0.2
				c0,0.2,0,0.3,0.1,1c0.9-0.2,1.6-0.3,2-0.4c0.1,0,0.1,0,0.1,0c0.1,0,0.1,0.1,0.1,0.2c0,0.2,0.1,0.6,0.1,0.7c0,0.1,0,0.1-0.4,0.2
				c-0.3,0-0.5,0.1-1.8,0.3c0.2,0.8,0.2,0.8,0.2,1.2c0.2,0,0.2,0,0.4-0.1c0.9-0.2,1.5-0.3,1.9-0.4c0.1,0,0.2-0.1,0.3-0.1
				c0.1,0,0.1,0,0.1,0.1c0.1,0.2,0.2,0.7,0.2,0.8c0,0.1,0,0.1-0.3,0.1c-0.1,0-0.1,0-0.4,0.1c-0.5,0.1-0.5,0.1-1.9,0.3
				c0.2,1.1,0.2,1.1,0.6,2.4c0,0.1,0,0.1,0,0.1c0,0.1,0,0.1-0.2,0.2c-0.2,0.1-0.7,0.2-0.8,0.2c-0.1,0-0.1,0-0.1-0.2
				c-0.1-0.4-0.2-1.2-0.4-2.5c-1.8,0.3-2,0.4-2.5,0.6c-0.1,0-0.2,0-0.2,0c-0.1,0-0.1,0-0.2-0.1c-0.1-0.2-0.2-0.5-0.3-0.9
				c0.5,0,1-0.1,3-0.4c-0.1-0.5-0.2-0.9-0.2-1.2c-1.6,0.3-1.6,0.3-2.1,0.4c-0.1,0-0.1,0-0.1,0c-0.1,0-0.1,0-0.4-1
				c0.5,0,0.5,0,2.4-0.3C231.8,13.1,231.7,12.6,231.5,12.2z"/>
			<path class="st4" d="M240.4,15.9c0,0,0,0.1-0.1,0.2c-0.1,0.1-0.1,0.1-0.2,0.3c-0.4,0.9-1.1,1.8-1.4,1.8c-0.1,0-0.1,0-0.3-0.2
				c-0.1-0.1-0.3-0.2-0.6-0.3c0.8-0.6,1.3-1.5,1.5-2.3C240.1,15.6,240.4,15.8,240.4,15.9z M241.2,14.6c-1.9,0-2,0-2.8,0.1
				c0,0,0,0,0,0c-0.1,0-0.1-0.1-0.2-0.1c-0.1-0.2-0.1-0.5-0.1-0.9c0.5,0.1,1.1,0.1,2.7,0.1h0.1c0.1,0,0.1,0,0.2,0v-0.2
				c0-0.5,0-0.8-0.1-1.2c0.5,0,1,0.1,1.2,0.1c0.1,0,0.1,0.1,0.1,0.1c0,0,0,0.1-0.1,0.2c-0.1,0.2-0.1,0.4-0.1,0.7v0.1
				c0,0,0,0.1,0,0.1h0.6c0.6,0,1.7,0,2.1-0.1c0,0,0,0,0.1,0c0.1,0,0.1,0,0.1,0.1c0,0,0,0.3,0,0.4c0,0.5,0,0.5-0.2,0.5
				c0,0-0.1,0-0.6,0c-0.3,0-0.4,0-2,0c0,0.4,0,1,0,1.7c0,0.9,0,0.9,0,1.6c0,0.1,0,0.2,0,0.2c0,0.9-0.3,1.1-1.2,1.1
				c-0.4,0-0.7,0-0.7-0.1c-0.1,0-0.1-0.1-0.1-0.2c-0.1-0.3-0.1-0.6-0.3-0.8c0.3,0.1,0.6,0.1,0.9,0.1c0.3,0,0.4-0.1,0.4-0.5
				L241.2,14.6z M244.9,18.1c-0.1,0-0.1,0.1-0.1,0.1c-0.2,0-0.5-0.4-0.9-1c-0.3-0.5-0.7-1.3-0.7-1.4c0-0.1,0.1-0.1,0.2-0.2
				c0.2-0.1,0.5-0.2,0.6-0.2s0.1,0,0.2,0.2c0.2,0.5,0.4,0.9,0.7,1.2c0.3,0.4,0.3,0.4,0.8,0.9C245.3,17.7,245.2,17.8,244.9,18.1z"/>
			<path class="st4" d="M250.3,15.3c1.6,0,2.6,0,3.5-0.1c0,0,0.1,0,0.1,0c0.3,0,0.3,0,0.3,0.7c0,0.4,0,0.4-0.2,0.4c0,0,0,0,0,0
				c-0.6,0-0.9,0-3.5,0c-0.9,0-1.4,0-2.2,0c-0.1,0-0.1,0-0.3,0c-0.3,0-0.3,0-0.5,0c0,0-0.1,0-0.1,0c-0.1,0-0.2,0-0.2-0.1
				c-0.1-0.2-0.1-0.7-0.1-1.1C247.8,15.3,248.4,15.3,250.3,15.3z"/>
			<path class="st4" d="M256.6,15.6c-0.1,0-0.2,0-0.2,0c0,0-0.1,0-0.1,0c0,0-0.1,0-0.1,0c-0.1,0-0.2,0-0.2-0.2
				c0-0.2-0.1-0.5-0.1-0.9c0.4,0,0.5,0,1.4,0.1c1.2,0,1.9,0,2.1,0c1.5,0,3.2,0,3.5-0.1c0,0,0.1,0,0.1,0c0.1,0,0.1,0,0.1,0.6
				c0,0.4,0,0.4-0.1,0.4c0,0,0,0-0.1,0c-0.4,0-0.6,0-2.7,0c0,0.7-0.1,1-0.2,1.4c-0.3,1-0.8,1.7-1.7,2.3c-0.2,0.2-0.4,0.2-0.5,0.2
				c0,0-0.1,0-0.2-0.1c-0.3-0.3-0.4-0.4-0.7-0.6c1.6-0.7,2.2-1.6,2.2-3.2C257.7,15.5,257.2,15.6,256.6,15.6z M259.7,12.6
				c0.9,0,1.8,0,2.2-0.1c0,0,0,0,0,0c0.1,0,0.2,0.1,0.2,0.3c0,0,0,0.1,0,0.2c0,0.1,0,0.1,0,0.2c0,0.2,0,0.3-0.2,0.3c0,0-0.1,0-0.1,0
				c-0.2,0-1.9,0-2.3,0c-1.1,0-1.8,0-2.1,0.1c0,0-0.1,0-0.1,0c-0.1,0-0.1,0-0.2-0.1c0-0.2-0.1-0.6-0.1-1
				C257.4,12.5,258.6,12.6,259.7,12.6z"/>
		</g>
	</g>
	<g>
		<g>
			<path class="st7" d="M107.5,11.8c1.3,1.4,2,3.3,2,5.2c0,4.3-3.5,7.8-7.8,7.8c-4.3,0-7.8-3.5-7.8-7.8c0-2.2,0.9-4.2,2.6-5.8
				c1.4-1.3,3.3-2,5.2-2C103.9,9.2,106,10.1,107.5,11.8z"/>
		</g>
		<g>
			<path class="st8" d="M107.5,11.8c1.3,1.4,2,3.3,2,5.2c0,4.3-3.5,7.8-7.8,7.8c-4.3,0-7.8-3.5-7.8-7.8c0-2.2,0.9-4.2,2.6-5.8
				c1.4-1.3,3.3-2,5.2-2C103.9,9.2,106,10.1,107.5,11.8z"/>
		</g>
	</g>
	<g>
		<g>
			<path class="st7" d="M76.4,97.9c1.3,1.4,2,3.3,2,5.2c0,4.3-3.5,7.8-7.8,7.8s-7.8-3.5-7.8-7.8c0-2.2,0.9-4.2,2.6-5.8
				c1.4-1.3,3.3-2,5.2-2C72.8,95.3,74.9,96.2,76.4,97.9z"/>
		</g>
		<g>
			<path class="st8" d="M76.4,97.9c1.3,1.4,2,3.3,2,5.2c0,4.3-3.5,7.8-7.8,7.8s-7.8-3.5-7.8-7.8c0-2.2,0.9-4.2,2.6-5.8
				c1.4-1.3,3.3-2,5.2-2C72.8,95.3,74.9,96.2,76.4,97.9z"/>
		</g>
	</g>
	<g>
		<polygon class="st2" points="0,74.6 28.5,102.9 72.2,59.3 72.2,22.6 62.1,12.6 		"/>
		<g>
			<path class="st9" d="M27,69.5c-0.2-0.2-0.4-0.4-0.7-0.6l0.9-0.9c0.2,0.2,0.4,0.5,0.6,0.7l0.6,0.6l1.8-1.8c0.4-0.4,0.7-0.7,0.9-1
				l0.9,0.9c-0.4,0.3-0.4,0.3-1,0.9l-4.4,4.4c-0.5,0.5-0.7,0.7-0.9,1l-0.9-0.9c0.3-0.3,0.7-0.6,1.1-1l1.7-1.7L27,69.5z M29,72
				c0.1,0.2,0.1,0.2,0.2,0.5c0.8,1.6,1.2,3.3,1.3,4.9c-0.4,0-0.8,0-1.3,0.1c0.1-0.9,0-1.6-0.3-2.6c-0.2-0.6-0.4-1.2-0.8-1.9
				c-0.1-0.1-0.1-0.3-0.3-0.5L29,72z M30.8,69.6c0.4,0.2,0.8,0.4,1.6,0.7c1.2,0.4,2.4,0.6,3.5,0.6c-0.1,0.5-0.1,0.8-0.1,1.3
				c-1.7-0.1-3.3-0.6-5.1-1.4c-0.2-0.1-0.2-0.1-0.3-0.1L30.8,69.6z"/>
			<path class="st9" d="M33.7,65.2c-0.3,0.3-0.6,0.6-0.8,0.9l-0.9-0.9c0.3-0.2,0.6-0.4,0.9-0.8l1.8-1.8l-0.5-0.5
				c-0.3-0.3-0.5-0.4-0.7-0.6l0.9-0.9c0.2,0.2,0.3,0.4,0.6,0.7l0.5,0.5l1.9-1.9c0.4-0.4,0.6-0.6,0.8-0.9l0.9,0.9
				c-0.3,0.3-0.6,0.5-0.9,0.8l-1.5,1.5c0.9,0.3,1.7,0.4,2.5,0.4c1,0,1.9-0.1,2.7-0.4c0,0.5,0.1,0.8,0.3,1.3
				c-0.8,0.1-1.4,0.2-2.2,0.2l0.8,0.8c-0.2,0.2-0.4,0.4-0.7,0.7l-0.6,0.6l0.5,0.5c0.3,0.3,0.6,0.6,0.9,0.8L40.1,68
				c-0.2-0.3-0.5-0.6-0.8-0.9l-0.5-0.5l-0.6,0.6c-0.3,0.3-0.5,0.5-0.7,0.7l-0.8-0.8c0,0.8,0,1.4-0.2,2.1C36.1,69,35.9,69,35.4,69
				c0.4-1.7,0.3-3.5-0.3-5.2L33.7,65.2z M36.9,64.7c-0.2-0.2-0.5-0.5-0.7-0.8c0.4,1.1,0.5,2,0.6,3.1c0.2-0.1,0.3-0.3,0.7-0.6
				l0.6-0.6L36.9,64.7z M39.5,64.3c0.3-0.3,0.4-0.5,0.6-0.7c-1.1,0-1.8-0.1-3.2-0.5c0.3,0.3,0.6,0.5,0.9,0.7l1.1,1.1L39.5,64.3z"/>
			<path class="st9" d="M44.1,55.1c1.8,0.6,3.5,0.6,5.5,0c0,0.6,0,0.7,0.2,1.3c-1.1,0.2-1.8,0.3-2.5,0.2c-1,0-1.7-0.1-2.7-0.5
				c0.3,0.3,0.6,0.5,0.8,0.7l2,2c0.3,0.3,0.6,0.6,0.9,0.8l-0.9,0.9c-0.2-0.3-0.5-0.6-0.8-0.9l-2-2c-0.2-0.2-0.5-0.5-0.7-0.8
				c0.6,1.6,0.6,3.2,0.3,5.1c-0.5-0.1-0.8-0.2-1.3-0.2c0.5-1.8,0.5-3.9-0.1-5.4L41.3,58c-0.3,0.3-0.6,0.6-0.8,0.9L39.6,58
				c0.3-0.2,0.6-0.5,0.9-0.8l1.8-1.8l-0.7-0.7c-0.3-0.3-0.5-0.4-0.7-0.6l0.9-0.9c0.2,0.2,0.3,0.4,0.6,0.7l0.7,0.7l1.9-1.9
				c0.4-0.4,0.6-0.6,0.8-0.9l0.8,0.8c-0.3,0.2-0.6,0.5-0.9,0.8L44.1,55.1z"/>
			<path class="st9" d="M51,50.6l0.3-0.3c0.3-0.3,0.4-0.4,0.6-0.6c0.1,0.1,0.1,0.2,0.2,0.3c0.6,0.6,1.5,1.6,1.9,2.2
				c0.4,0.5,0.5,0.8,0.4,1.2c-0.1,0.3-0.2,0.4-0.6,0.9c0,0-0.1,0.1-0.2,0.2c0,0-0.1-0.1-0.1-0.1c-0.2-0.2-0.5-0.4-0.8-0.5
				c0.3-0.2,0.4-0.3,0.5-0.4c0.2-0.2,0.2-0.3,0.1-0.6c-0.3-0.5-0.6-0.9-1.5-1.8l-1.5,1.5c-0.3,0.3-0.4,0.4-0.6,0.7
				c-0.2-0.2-0.3-0.4-0.7-0.7l-2.2-2.2c-0.4-0.4-0.6-0.6-0.9-0.8c0.2-0.2,0.4-0.4,0.8-0.8l1.2-1.2c0.3-0.3,0.5-0.5,0.7-0.8l0.7,0.7
				c-0.2,0.2-0.4,0.3-0.6,0.6l-0.3,0.3l0.4,0.4l0.2-0.2c0.2-0.2,0.4-0.4,0.5-0.6l0.6,0.6c-0.2,0.1-0.3,0.3-0.6,0.5l-0.2,0.2l0.4,0.4
				l0.2-0.2c0.2-0.2,0.4-0.4,0.5-0.6l0.6,0.6c-0.2,0.1-0.3,0.3-0.6,0.5l-0.2,0.2L51,50.6z M48,48.9l-0.5,0.5l0.4,0.4l0.5-0.5
				L48,48.9z M49,49.8l-0.5,0.5l0.4,0.4l0.5-0.5L49,49.8z M53.9,47c0.8,0.7,1.4,1,2.1,1.3c0.8,0.3,1.3,0.4,1.9,0.4
				c0,0.5,0,0.8,0.1,1.3c-0.9-0.1-1.7-0.3-2.5-0.7c-0.8-0.4-1.2-0.6-2.4-1.6l-0.6,0.6c0.9,1,1.4,1.5,1.8,2.1
				c0.5,0.8,0.8,1.4,1.1,2.1c-0.4,0-0.7,0.1-1.1,0.2c-0.3-1.4-1.1-2.4-4.2-5.4c-0.6-0.6-0.8-0.8-1.1-1c0.2-0.2,0.4-0.4,0.8-0.8
				l1.3-1.3c0.4-0.4,0.6-0.6,0.7-0.8c0.2,0.2,0.3,0.3,0.7,0.8l1.2,1.2c0.4,0.4,0.6,0.6,0.8,0.7c-0.1,0.1-0.4,0.3-0.6,0.6L53.9,47z
				 M49.4,51.3l0.5,0.5l0.5-0.5l-0.5-0.5L49.4,51.3z M50.5,52.9c1,1.1,1.3,1.5,1.7,2.3l-0.8,0.3c-0.4-0.8-0.8-1.4-1.5-2.2L50.5,52.9
				z M50.9,52.4c0.6,0.5,1.1,0.9,1.8,1.6l-0.4,0.5c-0.3-0.3-0.4-0.4-0.6-0.7c-0.5-0.5-0.6-0.6-1.1-1L50.9,52.4z M53.4,46.3l-1.3-1.3
				l-1.4,1.4l0.3,0.3c0.3,0.3,0.4,0.4,0.6,0.6c0.1,0.1,0.2,0.2,0.2,0.3c0,0,0.1,0.1,0.2,0.2L53.4,46.3z M51.3,51.9
				c0.5,0.3,1.1,0.7,1.6,1.1l-0.3,0.5c-0.5-0.5-1-0.9-1.6-1.3L51.3,51.9z M51.7,51.5c0.4,0.1,0.7,0.3,1.2,0.7l-0.2,0.5
				c-0.5-0.4-0.8-0.6-1.2-0.8L51.7,51.5z"/>
		</g>
	</g>
	<g>
		<rect x="369.2" y="75" class="st8" width="52" height="37"/>
		<g>
			<path class="st9" d="M383.3,83.3h1.5l3.7,8.4h-2.1l-0.7-1.8h-3.3l-0.7,1.8h-2L383.3,83.3z M384,85.7l-1,2.6h2.1L384,85.7z"/>
			<path class="st9" d="M392,87.3l-2.8-4h2.3l1.8,2.9l1.7-2.9h2.2l-2.7,4l3,4.4h-2.3l-2.1-3.4l-2,3.4h-2.2L392,87.3z"/>
			<path class="st9" d="M399.1,83.3h1.9v8.4h-1.9V83.3z"/>
			<path class="st9" d="M407.4,85.4c-0.2-0.2-0.4-0.3-0.6-0.4c-0.3-0.1-0.5-0.1-0.7-0.1c-0.1,0-0.3,0-0.4,0c-0.1,0-0.3,0.1-0.4,0.1
				c-0.1,0.1-0.2,0.2-0.3,0.3c-0.1,0.1-0.1,0.2-0.1,0.4c0,0.3,0.1,0.4,0.3,0.6c0.2,0.1,0.4,0.2,0.7,0.3c0.3,0.1,0.6,0.2,0.9,0.3
				c0.3,0.1,0.6,0.2,0.9,0.4c0.3,0.2,0.5,0.4,0.7,0.7c0.2,0.3,0.3,0.7,0.3,1.2c0,0.5-0.1,0.9-0.3,1.2c-0.2,0.3-0.4,0.6-0.7,0.9
				c-0.3,0.2-0.6,0.4-1,0.5c-0.4,0.1-0.8,0.2-1.2,0.2c-0.5,0-1.1-0.1-1.5-0.2c-0.5-0.2-0.9-0.4-1.3-0.8l1.3-1.5
				c0.2,0.3,0.4,0.4,0.7,0.6c0.3,0.1,0.6,0.2,0.9,0.2c0.1,0,0.3,0,0.5-0.1c0.2,0,0.3-0.1,0.4-0.2c0.1-0.1,0.2-0.2,0.3-0.3
				c0.1-0.1,0.1-0.2,0.1-0.4c0-0.3-0.1-0.5-0.3-0.6s-0.4-0.3-0.7-0.4c-0.3-0.1-0.6-0.2-1-0.3c-0.3-0.1-0.7-0.2-1-0.4
				s-0.5-0.4-0.7-0.7c-0.2-0.3-0.3-0.7-0.3-1.1c0-0.5,0.1-0.8,0.3-1.2c0.2-0.3,0.4-0.6,0.7-0.9c0.3-0.2,0.6-0.4,1-0.5
				c0.4-0.1,0.8-0.2,1.2-0.2c0.5,0,0.9,0.1,1.4,0.2c0.4,0.1,0.8,0.4,1.2,0.7L407.4,85.4z"/>
			<g>
				<path class="st9" d="M386.5,103.4c0.2,0.3,0.7,0.4,1.9,0.4c1.1,0,1.7,0,3.4-0.3c0,0,0.1,0,0.1,0c0.1,0,0.2,0.1,0.2,0.2
					c0,0.2,0.1,0.8,0.1,1c0,0.2-0.1,0.3-0.2,0.3c-0.4,0.1-2.1,0.2-3.4,0.2c-1.4,0-2.1-0.1-2.7-0.4c-0.4-0.2-0.7-0.5-0.8-1
					c-0.1-0.3-0.1-0.6-0.1-1c0-0.1,0-0.3,0-0.5c0-1.3,0-1.4,0-2.2c0-2.1,0-2.8-0.1-3.4c1.5,0.1,1.8,0.2,1.8,0.4c0,0.1,0,0.1-0.1,0.2
					c0,0.1-0.1,0.2-0.1,0.5c0,0.4-0.1,0.6-0.1,1.3c0,0.5,0,0.8,0,1c2.1-0.6,3.8-1.5,4.5-2.2c0.6,0.7,0.9,1.3,0.9,1.5
					c0,0.1,0,0.1-0.3,0.2c-0.2,0.1-0.5,0.2-0.9,0.4c-1.5,0.7-2.5,1.1-4.2,1.5C386.4,103,386.4,103.2,386.5,103.4z M391.9,98.2
					c-0.3-0.5-0.5-0.8-0.9-1.2c-0.1-0.1-0.1-0.1-0.1-0.1c0-0.1,0.1-0.1,0.3-0.3c0.2-0.1,0.3-0.2,0.3-0.2c0.1,0,0.2,0.1,0.5,0.4
					c0.4,0.4,0.7,0.8,0.7,0.9c0,0.1-0.5,0.6-0.7,0.6C392,98.3,391.9,98.3,391.9,98.2z M393.2,97.5c0,0-0.1,0-0.1-0.1
					c-0.3-0.5-0.5-0.8-0.9-1.2c0,0-0.1-0.1-0.1-0.1c0-0.1,0.5-0.5,0.6-0.5c0.1,0,0.3,0.1,0.5,0.4c0.3,0.4,0.6,0.8,0.6,0.9
					C393.9,97.1,393.4,97.5,393.2,97.5z"/>
				<path class="st9" d="M397.4,97c0.1,0,0.1,0.1,0.1,0.2c0,0,0,0.1,0,0.2c-0.1,0.3-0.1,0.5-0.1,0.9c0,2.9-0.6,4.8-1.8,6.4
					c-0.3,0.3-0.4,0.4-0.5,0.4c0,0-0.1,0-0.2-0.1c-0.3-0.2-0.6-0.3-1.2-0.4c0.8-0.8,1.2-1.3,1.5-2.1c0.5-1.1,0.7-2.3,0.7-4
					c0-0.8,0-1.2-0.1-1.8C396.5,96.8,397.1,96.9,397.4,97z M398.7,98.2c0-0.6,0-1.1-0.1-1.6c1.3,0,1.8,0.1,1.8,0.4
					c0,0.1,0,0.1-0.1,0.2c0,0.1-0.1,0.3-0.1,0.4c0,0.3,0,0.3-0.1,5.6c1.5-0.9,2.5-1.7,3.5-3c0,0.6,0.1,1.1,0.2,1.4
					c0,0.1,0,0.1,0,0.2c0,0.2-0.1,0.3-0.7,0.9c-0.9,0.8-1.5,1.2-2.6,1.8c-0.3,0.1-0.4,0.2-0.6,0.4c-0.1,0.1-0.2,0.1-0.3,0.1
					c-0.1,0-0.6-0.3-0.9-0.6c-0.2-0.2-0.3-0.4-0.3-0.6c0-0.1,0-0.1,0-0.2c0.1-0.2,0.1-0.4,0.1-1.1V98.2z"/>
			</g>
		</g>
	</g>
	<polygon class="st8" points="423.2,63 313.2,63 313.2,44 310.2,44 310.2,63 86.2,63 86.2,19 94.2,19 94.2,15 83.2,15 83.2,63.7 
		55.1,91.3 64.1,100.5 66.6,97.9 60,91.4 85.5,66 393.2,66 393.2,82 396.2,82 396.2,66 423.2,66 	"/>
	<g>
		<g>
			<path class="st3" d="M130.6,41.6c0.6,0.5,0.9,0.8,1.4,1.3c0.4-1,0.6-1.7,0.8-3.1H131c-0.6,1.5-1.4,2.7-2.5,4
				c-0.3-0.6-0.4-0.7-0.9-1.2c1-1.1,1.8-2.4,2.4-4c0.2-0.5,0.3-1.3,0.4-1.7l1.5,0.3c-0.1,0.2-0.1,0.4-0.2,0.7
				c-0.1,0.3-0.1,0.4-0.2,0.7h1.8c0.5,0,0.7,0,1,0c-0.1,0.3-0.1,0.3-0.1,0.9c0.3,0.7,0.6,1.1,1.3,1.9v-2.8c0-0.7,0-1-0.1-1.5h1.6
				c-0.1,0.5-0.1,0.8-0.1,1.5v4.2c0.3,0.3,0.6,0.4,1.2,0.8c0.9,0.5,1.1,0.6,1.7,0.9c-0.3,0.4-0.5,0.8-0.8,1.4
				c-1-0.5-1.4-0.8-2.2-1.4v2.8c0,0.7,0,1.1,0.1,1.7h-1.6c0.1-0.5,0.1-1,0.1-1.7v-4c-0.8-0.8-1.1-1.2-1.6-1.9
				c-0.4,1.7-0.9,3.1-1.7,4.3c-0.8,1.2-1.9,2.3-3.2,3.2c-0.3-0.5-0.6-0.9-1-1.2c0.7-0.4,0.9-0.6,1.5-1.1c0.9-0.8,1.4-1.4,2-2.3
				c-0.5-0.6-0.9-1-1.6-1.5L130.6,41.6z"/>
			<path class="st3" d="M143.6,43.2c0.6,0.4,0.9,0.7,1.3,1.1c0.4-0.7,0.6-1.1,0.8-2h-2c-0.6,1.1-1.3,1.9-2.2,2.6
				c-0.3-0.6-0.4-0.8-0.8-1.2c1.2-0.9,2.2-2.4,2.5-3.8l0.8,0.1c0-0.1,0-0.2,0-0.4v-0.3h-1.5c-0.7,0-1.1,0-1.5,0.1V38
				c0.4,0.1,0.8,0.1,1.5,0.1h1.5v-0.3c0-0.3,0-0.5-0.1-0.8h1.5c0,0.2-0.1,0.5-0.1,0.8v0.3h2.6v-0.3c0-0.3,0-0.5-0.1-0.8h1.5
				c0,0.2-0.1,0.5-0.1,0.8v0.3h1.7c0.7,0,1.1,0,1.5-0.1v1.4c-0.4-0.1-0.8-0.1-1.5-0.1h-1.7v0.3c0,0.3,0,0.4,0,0.7h-1.4
				c0-0.2,0-0.4,0-0.7v-0.3h-2.6v0.3c0,0.3,0,0.5,0,0.7h-0.9c0,0.1,0,0.1-0.1,0.1s-0.1,0.2-0.2,0.6h1.5c0.4,0,0.6,0,0.8,0l0.5,0.6
				c-0.1,0.3-0.1,0.3-0.2,0.9c-0.3,1.4-0.9,2.7-1.9,3.8c-0.9,1.1-1.9,1.8-3.3,2.6c-0.3-0.5-0.5-0.8-0.9-1.2c1.4-0.7,2.2-1.2,3.2-2.2
				c-0.4-0.4-0.7-0.7-1.2-1.1L143.6,43.2z M148.7,46.9c0,0.4,0.1,0.5,0.9,0.5c0,0,0.1,0,0.1,0c0.3,0,0.5,0,0.8,0
				c0.5,0,0.7-0.1,0.8-0.2c0.1-0.2,0.2-0.6,0.2-1.4c0.5,0.2,0.8,0.3,1.3,0.5c-0.1,1.2-0.2,1.6-0.5,1.9c-0.3,0.4-0.8,0.5-2.4,0.5
				c-1.4,0-1.8,0-2.1-0.2c-0.3-0.2-0.5-0.5-0.5-1.2v-5.4c0-0.5,0-0.6,0-1c0.3,0,0.6,0.1,1.1,0.1h2.6c0.5,0,0.9,0,1.2-0.1
				c0,0.3,0,0.6-0.1,1.5c0,1.6-0.1,2.5-0.3,2.8c-0.2,0.4-0.5,0.6-1.2,0.6c-0.4,0-0.8,0-1.2-0.1c0-0.5-0.1-0.9-0.3-1.3
				c0.5,0.1,0.8,0.1,1.1,0.1c0.2,0,0.3-0.1,0.4-0.2c0.1-0.3,0.1-1,0.1-2.1h-2L148.7,46.9L148.7,46.9z"/>
			<path class="st3" d="M156,39.4c-0.7,0-1.1,0-1.5,0.1V38c0.5,0.1,0.9,0.1,1.6,0.1h3.4c0-0.5,0-0.7-0.1-1.2h1.6
				c-0.1,0.4-0.1,0.7-0.1,1.2h3.5c0.8,0,1.3,0,1.7-0.1v1.4c-0.4,0-0.9-0.1-1.6-0.1h-3.6v0.7h2.7c0.8,0,1.1,0,1.4-0.1
				c0,0.4-0.1,0.8-0.1,1.3v2.4c0,0.7,0,0.7,0.1,1.3c-0.4-0.1-0.7-0.1-1.4-0.1H162c1.2,1.1,2.5,1.7,4.5,2.2c-0.3,0.5-0.5,0.7-0.7,1.4
				c-1-0.3-1.8-0.7-2.6-1.2c-0.9-0.6-1.5-1-2.2-1.8c0,0.3,0,0.7,0,0.9v0.9c0,0.7,0,1,0.1,1.5h-1.6c0.1-0.5,0.1-0.9,0.1-1.5v-0.9
				c0-0.1,0-0.6,0-0.9c-0.7,0.8-1.4,1.5-2.5,2c-0.6,0.3-1.4,0.7-2.2,1c-0.3-0.6-0.4-0.8-0.7-1.3c0.9-0.3,1.6-0.5,2.4-0.9
				c0.8-0.4,1.4-0.9,1.8-1.3H157c-0.8,0-1,0-1.4,0.1c0-0.1,0-0.1,0-0.4c0-0.1,0-0.1,0-1v-2.4c0-0.7,0-0.9-0.1-1.3
				c0.3,0,0.7,0.1,1.4,0.1h2.5v-0.7L156,39.4L156,39.4z M157,41.2V42h2.5v-0.8H157z M157,43v0.8h2.5V43H157z M160.9,42h2.7v-0.8
				h-2.7V42z M160.9,43.8h2.7V43h-2.7V43.8z"/>
			<path class="st3" d="M167.7,41.8c0.3,0.1,0.5,0.1,1,0.1h0.9c0.4,0,0.7,0,1-0.1c0,0.4-0.1,0.7-0.1,1.4V46c0.2,0.4,0.3,0.5,0.6,0.7
				c0.2,0.2,0.5,0.3,0.6,0.3c0.6,0.2,1.4,0.2,2.5,0.2c2.1,0,2.8,0,5.4-0.3c-0.2,0.5-0.3,1-0.4,1.5c-1.7,0.1-3,0.1-5.1,0.1
				c-1.3,0-2.4-0.1-2.9-0.3c-0.6-0.2-1-0.5-1.5-1.1l-0.2,0.2c-0.3,0.3-0.3,0.3-0.8,0.8c-0.1,0.1-0.1,0.1-0.3,0.2
				c-0.1,0.1-0.2,0.1-0.3,0.2l-0.7-1.4c0.5-0.2,1.1-0.7,1.7-1.2v-2.7h-0.7c-0.3,0-0.5,0-0.8,0.1L167.7,41.8L167.7,41.8z M168.7,37.1
				c0.9,0.8,1.6,1.5,2.2,2.3l-1.1,1c-0.7-1-1.3-1.6-2.2-2.4L168.7,37.1z M173.8,39.7c-0.7-0.5-0.7-0.5-1.1-0.7l1-0.6h-1.2
				c-0.6,0-0.9,0-1.3,0.1v-1.3c0.4,0.1,0.8,0.1,1.5,0.1h4.2c0.8,0,1.2,0,1.4-0.1L179,38c-0.2,0.1-0.3,0.2-0.6,0.5
				c-0.5,0.4-1.1,0.9-1.7,1.2h1c0.7,0,1,0,1.3-0.1c0,0.3,0,0.8,0,1.5v4c0,0.7-0.1,1-0.2,1.2c-0.2,0.2-0.5,0.3-1.3,0.3
				c-0.1,0-0.3,0-0.6,0c-0.1-0.5-0.1-0.8-0.3-1.2c0.3,0.1,0.6,0.1,0.9,0.1c0.3,0,0.3,0,0.3-0.3v-0.5h-1.9v0.5c0,0.7,0,1,0.1,1.4
				h-1.4c0.1-0.4,0.1-0.8,0.1-1.4v-0.5h-1.7v0.7c0,0.7,0,1.1,0.1,1.4h-1.4c0.1-0.3,0.1-0.8,0.1-1.4v-4.1c0-0.7,0-1-0.1-1.5
				c0.4,0,0.8,0.1,1.4,0.1L173.8,39.7L173.8,39.7z M172.7,40.8v0.8h1.7v-0.8H172.7z M172.7,43.5h1.7v-0.9h-1.7V43.5z M173.8,38.5
				c0.5,0.3,0.5,0.3,1.4,1c0.8-0.5,0.9-0.7,1.3-1H173.8z M175.7,41.6h1.9v-0.8h-1.9V41.6z M177.7,42.7h-1.9v0.9h1.9V42.7z"/>
			<path class="st3" d="M184,42c0.1-0.1,0.1-0.1,0.7-1.1c0.1,0.2,0.2,0.4,0.3,0.6c0.1,0.1,0.1,0.2,0.1,0.3s0,0.1-0.3,0.7
				c-0.2,0.4-0.6,1.2-0.8,1.6c-0.1,0.4-0.2,0.4-0.6,0.4c-0.5,0-0.8-0.1-0.8-0.1c-0.1-0.1-0.1-0.8-0.1-1.8c0-1.3,0.1-2.2,0.4-4.6
				c0-0.3,0.1-0.4,0.1-0.7c1,0.2,1.7,0.5,1.7,0.7c0,0.1,0,0.1-0.1,0.2c-0.2,0.3-0.3,0.6-0.4,1.3c-0.2,0.9-0.3,2.1-0.3,2.8
				C183.9,42.2,183.9,42.2,184,42z M188.8,38.1C188.8,38.1,188.8,38.2,188.8,38.1c0,0.1,0,0.2,0,0.2c0,0.1,0,0.2,0,0.3
				c0,0.2,0,0.2,0,0.5c0,0.1,0,0.1,0,0.6c0,0.6,0.1,1.3,0.1,1.6c0,2.5-0.7,4.5-2,6.1c-0.5,0.6-1,1-1.3,1c-0.2,0-0.2,0-0.5-0.2
				c-0.3-0.2-0.6-0.4-0.9-0.5c0.9-0.7,1.4-1.1,1.9-1.8c0.8-1.2,1.2-2.6,1.2-4.3c0-1.8-0.1-3-0.4-3.8c0.6-0.1,1-0.1,1.4-0.1
				C188.8,37.8,188.8,37.8,188.8,38.1L188.8,38.1z"/>
		</g>
		<g>
			<path class="st5" d="M130.6,41.6c0.6,0.5,0.9,0.8,1.4,1.3c0.4-1,0.6-1.7,0.8-3.1H131c-0.6,1.5-1.4,2.7-2.5,4
				c-0.3-0.6-0.4-0.7-0.9-1.2c1-1.1,1.8-2.4,2.4-4c0.2-0.5,0.3-1.3,0.4-1.7l1.5,0.3c-0.1,0.2-0.1,0.4-0.2,0.7
				c-0.1,0.3-0.1,0.4-0.2,0.7h1.8c0.5,0,0.7,0,1,0c-0.1,0.3-0.1,0.3-0.1,0.9c0.3,0.7,0.6,1.1,1.3,1.9v-2.8c0-0.7,0-1-0.1-1.5h1.6
				c-0.1,0.5-0.1,0.8-0.1,1.5v4.2c0.3,0.3,0.6,0.4,1.2,0.8c0.9,0.5,1.1,0.6,1.7,0.9c-0.3,0.4-0.5,0.8-0.8,1.4
				c-1-0.5-1.4-0.8-2.2-1.4v2.8c0,0.7,0,1.1,0.1,1.7h-1.6c0.1-0.5,0.1-1,0.1-1.7v-4c-0.8-0.8-1.1-1.2-1.6-1.9
				c-0.4,1.7-0.9,3.1-1.7,4.3c-0.8,1.2-1.9,2.3-3.2,3.2c-0.3-0.5-0.6-0.9-1-1.2c0.7-0.4,0.9-0.6,1.5-1.1c0.9-0.8,1.4-1.4,2-2.3
				c-0.5-0.6-0.9-1-1.6-1.5L130.6,41.6z"/>
			<path class="st5" d="M143.6,43.2c0.6,0.4,0.9,0.7,1.3,1.1c0.4-0.7,0.6-1.1,0.8-2h-2c-0.6,1.1-1.3,1.9-2.2,2.6
				c-0.3-0.6-0.4-0.8-0.8-1.2c1.2-0.9,2.2-2.4,2.5-3.8l0.8,0.1c0-0.1,0-0.2,0-0.4v-0.3h-1.5c-0.7,0-1.1,0-1.5,0.1V38
				c0.4,0.1,0.8,0.1,1.5,0.1h1.5v-0.3c0-0.3,0-0.5-0.1-0.8h1.5c0,0.2-0.1,0.5-0.1,0.8v0.3h2.6v-0.3c0-0.3,0-0.5-0.1-0.8h1.5
				c0,0.2-0.1,0.5-0.1,0.8v0.3h1.7c0.7,0,1.1,0,1.5-0.1v1.4c-0.4-0.1-0.8-0.1-1.5-0.1h-1.7v0.3c0,0.3,0,0.4,0,0.7h-1.4
				c0-0.2,0-0.4,0-0.7v-0.3h-2.6v0.3c0,0.3,0,0.5,0,0.7h-0.9c0,0.1,0,0.1-0.1,0.1s-0.1,0.2-0.2,0.6h1.5c0.4,0,0.6,0,0.8,0l0.5,0.6
				c-0.1,0.3-0.1,0.3-0.2,0.9c-0.3,1.4-0.9,2.7-1.9,3.8c-0.9,1.1-1.9,1.8-3.3,2.6c-0.3-0.5-0.5-0.8-0.9-1.2c1.4-0.7,2.2-1.2,3.2-2.2
				c-0.4-0.4-0.7-0.7-1.2-1.1L143.6,43.2z M148.7,46.9c0,0.4,0.1,0.5,0.9,0.5c0,0,0.1,0,0.1,0c0.3,0,0.5,0,0.8,0
				c0.5,0,0.7-0.1,0.8-0.2c0.1-0.2,0.2-0.6,0.2-1.4c0.5,0.2,0.8,0.3,1.3,0.5c-0.1,1.2-0.2,1.6-0.5,1.9c-0.3,0.4-0.8,0.5-2.4,0.5
				c-1.4,0-1.8,0-2.1-0.2c-0.3-0.2-0.5-0.5-0.5-1.2v-5.4c0-0.5,0-0.6,0-1c0.3,0,0.6,0.1,1.1,0.1h2.6c0.5,0,0.9,0,1.2-0.1
				c0,0.3,0,0.6-0.1,1.5c0,1.6-0.1,2.5-0.3,2.8c-0.2,0.4-0.5,0.6-1.2,0.6c-0.4,0-0.8,0-1.2-0.1c0-0.5-0.1-0.9-0.3-1.3
				c0.5,0.1,0.8,0.1,1.1,0.1c0.2,0,0.3-0.1,0.4-0.2c0.1-0.3,0.1-1,0.1-2.1h-2L148.7,46.9L148.7,46.9z"/>
			<path class="st5" d="M156,39.4c-0.7,0-1.1,0-1.5,0.1V38c0.5,0.1,0.9,0.1,1.6,0.1h3.4c0-0.5,0-0.7-0.1-1.2h1.6
				c-0.1,0.4-0.1,0.7-0.1,1.2h3.5c0.8,0,1.3,0,1.7-0.1v1.4c-0.4,0-0.9-0.1-1.6-0.1h-3.6v0.7h2.7c0.8,0,1.1,0,1.4-0.1
				c0,0.4-0.1,0.8-0.1,1.3v2.4c0,0.7,0,0.7,0.1,1.3c-0.4-0.1-0.7-0.1-1.4-0.1H162c1.2,1.1,2.5,1.7,4.5,2.2c-0.3,0.5-0.5,0.7-0.7,1.4
				c-1-0.3-1.8-0.7-2.6-1.2c-0.9-0.6-1.5-1-2.2-1.8c0,0.3,0,0.7,0,0.9v0.9c0,0.7,0,1,0.1,1.5h-1.6c0.1-0.5,0.1-0.9,0.1-1.5v-0.9
				c0-0.1,0-0.6,0-0.9c-0.7,0.8-1.4,1.5-2.5,2c-0.6,0.3-1.4,0.7-2.2,1c-0.3-0.6-0.4-0.8-0.7-1.3c0.9-0.3,1.6-0.5,2.4-0.9
				c0.8-0.4,1.4-0.9,1.8-1.3H157c-0.8,0-1,0-1.4,0.1c0-0.1,0-0.1,0-0.4c0-0.1,0-0.1,0-1v-2.4c0-0.7,0-0.9-0.1-1.3
				c0.3,0,0.7,0.1,1.4,0.1h2.5v-0.7L156,39.4L156,39.4z M157,41.2V42h2.5v-0.8H157z M157,43v0.8h2.5V43H157z M160.9,42h2.7v-0.8
				h-2.7V42z M160.9,43.8h2.7V43h-2.7V43.8z"/>
			<path class="st5" d="M167.7,41.8c0.3,0.1,0.5,0.1,1,0.1h0.9c0.4,0,0.7,0,1-0.1c0,0.4-0.1,0.7-0.1,1.4V46c0.2,0.4,0.3,0.5,0.6,0.7
				c0.2,0.2,0.5,0.3,0.6,0.3c0.6,0.2,1.4,0.2,2.5,0.2c2.1,0,2.8,0,5.4-0.3c-0.2,0.5-0.3,1-0.4,1.5c-1.7,0.1-3,0.1-5.1,0.1
				c-1.3,0-2.4-0.1-2.9-0.3c-0.6-0.2-1-0.5-1.5-1.1l-0.2,0.2c-0.3,0.3-0.3,0.3-0.8,0.8c-0.1,0.1-0.1,0.1-0.3,0.2
				c-0.1,0.1-0.2,0.1-0.3,0.2l-0.7-1.4c0.5-0.2,1.1-0.7,1.7-1.2v-2.7h-0.7c-0.3,0-0.5,0-0.8,0.1L167.7,41.8L167.7,41.8z M168.7,37.1
				c0.9,0.8,1.6,1.5,2.2,2.3l-1.1,1c-0.7-1-1.3-1.6-2.2-2.4L168.7,37.1z M173.8,39.7c-0.7-0.5-0.7-0.5-1.1-0.7l1-0.6h-1.2
				c-0.6,0-0.9,0-1.3,0.1v-1.3c0.4,0.1,0.8,0.1,1.5,0.1h4.2c0.8,0,1.2,0,1.4-0.1L179,38c-0.2,0.1-0.3,0.2-0.6,0.5
				c-0.5,0.4-1.1,0.9-1.7,1.2h1c0.7,0,1,0,1.3-0.1c0,0.3,0,0.8,0,1.5v4c0,0.7-0.1,1-0.2,1.2c-0.2,0.2-0.5,0.3-1.3,0.3
				c-0.1,0-0.3,0-0.6,0c-0.1-0.5-0.1-0.8-0.3-1.2c0.3,0.1,0.6,0.1,0.9,0.1c0.3,0,0.3,0,0.3-0.3v-0.5h-1.9v0.5c0,0.7,0,1,0.1,1.4
				h-1.4c0.1-0.4,0.1-0.8,0.1-1.4v-0.5h-1.7v0.7c0,0.7,0,1.1,0.1,1.4h-1.4c0.1-0.3,0.1-0.8,0.1-1.4v-4.1c0-0.7,0-1-0.1-1.5
				c0.4,0,0.8,0.1,1.4,0.1L173.8,39.7L173.8,39.7z M172.7,40.8v0.8h1.7v-0.8H172.7z M172.7,43.5h1.7v-0.9h-1.7V43.5z M173.8,38.5
				c0.5,0.3,0.5,0.3,1.4,1c0.8-0.5,0.9-0.7,1.3-1H173.8z M175.7,41.6h1.9v-0.8h-1.9V41.6z M177.7,42.7h-1.9v0.9h1.9V42.7z"/>
			<path class="st5" d="M184,42c0.1-0.1,0.1-0.1,0.7-1.1c0.1,0.2,0.2,0.4,0.3,0.6c0.1,0.1,0.1,0.2,0.1,0.3s0,0.1-0.3,0.7
				c-0.2,0.4-0.6,1.2-0.8,1.6c-0.1,0.4-0.2,0.4-0.6,0.4c-0.5,0-0.8-0.1-0.8-0.1c-0.1-0.1-0.1-0.8-0.1-1.8c0-1.3,0.1-2.2,0.4-4.6
				c0-0.3,0.1-0.4,0.1-0.7c1,0.2,1.7,0.5,1.7,0.7c0,0.1,0,0.1-0.1,0.2c-0.2,0.3-0.3,0.6-0.4,1.3c-0.2,0.9-0.3,2.1-0.3,2.8
				C183.9,42.2,183.9,42.2,184,42z M188.8,38.1C188.8,38.1,188.8,38.2,188.8,38.1c0,0.1,0,0.2,0,0.2c0,0.1,0,0.2,0,0.3
				c0,0.2,0,0.2,0,0.5c0,0.1,0,0.1,0,0.6c0,0.6,0.1,1.3,0.1,1.6c0,2.5-0.7,4.5-2,6.1c-0.5,0.6-1,1-1.3,1c-0.2,0-0.2,0-0.5-0.2
				c-0.3-0.2-0.6-0.4-0.9-0.5c0.9-0.7,1.4-1.1,1.9-1.8c0.8-1.2,1.2-2.6,1.2-4.3c0-1.8-0.1-3-0.4-3.8c0.6-0.1,1-0.1,1.4-0.1
				C188.8,37.8,188.8,37.8,188.8,38.1L188.8,38.1z"/>
		</g>
	</g>
	<g>
		<g>
			<path class="st1" d="M378.7,121c0.1,0.2,0.4,0.2,1.2,0.2c0.7,0,1.1,0,2.1-0.2c0,0,0,0,0.1,0c0.1,0,0.1,0,0.1,0.1
				c0,0.1,0.1,0.5,0.1,0.6c0,0.1,0,0.2-0.1,0.2c-0.2,0.1-1.3,0.1-2.1,0.1c-0.9,0-1.3-0.1-1.6-0.2c-0.3-0.1-0.4-0.3-0.5-0.6
				c0-0.2-0.1-0.3-0.1-0.6c0-0.1,0-0.2,0-0.3c0-0.8,0-0.9,0-1.4c0-1.3,0-1.8-0.1-2.1c0.9,0.1,1.1,0.1,1.1,0.3c0,0,0,0.1,0,0.1
				c0,0.1,0,0.1-0.1,0.3c0,0.2,0,0.4,0,0.8c0,0.3,0,0.5,0,0.6c1.3-0.4,2.3-0.9,2.8-1.4c0.4,0.5,0.6,0.8,0.6,0.9c0,0.1,0,0.1-0.2,0.1
				c-0.1,0-0.3,0.1-0.6,0.3c-0.9,0.4-1.6,0.7-2.6,0.9C378.6,120.8,378.6,120.9,378.7,121z M382,117.8c-0.2-0.3-0.3-0.5-0.5-0.8
				c0-0.1,0-0.1,0-0.1c0,0,0-0.1,0.2-0.2c0.1-0.1,0.2-0.1,0.2-0.1c0.1,0,0.1,0.1,0.3,0.3c0.2,0.3,0.4,0.5,0.4,0.6
				C382.5,117.6,382.2,117.9,382,117.8C382.1,117.9,382,117.9,382,117.8z M382.9,117.4C382.8,117.4,382.8,117.4,382.9,117.4
				c-0.3-0.4-0.4-0.6-0.6-0.8c0,0,0,0,0-0.1c0-0.1,0.3-0.3,0.4-0.3c0.1,0,0.2,0.1,0.3,0.3c0.2,0.2,0.4,0.5,0.4,0.6
				C383.3,117.1,383,117.4,382.9,117.4z"/>
			<path class="st1" d="M385.4,117.1c0.1,0,0.1,0.1,0.1,0.1c0,0,0,0,0,0.1c0,0.2-0.1,0.3-0.1,0.6c0,1.8-0.3,3-1.1,4
				c-0.2,0.2-0.2,0.3-0.3,0.3c0,0-0.1,0-0.1,0c-0.2-0.1-0.4-0.2-0.7-0.3c0.5-0.5,0.7-0.8,0.9-1.3c0.3-0.7,0.4-1.4,0.4-2.5
				c0-0.5,0-0.7-0.1-1.1C384.9,117,385.2,117,385.4,117.1z M386.2,117.8c0-0.4,0-0.7-0.1-1c0.8,0,1.1,0.1,1.1,0.2c0,0,0,0.1,0,0.1
				c0,0,0,0.2-0.1,0.3c0,0.2,0,0.2,0,3.5c0.9-0.5,1.6-1,2.2-1.8c0,0.4,0,0.7,0.1,0.9c0,0.1,0,0.1,0,0.1c0,0.1-0.1,0.2-0.4,0.5
				c-0.5,0.5-0.9,0.8-1.6,1.1c-0.2,0.1-0.3,0.1-0.4,0.2c-0.1,0-0.1,0.1-0.2,0.1c-0.1,0-0.4-0.2-0.5-0.4c-0.1-0.1-0.2-0.3-0.2-0.4
				c0,0,0-0.1,0-0.1c0.1-0.1,0.1-0.3,0.1-0.7L386.2,117.8L386.2,117.8z"/>
			<path class="st1" d="M391.1,120.4c-0.1,0.9-0.1,1.5-0.3,2l-0.5-0.3c0.2-0.5,0.3-1,0.3-1.8L391.1,120.4z M392.5,119.5h0.4
				c0.3,0,0.4,0,0.6,0c0,0.1,0,0.2,0,0.5c0,1-0.1,1.7-0.2,2.1c-0.1,0.5-0.3,0.7-0.9,0.7c-0.1,0-0.2,0-0.4,0c0-0.3,0-0.4-0.1-0.7
				c0.2,0.1,0.4,0.1,0.5,0.1c0.2,0,0.3-0.1,0.4-0.5c0.1-0.4,0.1-0.8,0.1-1.5h-1.7c-0.2,0-0.3,0-0.5,0c0-0.2,0-0.5,0-0.7v-2.4
				c0-0.3,0-0.5,0-0.7c0.3,0,0.4,0,0.7,0h1.4c0.3,0,0.5,0,0.7,0v0.7c-0.2,0-0.3,0-0.5,0h-0.4v0.4h0.3c0.2,0,0.3,0,0.5,0v0.6
				c-0.2,0-0.3,0-0.5,0h-0.3v0.4h0.3c0.2,0,0.3,0,0.5,0v0.6c-0.2,0-0.3,0-0.5,0h-0.3L392.5,119.5L392.5,119.5z M391.6,120.4
				c0,0.5,0.1,0.9,0.1,1.3c0,0.1,0,0.2,0,0.4l-0.5,0.1c0-0.4,0-0.6,0-1c0-0.3,0-0.4,0-0.7L391.6,120.4z M391.9,117h-0.6v0.4h0.6V117
				z M391.9,118h-0.6v0.4h0.6V118z M391.3,119.1v0.5h0.6v-0.5H391.3z M392,120.3c0.1,0.5,0.2,0.9,0.2,1.4l-0.4,0.1
				c0-0.7-0.1-1-0.2-1.5L392,120.3z M392.4,120.3c0.1,0.4,0.2,0.6,0.2,1l-0.3,0.1c0-0.4-0.1-0.7-0.2-1L392.4,120.3z M395.4,117.5
				c-0.3-0.3-0.7-0.6-1.3-0.8l0.5-0.5c0.5,0.3,0.9,0.5,1.4,0.9l-0.5,0.5h0.6c0.3,0,0.5,0,0.7,0v0.8c-0.2,0-0.4,0-0.7,0h-0.6v1.3h0.4
				c0.3,0,0.5,0,0.7,0v0.8c-0.2,0-0.4,0-0.7,0h-0.4v1.6h0.6c0.3,0,0.6,0,0.8,0v0.8c-0.2,0-0.5,0-0.8,0h-1.9c-0.3,0-0.6,0-0.8,0v-0.8
				c0.2,0,0.5,0,0.8,0h0.6v-1.6h-0.4c-0.3,0-0.5,0-0.7,0v-0.8c0.2,0,0.4,0,0.7,0h0.4v-1.3h-0.5c-0.3,0-0.5,0-0.7,0v-0.8
				c0.2,0,0.5,0,0.7,0H395.4z"/>
			<path class="st1" d="M400.6,116.8c0-0.2,0-0.4,0-0.6h0.9c0,0.2,0,0.4,0,0.6v0h2c0.4,0,0.6,0,0.8,0v0.8c-0.2,0-0.5,0-0.8,0h-2v0.4
				h1.4c0.4,0,0.6,0,0.8,0c0,0.2,0,0.3,0,0.7v1.3c0,0.4,0,0.5,0,0.7c-0.2,0-0.4,0-0.8,0h-1.4v0.4h2c0.4,0,0.6,0,0.8,0v0.8
				c-0.2,0-0.5,0-0.8,0h-2v0.2c0,0.4,0,0.6,0.1,0.8h-0.9c0-0.2,0.1-0.5,0.1-0.8v-0.2h-1.9c-0.4,0-0.6,0-0.8,0V121c0.2,0,0.4,0,0.8,0
				h1.9v-0.4h-1.3c-0.4,0-0.6,0-0.8,0c0-0.2,0-0.4,0-0.7v-1.3c0-0.3,0-0.5,0-0.7c0.2,0,0.4,0,0.8,0h1.4v-0.4h-1.9
				c-0.3,0-0.6,0-0.8,0v-0.8c0.2,0,0.5,0,0.8,0L400.6,116.8L400.6,116.8L400.6,116.8z M399.3,118.5v0.4h1.3v-0.4H399.3z
				 M399.3,119.6v0.4h1.3v-0.4H399.3z M402.8,119v-0.4h-1.4v0.4H402.8z M402.8,120v-0.4h-1.4v0.4H402.8z"/>
			<path class="st1" d="M408.1,120.5c-0.3,0.3-0.5,0.4-0.9,0.6c-0.1-0.2-0.1-0.2-0.3-0.4c-0.4,0.3-0.7,0.4-1.4,0.8c0,0,0,0-0.1,0.1
				l-0.1,0l-0.2-0.8c0.2,0,0.4-0.1,0.8-0.3v-1.9h-0.2c-0.2,0-0.4,0-0.5,0v-0.8c0.2,0,0.3,0,0.6,0h0.2V117c0-0.4,0-0.6,0-0.8h0.8
				c0,0.2,0,0.4,0,0.8v0.9h0.1c0.2,0,0.4,0,0.5,0v0.7c-0.2,0-0.3,0-0.5,0h-0.1v1.5c0.2-0.1,0.2-0.1,0.5-0.3v0.5
				c0.4-0.2,0.6-0.5,0.8-0.7h-0.2c-0.3,0-0.5,0-0.7,0V119c0.2,0,0.3,0,0.7,0h3.1c0.3,0,0.6,0,0.7,0v0.7c-0.2,0-0.4,0-0.7,0h-2.2
				c-0.1,0.1-0.1,0.2-0.2,0.3h2.3c0.3,0,0.5,0,0.7,0c0,0.1,0,0.2,0,0.4c0,0.9-0.1,1.6-0.3,1.9c-0.1,0.3-0.4,0.4-1,0.4
				c-0.2,0-0.3,0-0.6,0c0-0.3-0.1-0.5-0.2-0.7c-0.4,0.3-0.7,0.5-1.2,0.8c-0.2-0.2-0.3-0.4-0.5-0.5c0.6-0.3,0.9-0.4,1.3-0.8
				c0.3-0.3,0.5-0.6,0.7-0.9h-0.4c-0.4,0.7-1.1,1.1-2,1.6c-0.1-0.2-0.2-0.3-0.4-0.5c0.8-0.3,1.3-0.6,1.6-1L408.1,120.5L408.1,120.5z
				 M408.3,118.7c-0.3,0-0.5,0-0.7,0c0-0.2,0-0.4,0-0.7v-1c0-0.3,0-0.4,0-0.6c0.2,0,0.4,0,0.7,0h2.1c0.4,0,0.5,0,0.8,0
				c0,0.2,0,0.3,0,0.7v1c0,0.3,0,0.5,0,0.7c-0.2,0-0.3,0-0.6,0L408.3,118.7L408.3,118.7z M408.4,117.3h2V117h-2V117.3z M408.4,118.1
				h2v-0.3h-2V118.1z M410.6,120.5c-0.3,0.6-0.6,1-1,1.4c0.3,0,0.5,0.1,0.7,0.1c0.3,0,0.3-0.1,0.4-0.4c0.1-0.3,0.1-0.6,0.1-1.1
				L410.6,120.5L410.6,120.5z"/>
			<path class="st1" d="M374.4,131.8c-0.4-0.5-0.5-0.8-0.7-1.3c-0.2-0.6-0.4-1.2-0.4-1.8c0-0.6,0.1-1.2,0.3-1.8
				c0.2-0.5,0.4-0.8,0.7-1.3h0.9c-0.5,0.6-0.7,0.9-0.9,1.3c-0.2,0.5-0.3,1.1-0.3,1.8c0,0.7,0.1,1.3,0.4,1.8c0.2,0.4,0.4,0.7,0.9,1.3
				L374.4,131.8L374.4,131.8z"/>
			<path class="st1" d="M376.6,130c0.1,0.3,0.2,0.4,0.3,0.6c0.1,0.1,0.3,0.2,0.6,0.2c0.1,0,0.3,0,0.4-0.1s0.2-0.1,0.3-0.2
				s0.2-0.2,0.2-0.3c0.1-0.1,0.1-0.2,0.1-0.4c0-0.2,0-0.4-0.1-0.5s-0.2-0.2-0.4-0.3c-0.1-0.1-0.3-0.1-0.5-0.1c-0.2,0-0.3,0-0.5,0
				v-0.6c0.3,0,0.5,0,0.7-0.1c0.2,0,0.3-0.1,0.4-0.2c0.1-0.1,0.2-0.2,0.2-0.3c0-0.1,0.1-0.2,0.1-0.3c0-0.3-0.1-0.5-0.3-0.6
				c-0.2-0.1-0.4-0.2-0.6-0.2c-0.2,0-0.4,0.1-0.5,0.2c-0.2,0.1-0.3,0.3-0.4,0.4l-0.7-0.2c0.1-0.3,0.4-0.6,0.6-0.7
				c0.3-0.2,0.6-0.2,1-0.2c0.2,0,0.4,0,0.6,0.1c0.2,0.1,0.4,0.1,0.5,0.3c0.1,0.1,0.3,0.3,0.4,0.4c0.1,0.2,0.1,0.4,0.1,0.6
				c0,0.3-0.1,0.5-0.2,0.7c-0.2,0.2-0.4,0.4-0.6,0.4v0c0.2,0,0.3,0.1,0.4,0.2c0.1,0.1,0.2,0.2,0.3,0.3c0.1,0.1,0.2,0.3,0.2,0.4
				c0,0.1,0.1,0.3,0.1,0.5c0,0.3,0,0.5-0.1,0.7c-0.1,0.2-0.2,0.4-0.4,0.5c-0.2,0.1-0.3,0.2-0.6,0.3c-0.2,0.1-0.4,0.1-0.7,0.1
				c-0.4,0-0.8-0.1-1.1-0.3c-0.3-0.2-0.5-0.5-0.6-0.9L376.6,130z"/>
			<path class="st1" d="M379.9,128.7c0-0.2,0-0.4,0-0.6c0-0.2,0.1-0.4,0.1-0.6c0.1-0.2,0.1-0.4,0.2-0.6s0.2-0.3,0.3-0.5
				c0.1-0.1,0.3-0.2,0.5-0.3c0.2-0.1,0.4-0.1,0.6-0.1s0.5,0,0.6,0.1c0.2,0.1,0.3,0.2,0.5,0.3c0.1,0.1,0.2,0.3,0.3,0.5
				c0.1,0.2,0.2,0.4,0.2,0.6c0.1,0.2,0.1,0.4,0.1,0.6c0,0.2,0,0.4,0,0.6c0,0.3,0,0.6-0.1,0.9c0,0.3-0.1,0.6-0.3,0.9
				s-0.3,0.5-0.6,0.7c-0.2,0.2-0.5,0.3-0.9,0.3s-0.7-0.1-0.9-0.3c-0.2-0.2-0.4-0.4-0.6-0.7c-0.1-0.3-0.2-0.6-0.3-0.9
				C379.9,129.3,379.9,129,379.9,128.7z M380.6,128.7c0,0.2,0,0.4,0,0.6c0,0.2,0.1,0.5,0.1,0.7s0.2,0.4,0.3,0.6
				c0.1,0.2,0.3,0.2,0.6,0.2s0.4-0.1,0.6-0.2c0.1-0.2,0.3-0.3,0.3-0.6c0.1-0.2,0.1-0.4,0.1-0.7c0-0.2,0-0.4,0-0.6c0-0.1,0-0.3,0-0.4
				c0-0.2,0-0.3-0.1-0.5c0-0.2-0.1-0.3-0.1-0.5s-0.1-0.3-0.2-0.4s-0.2-0.2-0.3-0.3c-0.1-0.1-0.3-0.1-0.4-0.1c-0.2,0-0.3,0-0.4,0.1
				c-0.1,0.1-0.2,0.2-0.3,0.3s-0.1,0.2-0.2,0.4c0,0.1-0.1,0.3-0.1,0.5c0,0.2,0,0.3-0.1,0.5C380.6,128.4,380.6,128.6,380.6,128.7z"/>
			<path class="st1" d="M384,128.7c0-0.2,0-0.4,0-0.6c0-0.2,0.1-0.4,0.1-0.6c0.1-0.2,0.1-0.4,0.2-0.6s0.2-0.3,0.3-0.5
				c0.1-0.1,0.3-0.2,0.5-0.3c0.2-0.1,0.4-0.1,0.6-0.1s0.5,0,0.6,0.1c0.2,0.1,0.3,0.2,0.5,0.3c0.1,0.1,0.2,0.3,0.3,0.5
				c0.1,0.2,0.2,0.4,0.2,0.6c0.1,0.2,0.1,0.4,0.1,0.6c0,0.2,0,0.4,0,0.6c0,0.3,0,0.6-0.1,0.9c0,0.3-0.1,0.6-0.3,0.9
				s-0.3,0.5-0.6,0.7c-0.2,0.2-0.5,0.3-0.9,0.3s-0.7-0.1-0.9-0.3c-0.2-0.2-0.4-0.4-0.6-0.7s-0.2-0.6-0.3-0.9
				C384,129.3,384,129,384,128.7z M384.7,128.7c0,0.2,0,0.4,0,0.6c0,0.2,0.1,0.5,0.1,0.7c0.1,0.2,0.2,0.4,0.3,0.6
				c0.1,0.2,0.3,0.2,0.6,0.2s0.4-0.1,0.6-0.2c0.1-0.2,0.3-0.3,0.3-0.6c0.1-0.2,0.1-0.4,0.1-0.7c0-0.2,0-0.4,0-0.6c0-0.1,0-0.3,0-0.4
				c0-0.2,0-0.3-0.1-0.5c0-0.2-0.1-0.3-0.1-0.5c0-0.1-0.1-0.3-0.2-0.4s-0.2-0.2-0.3-0.3c-0.1-0.1-0.3-0.1-0.4-0.1
				c-0.2,0-0.3,0-0.4,0.1c-0.1,0.1-0.2,0.2-0.3,0.3c-0.1,0.1-0.1,0.2-0.2,0.4c0,0.1-0.1,0.3-0.1,0.5c0,0.2,0,0.3-0.1,0.5
				C384.7,128.4,384.7,128.6,384.7,128.7z"/>
			<path class="st1" d="M389.4,130.8c0,0.4,0,0.6,0,0.7h-0.8c0-0.2,0-0.4,0-0.8v-4.2c0-0.3,0-0.4,0-0.6c0.2,0,0.4,0,0.7,0h3.9
				c0.3,0,0.5,0,0.7,0c0,0.2,0,0.4,0,0.7v4.1c0,0.3-0.1,0.5-0.3,0.6c-0.1,0.1-0.3,0.1-0.7,0.1c-0.2,0-0.6,0-0.9,0
				c0-0.3-0.1-0.4-0.2-0.7c0.4,0,0.7,0.1,1,0.1c0.2,0,0.3,0,0.3-0.2v-1.6h-3.8L389.4,130.8L389.4,130.8z M390.9,126.7h-1.5v1.7h1.5
				V126.7z M393.2,128.4v-1.7h-1.6v1.7H393.2z"/>
			<path class="st1" d="M398.1,126.3l-2.3,5.8h-0.6l2.3-5.8C397.5,126.3,398.1,126.3,398.1,126.3z"/>
			<path class="st1" d="M399.3,130c0.1,0.3,0.2,0.4,0.3,0.6s0.3,0.2,0.6,0.2c0.1,0,0.3,0,0.4-0.1c0.1,0,0.2-0.1,0.3-0.2
				s0.2-0.2,0.2-0.3c0.1-0.1,0.1-0.2,0.1-0.4c0-0.2,0-0.4-0.1-0.5s-0.2-0.2-0.4-0.3c-0.1-0.1-0.3-0.1-0.5-0.1c-0.2,0-0.3,0-0.5,0
				v-0.6c0.3,0,0.5,0,0.7-0.1c0.2,0,0.3-0.1,0.4-0.2c0.1-0.1,0.2-0.2,0.2-0.3s0.1-0.2,0.1-0.3c0-0.3-0.1-0.5-0.3-0.6
				c-0.2-0.1-0.4-0.2-0.6-0.2c-0.2,0-0.4,0.1-0.5,0.2c-0.2,0.1-0.3,0.3-0.4,0.4l-0.7-0.2c0.1-0.3,0.4-0.6,0.6-0.7
				c0.3-0.2,0.6-0.2,1-0.2c0.2,0,0.4,0,0.6,0.1c0.2,0.1,0.4,0.1,0.5,0.3s0.3,0.3,0.4,0.4c0.1,0.2,0.1,0.4,0.1,0.6
				c0,0.3-0.1,0.5-0.2,0.7c-0.2,0.2-0.4,0.4-0.6,0.4v0c0.2,0,0.3,0.1,0.4,0.2c0.1,0.1,0.2,0.2,0.3,0.3c0.1,0.1,0.2,0.3,0.2,0.4
				c0,0.1,0.1,0.3,0.1,0.5c0,0.3,0,0.5-0.1,0.7c-0.1,0.2-0.2,0.4-0.4,0.5c-0.2,0.1-0.3,0.2-0.6,0.3c-0.2,0.1-0.4,0.1-0.7,0.1
				c-0.4,0-0.8-0.1-1.1-0.3c-0.3-0.2-0.5-0.5-0.6-0.9L399.3,130z"/>
			<path class="st1" d="M402.6,128.7c0-0.2,0-0.4,0-0.6c0-0.2,0.1-0.4,0.1-0.6c0.1-0.2,0.1-0.4,0.2-0.6c0.1-0.2,0.2-0.3,0.3-0.5
				c0.1-0.1,0.3-0.2,0.5-0.3c0.2-0.1,0.4-0.1,0.6-0.1s0.5,0,0.6,0.1c0.2,0.1,0.3,0.2,0.5,0.3c0.1,0.1,0.2,0.3,0.3,0.5
				c0.1,0.2,0.2,0.4,0.2,0.6c0.1,0.2,0.1,0.4,0.1,0.6c0,0.2,0,0.4,0,0.6c0,0.3,0,0.6-0.1,0.9c0,0.3-0.1,0.6-0.3,0.9
				s-0.3,0.5-0.6,0.7c-0.2,0.2-0.5,0.3-0.9,0.3c-0.4,0-0.7-0.1-0.9-0.3c-0.2-0.2-0.4-0.4-0.6-0.7s-0.2-0.6-0.3-0.9
				C402.6,129.3,402.6,129,402.6,128.7z M403.3,128.7c0,0.2,0,0.4,0,0.6c0,0.2,0.1,0.5,0.1,0.7c0.1,0.2,0.2,0.4,0.3,0.6
				c0.1,0.2,0.3,0.2,0.6,0.2s0.4-0.1,0.6-0.2c0.1-0.2,0.3-0.3,0.3-0.6c0.1-0.2,0.1-0.4,0.1-0.7c0-0.2,0-0.4,0-0.6c0-0.1,0-0.3,0-0.4
				s0-0.3-0.1-0.5c0-0.2-0.1-0.3-0.1-0.5s-0.1-0.3-0.2-0.4s-0.2-0.2-0.3-0.3c-0.1-0.1-0.3-0.1-0.4-0.1s-0.3,0-0.4,0.1
				c-0.1,0.1-0.2,0.2-0.3,0.3c-0.1,0.1-0.1,0.2-0.2,0.4c0,0.1-0.1,0.3-0.1,0.5c0,0.2,0,0.3-0.1,0.5
				C403.3,128.4,403.3,128.6,403.3,128.7z"/>
			<path class="st1" d="M408.8,128.5c-0.2,0-0.4,0-0.5,0v-0.5c-0.3,0.3-0.5,0.5-0.8,0.7c-0.1-0.2-0.3-0.4-0.5-0.6
				c0.8-0.6,1.3-1.1,1.7-1.8c0.2-0.3,0.2-0.5,0.3-0.6l0.8,0.3c-0.1,0.1-0.1,0.2-0.2,0.3c-0.2,0.5-0.6,1.1-1,1.6c0.2,0,0.2,0,0.3,0
				h2.4c0.2,0,0.2,0,0.4,0c-0.4-0.5-0.8-1-1.1-1.6c0-0.1-0.1-0.2-0.1-0.3l0.7-0.3c0.1,0.2,0.1,0.3,0.3,0.6c0.4,0.8,1,1.4,1.8,1.9
				c-0.3,0.3-0.3,0.4-0.5,0.7c-0.4-0.3-0.5-0.4-0.8-0.7c0,0.1,0,0.1,0,0.2c0,1.3-0.1,2.3-0.3,2.7c-0.1,0.3-0.4,0.4-0.9,0.4
				c-0.1,0-0.3,0-0.7,0c0-0.3-0.1-0.4-0.2-0.7c0.3,0,0.6,0.1,0.8,0.1c0.2,0,0.3,0,0.4-0.1c0.1-0.2,0.2-1,0.2-1.7v-0.1
				c0-0.1,0-0.1,0-0.2h-1.2c-0.1,0.7-0.2,1.1-0.5,1.6c-0.4,0.6-0.9,1-1.6,1.4c-0.1-0.2-0.2-0.4-0.5-0.6c0.4-0.1,0.7-0.3,1-0.6
				c0.4-0.4,0.7-0.9,0.8-1.5c0-0.1,0-0.2,0-0.4L408.8,128.5L408.8,128.5z"/>
			<path class="st1" d="M413.5,131.8c0.5-0.6,0.7-0.9,0.8-1.3c0.2-0.6,0.4-1.1,0.4-1.8c0-0.7-0.1-1.2-0.3-1.8
				c-0.2-0.4-0.4-0.7-0.9-1.3h0.9c0.4,0.5,0.5,0.8,0.7,1.3c0.2,0.6,0.3,1.2,0.3,1.8c0,0.6-0.1,1.2-0.3,1.8c-0.2,0.5-0.4,0.8-0.7,1.3
				L413.5,131.8L413.5,131.8z"/>
		</g>
		<g>
			<path class="st8" d="M378.7,121c0.1,0.2,0.4,0.2,1.2,0.2c0.7,0,1.1,0,2.1-0.2c0,0,0,0,0.1,0c0.1,0,0.1,0,0.1,0.1
				c0,0.1,0.1,0.5,0.1,0.6c0,0.1,0,0.2-0.1,0.2c-0.2,0.1-1.3,0.1-2.1,0.1c-0.9,0-1.3-0.1-1.6-0.2c-0.3-0.1-0.4-0.3-0.5-0.6
				c0-0.2-0.1-0.3-0.1-0.6c0-0.1,0-0.2,0-0.3c0-0.8,0-0.9,0-1.4c0-1.3,0-1.8-0.1-2.1c0.9,0.1,1.1,0.1,1.1,0.3c0,0,0,0.1,0,0.1
				c0,0.1,0,0.1-0.1,0.3c0,0.2,0,0.4,0,0.8c0,0.3,0,0.5,0,0.6c1.3-0.4,2.3-0.9,2.8-1.4c0.4,0.5,0.6,0.8,0.6,0.9c0,0.1,0,0.1-0.2,0.1
				c-0.1,0-0.3,0.1-0.6,0.3c-0.9,0.4-1.6,0.7-2.6,0.9C378.6,120.8,378.6,120.9,378.7,121z M382,117.8c-0.2-0.3-0.3-0.5-0.5-0.8
				c0-0.1,0-0.1,0-0.1c0,0,0-0.1,0.2-0.2c0.1-0.1,0.2-0.1,0.2-0.1c0.1,0,0.1,0.1,0.3,0.3c0.2,0.3,0.4,0.5,0.4,0.6
				C382.5,117.6,382.2,117.9,382,117.8C382.1,117.9,382,117.9,382,117.8z M382.9,117.4C382.8,117.4,382.8,117.4,382.9,117.4
				c-0.3-0.4-0.4-0.6-0.6-0.8c0,0,0,0,0-0.1c0-0.1,0.3-0.3,0.4-0.3c0.1,0,0.2,0.1,0.3,0.3c0.2,0.2,0.4,0.5,0.4,0.6
				C383.3,117.1,383,117.4,382.9,117.4z"/>
			<path class="st8" d="M385.4,117.1c0.1,0,0.1,0.1,0.1,0.1c0,0,0,0,0,0.1c0,0.2-0.1,0.3-0.1,0.6c0,1.8-0.3,3-1.1,4
				c-0.2,0.2-0.2,0.3-0.3,0.3c0,0-0.1,0-0.1,0c-0.2-0.1-0.4-0.2-0.7-0.3c0.5-0.5,0.7-0.8,0.9-1.3c0.3-0.7,0.4-1.4,0.4-2.5
				c0-0.5,0-0.7-0.1-1.1C384.9,117,385.2,117,385.4,117.1z M386.2,117.8c0-0.4,0-0.7-0.1-1c0.8,0,1.1,0.1,1.1,0.2c0,0,0,0.1,0,0.1
				c0,0,0,0.2-0.1,0.3c0,0.2,0,0.2,0,3.5c0.9-0.5,1.6-1,2.2-1.8c0,0.4,0,0.7,0.1,0.9c0,0.1,0,0.1,0,0.1c0,0.1-0.1,0.2-0.4,0.5
				c-0.5,0.5-0.9,0.8-1.6,1.1c-0.2,0.1-0.3,0.1-0.4,0.2c-0.1,0-0.1,0.1-0.2,0.1c-0.1,0-0.4-0.2-0.5-0.4c-0.1-0.1-0.2-0.3-0.2-0.4
				c0,0,0-0.1,0-0.1c0.1-0.1,0.1-0.3,0.1-0.7L386.2,117.8L386.2,117.8z"/>
			<path class="st8" d="M391.1,120.4c-0.1,0.9-0.1,1.5-0.3,2l-0.5-0.3c0.2-0.5,0.3-1,0.3-1.8L391.1,120.4z M392.5,119.5h0.4
				c0.3,0,0.4,0,0.6,0c0,0.1,0,0.2,0,0.5c0,1-0.1,1.7-0.2,2.1c-0.1,0.5-0.3,0.7-0.9,0.7c-0.1,0-0.2,0-0.4,0c0-0.3,0-0.4-0.1-0.7
				c0.2,0.1,0.4,0.1,0.5,0.1c0.2,0,0.3-0.1,0.4-0.5c0.1-0.4,0.1-0.8,0.1-1.5h-1.7c-0.2,0-0.3,0-0.5,0c0-0.2,0-0.5,0-0.7v-2.4
				c0-0.3,0-0.5,0-0.7c0.3,0,0.4,0,0.7,0h1.4c0.3,0,0.5,0,0.7,0v0.7c-0.2,0-0.3,0-0.5,0h-0.4v0.4h0.3c0.2,0,0.3,0,0.5,0v0.6
				c-0.2,0-0.3,0-0.5,0h-0.3v0.4h0.3c0.2,0,0.3,0,0.5,0v0.6c-0.2,0-0.3,0-0.5,0h-0.3L392.5,119.5L392.5,119.5z M391.6,120.4
				c0,0.5,0.1,0.9,0.1,1.3c0,0.1,0,0.2,0,0.4l-0.5,0.1c0-0.4,0-0.6,0-1c0-0.3,0-0.4,0-0.7L391.6,120.4z M391.9,117h-0.6v0.4h0.6V117
				z M391.9,118h-0.6v0.4h0.6V118z M391.3,119.1v0.5h0.6v-0.5H391.3z M392,120.3c0.1,0.5,0.2,0.9,0.2,1.4l-0.4,0.1
				c0-0.7-0.1-1-0.2-1.5L392,120.3z M392.4,120.3c0.1,0.4,0.2,0.6,0.2,1l-0.3,0.1c0-0.4-0.1-0.7-0.2-1L392.4,120.3z M395.4,117.5
				c-0.3-0.3-0.7-0.6-1.3-0.8l0.5-0.5c0.5,0.3,0.9,0.5,1.4,0.9l-0.5,0.5h0.6c0.3,0,0.5,0,0.7,0v0.8c-0.2,0-0.4,0-0.7,0h-0.6v1.3h0.4
				c0.3,0,0.5,0,0.7,0v0.8c-0.2,0-0.4,0-0.7,0h-0.4v1.6h0.6c0.3,0,0.6,0,0.8,0v0.8c-0.2,0-0.5,0-0.8,0h-1.9c-0.3,0-0.6,0-0.8,0v-0.8
				c0.2,0,0.5,0,0.8,0h0.6v-1.6h-0.4c-0.3,0-0.5,0-0.7,0v-0.8c0.2,0,0.4,0,0.7,0h0.4v-1.3h-0.5c-0.3,0-0.5,0-0.7,0v-0.8
				c0.2,0,0.5,0,0.7,0H395.4z"/>
			<path class="st8" d="M400.6,116.8c0-0.2,0-0.4,0-0.6h0.9c0,0.2,0,0.4,0,0.6v0h2c0.4,0,0.6,0,0.8,0v0.8c-0.2,0-0.5,0-0.8,0h-2v0.4
				h1.4c0.4,0,0.6,0,0.8,0c0,0.2,0,0.3,0,0.7v1.3c0,0.4,0,0.5,0,0.7c-0.2,0-0.4,0-0.8,0h-1.4v0.4h2c0.4,0,0.6,0,0.8,0v0.8
				c-0.2,0-0.5,0-0.8,0h-2v0.2c0,0.4,0,0.6,0.1,0.8h-0.9c0-0.2,0.1-0.5,0.1-0.8v-0.2h-1.9c-0.4,0-0.6,0-0.8,0V121c0.2,0,0.4,0,0.8,0
				h1.9v-0.4h-1.3c-0.4,0-0.6,0-0.8,0c0-0.2,0-0.4,0-0.7v-1.3c0-0.3,0-0.5,0-0.7c0.2,0,0.4,0,0.8,0h1.4v-0.4h-1.9
				c-0.3,0-0.6,0-0.8,0v-0.8c0.2,0,0.5,0,0.8,0L400.6,116.8L400.6,116.8L400.6,116.8z M399.3,118.5v0.4h1.3v-0.4H399.3z
				 M399.3,119.6v0.4h1.3v-0.4H399.3z M402.8,119v-0.4h-1.4v0.4H402.8z M402.8,120v-0.4h-1.4v0.4H402.8z"/>
			<path class="st8" d="M408.1,120.5c-0.3,0.3-0.5,0.4-0.9,0.6c-0.1-0.2-0.1-0.2-0.3-0.4c-0.4,0.3-0.7,0.4-1.4,0.8c0,0,0,0-0.1,0.1
				l-0.1,0l-0.2-0.8c0.2,0,0.4-0.1,0.8-0.3v-1.9h-0.2c-0.2,0-0.4,0-0.5,0v-0.8c0.2,0,0.3,0,0.6,0h0.2V117c0-0.4,0-0.6,0-0.8h0.8
				c0,0.2,0,0.4,0,0.8v0.9h0.1c0.2,0,0.4,0,0.5,0v0.7c-0.2,0-0.3,0-0.5,0h-0.1v1.5c0.2-0.1,0.2-0.1,0.5-0.3v0.5
				c0.4-0.2,0.6-0.5,0.8-0.7h-0.2c-0.3,0-0.5,0-0.7,0V119c0.2,0,0.3,0,0.7,0h3.1c0.3,0,0.6,0,0.7,0v0.7c-0.2,0-0.4,0-0.7,0h-2.2
				c-0.1,0.1-0.1,0.2-0.2,0.3h2.3c0.3,0,0.5,0,0.7,0c0,0.1,0,0.2,0,0.4c0,0.9-0.1,1.6-0.3,1.9c-0.1,0.3-0.4,0.4-1,0.4
				c-0.2,0-0.3,0-0.6,0c0-0.3-0.1-0.5-0.2-0.7c-0.4,0.3-0.7,0.5-1.2,0.8c-0.2-0.2-0.3-0.4-0.5-0.5c0.6-0.3,0.9-0.4,1.3-0.8
				c0.3-0.3,0.5-0.6,0.7-0.9h-0.4c-0.4,0.7-1.1,1.1-2,1.6c-0.1-0.2-0.2-0.3-0.4-0.5c0.8-0.3,1.3-0.6,1.6-1L408.1,120.5L408.1,120.5z
				 M408.3,118.7c-0.3,0-0.5,0-0.7,0c0-0.2,0-0.4,0-0.7v-1c0-0.3,0-0.4,0-0.6c0.2,0,0.4,0,0.7,0h2.1c0.4,0,0.5,0,0.8,0
				c0,0.2,0,0.3,0,0.7v1c0,0.3,0,0.5,0,0.7c-0.2,0-0.3,0-0.6,0L408.3,118.7L408.3,118.7z M408.4,117.3h2V117h-2V117.3z M408.4,118.1
				h2v-0.3h-2V118.1z M410.6,120.5c-0.3,0.6-0.6,1-1,1.4c0.3,0,0.5,0.1,0.7,0.1c0.3,0,0.3-0.1,0.4-0.4c0.1-0.3,0.1-0.6,0.1-1.1
				L410.6,120.5L410.6,120.5z"/>
			<path class="st2" d="M374.4,131.8c-0.4-0.5-0.5-0.8-0.7-1.3c-0.2-0.6-0.4-1.2-0.4-1.8c0-0.6,0.1-1.2,0.3-1.8
				c0.2-0.5,0.4-0.8,0.7-1.3h0.9c-0.5,0.6-0.7,0.9-0.9,1.3c-0.2,0.5-0.3,1.1-0.3,1.8c0,0.7,0.1,1.3,0.4,1.8c0.2,0.4,0.4,0.7,0.9,1.3
				L374.4,131.8L374.4,131.8z"/>
			<path class="st2" d="M376.6,130c0.1,0.3,0.2,0.4,0.3,0.6c0.1,0.1,0.3,0.2,0.6,0.2c0.1,0,0.3,0,0.4-0.1s0.2-0.1,0.3-0.2
				s0.2-0.2,0.2-0.3c0.1-0.1,0.1-0.2,0.1-0.4c0-0.2,0-0.4-0.1-0.5s-0.2-0.2-0.4-0.3c-0.1-0.1-0.3-0.1-0.5-0.1c-0.2,0-0.3,0-0.5,0
				v-0.6c0.3,0,0.5,0,0.7-0.1c0.2,0,0.3-0.1,0.4-0.2c0.1-0.1,0.2-0.2,0.2-0.3c0-0.1,0.1-0.2,0.1-0.3c0-0.3-0.1-0.5-0.3-0.6
				c-0.2-0.1-0.4-0.2-0.6-0.2c-0.2,0-0.4,0.1-0.5,0.2c-0.2,0.1-0.3,0.3-0.4,0.4l-0.7-0.2c0.1-0.3,0.4-0.6,0.6-0.7
				c0.3-0.2,0.6-0.2,1-0.2c0.2,0,0.4,0,0.6,0.1c0.2,0.1,0.4,0.1,0.5,0.3c0.1,0.1,0.3,0.3,0.4,0.4c0.1,0.2,0.1,0.4,0.1,0.6
				c0,0.3-0.1,0.5-0.2,0.7c-0.2,0.2-0.4,0.4-0.6,0.4v0c0.2,0,0.3,0.1,0.4,0.2c0.1,0.1,0.2,0.2,0.3,0.3c0.1,0.1,0.2,0.3,0.2,0.4
				c0,0.1,0.1,0.3,0.1,0.5c0,0.3,0,0.5-0.1,0.7c-0.1,0.2-0.2,0.4-0.4,0.5c-0.2,0.1-0.3,0.2-0.6,0.3c-0.2,0.1-0.4,0.1-0.7,0.1
				c-0.4,0-0.8-0.1-1.1-0.3c-0.3-0.2-0.5-0.5-0.6-0.9L376.6,130z"/>
			<path class="st2" d="M379.9,128.7c0-0.2,0-0.4,0-0.6c0-0.2,0.1-0.4,0.1-0.6c0.1-0.2,0.1-0.4,0.2-0.6s0.2-0.3,0.3-0.5
				c0.1-0.1,0.3-0.2,0.5-0.3c0.2-0.1,0.4-0.1,0.6-0.1s0.5,0,0.6,0.1c0.2,0.1,0.3,0.2,0.5,0.3c0.1,0.1,0.2,0.3,0.3,0.5
				c0.1,0.2,0.2,0.4,0.2,0.6c0.1,0.2,0.1,0.4,0.1,0.6c0,0.2,0,0.4,0,0.6c0,0.3,0,0.6-0.1,0.9c0,0.3-0.1,0.6-0.3,0.9
				s-0.3,0.5-0.6,0.7c-0.2,0.2-0.5,0.3-0.9,0.3s-0.7-0.1-0.9-0.3c-0.2-0.2-0.4-0.4-0.6-0.7c-0.1-0.3-0.2-0.6-0.3-0.9
				C379.9,129.3,379.9,129,379.9,128.7z M380.6,128.7c0,0.2,0,0.4,0,0.6c0,0.2,0.1,0.5,0.1,0.7s0.2,0.4,0.3,0.6
				c0.1,0.2,0.3,0.2,0.6,0.2s0.4-0.1,0.6-0.2c0.1-0.2,0.3-0.3,0.3-0.6c0.1-0.2,0.1-0.4,0.1-0.7c0-0.2,0-0.4,0-0.6c0-0.1,0-0.3,0-0.4
				c0-0.2,0-0.3-0.1-0.5c0-0.2-0.1-0.3-0.1-0.5s-0.1-0.3-0.2-0.4s-0.2-0.2-0.3-0.3c-0.1-0.1-0.3-0.1-0.4-0.1c-0.2,0-0.3,0-0.4,0.1
				c-0.1,0.1-0.2,0.2-0.3,0.3s-0.1,0.2-0.2,0.4c0,0.1-0.1,0.3-0.1,0.5c0,0.2,0,0.3-0.1,0.5C380.6,128.4,380.6,128.6,380.6,128.7z"/>
			<path class="st2" d="M384,128.7c0-0.2,0-0.4,0-0.6c0-0.2,0.1-0.4,0.1-0.6c0.1-0.2,0.1-0.4,0.2-0.6s0.2-0.3,0.3-0.5
				c0.1-0.1,0.3-0.2,0.5-0.3c0.2-0.1,0.4-0.1,0.6-0.1s0.5,0,0.6,0.1c0.2,0.1,0.3,0.2,0.5,0.3c0.1,0.1,0.2,0.3,0.3,0.5
				c0.1,0.2,0.2,0.4,0.2,0.6c0.1,0.2,0.1,0.4,0.1,0.6c0,0.2,0,0.4,0,0.6c0,0.3,0,0.6-0.1,0.9c0,0.3-0.1,0.6-0.3,0.9
				s-0.3,0.5-0.6,0.7c-0.2,0.2-0.5,0.3-0.9,0.3s-0.7-0.1-0.9-0.3c-0.2-0.2-0.4-0.4-0.6-0.7s-0.2-0.6-0.3-0.9
				C384,129.3,384,129,384,128.7z M384.7,128.7c0,0.2,0,0.4,0,0.6c0,0.2,0.1,0.5,0.1,0.7c0.1,0.2,0.2,0.4,0.3,0.6
				c0.1,0.2,0.3,0.2,0.6,0.2s0.4-0.1,0.6-0.2c0.1-0.2,0.3-0.3,0.3-0.6c0.1-0.2,0.1-0.4,0.1-0.7c0-0.2,0-0.4,0-0.6c0-0.1,0-0.3,0-0.4
				c0-0.2,0-0.3-0.1-0.5c0-0.2-0.1-0.3-0.1-0.5c0-0.1-0.1-0.3-0.2-0.4s-0.2-0.2-0.3-0.3c-0.1-0.1-0.3-0.1-0.4-0.1
				c-0.2,0-0.3,0-0.4,0.1c-0.1,0.1-0.2,0.2-0.3,0.3c-0.1,0.1-0.1,0.2-0.2,0.4c0,0.1-0.1,0.3-0.1,0.5c0,0.2,0,0.3-0.1,0.5
				C384.7,128.4,384.7,128.6,384.7,128.7z"/>
			<path class="st8" d="M389.4,130.8c0,0.4,0,0.6,0,0.7h-0.8c0-0.2,0-0.4,0-0.8v-4.2c0-0.3,0-0.4,0-0.6c0.2,0,0.4,0,0.7,0h3.9
				c0.3,0,0.5,0,0.7,0c0,0.2,0,0.4,0,0.7v4.1c0,0.3-0.1,0.5-0.3,0.6c-0.1,0.1-0.3,0.1-0.7,0.1c-0.2,0-0.6,0-0.9,0
				c0-0.3-0.1-0.4-0.2-0.7c0.4,0,0.7,0.1,1,0.1c0.2,0,0.3,0,0.3-0.2v-1.6h-3.8L389.4,130.8L389.4,130.8z M390.9,126.7h-1.5v1.7h1.5
				V126.7z M393.2,128.4v-1.7h-1.6v1.7H393.2z"/>
			<path class="st8" d="M398.1,126.3l-2.3,5.8h-0.6l2.3-5.8C397.5,126.3,398.1,126.3,398.1,126.3z"/>
			<path class="st8" d="M399.3,130c0.1,0.3,0.2,0.4,0.3,0.6s0.3,0.2,0.6,0.2c0.1,0,0.3,0,0.4-0.1c0.1,0,0.2-0.1,0.3-0.2
				s0.2-0.2,0.2-0.3c0.1-0.1,0.1-0.2,0.1-0.4c0-0.2,0-0.4-0.1-0.5s-0.2-0.2-0.4-0.3c-0.1-0.1-0.3-0.1-0.5-0.1c-0.2,0-0.3,0-0.5,0
				v-0.6c0.3,0,0.5,0,0.7-0.1c0.2,0,0.3-0.1,0.4-0.2c0.1-0.1,0.2-0.2,0.2-0.3s0.1-0.2,0.1-0.3c0-0.3-0.1-0.5-0.3-0.6
				c-0.2-0.1-0.4-0.2-0.6-0.2c-0.2,0-0.4,0.1-0.5,0.2c-0.2,0.1-0.3,0.3-0.4,0.4l-0.7-0.2c0.1-0.3,0.4-0.6,0.6-0.7
				c0.3-0.2,0.6-0.2,1-0.2c0.2,0,0.4,0,0.6,0.1c0.2,0.1,0.4,0.1,0.5,0.3s0.3,0.3,0.4,0.4c0.1,0.2,0.1,0.4,0.1,0.6
				c0,0.3-0.1,0.5-0.2,0.7c-0.2,0.2-0.4,0.4-0.6,0.4v0c0.2,0,0.3,0.1,0.4,0.2c0.1,0.1,0.2,0.2,0.3,0.3c0.1,0.1,0.2,0.3,0.2,0.4
				c0,0.1,0.1,0.3,0.1,0.5c0,0.3,0,0.5-0.1,0.7c-0.1,0.2-0.2,0.4-0.4,0.5c-0.2,0.1-0.3,0.2-0.6,0.3c-0.2,0.1-0.4,0.1-0.7,0.1
				c-0.4,0-0.8-0.1-1.1-0.3c-0.3-0.2-0.5-0.5-0.6-0.9L399.3,130z"/>
			<path class="st8" d="M402.6,128.7c0-0.2,0-0.4,0-0.6c0-0.2,0.1-0.4,0.1-0.6c0.1-0.2,0.1-0.4,0.2-0.6c0.1-0.2,0.2-0.3,0.3-0.5
				c0.1-0.1,0.3-0.2,0.5-0.3c0.2-0.1,0.4-0.1,0.6-0.1s0.5,0,0.6,0.1c0.2,0.1,0.3,0.2,0.5,0.3c0.1,0.1,0.2,0.3,0.3,0.5
				c0.1,0.2,0.2,0.4,0.2,0.6c0.1,0.2,0.1,0.4,0.1,0.6c0,0.2,0,0.4,0,0.6c0,0.3,0,0.6-0.1,0.9c0,0.3-0.1,0.6-0.3,0.9
				s-0.3,0.5-0.6,0.7c-0.2,0.2-0.5,0.3-0.9,0.3c-0.4,0-0.7-0.1-0.9-0.3c-0.2-0.2-0.4-0.4-0.6-0.7s-0.2-0.6-0.3-0.9
				C402.6,129.3,402.6,129,402.6,128.7z M403.3,128.7c0,0.2,0,0.4,0,0.6c0,0.2,0.1,0.5,0.1,0.7c0.1,0.2,0.2,0.4,0.3,0.6
				c0.1,0.2,0.3,0.2,0.6,0.2s0.4-0.1,0.6-0.2c0.1-0.2,0.3-0.3,0.3-0.6c0.1-0.2,0.1-0.4,0.1-0.7c0-0.2,0-0.4,0-0.6c0-0.1,0-0.3,0-0.4
				s0-0.3-0.1-0.5c0-0.2-0.1-0.3-0.1-0.5s-0.1-0.3-0.2-0.4s-0.2-0.2-0.3-0.3c-0.1-0.1-0.3-0.1-0.4-0.1s-0.3,0-0.4,0.1
				c-0.1,0.1-0.2,0.2-0.3,0.3c-0.1,0.1-0.1,0.2-0.2,0.4c0,0.1-0.1,0.3-0.1,0.5c0,0.2,0,0.3-0.1,0.5
				C403.3,128.4,403.3,128.6,403.3,128.7z"/>
			<path class="st8" d="M408.8,128.5c-0.2,0-0.4,0-0.5,0v-0.5c-0.3,0.3-0.5,0.5-0.8,0.7c-0.1-0.2-0.3-0.4-0.5-0.6
				c0.8-0.6,1.3-1.1,1.7-1.8c0.2-0.3,0.2-0.5,0.3-0.6l0.8,0.3c-0.1,0.1-0.1,0.2-0.2,0.3c-0.2,0.5-0.6,1.1-1,1.6c0.2,0,0.2,0,0.3,0
				h2.4c0.2,0,0.2,0,0.4,0c-0.4-0.5-0.8-1-1.1-1.6c0-0.1-0.1-0.2-0.1-0.3l0.7-0.3c0.1,0.2,0.1,0.3,0.3,0.6c0.4,0.8,1,1.4,1.8,1.9
				c-0.3,0.3-0.3,0.4-0.5,0.7c-0.4-0.3-0.5-0.4-0.8-0.7c0,0.1,0,0.1,0,0.2c0,1.3-0.1,2.3-0.3,2.7c-0.1,0.3-0.4,0.4-0.9,0.4
				c-0.1,0-0.3,0-0.7,0c0-0.3-0.1-0.4-0.2-0.7c0.3,0,0.6,0.1,0.8,0.1c0.2,0,0.3,0,0.4-0.1c0.1-0.2,0.2-1,0.2-1.7v-0.1
				c0-0.1,0-0.1,0-0.2h-1.2c-0.1,0.7-0.2,1.1-0.5,1.6c-0.4,0.6-0.9,1-1.6,1.4c-0.1-0.2-0.2-0.4-0.5-0.6c0.4-0.1,0.7-0.3,1-0.6
				c0.4-0.4,0.7-0.9,0.8-1.5c0-0.1,0-0.2,0-0.4L408.8,128.5L408.8,128.5z"/>
			<path class="st8" d="M413.5,131.8c0.5-0.6,0.7-0.9,0.8-1.3c0.2-0.6,0.4-1.1,0.4-1.8c0-0.7-0.1-1.2-0.3-1.8
				c-0.2-0.4-0.4-0.7-0.9-1.3h0.9c0.4,0.5,0.5,0.8,0.7,1.3c0.2,0.6,0.3,1.2,0.3,1.8c0,0.6-0.1,1.2-0.3,1.8c-0.2,0.5-0.4,0.8-0.7,1.3
				L413.5,131.8L413.5,131.8z"/>
		</g>
	</g>
	<g>
		<path class="st9" d="M69.5,102.2h0.6c0.2,0,0.3,0,0.5,0s0.3-0.1,0.5-0.1c0.1-0.1,0.2-0.2,0.3-0.3s0.1-0.3,0.1-0.5
			c0-0.3-0.1-0.5-0.3-0.7c-0.2-0.2-0.5-0.3-0.8-0.3c-0.3,0-0.5,0.1-0.7,0.2c-0.2,0.2-0.3,0.4-0.4,0.6l-2.1-0.4
			c0.1-0.4,0.3-0.7,0.5-1c0.2-0.3,0.4-0.5,0.7-0.7c0.3-0.2,0.6-0.3,0.9-0.4s0.7-0.1,1.1-0.1c0.4,0,0.8,0,1.1,0.1s0.7,0.2,1,0.5
			c0.3,0.2,0.5,0.5,0.7,0.8c0.2,0.3,0.2,0.7,0.2,1.1c0,0.5-0.1,0.9-0.4,1.3c-0.3,0.4-0.6,0.6-1.1,0.7v0c0.3,0,0.5,0.1,0.7,0.2
			c0.2,0.1,0.4,0.3,0.5,0.5c0.1,0.2,0.3,0.4,0.3,0.6s0.1,0.5,0.1,0.7c0,0.4-0.1,0.8-0.3,1.2c-0.2,0.3-0.4,0.6-0.7,0.8
			c-0.3,0.2-0.6,0.4-1,0.5c-0.4,0.1-0.8,0.2-1.2,0.2c-0.8,0-1.5-0.2-2.1-0.6c-0.6-0.4-1-1-1.1-1.8l2-0.5c0.1,0.3,0.2,0.6,0.4,0.8
			c0.2,0.2,0.5,0.3,0.9,0.3c0.4,0,0.7-0.1,0.9-0.3c0.2-0.2,0.3-0.5,0.3-0.8c0-0.3-0.1-0.4-0.2-0.6s-0.2-0.2-0.4-0.3
			c-0.2-0.1-0.4-0.1-0.6-0.1c-0.2,0-0.4,0-0.6,0h-0.4V102.2z"/>
	</g>
	<g>
		<path class="st9" d="M104.5,14.2h-3.5l0,1.4c0.2-0.1,0.5-0.1,0.8-0.1c0.5,0,0.9,0.1,1.2,0.2c0.4,0.1,0.7,0.3,1,0.6
			c0.3,0.3,0.5,0.6,0.6,0.9c0.2,0.4,0.2,0.8,0.2,1.2c0,0.5-0.1,1-0.3,1.4c-0.2,0.4-0.4,0.7-0.7,1c-0.3,0.3-0.7,0.5-1.1,0.6
			s-0.9,0.2-1.4,0.2c-0.8,0-1.4-0.2-1.9-0.6s-0.9-1-1.1-1.7l2-0.5c0.1,0.3,0.2,0.6,0.4,0.8s0.5,0.3,0.8,0.3c0.4,0,0.7-0.1,1-0.4
			c0.2-0.3,0.4-0.6,0.4-1c0-0.3-0.1-0.5-0.2-0.7s-0.3-0.3-0.5-0.5c-0.2-0.1-0.4-0.2-0.7-0.2c-0.2,0-0.5-0.1-0.7-0.1
			c-0.3,0-0.6,0-0.9,0.1s-0.6,0.1-0.9,0.2l0.1-4.9h5.4L104.5,14.2L104.5,14.2z"/>
	</g>
	<g>
		<circle class="st2" cx="311.4" cy="30.8" r="3.3"/>
		<line class="st10" x1="311.8" y1="30" x2="311.8" y2="41"/>
		<line class="st10" x1="310.2" y1="40.5" x2="313.2" y2="40.5"/>
	</g>
</g>
</svg>
