<?xml version="1.0" encoding="utf-8"?>
<!-- Generator: Adobe Illustrator 16.0.0, SVG Export Plug-In . SVG Version: 6.00 Build 0)  -->
<!DOCTYPE svg PUBLIC "-//W3C//DTD SVG 1.1//EN" "http://www.w3.org/Graphics/SVG/1.1/DTD/svg11.dtd">
<svg version="1.1" xmlns="http://www.w3.org/2000/svg" xmlns:xlink="http://www.w3.org/1999/xlink" x="0px" y="0px" width="300px"
	 height="300px" viewBox="0 0 300 300" enable-background="new 0 0 300 300" xml:space="preserve">
<g id="レイヤー_1">
	<g id="レイヤー_3">
		<g>
			<defs>
				<path id="SVGID_1_" d="M84.582,152c0-35.866,29.182-65.047,65.047-65.047c35.867,0,65.047,29.181,65.047,65.047
					c0,35.867-29.18,65.047-65.047,65.047C113.764,217.048,84.582,187.867,84.582,152 M23.646,152
					c0,69.467,56.516,125.982,125.982,125.982S275.611,221.468,275.611,152c0-69.467-56.516-125.983-125.982-125.983
					S23.646,82.534,23.646,152"/>
			</defs>
			<clipPath id="SVGID_2_">
				<use xlink:href="#SVGID_1_"  overflow="visible"/>
			</clipPath>
			<g opacity="0.03" clip-path="url(#SVGID_2_)">
				<g>
					<defs>
						<rect id="SVGID_3_" x="72.656" y="48.16" width="205.551" height="203.11"/>
					</defs>
					<clipPath id="SVGID_4_">
						<use xlink:href="#SVGID_3_"  overflow="visible"/>
					</clipPath>
					<path clip-path="url(#SVGID_4_)" fill="none" stroke="#DA2B7B" stroke-width="22.677" stroke-miterlimit="10" d="
						M91.59,155.281c1.547,21.657,9.032,43.4,23.868,59.254c15.748,16.828,39.104,25.864,62.147,25.377
						c23.041-0.488,45.533-10.161,62.701-25.537c13.027-11.669,23.348-27.115,25.898-44.418c1.539-10.444,0.217-21.12-2.104-31.418
						c-2.875-12.765-7.355-25.329-14.768-36.113c-14.393-20.942-38.6-33.323-63.254-39.475c-9.713-2.424-19.74-4.019-29.721-3.265
						c-18.316,1.383-35.391,10.694-48.797,23.25c-9.582,8.976-17.684,19.913-21.437,32.494c-3.752,12.582-2.737,26.934,4.537,37.864
						c1.487,2.234,3.063,5.621,0.867,7.163"/>
				</g>
			</g>
			<g opacity="0.03" clip-path="url(#SVGID_2_)">
				<g>
					<defs>
						<rect id="SVGID_5_" x="60.078" y="24.951" width="221.396" height="216.373"/>
					</defs>
					<clipPath id="SVGID_6_">
						<use xlink:href="#SVGID_5_"  overflow="visible"/>
					</clipPath>
					<path clip-path="url(#SVGID_6_)" fill="none" stroke="#FFFFFF" stroke-width="22.677" stroke-miterlimit="10" d="
						M71.412,139.926c0.801-27.771,12.318-55.248,32.167-74.687s47.927-30.43,75.661-28.789s54.611,16.14,70.541,38.902
						c7.488,10.702,12.555,22.962,15.984,35.566c3.549,13.042,5.402,26.701,3.777,40.119c-3.48,28.732-23.375,54.225-49.162,67.365
						c-25.785,13.141-56.66,14.579-84.578,6.947c-25.705-7.028-51.184-24.009-57.621-49.868
						c-2.842-11.413-1.832-23.921-7.229-34.371"/>
				</g>
			</g>
			<g opacity="0.03" clip-path="url(#SVGID_2_)">
				<g>
					<defs>
						<rect id="SVGID_7_" x="69.495" y="67.266" width="177.187" height="176.044"/>
					</defs>
					<clipPath id="SVGID_8_">
						<use xlink:href="#SVGID_7_"  overflow="visible"/>
					</clipPath>
					<path clip-path="url(#SVGID_8_)" fill="none" stroke="#3DB1D9" stroke-width="22.677" stroke-miterlimit="10" d="
						M82.775,158.541c-1.173-24.696,10.506-49.653,30.219-64.576s46.904-19.389,70.354-11.558
						c7.775,2.597,15.107,6.441,21.844,11.109c9.906,6.864,18.686,15.715,23.947,26.56c4.334,8.937,6.148,18.96,6.201,28.893
						c0.15,27.61-14.006,55.111-37.084,70.271c-23.076,15.16-54.459,17.102-78.817,4.101
						c-24.358-13.002-40.321-40.724-38.457-68.271"/>
				</g>
			</g>
			<g opacity="0.03" clip-path="url(#SVGID_2_)">
				<g>
					<defs>
						<rect id="SVGID_9_" x="29.955" y="21.014" width="257.09" height="257.975"/>
					</defs>
					<clipPath id="SVGID_10_">
						<use xlink:href="#SVGID_9_"  overflow="visible"/>
					</clipPath>
					<path clip-path="url(#SVGID_10_)" fill="none" stroke="#53AB40" stroke-width="22.677" stroke-miterlimit="10" d="
						M49.115,96.283c-3.751,6.731-5.158,14.496-6.109,22.143c-2.067,16.588-2.264,33.409-0.584,50.042
						c0.866,8.567,2.248,17.163,5.381,25.184c3.57,9.144,9.311,17.275,15.479,24.912c11.542,14.285,24.927,27.295,40.687,36.725
						c10.416,6.233,21.963,10.888,34.045,12.055c10.465,1.011,21.016-0.61,31.246-3.025c41.809-9.867,82.035-35.479,99.182-74.866
						c4.082-9.378,6.805-19.424,7.211-29.644c0.486-12.221-2.34-24.387-6.639-35.837c-17.096-45.528-59.164-80.756-106.984-89.595
						c-10.52-1.945-21.324-2.692-31.936-1.332c-13.059,1.673-25.535,6.493-37.293,12.419c-11.076,5.583-21.787,12.301-30.11,21.498
						c-8.323,9.196-14.11,21.135-14.056,33.538"/>
				</g>
			</g>
			<g opacity="0.03" clip-path="url(#SVGID_2_)">
				<g>
					<defs>
						<rect id="SVGID_11_" x="59.557" y="35.189" width="213.295" height="203.988"/>
					</defs>
					<clipPath id="SVGID_12_">
						<use xlink:href="#SVGID_11_"  overflow="visible"/>
					</clipPath>
					<path clip-path="url(#SVGID_12_)" fill="none" stroke="#DD3618" stroke-width="22.677" stroke-miterlimit="10" d="
						M71.918,121.949c-2.927,19.006,0.477,38.931,9.546,55.888c11.229,20.993,30.994,37.063,53.552,44.678
						c22.557,7.614,47.666,6.896,70.094-1.094c9.15-3.26,17.953-7.74,25.371-14.013c6.365-5.383,11.609-12.001,15.98-19.099
						c16.488-26.778,20.107-61.611,7.482-90.413c-12.625-28.802-41.883-50.142-73.307-51.313c-18.77-0.7-37.107,5.301-54.625,12.073
						c-12.303,4.756-25.354,10.726-31.604,22.341c-5.452,10.13-5.11,23.576-13.669,31.263c-2.637,2.368-5.967,3.995-8.119,6.809
						c-2.154,2.813-2.454,7.598,0.626,9.349"/>
				</g>
			</g>
			<g opacity="0.03" clip-path="url(#SVGID_2_)">
				<g>
					<defs>
						<rect id="SVGID_13_" x="20.907" y="20.714" width="257.442" height="258.273"/>
					</defs>
					<clipPath id="SVGID_14_">
						<use xlink:href="#SVGID_13_"  overflow="visible"/>
					</clipPath>
					<path clip-path="url(#SVGID_14_)" fill="none" stroke="#310C09" stroke-width="22.677" stroke-miterlimit="10" d="
						M104.348,263.342c7.033,3.149,14.891,3.874,22.591,4.157c16.706,0.612,33.479-0.658,49.901-3.781
						c8.461-1.609,16.902-3.735,24.621-7.556c8.797-4.354,16.398-10.78,23.467-17.592c13.225-12.743,25.02-27.211,33.039-43.731
						c5.301-10.92,8.934-22.829,9.043-34.967c0.094-10.512-2.439-20.882-5.738-30.863c-13.475-40.79-42.494-78.63-83.225-92.279
						c-9.699-3.25-19.943-5.085-30.16-4.599c-12.217,0.58-24.092,4.455-35.122,9.736c-43.864,21-75.292,65.976-79.931,114.387
						c-1.02,10.648-0.822,21.477,1.457,31.928c2.806,12.864,8.694,24.873,15.623,36.069c6.526,10.548,14.152,20.634,24.039,28.123
						s22.285,12.214,34.637,11.078"/>
				</g>
			</g>
			<g opacity="0.03" clip-path="url(#SVGID_2_)">
				<g>
					<defs>
						<rect id="SVGID_15_" x="58.262" y="62.55" width="220.996" height="217.416"/>
					</defs>
					<clipPath id="SVGID_16_">
						<use xlink:href="#SVGID_15_"  overflow="visible"/>
					</clipPath>
					<path clip-path="url(#SVGID_16_)" fill="none" stroke="#A9C00B" stroke-width="22.677" stroke-miterlimit="10" d="
						M70.759,147.394c-4.034,27.488,2.537,56.547,18.709,79.138s41.915,38.29,69.513,41.49s56.584-6.411,76.225-26.062
						c9.234-9.239,16.352-20.434,21.918-32.251c5.76-12.227,9.955-25.356,10.686-38.854c1.562-28.899-13.604-57.46-36.717-74.878
						s-53.27-24.196-82.087-21.528C122.471,76.907,94.43,89.207,83.6,113.554c-4.779,10.747-5.958,23.24-13.088,32.595"/>
				</g>
			</g>
			<g opacity="0.03" clip-path="url(#SVGID_2_)">
				<g>
					<defs>
						<rect id="SVGID_17_" x="48.527" y="41.193" width="229.365" height="225.784"/>
					</defs>
					<clipPath id="SVGID_18_">
						<use xlink:href="#SVGID_17_"  overflow="visible"/>
					</clipPath>
					<path clip-path="url(#SVGID_18_)" fill="none" stroke="#B1D9BC" stroke-width="22.677" stroke-miterlimit="10" d="
						M60.967,147.065c1.59-17.608,9.353-34.277,20.045-48.357c26.797-35.285,75.01-54.613,117.66-42.612
						c42.65,12.002,74.594,57.586,66.67,101.179c-3.26,17.925-12.418,34.336-23.674,48.665
						c-20.211,25.729-49.162,46.271-81.738,49.321c-28.67,2.685-58.328-9.096-77.342-30.72
						c-19.014-21.623-26.902-52.545-20.574-80.635"/>
				</g>
			</g>
			<g opacity="0.03" clip-path="url(#SVGID_2_)">
				<g>
					<defs>
						<rect id="SVGID_19_" x="62.151" y="54.409" width="209.853" height="200.399"/>
					</defs>
					<clipPath id="SVGID_20_">
						<use xlink:href="#SVGID_19_"  overflow="visible"/>
					</clipPath>
					<path clip-path="url(#SVGID_20_)" fill="none" stroke="#C5CECA" stroke-width="22.677" stroke-miterlimit="10" d="
						M86.131,135.776c5.283-21.06,16.432-41.173,33.794-54.209c18.431-13.838,43.003-18.682,65.61-14.2s43.076,17.913,57.314,36.037
						c10.803,13.754,18.285,30.758,17.791,48.241c-0.297,10.552-3.453,20.836-7.525,30.575c-5.049,12.072-11.645,23.667-20.814,33
						c-17.811,18.125-43.801,26.114-69.15,27.893c-9.984,0.7-20.137,0.528-29.834-1.946c-17.799-4.543-32.996-16.677-44.018-31.371
						c-7.878-10.503-13.958-22.68-15.469-35.723c-1.51-13.042,1.98-27,11.043-36.5c1.854-1.942,3.992-5.004,2.098-6.903"/>
				</g>
			</g>
			<g opacity="0.03" clip-path="url(#SVGID_2_)">
				<g>
					<defs>
						<rect id="SVGID_21_" x="20.907" y="22.864" width="257.442" height="258.272"/>
					</defs>
					<clipPath id="SVGID_22_">
						<use xlink:href="#SVGID_21_"  overflow="visible"/>
					</clipPath>
					<path clip-path="url(#SVGID_22_)" fill="none" stroke="#570B6E" stroke-width="22.677" stroke-miterlimit="10" d="
						M194.91,265.491c-7.033,3.15-14.891,3.874-22.59,4.157c-16.707,0.613-33.48-0.658-49.902-3.781
						c-8.461-1.609-16.902-3.735-24.621-7.555C89,253.958,81.398,247.531,74.33,240.721c-13.225-12.743-25.019-27.211-33.039-43.732
						c-5.302-10.92-8.934-22.829-9.043-34.967c-0.095-10.512,2.44-20.882,5.737-30.863c13.476-40.79,42.495-78.63,83.226-92.279
						c9.699-3.25,19.943-5.085,30.16-4.599c12.217,0.58,24.092,4.455,35.123,9.736c43.863,21,75.291,65.976,79.93,114.387
						c1.02,10.648,0.822,21.477-1.457,31.928c-2.805,12.864-8.695,24.873-15.623,36.069c-6.525,10.548-14.152,20.634-24.039,28.123
						c-9.887,7.49-22.285,12.214-34.637,11.079"/>
				</g>
			</g>
			<g opacity="0.03" clip-path="url(#SVGID_2_)">
				<g>
					<defs>
						<rect id="SVGID_23_" x="64.48" y="61.964" width="187.99" height="195.609"/>
					</defs>
					<clipPath id="SVGID_24_">
						<use xlink:href="#SVGID_23_"  overflow="visible"/>
					</clipPath>
					<path clip-path="url(#SVGID_24_)" fill="none" stroke="#671479" stroke-width="22.677" stroke-miterlimit="10" d="
						M77.325,159.515c-2.019-10.254,0.461-20.985,4.983-30.407c4.521-9.421,10.99-17.749,17.408-25.996
						c5.542-7.12,11.217-14.366,18.707-19.395c8.168-5.484,17.987-7.973,27.734-9.303c15.904-2.171,32.506-1.422,47.391,4.59
						c21.111,8.527,37.324,27.548,43.938,49.336c6.611,21.789,3.957,45.939-5.766,66.528c-9.785,20.716-26.998,38.246-48.395,46.438
						c-21.395,8.19-46.861,6.312-65.737-6.673c-12.44-8.557-21.528-21.308-27.938-34.979c-6.408-13.673-10.338-28.351-14.211-42.946
						"/>
				</g>
			</g>
			<g opacity="0.03" clip-path="url(#SVGID_2_)">
				<g>
					<defs>
						<rect id="SVGID_25_" x="54.236" y="55.097" width="215.57" height="207.295"/>
					</defs>
					<clipPath id="SVGID_26_">
						<use xlink:href="#SVGID_25_"  overflow="visible"/>
					</clipPath>
					<path clip-path="url(#SVGID_26_)" fill="none" stroke="#E87806" stroke-width="22.677" stroke-miterlimit="10" d="
						M66.281,156.431c0.422-19.394,7.293-38.594,19.274-53.85c14.833-18.889,37.284-31.393,61.028-35.006
						c23.742-3.612,48.562,1.5,69.443,13.366c8.52,4.842,16.48,10.834,22.752,18.365c5.379,6.462,9.43,13.956,12.529,21.773
						c11.689,29.491,9.184,64.731-8.404,91.133c-17.588,26.401-50.393,42.477-81.818,38.136
						c-18.768-2.593-35.935-11.767-52.151-21.562c-11.39-6.881-23.31-15.099-27.485-27.731c-3.642-11.019-0.945-24.318-8.102-33.453
						c-2.204-2.814-5.229-5.014-6.874-8.187c-1.647-3.172-1.106-7.979,2.259-9.179"/>
				</g>
			</g>
			<g opacity="0.03" clip-path="url(#SVGID_2_)">
				<g>
					<defs>
						<rect id="SVGID_27_" x="58.262" y="62.55" width="220.996" height="217.416"/>
					</defs>
					<clipPath id="SVGID_28_">
						<use xlink:href="#SVGID_27_"  overflow="visible"/>
					</clipPath>
					<path clip-path="url(#SVGID_28_)" fill="none" stroke="#DF5797" stroke-width="22.677" stroke-miterlimit="10" d="
						M70.759,147.394c-4.034,27.488,2.537,56.547,18.709,79.138s41.915,38.29,69.513,41.49s56.584-6.411,76.225-26.062
						c9.234-9.239,16.352-20.434,21.918-32.251c5.76-12.227,9.955-25.356,10.686-38.854c1.562-28.899-13.604-57.46-36.717-74.878
						s-53.27-24.196-82.087-21.528C122.471,76.907,94.43,89.207,83.6,113.554c-4.779,10.747-5.958,23.24-13.088,32.595"/>
				</g>
			</g>
			<g opacity="0.03" clip-path="url(#SVGID_2_)">
				<g>
					<defs>
						<rect id="SVGID_29_" x="64.48" y="61.964" width="187.99" height="195.609"/>
					</defs>
					<clipPath id="SVGID_30_">
						<use xlink:href="#SVGID_29_"  overflow="visible"/>
					</clipPath>
					<path clip-path="url(#SVGID_30_)" fill="none" stroke="#671479" stroke-width="22.677" stroke-miterlimit="10" d="
						M77.325,159.515c-2.019-10.254,0.461-20.985,4.983-30.407c4.521-9.421,10.99-17.749,17.408-25.996
						c5.542-7.12,11.217-14.366,18.707-19.395c8.168-5.484,17.987-7.973,27.734-9.303c15.904-2.171,32.506-1.422,47.391,4.59
						c21.111,8.527,37.324,27.548,43.938,49.336c6.611,21.789,3.957,45.939-5.766,66.528c-9.785,20.716-26.998,38.246-48.395,46.438
						c-21.395,8.19-46.861,6.312-65.737-6.673c-12.44-8.557-21.528-21.308-27.938-34.979c-6.408-13.673-10.338-28.351-14.211-42.946
						"/>
				</g>
			</g>
			<g opacity="0.03" clip-path="url(#SVGID_2_)">
				<g>
					<defs>
						<rect id="SVGID_31_" x="27.529" y="21.942" width="259.795" height="256.478"/>
					</defs>
					<clipPath id="SVGID_32_">
						<use xlink:href="#SVGID_31_"  overflow="visible"/>
					</clipPath>
					<path clip-path="url(#SVGID_32_)" fill="none" stroke="#EFAE19" stroke-width="22.677" stroke-miterlimit="10" d="
						M41.223,186.502c-2.525-7.28-2.562-15.172-2.172-22.868c0.844-16.695,3.572-33.294,8.115-49.382
						c2.34-8.287,5.194-16.512,9.672-23.868c5.104-8.384,12.17-15.397,19.57-21.845c13.848-12.064,29.288-22.552,46.445-29.102
						c11.34-4.329,23.521-6.909,35.621-5.96c10.48,0.822,20.59,4.251,30.246,8.405c39.461,16.978,74.627,49.186,84.674,90.952
						c2.393,9.945,3.328,20.311,1.953,30.446c-1.643,12.12-6.537,23.611-12.76,34.14c-24.742,41.867-72.287,69.256-120.918,69.656
						c-10.697,0.088-21.467-1.053-31.68-4.234c-12.571-3.915-24.021-10.829-34.57-18.706c-9.939-7.422-19.322-15.897-25.921-26.4
						c-6.601-10.502-10.226-23.264-8.017-35.47"/>
				</g>
			</g>
			<g opacity="0.03" clip-path="url(#SVGID_2_)">
				<g>
					<defs>
						<rect id="SVGID_33_" x="29.955" y="21.014" width="257.09" height="257.975"/>
					</defs>
					<clipPath id="SVGID_34_">
						<use xlink:href="#SVGID_33_"  overflow="visible"/>
					</clipPath>
					<path clip-path="url(#SVGID_34_)" fill="none" stroke="#84BE53" stroke-width="22.677" stroke-miterlimit="10" d="
						M49.115,96.283c-3.751,6.731-5.158,14.496-6.109,22.143c-2.067,16.588-2.264,33.409-0.584,50.042
						c0.866,8.567,2.248,17.163,5.381,25.184c3.57,9.144,9.311,17.275,15.479,24.912c11.542,14.285,24.927,27.295,40.687,36.725
						c10.416,6.233,21.963,10.888,34.045,12.055c10.465,1.011,21.016-0.61,31.246-3.025c41.809-9.867,82.035-35.479,99.182-74.866
						c4.082-9.378,6.805-19.424,7.211-29.644c0.486-12.221-2.34-24.387-6.639-35.837c-17.096-45.528-59.164-80.756-106.984-89.595
						c-10.52-1.945-21.324-2.692-31.936-1.332c-13.059,1.673-25.535,6.493-37.293,12.419c-11.076,5.583-21.787,12.301-30.11,21.498
						c-8.323,9.196-14.11,21.135-14.056,33.538"/>
				</g>
			</g>
			<g opacity="0.03" clip-path="url(#SVGID_2_)">
				<g>
					<defs>
						<rect id="SVGID_35_" x="47.326" y="47.003" width="210.77" height="210.741"/>
					</defs>
					<clipPath id="SVGID_36_">
						<use xlink:href="#SVGID_35_"  overflow="visible"/>
					</clipPath>
					<path clip-path="url(#SVGID_36_)" fill="none" stroke="#742E85" stroke-width="22.677" stroke-miterlimit="10" d="
						M151.018,246.391c16.232-0.046,32.1-5.812,45.834-14.466c34.42-21.687,55.957-64.239,48.393-104.211
						c-7.564-39.972-46.703-72.838-87.211-69.078c-16.657,1.547-32.401,8.612-46.406,17.759
						c-25.152,16.429-46.26,41.266-51.656,70.819c-4.749,26.007,3.652,54.078,21.91,73.2c18.257,19.123,45.908,28.814,72.109,25.272
						"/>
				</g>
			</g>
			<g opacity="0.03" clip-path="url(#SVGID_2_)">
				<g>
					<defs>
						<rect id="SVGID_37_" x="38.422" y="30.431" width="243.273" height="240.187"/>
					</defs>
					<clipPath id="SVGID_38_">
						<use xlink:href="#SVGID_37_"  overflow="visible"/>
					</clipPath>
					<path clip-path="url(#SVGID_38_)" fill="none" stroke="#CCC0DF" stroke-width="22.677" stroke-miterlimit="10" d="
						M51.95,184.314c-2.349-6.773-2.383-14.115-2.021-21.274c0.785-15.533,3.324-30.975,7.551-45.942
						c2.177-7.71,4.832-15.362,8.997-22.205c4.749-7.8,11.321-14.324,18.207-20.323c12.883-11.223,27.247-20.981,43.21-27.075
						c10.55-4.027,21.881-6.427,33.141-5.544c9.75,0.764,19.154,3.954,28.137,7.819c36.713,15.795,69.428,45.759,78.775,84.615
						c2.227,9.252,3.096,18.896,1.816,28.325c-1.527,11.275-6.082,21.966-11.871,31.761c-23.018,38.949-67.25,64.431-112.492,64.803
						c-9.952,0.082-19.973-0.979-29.473-3.938c-11.695-3.643-22.348-10.074-32.162-17.403c-9.246-6.904-17.975-14.789-24.115-24.561
						c-6.141-9.771-9.512-21.643-7.458-32.999"/>
				</g>
			</g>
			<g opacity="0.03" clip-path="url(#SVGID_2_)">
				<g>
					<defs>
						<rect id="SVGID_39_" x="65.475" y="63.697" width="176.467" height="176.261"/>
					</defs>
					<clipPath id="SVGID_40_">
						<use xlink:href="#SVGID_39_"  overflow="visible"/>
					</clipPath>
					<path clip-path="url(#SVGID_40_)" fill="none" stroke="#3DB1D9" stroke-width="22.677" stroke-miterlimit="10" d="
						M163.434,226.533c-24.5,3.32-50.379-6.14-66.963-24.477s-23.404-45.035-17.646-69.079c1.907-7.971,5.099-15.61,9.161-22.728
						c5.976-10.468,14.027-19.985,24.373-26.17c8.524-5.098,18.352-7.778,28.242-8.698c27.492-2.555,56.123,9.152,73.236,30.819
						c17.111,21.667,21.781,52.763,10.953,78.161c-10.828,25.397-37.053,43.716-64.658,44.261"/>
				</g>
			</g>
			<g opacity="0.03" clip-path="url(#SVGID_2_)">
				<g>
					<defs>
						<rect id="SVGID_41_" x="43.264" y="57.535" width="196.1" height="187.2"/>
					</defs>
					<clipPath id="SVGID_42_">
						<use xlink:href="#SVGID_41_"  overflow="visible"/>
					</clipPath>
					<path clip-path="url(#SVGID_42_)" fill="none" stroke="#F0AEA7" stroke-width="22.677" stroke-miterlimit="10" d="
						M134.378,231.878c10.038,2.905,20.944,1.37,30.726-2.314c9.779-3.683,18.639-9.401,27.414-15.076
						c7.576-4.901,15.289-9.923,20.953-16.946c6.174-7.658,9.51-17.223,11.684-26.816c3.549-15.656,4.25-32.261-0.441-47.611
						c-6.656-21.776-24.189-39.584-45.32-48.071c-21.129-8.486-45.419-7.947-66.777-0.054
						c-21.489,7.942-40.453,23.562-50.478,44.162s-10.372,46.133,0.917,66.069c7.439,13.141,19.35,23.304,32.412,30.881
						c13.062,7.576,27.342,12.771,41.544,17.899"/>
				</g>
			</g>
			<g opacity="0.03" clip-path="url(#SVGID_2_)">
				<g>
					<defs>
						<rect id="SVGID_43_" x="57.316" y="63.697" width="193.789" height="193.562"/>
					</defs>
					<clipPath id="SVGID_44_">
						<use xlink:href="#SVGID_43_"  overflow="visible"/>
					</clipPath>
					<path clip-path="url(#SVGID_44_)" fill="none" stroke="#000F12" stroke-width="22.677" stroke-miterlimit="10" d="
						M143.39,243.597c27.261,3.695,56.056-6.83,74.507-27.232c18.451-20.403,26.039-50.107,19.633-76.86
						c-2.123-8.868-5.674-17.368-10.195-25.287c-6.646-11.647-15.605-22.236-27.117-29.118c-9.484-5.672-20.418-8.655-31.424-9.677
						c-30.588-2.844-62.443,10.182-81.483,34.289c-19.041,24.108-24.237,58.706-12.188,86.965s41.228,48.64,71.941,49.246"/>
				</g>
			</g>
			<g opacity="0.03" clip-path="url(#SVGID_2_)">
				<g>
					<defs>
						<rect id="SVGID_45_" x="57.316" y="63.697" width="188.314" height="188.091"/>
					</defs>
					<clipPath id="SVGID_46_">
						<use xlink:href="#SVGID_45_"  overflow="visible"/>
					</clipPath>
					<path clip-path="url(#SVGID_46_)" fill="none" stroke="#000F12" stroke-width="22.677" stroke-miterlimit="10" d="
						M140.998,238.202c26.387,3.576,54.26-6.612,72.121-26.361c17.861-19.75,25.207-48.504,19.004-74.4
						c-2.055-8.585-5.492-16.812-9.867-24.478c-6.436-11.275-15.107-21.525-26.25-28.187c-9.182-5.49-19.766-8.377-30.418-9.367
						c-29.607-2.752-60.444,9.856-78.876,33.192c-18.431,23.337-23.46,56.827-11.798,84.182
						c11.664,27.354,39.908,47.083,69.64,47.669"/>
				</g>
			</g>
			<g opacity="0.03" clip-path="url(#SVGID_2_)">
				<g>
					<defs>
						<rect id="SVGID_47_" x="60.436" y="29.749" width="216.797" height="221.25"/>
					</defs>
					<clipPath id="SVGID_48_">
						<use xlink:href="#SVGID_47_"  overflow="visible"/>
					</clipPath>
					<path clip-path="url(#SVGID_48_)" fill="none" stroke="#A9C00B" stroke-width="22.677" stroke-miterlimit="10" d="
						M153.377,239.476c27.736,1.623,56.111-7.456,77.207-25.535c21.096-18.08,34.49-45.092,35.273-72.864
						c0.781-27.772-11.318-55.81-32.605-73.663c-10.008-8.394-21.781-14.508-34.039-19.024c-12.682-4.672-26.127-7.708-39.637-7.258
						c-28.926,0.962-56.056,18.559-71.393,43.102c-15.338,24.543-19.462,55.175-14.292,83.651
						c4.761,26.219,19.457,53.083,44.655,61.749c11.123,3.825,23.672,3.91,33.611,10.197"/>
				</g>
			</g>
			<g opacity="0.03" clip-path="url(#SVGID_2_)">
				<g>
					<defs>
						<rect id="SVGID_49_" x="43.264" y="57.535" width="196.1" height="187.2"/>
					</defs>
					<clipPath id="SVGID_50_">
						<use xlink:href="#SVGID_49_"  overflow="visible"/>
					</clipPath>
					<path clip-path="url(#SVGID_50_)" fill="none" stroke="#F0AEA7" stroke-width="22.677" stroke-miterlimit="10" d="
						M134.378,231.878c10.038,2.905,20.944,1.37,30.726-2.314c9.779-3.683,18.639-9.401,27.414-15.076
						c7.576-4.901,15.289-9.923,20.953-16.946c6.174-7.658,9.51-17.223,11.684-26.816c3.549-15.656,4.25-32.261-0.441-47.611
						c-6.656-21.776-24.189-39.584-45.32-48.071c-21.129-8.486-45.419-7.947-66.777-0.054
						c-21.489,7.942-40.453,23.562-50.478,44.162s-10.372,46.133,0.917,66.069c7.439,13.141,19.35,23.304,32.412,30.881
						c13.062,7.576,27.342,12.771,41.544,17.899"/>
				</g>
			</g>
			<g opacity="0.03" clip-path="url(#SVGID_2_)">
				<g>
					<defs>
						<rect id="SVGID_51_" x="65.475" y="63.697" width="176.467" height="176.261"/>
					</defs>
					<clipPath id="SVGID_52_">
						<use xlink:href="#SVGID_51_"  overflow="visible"/>
					</clipPath>
					<path clip-path="url(#SVGID_52_)" fill="none" stroke="#C6E2C4" stroke-width="22.677" stroke-miterlimit="10" d="
						M163.434,226.533c-24.5,3.32-50.379-6.14-66.963-24.477s-23.404-45.035-17.646-69.079c1.907-7.971,5.099-15.61,9.161-22.728
						c5.976-10.468,14.027-19.985,24.373-26.17c8.524-5.098,18.352-7.778,28.242-8.698c27.492-2.555,56.123,9.152,73.236,30.819
						c17.111,21.667,21.781,52.763,10.953,78.161c-10.828,25.397-37.053,43.716-64.658,44.261"/>
				</g>
			</g>
			<g opacity="0.03" clip-path="url(#SVGID_2_)">
				<g>
					<defs>
						<rect id="SVGID_53_" x="46.285" y="31.364" width="201.779" height="207.975"/>
					</defs>
					<clipPath id="SVGID_54_">
						<use xlink:href="#SVGID_53_"  overflow="visible"/>
					</clipPath>
					<path clip-path="url(#SVGID_54_)" fill="none" stroke="#DA2B7B" stroke-width="22.677" stroke-miterlimit="10" d="
						M159.418,218.036c21.441-3.427,42.449-12.78,56.949-28.941c15.391-17.154,22.359-41.21,19.863-64.122
						c-2.494-22.913-14.09-44.475-30.904-60.237c-12.76-11.962-29.047-20.896-46.506-21.929
						c-10.539-0.624-21.059,1.624-31.115,4.832c-12.467,3.977-24.592,9.537-34.688,17.86
						c-19.608,16.163-29.833,41.357-33.812,66.455c-1.568,9.886-2.283,20.014-0.662,29.891
						c2.974,18.125,13.736,34.324,27.414,46.583c9.777,8.764,21.377,15.882,34.238,18.523s27.07,0.38,37.324-7.82
						c2.096-1.676,5.334-3.541,7.061-1.487"/>
				</g>
			</g>
			<g opacity="0.03" clip-path="url(#SVGID_2_)">
				<g>
					<defs>
						<rect id="SVGID_55_" x="51.193" y="31.364" width="201.779" height="207.975"/>
					</defs>
					<clipPath id="SVGID_56_">
						<use xlink:href="#SVGID_55_"  overflow="visible"/>
					</clipPath>
					<path clip-path="url(#SVGID_56_)" fill="none" stroke="#C5CECA" stroke-width="22.677" stroke-miterlimit="10" d="
						M139.84,218.036c-21.44-3.427-42.449-12.78-56.949-28.941c-15.391-17.154-22.358-41.21-19.863-64.122
						c2.495-22.913,14.09-44.475,30.904-60.237c12.761-11.962,29.047-20.896,46.507-21.929c10.538-0.624,21.058,1.624,31.114,4.832
						c12.467,3.977,24.592,9.537,34.689,17.86c19.607,16.163,29.832,41.357,33.811,66.455c1.568,9.886,2.283,20.014,0.662,29.891
						c-2.975,18.125-13.736,34.324-27.414,46.583c-9.777,8.764-21.377,15.882-34.238,18.523s-27.07,0.38-37.324-7.82
						c-2.096-1.676-5.333-3.541-7.061-1.487"/>
				</g>
			</g>
			<g opacity="0.03" clip-path="url(#SVGID_2_)">
				<g>
					<defs>
						<rect id="SVGID_57_" x="49.288" y="41.267" width="221.335" height="217.892"/>
					</defs>
					<clipPath id="SVGID_58_">
						<use xlink:href="#SVGID_57_"  overflow="visible"/>
					</clipPath>
					<path clip-path="url(#SVGID_58_)" fill="none" stroke="#215EAD" stroke-width="22.677" stroke-miterlimit="10" d="
						M61.686,143.465c1.528-16.924,8.989-32.945,19.266-46.478c25.756-33.914,72.096-52.491,113.088-40.956
						c40.994,11.535,71.697,55.348,64.08,97.247c-3.133,17.229-11.936,33.002-22.754,46.773
						c-19.426,24.73-47.252,44.475-78.562,47.406c-27.555,2.58-56.061-8.743-74.336-29.526
						c-18.275-20.784-25.857-50.504-19.775-77.502"/>
				</g>
			</g>
			<g opacity="0.03" clip-path="url(#SVGID_2_)">
				<g>
					<defs>
						<rect id="SVGID_59_" x="46.285" y="31.364" width="201.779" height="207.975"/>
					</defs>
					<clipPath id="SVGID_60_">
						<use xlink:href="#SVGID_59_"  overflow="visible"/>
					</clipPath>
					<path clip-path="url(#SVGID_60_)" fill="none" stroke="#DA2B7B" stroke-width="22.677" stroke-miterlimit="10" d="
						M159.418,218.036c21.441-3.427,42.449-12.78,56.949-28.941c15.391-17.154,22.359-41.21,19.863-64.122
						c-2.494-22.913-14.09-44.475-30.904-60.237c-12.76-11.962-29.047-20.896-46.506-21.929
						c-10.539-0.624-21.059,1.624-31.115,4.832c-12.467,3.977-24.592,9.537-34.688,17.86
						c-19.608,16.163-29.833,41.357-33.812,66.455c-1.568,9.886-2.283,20.014-0.662,29.891
						c2.974,18.125,13.736,34.324,27.414,46.583c9.777,8.764,21.377,15.882,34.238,18.523s27.07,0.38,37.324-7.82
						c2.096-1.676,5.334-3.541,7.061-1.487"/>
				</g>
			</g>
			<g opacity="0.03" clip-path="url(#SVGID_2_)">
				<g>
					<defs>
						<rect id="SVGID_61_" x="22.026" y="29.749" width="216.796" height="221.25"/>
					</defs>
					<clipPath id="SVGID_62_">
						<use xlink:href="#SVGID_61_"  overflow="visible"/>
					</clipPath>
					<path clip-path="url(#SVGID_62_)" fill="none" stroke="#FFFFFF" stroke-width="22.677" stroke-miterlimit="10" d="
						M145.881,239.476c-27.735,1.623-56.111-7.456-77.207-25.535c-21.096-18.08-34.49-45.092-35.273-72.864
						c-0.781-27.772,11.318-55.81,32.605-73.663c10.009-8.394,21.781-14.508,34.039-19.024c12.683-4.672,26.127-7.708,39.637-7.258
						c28.926,0.962,56.057,18.559,71.393,43.102c15.338,24.543,19.463,55.175,14.293,83.651
						c-4.762,26.219-19.457,53.083-44.656,61.749c-11.123,3.825-23.672,3.91-33.611,10.197"/>
				</g>
			</g>
			<g opacity="0.03" clip-path="url(#SVGID_2_)">
				<g>
					<defs>
						<rect id="SVGID_63_" x="60.436" y="29.749" width="216.797" height="221.25"/>
					</defs>
					<clipPath id="SVGID_64_">
						<use xlink:href="#SVGID_63_"  overflow="visible"/>
					</clipPath>
					<path clip-path="url(#SVGID_64_)" fill="none" stroke="#155E3B" stroke-width="22.677" stroke-miterlimit="10" d="
						M153.377,239.476c27.736,1.623,56.111-7.456,77.207-25.535c21.096-18.08,34.49-45.092,35.273-72.864
						c0.781-27.772-11.318-55.81-32.605-73.663c-10.008-8.394-21.781-14.508-34.039-19.024c-12.682-4.672-26.127-7.708-39.637-7.258
						c-28.926,0.962-56.056,18.559-71.393,43.102c-15.338,24.543-19.462,55.175-14.292,83.651
						c4.761,26.219,19.457,53.083,44.655,61.749c11.123,3.825,23.672,3.91,33.611,10.197"/>
				</g>
			</g>
			<g opacity="0.03" clip-path="url(#SVGID_2_)">
				<g>
					<defs>
						<rect id="SVGID_65_" x="54.338" y="53.459" width="196.484" height="189.029"/>
					</defs>
					<clipPath id="SVGID_66_">
						<use xlink:href="#SVGID_65_"  overflow="visible"/>
					</clipPath>
					<path clip-path="url(#SVGID_66_)" fill="none" stroke="#F7E38C" stroke-width="22.677" stroke-miterlimit="10" d="
						M66.312,145.89c0.379-17.475,6.572-34.775,17.367-48.523c13.364-17.019,33.596-28.286,54.989-31.541
						c21.394-3.256,43.759,1.351,62.573,12.043c7.678,4.363,14.85,9.762,20.5,16.548c4.85,5.823,8.498,12.575,11.291,19.619
						c10.533,26.573,8.275,58.326-7.572,82.116s-45.408,38.274-73.725,34.362c-16.91-2.336-32.379-10.603-46.991-19.43
						c-10.263-6.198-21.003-13.603-24.767-24.987c-3.28-9.928-0.852-21.912-7.299-30.144c-1.986-2.535-4.711-4.517-6.194-7.376
						c-1.484-2.858-0.998-7.189,2.036-8.271"/>
				</g>
			</g>
			<g opacity="0.03" clip-path="url(#SVGID_2_)">
				<g>
					<defs>
						<rect id="SVGID_67_" x="51.68" y="48.16" width="199.582" height="199.555"/>
					</defs>
					<clipPath id="SVGID_68_">
						<use xlink:href="#SVGID_67_"  overflow="visible"/>
					</clipPath>
					<path clip-path="url(#SVGID_68_)" fill="none" stroke="#B1D9BC" stroke-width="22.677" stroke-miterlimit="10" d="
						M153.062,236.361c-15.267-0.042-30.191-5.466-43.109-13.604c-32.371-20.397-52.629-60.418-45.514-98.014
						c7.115-37.595,43.926-68.506,82.024-64.969c15.665,1.454,30.474,8.099,43.646,16.702
						c23.656,15.452,43.508,38.811,48.584,66.607c4.467,24.461-3.436,50.862-20.607,68.847
						c-17.17,17.983-43.178,27.099-67.818,23.768"/>
				</g>
			</g>
			<g opacity="0.03" clip-path="url(#SVGID_2_)">
				<g>
					<defs>
						<rect id="SVGID_69_" x="59.895" y="57.535" width="196.1" height="187.2"/>
					</defs>
					<clipPath id="SVGID_70_">
						<use xlink:href="#SVGID_69_"  overflow="visible"/>
					</clipPath>
					<path clip-path="url(#SVGID_70_)" fill="none" stroke="#671479" stroke-width="22.677" stroke-miterlimit="10" d="
						M164.881,231.878c-10.039,2.905-20.945,1.37-30.726-2.314c-9.78-3.683-18.64-9.401-27.415-15.076
						c-7.576-4.901-15.289-9.923-20.952-16.946c-6.174-7.658-9.51-17.223-11.685-26.816c-3.549-15.656-4.25-32.261,0.441-47.611
						c6.656-21.776,24.19-39.584,45.32-48.071c21.129-8.486,45.418-7.947,66.777-0.054c21.49,7.942,40.453,23.562,50.479,44.162
						c10.023,20.6,10.371,46.133-0.918,66.069c-7.439,13.141-19.35,23.304-32.412,30.881c-13.062,7.576-27.342,12.771-41.543,17.899
						"/>
				</g>
			</g>
			<g opacity="0.03" clip-path="url(#SVGID_2_)">
				<g>
					<defs>
						<rect id="SVGID_71_" x="22.026" y="29.749" width="216.796" height="221.25"/>
					</defs>
					<clipPath id="SVGID_72_">
						<use xlink:href="#SVGID_71_"  overflow="visible"/>
					</clipPath>
					<path clip-path="url(#SVGID_72_)" fill="none" stroke="#FFFFFF" stroke-width="22.677" stroke-miterlimit="10" d="
						M145.881,239.476c-27.735,1.623-56.111-7.456-77.207-25.535c-21.096-18.08-34.49-45.092-35.273-72.864
						c-0.781-27.772,11.318-55.81,32.605-73.663c10.009-8.394,21.781-14.508,34.039-19.024c12.683-4.672,26.127-7.708,39.637-7.258
						c28.926,0.962,56.057,18.559,71.393,43.102c15.338,24.543,19.463,55.175,14.293,83.651
						c-4.762,26.219-19.457,53.083-44.656,61.749c-11.123,3.825-23.672,3.91-33.611,10.197"/>
				</g>
			</g>
			<g opacity="0.03" clip-path="url(#SVGID_2_)">
				<g>
					<defs>
						<rect id="SVGID_73_" x="58.711" y="59.634" width="189.666" height="197.939"/>
					</defs>
					<clipPath id="SVGID_74_">
						<use xlink:href="#SVGID_73_"  overflow="visible"/>
					</clipPath>
					<path clip-path="url(#SVGID_74_)" fill="none" stroke="#2B6AB7" stroke-width="22.677" stroke-miterlimit="10" d="
						M147.643,245.503c17.59,1.154,35.516-3.546,50.275-13.184c18.271-11.931,31.371-31.265,36.52-52.472
						c5.152-21.207,2.49-44.08-6.598-63.922c-3.709-8.095-8.502-15.777-14.824-22.05c-5.424-5.382-11.885-9.643-18.717-13.067
						c-25.771-12.918-57.869-13.44-83.162,0.39s-42.443,42.253-41.002,71.045c0.86,17.195,7.806,33.462,15.389,48.917
						c5.326,10.854,11.82,22.297,22.927,27.076c9.687,4.17,21.938,2.783,29.642,9.984c2.373,2.218,4.125,5.13,6.867,6.871
						c2.74,1.742,7.135,1.634,8.486-1.318"/>
				</g>
			</g>
			<g opacity="0.03" clip-path="url(#SVGID_2_)">
				<g>
					<defs>
						<rect id="SVGID_75_" x="59.895" y="57.535" width="196.1" height="187.2"/>
					</defs>
					<clipPath id="SVGID_76_">
						<use xlink:href="#SVGID_75_"  overflow="visible"/>
					</clipPath>
					<path clip-path="url(#SVGID_76_)" fill="none" stroke="#671479" stroke-width="22.677" stroke-miterlimit="10" d="
						M164.881,231.878c-10.039,2.905-20.945,1.37-30.726-2.314c-9.78-3.683-18.64-9.401-27.415-15.076
						c-7.576-4.901-15.289-9.923-20.952-16.946c-6.174-7.658-9.51-17.223-11.685-26.816c-3.549-15.656-4.25-32.261,0.441-47.611
						c6.656-21.776,24.19-39.584,45.32-48.071c21.129-8.486,45.418-7.947,66.777-0.054c21.49,7.942,40.453,23.562,50.479,44.162
						c10.023,20.6,10.371,46.133-0.918,66.069c-7.439,13.141-19.35,23.304-32.412,30.881c-13.062,7.576-27.342,12.771-41.543,17.899
						"/>
				</g>
			</g>
			<g opacity="0.03" clip-path="url(#SVGID_2_)">
				<g>
					<defs>
						<rect id="SVGID_77_" x="51.193" y="31.364" width="201.779" height="207.975"/>
					</defs>
					<clipPath id="SVGID_78_">
						<use xlink:href="#SVGID_77_"  overflow="visible"/>
					</clipPath>
					<path clip-path="url(#SVGID_78_)" fill="none" stroke="#195E28" stroke-width="22.677" stroke-miterlimit="10" d="
						M139.84,218.036c-21.44-3.427-42.449-12.78-56.949-28.941c-15.391-17.154-22.358-41.21-19.863-64.122
						c2.495-22.913,14.09-44.475,30.904-60.237c12.761-11.962,29.047-20.896,46.507-21.929c10.538-0.624,21.058,1.624,31.114,4.832
						c12.467,3.977,24.592,9.537,34.689,17.86c19.607,16.163,29.832,41.357,33.811,66.455c1.568,9.886,2.283,20.014,0.662,29.891
						c-2.975,18.125-13.736,34.324-27.414,46.583c-9.777,8.764-21.377,15.882-34.238,18.523s-27.07,0.38-37.324-7.82
						c-2.096-1.676-5.333-3.541-7.061-1.487"/>
				</g>
			</g>
			<g opacity="0.03" clip-path="url(#SVGID_2_)">
				<g>
					<defs>
						<rect id="SVGID_79_" x="71.383" y="48.16" width="194.006" height="202.495"/>
					</defs>
					<clipPath id="SVGID_80_">
						<use xlink:href="#SVGID_79_"  overflow="visible"/>
					</clipPath>
					<path clip-path="url(#SVGID_80_)" fill="none" stroke="#F7E38C" stroke-width="22.677" stroke-miterlimit="10" d="
						M174.439,238.564c-18.047,1.186-36.438-3.638-51.581-13.524c-18.749-12.242-32.187-32.078-37.472-53.837
						c-5.283-21.759-2.553-45.227,6.771-65.584c3.805-8.306,8.723-16.187,15.208-22.623c5.565-5.522,12.195-9.894,19.204-13.407
						c26.441-13.254,59.373-13.789,85.324,0.401c25.951,14.189,43.547,43.351,42.068,72.891
						c-0.883,17.642-8.008,34.332-15.789,50.189c-5.463,11.138-12.127,22.877-23.523,27.78c-9.938,4.278-22.508,2.855-30.41,10.244
						c-2.436,2.276-4.232,5.263-7.047,7.05c-2.811,1.787-7.318,1.676-8.709-1.353"/>
				</g>
			</g>
			<g opacity="0.03" clip-path="url(#SVGID_2_)">
				<g>
					<defs>
						<rect id="SVGID_81_" x="62.221" y="58.698" width="199.25" height="199.226"/>
					</defs>
					<clipPath id="SVGID_82_">
						<use xlink:href="#SVGID_81_"  overflow="visible"/>
					</clipPath>
					<path clip-path="url(#SVGID_82_)" fill="none" stroke="#B1D9BC" stroke-width="22.677" stroke-miterlimit="10" d="
						M163.436,246.57c-15.238-0.042-30.135-5.456-43.029-13.579c-32.311-20.358-52.529-60.306-45.428-97.83
						c7.102-37.525,43.844-68.379,81.871-64.848c15.637,1.451,30.416,8.084,43.564,16.671
						c23.611,15.423,43.426,38.739,48.492,66.482c4.459,24.416-3.428,50.767-20.568,68.718
						c-17.139,17.951-43.098,27.049-67.693,23.724"/>
				</g>
			</g>
			<g opacity="0.03" clip-path="url(#SVGID_2_)">
				<g>
					<defs>
						<rect id="SVGID_83_" x="20.907" y="22.864" width="257.442" height="258.272"/>
					</defs>
					<clipPath id="SVGID_84_">
						<use xlink:href="#SVGID_83_"  overflow="visible"/>
					</clipPath>
					<path clip-path="url(#SVGID_84_)" fill="none" stroke="#53AB40" stroke-width="22.677" stroke-miterlimit="10" d="
						M104.348,265.491c7.033,3.15,14.891,3.874,22.591,4.157c16.706,0.613,33.479-0.658,49.901-3.781
						c8.461-1.609,16.902-3.735,24.621-7.555c8.797-4.354,16.398-10.781,23.467-17.592c13.225-12.743,25.02-27.211,33.039-43.732
						c5.301-10.92,8.934-22.829,9.043-34.967c0.094-10.512-2.439-20.882-5.738-30.863c-13.475-40.79-42.494-78.63-83.225-92.279
						c-9.699-3.25-19.943-5.085-30.16-4.599c-12.217,0.58-24.092,4.455-35.122,9.736c-43.864,21-75.292,65.976-79.931,114.387
						c-1.02,10.648-0.822,21.477,1.457,31.928c2.806,12.864,8.694,24.873,15.623,36.069c6.526,10.548,14.152,20.634,24.039,28.123
						c9.887,7.49,22.285,12.214,34.637,11.079"/>
				</g>
			</g>
			<g opacity="0.03" clip-path="url(#SVGID_2_)">
				<g>
					<defs>
						<rect id="SVGID_85_" x="20.907" y="22.864" width="257.442" height="258.272"/>
					</defs>
					<clipPath id="SVGID_86_">
						<use xlink:href="#SVGID_85_"  overflow="visible"/>
					</clipPath>
					<path clip-path="url(#SVGID_86_)" fill="none" stroke="#EFAE19" stroke-width="22.677" stroke-miterlimit="10" d="
						M194.91,265.491c-7.033,3.15-14.891,3.874-22.59,4.157c-16.707,0.613-33.48-0.658-49.902-3.781
						c-8.461-1.609-16.902-3.735-24.621-7.555C89,253.958,81.398,247.531,74.33,240.721c-13.225-12.743-25.019-27.211-33.039-43.732
						c-5.302-10.92-8.934-22.829-9.043-34.967c-0.095-10.512,2.44-20.882,5.737-30.863c13.476-40.79,42.495-78.63,83.226-92.279
						c9.699-3.25,19.943-5.085,30.16-4.599c12.217,0.58,24.092,4.455,35.123,9.736c43.863,21,75.291,65.976,79.93,114.387
						c1.02,10.648,0.822,21.477-1.457,31.928c-2.805,12.864-8.695,24.873-15.623,36.069c-6.525,10.548-14.152,20.634-24.039,28.123
						c-9.887,7.49-22.285,12.214-34.637,11.079"/>
				</g>
			</g>
			<g opacity="0.03" clip-path="url(#SVGID_2_)">
				<g>
					<defs>
						<rect id="SVGID_87_" x="30.777" y="34.105" width="244.348" height="244.314"/>
					</defs>
					<clipPath id="SVGID_88_">
						<use xlink:href="#SVGID_87_"  overflow="visible"/>
					</clipPath>
					<path clip-path="url(#SVGID_88_)" fill="none" stroke="#6D0E18" stroke-width="22.677" stroke-miterlimit="10" d="
						M150.955,267.062c19.131-0.053,37.832-6.85,54.018-17.047c40.564-25.56,65.945-75.708,57.031-122.816
						c-8.914-47.108-55.041-85.841-102.779-81.41c-19.632,1.823-38.186,10.149-54.691,20.93
						c-29.643,19.361-54.518,48.632-60.877,83.461c-5.598,30.651,4.304,63.732,25.82,86.268s54.105,33.957,84.982,29.783"/>
				</g>
			</g>
			<g opacity="0.03" clip-path="url(#SVGID_2_)">
				<g>
					<defs>
						<rect id="SVGID_89_" x="70.377" y="47.104" width="194.934" height="203.469"/>
					</defs>
					<clipPath id="SVGID_90_">
						<use xlink:href="#SVGID_89_"  overflow="visible"/>
					</clipPath>
					<path clip-path="url(#SVGID_90_)" fill="none" stroke="#F7E38C" stroke-width="22.677" stroke-miterlimit="10" d="
						M173.93,238.479c-18.145,1.19-36.634-3.657-51.859-13.6c-18.851-12.307-32.361-32.251-37.674-54.127
						c-5.313-21.877-2.567-45.471,6.808-65.939c3.825-8.351,8.771-16.275,15.29-22.745c5.595-5.553,12.262-9.948,19.308-13.48
						c26.585-13.326,59.694-13.864,85.788,0.402c26.09,14.267,43.781,43.587,42.295,73.286
						c-0.889,17.738-8.053,34.518-15.875,50.462c-5.494,11.197-12.193,22.999-23.65,27.931c-9.992,4.301-22.631,2.87-30.576,10.299
						c-2.447,2.288-4.256,5.291-7.084,7.087c-2.828,1.798-7.359,1.687-8.756-1.359"/>
				</g>
			</g>
			<g opacity="0.03" clip-path="url(#SVGID_2_)">
				<g>
					<defs>
						<rect id="SVGID_91_" x="72.656" y="48.16" width="205.551" height="203.11"/>
					</defs>
					<clipPath id="SVGID_92_">
						<use xlink:href="#SVGID_91_"  overflow="visible"/>
					</clipPath>
					<path clip-path="url(#SVGID_92_)" fill="none" stroke="#DA2B7B" stroke-width="22.677" stroke-miterlimit="10" d="
						M91.59,155.281c1.547,21.657,9.032,43.4,23.868,59.254c15.748,16.828,39.104,25.864,62.147,25.377
						c23.041-0.488,45.533-10.161,62.701-25.537c13.027-11.669,23.348-27.115,25.898-44.418c1.539-10.444,0.217-21.12-2.104-31.418
						c-2.875-12.765-7.355-25.329-14.768-36.113c-14.393-20.942-38.6-33.323-63.254-39.475c-9.713-2.424-19.74-4.019-29.721-3.265
						c-18.316,1.383-35.391,10.694-48.797,23.25c-9.582,8.976-17.684,19.913-21.437,32.494c-3.752,12.582-2.737,26.934,4.537,37.864
						c1.487,2.234,3.063,5.621,0.867,7.163"/>
				</g>
			</g>
			<g opacity="0.03" clip-path="url(#SVGID_2_)">
				<g>
					<defs>
						<rect id="SVGID_93_" x="47.778" y="48.16" width="213.632" height="223.094"/>
					</defs>
					<clipPath id="SVGID_94_">
						<use xlink:href="#SVGID_93_"  overflow="visible"/>
					</clipPath>
					<path clip-path="url(#SVGID_94_)" fill="none" stroke="#2B6AB7" stroke-width="22.677" stroke-miterlimit="10" d="
						M147.847,259.077c20.114,1.32,40.61-4.054,57.489-15.074c20.896-13.645,35.873-35.752,41.764-60.004
						c5.891-24.251,2.846-50.407-7.545-73.097c-4.242-9.258-9.725-18.042-16.951-25.215c-6.203-6.155-13.592-11.027-21.404-14.943
						c-29.469-14.772-66.176-15.368-95.1,0.447c-28.923,15.815-48.535,48.317-46.887,81.241c0.984,19.663,8.926,38.265,17.598,55.94
						c6.09,12.411,13.518,25.495,26.217,30.962c11.078,4.768,25.088,3.182,33.896,11.417c2.713,2.537,4.717,5.865,7.852,7.856
						c3.135,1.992,8.16,1.869,9.707-1.508"/>
				</g>
			</g>
			<g opacity="0.03" clip-path="url(#SVGID_2_)">
				<g>
					<defs>
						<rect id="SVGID_95_" x="57.335" y="43.704" width="210.093" height="213.01"/>
					</defs>
					<clipPath id="SVGID_96_">
						<use xlink:href="#SVGID_95_"  overflow="visible"/>
					</clipPath>
					<path clip-path="url(#SVGID_96_)" fill="none" stroke="#742E85" stroke-width="22.677" stroke-miterlimit="10" d="
						M68.926,140.323c-1.377,16.239,3.002,32.613,10.455,47.106c18.678,36.321,59.352,61.585,99.99,57.518
						c40.639-4.068,76.934-40.336,76.717-81.178c-0.088-16.794-5.777-33.158-13.701-47.966
						c-14.229-26.592-37.221-49.875-66.307-57.858c-25.596-7.025-54.404-1.079-75.126,15.508
						C80.232,90.038,68.12,116.845,69.37,143.358"/>
				</g>
			</g>
			<g opacity="0.03" clip-path="url(#SVGID_2_)">
				<g>
					<defs>
						<rect id="SVGID_97_" x="68.227" y="55.706" width="199.289" height="202.039"/>
					</defs>
					<clipPath id="SVGID_98_">
						<use xlink:href="#SVGID_97_"  overflow="visible"/>
					</clipPath>
					<path clip-path="url(#SVGID_98_)" fill="none" stroke="#742E85" stroke-width="22.677" stroke-miterlimit="10" d="
						M79.803,147.409c-1.297,15.303,2.829,30.734,9.853,44.391c17.601,34.228,55.93,58.034,94.226,54.201
						c38.297-3.834,72.5-38.011,72.295-76.497c-0.084-15.827-5.443-31.248-12.91-45.202c-13.41-25.06-35.078-47-62.484-54.523
						c-24.121-6.621-51.27-1.017-70.797,14.613c-19.527,15.631-30.94,40.892-29.764,65.877"/>
				</g>
			</g>
			<g opacity="0.03" clip-path="url(#SVGID_2_)">
				<g>
					<defs>
						<rect id="SVGID_99_" x="71.539" y="58.698" width="174.883" height="176.907"/>
					</defs>
					<clipPath id="SVGID_100_">
						<use xlink:href="#SVGID_99_"  overflow="visible"/>
					</clipPath>
					<path clip-path="url(#SVGID_100_)" fill="none" stroke="#000F12" stroke-width="22.677" stroke-miterlimit="10" d="
						M85.182,131.036c-5.443,24.118,1.725,50.724,18.547,68.843c16.822,18.118,42.823,27.238,67.279,23.598
						c8.105-1.207,15.994-3.719,23.439-7.146c10.947-5.04,21.131-12.231,28.195-21.999c5.82-8.048,9.348-17.604,11.125-27.376
						c4.941-27.164-4.227-56.706-24.318-75.643c-20.094-18.936-50.664-26.298-76.909-17.724
						c-26.245,8.574-46.779,33.102-49.728,60.555"/>
				</g>
			</g>
			<g opacity="0.03" clip-path="url(#SVGID_2_)">
				<g>
					<defs>
						<rect id="SVGID_101_" x="65.988" y="45.003" width="187.018" height="196.544"/>
					</defs>
					<clipPath id="SVGID_102_">
						<use xlink:href="#SVGID_101_"  overflow="visible"/>
					</clipPath>
					<path clip-path="url(#SVGID_102_)" fill="none" stroke="#F0AEA7" stroke-width="22.677" stroke-miterlimit="10" d="
						M79.983,129.129c-3.769,9.747-3.19,20.746-0.373,30.81s7.742,19.388,12.632,28.625c4.221,7.974,8.551,16.095,15.055,22.349
						c7.091,6.818,16.328,10.974,25.697,13.977c15.285,4.9,31.766,7.045,47.467,3.709c22.273-4.731,41.541-20.647,51.836-40.957
						c10.297-20.309,11.877-44.554,5.875-66.519c-6.039-22.1-19.947-42.352-39.594-54.135
						c-19.648-11.782-45.053-14.353-65.897-4.844c-13.738,6.267-24.902,17.246-33.589,29.598
						c-8.686,12.352-15.104,26.124-21.452,39.825"/>
				</g>
			</g>
			<g opacity="0.03" clip-path="url(#SVGID_2_)">
				<g>
					<defs>
						<rect id="SVGID_103_" x="69.317" y="54.409" width="209.851" height="200.399"/>
					</defs>
					<clipPath id="SVGID_104_">
						<use xlink:href="#SVGID_103_"  overflow="visible"/>
					</clipPath>
					<path clip-path="url(#SVGID_104_)" fill="none" stroke="#C5CECA" stroke-width="22.677" stroke-miterlimit="10" d="
						M93.297,135.776c5.283-21.06,16.431-41.173,33.793-54.209c18.432-13.838,43.002-18.682,65.611-14.2
						c22.607,4.482,43.076,17.913,57.312,36.037c10.805,13.754,18.285,30.758,17.793,48.241
						c-0.297,10.552-3.453,20.836-7.525,30.575c-5.049,12.072-11.645,23.667-20.816,33c-17.809,18.125-43.799,26.114-69.148,27.893
						c-9.984,0.7-20.137,0.528-29.835-1.946c-17.798-4.543-32.995-16.677-44.017-31.371c-7.879-10.503-13.959-22.68-15.469-35.723
						c-1.511-13.042,1.98-27,11.043-36.5c1.853-1.942,3.992-5.004,2.097-6.903"/>
				</g>
			</g>
			<g opacity="0.03" clip-path="url(#SVGID_2_)">
				<g>
					<defs>
						<rect id="SVGID_105_" x="65.988" y="45.003" width="187.018" height="196.544"/>
					</defs>
					<clipPath id="SVGID_106_">
						<use xlink:href="#SVGID_105_"  overflow="visible"/>
					</clipPath>
					<path clip-path="url(#SVGID_106_)" fill="none" stroke="#F0AEA7" stroke-width="22.677" stroke-miterlimit="10" d="
						M79.983,129.129c-3.769,9.747-3.19,20.746-0.373,30.81s7.742,19.388,12.632,28.625c4.221,7.974,8.551,16.095,15.055,22.349
						c7.091,6.818,16.328,10.974,25.697,13.977c15.285,4.9,31.766,7.045,47.467,3.709c22.273-4.731,41.541-20.647,51.836-40.957
						c10.297-20.309,11.877-44.554,5.875-66.519c-6.039-22.1-19.947-42.352-39.594-54.135
						c-19.648-11.782-45.053-14.353-65.897-4.844c-13.738,6.267-24.902,17.246-33.589,29.598
						c-8.686,12.352-15.104,26.124-21.452,39.825"/>
				</g>
			</g>
			<g opacity="0.03" clip-path="url(#SVGID_2_)">
				<g>
					<defs>
						<rect id="SVGID_107_" x="69.495" y="67.266" width="177.187" height="176.044"/>
					</defs>
					<clipPath id="SVGID_108_">
						<use xlink:href="#SVGID_107_"  overflow="visible"/>
					</clipPath>
					<path clip-path="url(#SVGID_108_)" fill="none" stroke="#3DB1D9" stroke-width="22.677" stroke-miterlimit="10" d="
						M82.775,158.541c-1.173-24.696,10.506-49.653,30.219-64.576s46.904-19.389,70.354-11.558
						c7.775,2.597,15.107,6.441,21.844,11.109c9.906,6.864,18.686,15.715,23.947,26.56c4.334,8.937,6.148,18.96,6.201,28.893
						c0.15,27.61-14.006,55.111-37.084,70.271c-23.076,15.16-54.459,17.102-78.817,4.101
						c-24.358-13.002-40.321-40.724-38.457-68.271"/>
				</g>
			</g>
			<g opacity="0.03" clip-path="url(#SVGID_2_)">
				<g>
					<defs>
						<rect id="SVGID_109_" x="60.078" y="24.951" width="221.396" height="216.373"/>
					</defs>
					<clipPath id="SVGID_110_">
						<use xlink:href="#SVGID_109_"  overflow="visible"/>
					</clipPath>
					<path clip-path="url(#SVGID_110_)" fill="none" stroke="#FFFFFF" stroke-width="22.677" stroke-miterlimit="10" d="
						M71.412,139.926c0.801-27.771,12.318-55.248,32.167-74.687s47.927-30.43,75.661-28.789s54.611,16.14,70.541,38.902
						c7.488,10.702,12.555,22.962,15.984,35.566c3.549,13.042,5.402,26.701,3.777,40.119c-3.48,28.732-23.375,54.225-49.162,67.365
						c-25.785,13.141-56.66,14.579-84.578,6.947c-25.705-7.028-51.184-24.009-57.621-49.868
						c-2.842-11.413-1.832-23.921-7.229-34.371"/>
				</g>
			</g>
			<g opacity="0.03" clip-path="url(#SVGID_2_)">
				<g>
					<defs>
						<rect id="SVGID_111_" x="71.539" y="58.698" width="174.883" height="176.907"/>
					</defs>
					<clipPath id="SVGID_112_">
						<use xlink:href="#SVGID_111_"  overflow="visible"/>
					</clipPath>
					<path clip-path="url(#SVGID_112_)" fill="none" stroke="#000F12" stroke-width="22.677" stroke-miterlimit="10" d="
						M85.182,131.036c-5.443,24.118,1.725,50.724,18.547,68.843c16.822,18.118,42.823,27.238,67.279,23.598
						c8.105-1.207,15.994-3.719,23.439-7.146c10.947-5.04,21.131-12.231,28.195-21.999c5.82-8.048,9.348-17.604,11.125-27.376
						c4.941-27.164-4.227-56.706-24.318-75.643c-20.094-18.936-50.664-26.298-76.909-17.724
						c-26.245,8.574-46.779,33.102-49.728,60.555"/>
				</g>
			</g>
			<g opacity="0.03" clip-path="url(#SVGID_2_)">
				<g>
					<defs>
						<rect id="SVGID_113_" x="74.303" y="50.646" width="199.432" height="190.8"/>
					</defs>
					<clipPath id="SVGID_114_">
						<use xlink:href="#SVGID_113_"  overflow="visible"/>
					</clipPath>
					<path clip-path="url(#SVGID_114_)" fill="none" stroke="#2B6AB7" stroke-width="22.677" stroke-miterlimit="10" d="
						M86.591,131.919c-2.714,17.623,0.442,36.1,8.853,51.823c10.411,19.466,28.739,34.369,49.655,41.429
						c20.917,7.06,44.2,6.394,64.995-1.015c8.486-3.023,16.648-7.178,23.527-12.993c5.902-4.991,10.764-11.128,14.818-17.709
						c15.289-24.831,18.645-57.13,6.938-83.837C243.67,82.909,216.541,63.121,187.4,62.035c-17.402-0.648-34.406,4.916-50.65,11.195
						c-11.408,4.41-23.51,9.947-29.307,20.716c-5.056,9.393-4.738,21.862-12.674,28.99c-2.443,2.195-5.533,3.704-7.529,6.313
						c-1.996,2.609-2.275,7.046,0.58,8.67"/>
				</g>
			</g>
		</g>
	</g>
	<g>
		<defs>
			<path id="SVGID_115_" d="M84.954,150c0-35.866,29.181-65.047,65.046-65.047c35.867,0,65.048,29.181,65.048,65.047
				c0,35.867-29.181,65.047-65.048,65.047C114.135,215.048,84.954,185.867,84.954,150 M24.018,150
				c0,69.467,56.516,125.982,125.982,125.982c69.468,0,125.982-56.515,125.982-125.982c0-69.467-56.515-125.983-125.982-125.983
				C80.534,24.018,24.018,80.534,24.018,150"/>
		</defs>
		<use xlink:href="#SVGID_115_"  display="none" overflow="visible" fill="#FFFFFF"/>
		<clipPath id="SVGID_116_">
			<use xlink:href="#SVGID_115_"  display="none" overflow="visible"/>
		</clipPath>
	</g>
</g>
<g id="レイヤー_2">
</g>
</svg>
