<?xml version="1.0" encoding="utf-8"?>
<!-- Generator: Adobe Illustrator 16.0.0, SVG Export Plug-In . SVG Version: 6.00 Build 0)  -->
<!DOCTYPE svg PUBLIC "-//W3C//DTD SVG 1.1//EN" "http://www.w3.org/Graphics/SVG/1.1/DTD/svg11.dtd">
<svg version="1.1" id="レイヤー_1" xmlns="http://www.w3.org/2000/svg" xmlns:xlink="http://www.w3.org/1999/xlink" x="0px"
	 y="0px" width="150px" height="136.363px" viewBox="0 0 150 136.363" enable-background="new 0 0 150 136.363"
	 xml:space="preserve">
<g>
	<rect x="122.727" y="129.545" fill="#393939" width="6.818" height="6.818"/>
	<rect x="95.456" y="129.545" fill="#393939" width="6.817" height="6.818"/>
	<rect x="129.545" y="122.727" fill="#393939" width="6.816" height="6.817"/>
	<polygon fill="#393939" points="88.637,115.91 88.637,122.727 95.456,122.727 102.273,122.727 102.273,115.91 95.456,115.91 	"/>
	<polygon fill="#393939" points="54.545,115.91 54.545,122.727 61.363,122.727 61.363,115.91 61.363,109.09 54.545,109.09 	"/>
	<polygon fill="#393939" points="34.09,109.09 34.09,102.273 27.273,102.273 27.273,109.09 20.455,109.09 20.455,115.91 
		27.273,115.91 27.273,122.727 27.273,129.545 34.09,129.545 34.09,122.727 34.09,115.91 40.91,115.91 40.91,122.727 40.91,129.545 
		47.727,129.545 47.727,122.727 47.727,115.91 47.727,109.09 40.91,109.09 	"/>
	<polygon fill="#393939" points="122.727,102.273 122.727,95.454 115.91,95.454 115.91,102.273 115.91,109.09 115.91,115.91 
		115.91,122.727 122.727,122.727 129.545,122.727 129.545,115.91 122.727,115.91 122.727,109.09 129.545,109.09 136.363,109.09 
		136.363,102.273 129.545,102.273 	"/>
	<polygon fill="#393939" points="88.637,102.273 81.818,102.273 75,102.273 68.182,102.273 68.182,109.09 75,109.09 75,115.91 
		75,122.727 75,129.545 81.818,129.545 81.818,122.727 81.818,115.91 81.818,109.09 88.637,109.09 	"/>
	<rect x="47.727" y="102.273" fill="#393939" width="6.818" height="6.815"/>
	<polygon fill="#393939" points="88.637,81.818 95.456,81.818 95.456,75 95.456,68.182 88.637,68.182 88.637,75 	"/>
	<polygon fill="#393939" points="75,75 68.182,75 68.182,81.818 75,81.818 81.818,81.818 81.818,75 81.818,68.182 88.637,68.182 
		88.637,61.363 81.818,61.363 75,61.363 68.182,61.363 68.182,68.182 75,68.182 	"/>
	<rect x="61.363" y="68.182" fill="#393939" width="6.818" height="6.817"/>
	<polygon fill="#393939" points="61.363,47.727 68.182,47.727 68.182,40.909 61.363,40.909 54.545,40.909 54.545,47.727 	"/>
	<polygon fill="#393939" points="95.456,34.091 95.456,40.909 102.273,40.909 109.089,40.909 109.089,34.091 102.273,34.091 	"/>
	<rect x="47.727" y="34.091" fill="#393939" width="6.818" height="6.818"/>
	<rect x="20.455" y="34.091" fill="#393939" width="6.818" height="6.818"/>
	<polygon fill="#393939" points="129.545,27.272 129.545,34.091 129.545,40.909 136.363,40.909 143.182,40.909 150,40.909 
		150,34.091 143.182,34.091 136.363,34.091 136.363,27.272 	"/>
	<rect x="88.637" y="27.272" fill="#393939" width="6.818" height="6.817"/>
	<polygon fill="#393939" points="61.363,34.091 68.182,34.091 68.182,27.272 75,27.272 75,20.454 68.182,20.454 68.182,13.637 
		75,13.637 75,6.818 68.182,6.818 68.182,0 61.363,0 61.363,6.818 54.545,6.818 54.545,13.637 61.363,13.637 61.363,20.454 
		54.545,20.454 54.545,27.272 61.363,27.272 	"/>
	<polygon fill="#393939" points="13.637,34.091 20.455,34.091 20.455,27.272 20.455,20.454 27.273,20.454 27.273,13.637 
		20.455,13.637 13.637,13.637 6.818,13.637 0,13.637 0,20.454 6.818,20.454 13.637,20.454 13.637,27.272 	"/>
	<polygon fill="#393939" points="150,27.272 150,20.454 143.182,20.454 136.363,20.454 136.363,27.272 143.182,27.272 	"/>
	<rect x="115.91" y="20.454" fill="#393939" width="6.816" height="6.818"/>
	<rect x="102.273" y="20.454" fill="#393939" width="6.815" height="6.818"/>
	<rect x="27.273" y="20.454" fill="#393939" width="6.817" height="6.818"/>
	<rect x="109.089" y="13.637" fill="#393939" width="6.82" height="6.816"/>
	<polygon fill="#393939" points="95.456,13.637 88.637,13.637 88.637,20.454 95.456,20.454 102.273,20.454 102.273,13.637 	"/>
	<rect x="34.09" y="13.637" fill="#393939" width="6.819" height="6.816"/>
	<polygon fill="#393939" points="136.363,6.818 129.545,6.818 129.545,13.637 129.545,20.454 136.363,20.454 136.363,13.637 	"/>
</g>
</svg>
