<?xml version="1.0" encoding="utf-8"?>
<!-- Generator: Adobe Illustrator 16.0.0, SVG Export Plug-In . SVG Version: 6.00 Build 0)  -->
<!DOCTYPE svg PUBLIC "-//W3C//DTD SVG 1.1//EN" "http://www.w3.org/Graphics/SVG/1.1/DTD/svg11.dtd">
<svg version="1.1" id="レイヤー_1" xmlns="http://www.w3.org/2000/svg" xmlns:xlink="http://www.w3.org/1999/xlink" x="0px"
	 y="0px" width="32px" height="32px" viewBox="0 0 32 32" style="enable-background:new 0 0 32 32;" xml:space="preserve">
<style type="text/css">
<![CDATA[
	.st0{fill:none;stroke:#FFFFFF;stroke-width:0.2465;stroke-miterlimit:10;}
	.st1{fill:#3F382E;}
]]>
</style>
<g>
	<path class="st1" d="M5.37,4h21.262c0.361,0,0.678,0.139,0.955,0.414c0.275,0.276,0.414,0.595,0.414,0.956v21.26
		c0,0.36-0.139,0.68-0.414,0.956C27.31,27.862,26.993,28,26.632,28H5.37c-0.359,0-0.68-0.138-0.957-0.414
		C4.138,27.31,3.999,26.99,3.999,26.63V5.37c0-0.361,0.139-0.68,0.414-0.956C4.69,4.139,5.011,4,5.37,4z M21.046,17.478h3.316
		l0.143-3.171h-3.459v-2.199v-0.143c0-0.506,0.09-0.865,0.27-1.082c0.182-0.216,0.535-0.325,1.064-0.325h2.016l0.074-2.954
		c-0.602-0.096-1.332-0.145-2.197-0.145c-1.492,0-2.627,0.396-3.408,1.189c-0.779,0.793-1.172,1.767-1.172,2.92v2.738h-2.342v3.171
		h2.342v8.793h3.354V17.478z"/>
</g>
</svg>
