<?xml version="1.0" encoding="utf-8"?>
<!-- Generator: Adobe Illustrator 16.0.0, SVG Export Plug-In . SVG Version: 6.00 Build 0)  -->
<!DOCTYPE svg PUBLIC "-//W3C//DTD SVG 1.1//EN" "http://www.w3.org/Graphics/SVG/1.1/DTD/svg11.dtd">
<svg version="1.1" id="レイヤー_1" xmlns="http://www.w3.org/2000/svg" xmlns:xlink="http://www.w3.org/1999/xlink" x="0px"
	 y="0px" width="32px" height="32px" viewBox="0 0 32 32" style="enable-background:new 0 0 32 32;" xml:space="preserve">
<style type="text/css">
<![CDATA[
	.st0{fill:none;stroke:#FFFFFF;stroke-width:0.2465;stroke-miterlimit:10;}
	.st1{fill:#3F382E;}
]]>
</style>
<g>
	<g>
		<path class="st1" d="M29.77,17.349c-0.001,0.551-0.002,1.103-0.003,1.654c-0.39,4.773-3.069,7.741-7.419,9.382
			c-2.169,0.818-4.438,1.147-6.734,1.325c-0.662-0.002-1.323-0.004-1.985-0.005c-5.355-0.451-8.757-3.396-10.445-8.37
			c-1.238-3.644-1.247-7.358-0.158-11.061c1.173-3.989,3.9-6.389,7.838-7.405c5.162-1.331,9.887-0.407,13.942,3.16
			c2.436,2.142,3.585,5.047,4.431,8.088C29.528,15.173,29.689,16.255,29.77,17.349z"/>
	</g>
	<line class="st0" x1="12.758" y1="6.265" x2="12.758" y2="16.125"/>
	<line class="st0" x1="17.277" y1="6.389" x2="17.277" y2="10.127"/>
	<line class="st0" x1="14.319" y1="7.58" x2="20.276" y2="7.58"/>
	<line class="st0" x1="14.689" y1="8.895" x2="19.824" y2="8.895"/>
	<line class="st0" x1="13.949" y1="10.127" x2="20.481" y2="10.127"/>
	<path class="st0" d="M15.059,16.002v-4.725h4.561v4.438c0,0,0.027,0.273-0.172,0.273c-0.39,0-1.184,0.014-1.184,0.014"/>
	<line class="st0" x1="15.059" y1="12.633" x2="19.619" y2="12.633"/>
	<line class="st0" x1="15.059" y1="14.03" x2="19.619" y2="14.03"/>
	<path class="st0" d="M13.601,7.99c0.513,0.822,0.637,1.562,0.637,1.562"/>
	<path class="st0" d="M11.669,8.34c-0.103,1.746-0.78,2.67-0.78,2.67"/>
	<line class="st0" x1="12.553" y1="18.261" x2="18.838" y2="18.261"/>
	<line class="st0" x1="11.361" y1="21.015" x2="20.153" y2="21.015"/>
	<path class="st0" d="M16.127,20.994c0.062,1.725,0.062,3.841-3.04,5.423"/>
	<path class="st0" d="M19.845,16.577c0.678,0.698,1.171,1.54,1.171,1.54"/>
	<path class="st0" d="M18.838,17.152c0.534,0.555,1.151,1.603,1.151,1.603"/>
</g>
</svg>
