<?xml version="1.0" encoding="utf-8"?>
<!-- Generator: Adobe Illustrator 16.0.0, SVG Export Plug-In . SVG Version: 6.00 Build 0)  -->
<!DOCTYPE svg PUBLIC "-//W3C//DTD SVG 1.1//EN" "http://www.w3.org/Graphics/SVG/1.1/DTD/svg11.dtd">
<svg version="1.1" id="レイヤー_1" xmlns="http://www.w3.org/2000/svg" xmlns:xlink="http://www.w3.org/1999/xlink" x="0px"
	 y="0px" width="324.212px" height="184.415px" viewBox="0 0 324.212 184.415" enable-background="new 0 0 324.212 184.415"
	 xml:space="preserve">
<path fill-rule="evenodd" clip-rule="evenodd" fill="#6F8D9A" d="M182.223,11.581l-8.63-8.637c-0.139-0.153-0.283-0.295-0.438-0.431
	l-0.114-0.118v0.021c-0.895-0.747-2.028-1.219-3.276-1.219h-23.976c-2.827,0-5.142,2.314-5.142,5.142v58.18
	c0,2.828-2.311,5.14-5.139,5.14H77.281c-2.828,0-5.139,2.311-5.139,5.139v92.441c0,1.205,0.438,2.302,1.14,3.182h-0.035l0.206,0.21
	c0.139,0.153,0.283,0.298,0.438,0.435l8.63,8.632c0.944,1.062,2.302,1.748,3.827,1.748h92.484c2.827,0,5.138-2.311,5.138-5.139
	v-160.9C183.97,13.883,183.285,12.522,182.223,11.581z M140.647,132.977c0,2.829-2.311,5.143-5.139,5.143h-20.044v-20
	c0-2.827,2.312-5.138,5.139-5.138h20.044V132.977z"/>
<path fill-rule="evenodd" clip-rule="evenodd" fill="#6F8D9A" d="M319.241,11.581l-8.632-8.637
	c-0.136-0.153-0.281-0.295-0.435-0.431l-0.114-0.118v0.021c-0.896-0.747-2.028-1.219-3.276-1.219h-23.979
	c-2.826,0-5.138,2.314-5.138,5.142v58.18c0,2.828-2.312,5.14-5.139,5.14H214.3c-2.827,0-5.141,2.311-5.141,5.139v92.441
	c0,1.205,0.436,2.302,1.14,3.182h-0.036l0.21,0.21c0.138,0.153,0.279,0.298,0.433,0.435l8.634,8.632
	c0.941,1.062,2.302,1.748,3.828,1.748h92.483c2.828,0,5.139-2.311,5.139-5.139v-160.9C320.989,13.883,320.305,12.522,319.241,11.581
	z M277.667,132.977c0,2.829-2.312,5.143-5.139,5.143h-20.047v-20c0-2.827,2.313-5.138,5.142-5.138h20.044V132.977z"/>
<g>
	<path fill-rule="evenodd" clip-rule="evenodd" fill="#6F8D9A" d="M45.284,11.643l-8.776-8.775c-0.094-0.1-0.19-0.197-0.292-0.292
		l-0.183-0.18v0.029c-0.895-0.753-2.03-1.228-3.287-1.228H8.771c-2.827,0-5.139,2.314-5.139,5.142v23.976
		c0,1.266,0.478,2.411,1.245,3.312H4.836l0.235,0.232c0.048,0.054,0.101,0.106,0.154,0.154l8.914,8.914
		c0.047,0.053,0.1,0.105,0.153,0.152l0.031,0.035v-0.005c0.922,0.867,2.152,1.41,3.513,1.41h23.976c2.828,0,5.142-2.311,5.142-5.139
		V15.405C46.954,13.919,46.303,12.584,45.284,11.643z"/>
	<path fill-rule="evenodd" clip-rule="evenodd" fill="#6F8D9A" d="M45.591,80.394l-0.106-0.107c-0.029-0.032-0.06-0.065-0.092-0.094
		l-8.976-8.973c-0.03-0.033-0.059-0.065-0.091-0.095L36.101,70.9v0.042c-0.903-0.788-2.068-1.284-3.354-1.284H8.771
		c-2.827,0-5.139,2.311-5.139,5.139v92.441c0,1.205,0.437,2.302,1.139,3.182H4.765l0.024,0.024c0.229,0.283,0.49,0.543,0.772,0.773
		l8.294,8.293c0.945,1.169,2.373,1.934,3.981,1.934h23.976c2.828,0,5.142-2.311,5.142-5.139V83.863c0-1.339-0.53-2.556-1.381-3.47
		H45.591z"/>
</g>
<g>
	<g>
		<g>
			<path fill-rule="evenodd" clip-rule="evenodd" fill="#F0F0F1" d="M3,29.684c0,2.827,2.313,5.141,5.141,5.141h23.975
				c2.827,0,5.141-2.313,5.141-5.141V5.709c0-2.827-2.313-5.141-5.141-5.141H8.141C5.313,0.568,3,2.882,3,5.709V29.684z"/>
		</g>
		<g>
			<path fill-rule="evenodd" clip-rule="evenodd" fill="#F0F0F1" d="M8.141,69.029C5.313,69.029,3,71.343,3,74.17v92.438
				c0,2.827,2.313,5.141,5.141,5.141h23.975c2.827,0,5.141-2.313,5.141-5.141V74.17c0-2.827-2.313-5.141-5.141-5.141H8.141z"/>
		</g>
		<g>
			<path fill-rule="evenodd" clip-rule="evenodd" fill="#F0F0F1" d="M145.157,0.568c-2.827,0-5.141,2.313-5.141,5.141v58.18
				c0,2.827-2.313,5.141-5.141,5.141H76.652c-2.827,0-5.141,2.313-5.141,5.141v92.438c0,2.827,2.313,5.141,5.141,5.141h92.479
				c2.827,0,5.141-2.313,5.141-5.141V5.709c0-2.827-2.313-5.141-5.141-5.141H145.157z M140.017,132.35
				c0,2.827-2.313,5.141-5.141,5.141h-23.969c-2.827,0-5.141-2.313-5.141-5.141v-23.925c0-2.827,2.313-5.141,5.141-5.141h23.969
				c2.827,0,5.141,2.313,5.141,5.141V132.35z"/>
		</g>
		<g>
			<path fill-rule="evenodd" clip-rule="evenodd" fill="#F0F0F1" d="M311.294,5.709c0-2.827-2.313-5.141-5.141-5.141h-23.975
				c-2.827,0-5.141,2.313-5.141,5.141v58.18c0,2.827-2.313,5.141-5.141,5.141h-58.23c-2.827,0-5.141,2.313-5.141,5.141v92.438
				c0,2.827,2.313,5.141,5.141,5.141h92.486c2.827,0,5.141-2.313,5.141-5.141V5.709z M277.038,132.35
				c0,2.827-2.313,5.141-5.141,5.141h-23.975c-2.827,0-5.141-2.313-5.141-5.141v-23.925c0-2.827,2.313-5.141,5.141-5.141h23.975
				c2.827,0,5.141,2.313,5.141,5.141V132.35z"/>
		</g>
	</g>
</g>
</svg>
