<?xml version="1.0" encoding="utf-8"?>
<!-- Generator: Adobe Illustrator 16.0.0, SVG Export Plug-In . SVG Version: 6.00 Build 0)  -->
<!DOCTYPE svg PUBLIC "-//W3C//DTD SVG 1.1//EN" "http://www.w3.org/Graphics/SVG/1.1/DTD/svg11.dtd">
<svg version="1.1" id="レイヤー_1" xmlns="http://www.w3.org/2000/svg" xmlns:xlink="http://www.w3.org/1999/xlink" x="0px"
	 y="0px" width="150px" height="149.344px" viewBox="0 0 150 149.344" enable-background="new 0 0 150 149.344"
	 xml:space="preserve">
<g>
	<g>
		<path fill="#3F382E" d="M150,82.02c-0.004,3.004-0.009,6.008-0.014,9.01c-2.127,26.004-16.721,42.164-40.409,51.1
			c-11.813,4.456-24.171,6.253-36.683,7.215c-3.603-0.007-7.205-0.016-10.808-0.023c-29.173-2.455-47.7-18.502-56.899-45.586
			C-1.551,83.889-1.604,63.654,4.326,43.49C10.717,21.76,25.573,8.688,47.021,3.157c28.114-7.25,53.85-2.214,75.936,17.213
			c13.266,11.668,19.531,27.492,24.134,44.054C148.688,70.17,149.568,76.064,150,82.02z"/>
	</g>
	
		<line fill="none" stroke="#FFFFFF" stroke-width="1.3426" stroke-miterlimit="10" x1="57.344" y1="21.651" x2="57.344" y2="75.355"/>
	
		<line fill="none" stroke="#FFFFFF" stroke-width="1.3426" stroke-miterlimit="10" x1="81.959" y1="22.323" x2="81.959" y2="42.686"/>
	
		<line fill="none" stroke="#FFFFFF" stroke-width="1.3426" stroke-miterlimit="10" x1="65.848" y1="28.812" x2="98.295" y2="28.812"/>
	
		<line fill="none" stroke="#FFFFFF" stroke-width="1.3426" stroke-miterlimit="10" x1="67.861" y1="35.973" x2="95.833" y2="35.973"/>
	
		<line fill="none" stroke="#FFFFFF" stroke-width="1.3426" stroke-miterlimit="10" x1="63.834" y1="42.686" x2="99.413" y2="42.686"/>
	<path fill="none" stroke="#FFFFFF" stroke-width="1.3426" stroke-miterlimit="10" d="M69.875,74.686V48.952h24.839v24.167
		c0,0,0.149,1.492-0.932,1.492c-2.126,0-6.452,0.075-6.452,0.075"/>
	
		<line fill="none" stroke="#FFFFFF" stroke-width="1.3426" stroke-miterlimit="10" x1="69.875" y1="56.336" x2="94.714" y2="56.336"/>
	
		<line fill="none" stroke="#FFFFFF" stroke-width="1.3426" stroke-miterlimit="10" x1="69.875" y1="63.944" x2="94.714" y2="63.944"/>
	<path fill="none" stroke="#FFFFFF" stroke-width="1.3426" stroke-miterlimit="10" d="M61.932,31.05
		c2.797,4.476,3.469,8.503,3.469,8.503"/>
	<path fill="none" stroke="#FFFFFF" stroke-width="1.3426" stroke-miterlimit="10" d="M51.414,32.952
		c-0.56,9.51-4.252,14.545-4.252,14.545"/>
	
		<line fill="none" stroke="#FFFFFF" stroke-width="1.3426" stroke-miterlimit="10" x1="56.226" y1="86.993" x2="90.463" y2="86.993"/>
	
		<line fill="none" stroke="#FFFFFF" stroke-width="1.3426" stroke-miterlimit="10" x1="49.736" y1="101.986" x2="97.623" y2="101.986"/>
	<path fill="none" stroke="#FFFFFF" stroke-width="1.3426" stroke-miterlimit="10" d="M75.693,101.874
		c0.336,9.397,0.336,20.923-16.56,29.538"/>
	<path fill="none" stroke="#FFFFFF" stroke-width="1.3426" stroke-miterlimit="10" d="M95.945,77.818
		c3.691,3.804,6.377,8.391,6.377,8.391"/>
	<path fill="none" stroke="#FFFFFF" stroke-width="1.3426" stroke-miterlimit="10" d="M90.463,80.951
		c2.908,3.021,6.266,8.727,6.266,8.727"/>
</g>
</svg>
