<?xml version="1.0" encoding="utf-8"?>
<!-- Generator: Adobe Illustrator 16.0.0, SVG Export Plug-In . SVG Version: 6.00 Build 0)  -->
<!DOCTYPE svg PUBLIC "-//W3C//DTD SVG 1.1//EN" "http://www.w3.org/Graphics/SVG/1.1/DTD/svg11.dtd">
<svg version="1.1" id="レイヤー_1" xmlns="http://www.w3.org/2000/svg" xmlns:xlink="http://www.w3.org/1999/xlink" x="0px"
	 y="0px" width="32px" height="32px" viewBox="0 0 32 32" style="enable-background:new 0 0 32 32;" xml:space="preserve">
<style type="text/css">
<![CDATA[
	.st0{fill:none;stroke:#FFFFFF;stroke-width:0.2465;stroke-miterlimit:10;}
	.st1{fill:#3F382E;}
]]>
</style>
<g>
	<path class="st1" d="M22.179,13.707c-0.473-1.271-1.271-2.307-2.402-3.106c-1.129-0.801-2.389-1.2-3.775-1.2
		c-1.389,0-2.646,0.399-3.775,1.2c-1.129,0.8-1.932,1.835-2.4,3.106H4.001V6.4c0-0.658,0.234-1.224,0.705-1.694
		c0.471-0.47,1.035-0.705,1.695-0.705h19.199c0.66,0,1.223,0.235,1.693,0.705c0.471,0.471,0.705,1.036,0.705,1.694v7.307H22.179z
		 M27.999,25.601c0,0.658-0.234,1.223-0.705,1.693c-0.471,0.47-1.033,0.705-1.693,0.705H6.401c-0.66,0-1.225-0.235-1.695-0.705
		c-0.471-0.471-0.705-1.035-0.705-1.693v-9.777h5.4v0.178c0,1.811,0.646,3.363,1.941,4.658c1.293,1.294,2.846,1.94,4.658,1.94
		c1.811,0,3.363-0.646,4.66-1.94c1.293-1.295,1.938-2.848,1.938-4.658v-0.178h5.4V25.601z M6.083,11.623h1.201V6.118H6.083V11.623z
		 M8.481,11.623h1.201V6.118H8.481V11.623z M10.882,10.494c0.332-0.259,0.73-0.564,1.201-0.917V6.118h-1.201V10.494z M11.483,16.001
		c0-1.247,0.439-2.307,1.322-3.178c0.883-0.869,1.949-1.306,3.195-1.306s2.305,0.437,3.176,1.306
		c0.871,0.871,1.307,1.931,1.307,3.178s-0.436,2.312-1.307,3.192c-0.871,0.883-1.93,1.324-3.176,1.324s-2.312-0.441-3.195-1.324
		C11.923,18.312,11.483,17.248,11.483,16.001z M20.2,9.789c0.799,0.564,1.424,1.176,1.871,1.834h3.812V6.118H20.2V9.789z"/>
</g>
</svg>
