<?xml version="1.0" encoding="utf-8"?>
<!-- Generator: Adobe Illustrator 16.0.0, SVG Export Plug-In . SVG Version: 6.00 Build 0)  -->
<!DOCTYPE svg PUBLIC "-//W3C//DTD SVG 1.1//EN" "http://www.w3.org/Graphics/SVG/1.1/DTD/svg11.dtd">
<svg version="1.1" id="レイヤー_1" xmlns="http://www.w3.org/2000/svg" xmlns:xlink="http://www.w3.org/1999/xlink" x="0px"
	 y="0px" width="321.717px" height="33.188px" viewBox="0 0 321.717 33.188" enable-background="new 0 0 321.717 33.188"
	 xml:space="preserve">
<g>
	<g>
		<path fill="#333434" d="M5.651,11.699c-0.937,0.216-1.26,0.324-2.556,0.792c-0.468,0.18-0.72,0.252-0.937,0.252
			c-0.791,0-1.512-1.476-2.159-4.571c2.304-0.108,3.132-0.216,7.127-0.828c4.319-0.648,9.791-1.476,12.671-1.836
			c3.239-0.432,5.831-0.864,7.198-1.152c0.252-0.072,0.36-0.072,0.54-0.072c0.468,0,0.648,0.216,0.973,1.116
			c0.287,0.756,0.504,1.835,0.504,2.339c0,0.432-0.145,0.576-0.648,0.576c-0.756,0-1.439,0.072-2.124,0.18
			c-6.083,1.008-10.942,6.335-10.942,11.95c0,4.211,3.312,6.984,8.927,7.488c0.504,0.035,0.685,0.215,0.685,0.647
			c0,0.899-0.36,2.628-0.685,3.419c-0.18,0.396-0.468,0.576-0.936,0.576s-1.548-0.216-2.664-0.539
			c-6.119-1.801-9.322-5.688-9.322-11.195c0-2.988,0.972-5.759,2.844-8.135c1.008-1.296,1.871-2.016,3.923-3.42
			C13.354,10.079,8.387,11.015,5.651,11.699z M24.081,12.634c0.504,0,3.563,3.42,3.563,3.959c0,0.18-0.216,0.396-0.864,0.972
			c-0.684,0.576-0.72,0.576-1.008,0.684c-0.18,0.072-0.18,0.072-0.252,0.072c-0.144,0-0.18-0.036-0.828-1.044
			c-0.575-0.9-1.188-1.692-2.339-2.88c-0.072-0.072-0.181-0.252-0.181-0.288c0.072-0.18,0.108-0.288,0.145-0.288
			c0.107-0.144,0.72-0.648,0.863-0.756c0.36-0.18,0.576-0.324,0.612-0.36c0.036-0.072,0.108-0.072,0.108-0.072h0.107H24.081z
			 M30.236,15.118c-0.54,0.396-0.864,0.612-1.044,0.612c-0.145,0-0.216-0.072-0.396-0.36c-1.079-1.62-1.619-2.304-2.771-3.419
			c-0.071-0.108-0.144-0.216-0.144-0.288c0-0.18,0.216-0.396,0.72-0.756s0.936-0.576,1.116-0.576c0.252,0,0.684,0.324,1.439,1.08
			c1.044,1.08,2.016,2.412,2.016,2.735C31.172,14.362,30.92,14.614,30.236,15.118z"/>
	</g>
	<g>
		<path fill="#333434" d="M55.21,10.295c-3.096,0.54-6.299,0.9-8.243,0.9c-0.575,0-0.827-0.108-0.899-0.432
			c-0.144-0.54-0.288-1.62-0.36-2.952c2.916,0,5.147-0.18,8.352-0.684c-0.181-0.54-0.181-0.54-0.648-1.872
			c-0.323-0.864-0.611-1.584-1.008-2.34c1.548-0.324,2.952-0.504,4.248-0.504c0.323,0,0.504,0.216,0.504,0.576
			c0,0.036,0,0.108,0,0.18c0,0.108,0,0.216,0,0.324c0,0.648,0.144,1.512,0.504,2.916c2.699-0.612,5.003-1.368,6.839-2.16
			c0.288-0.108,0.36-0.144,0.468-0.144c0.18,0,0.288,0.18,0.612,0.936c0.324,0.828,0.647,1.764,0.647,1.943
			c0,0.18-0.071,0.252-0.288,0.36c-2.123,0.9-3.096,1.224-7.271,2.268c0.504,1.26,0.647,1.584,1.26,2.879
			c1.979-0.54,2.951-0.864,3.672-1.224c3.383-1.692,3.383-1.692,3.383-1.692c0.072-0.036,0.108-0.072,0.108-0.072
			c0.036,0,0.107,0.036,0.144,0.036c0.145,0,0.288,0.216,0.612,0.9c0.432,0.864,0.792,1.836,0.792,2.052
			c0,0.252,0,0.252-0.756,0.648c-1.979,1.08-3.527,1.692-6.119,2.412c1.439,2.124,3.491,4.428,4.715,5.292s1.26,0.936,1.26,1.296
			c0,0.324-0.359,1.08-1.044,2.268c-0.611,1.044-0.899,1.332-1.296,1.332c-0.216,0-0.252,0-0.791-0.396
			c-1.836-1.404-5.544-2.376-9.107-2.376c-3.096,0-5.039,1.08-5.039,2.88c0,1.115,0.863,2.016,2.411,2.592
			c1.404,0.504,4.5,0.827,7.848,0.827c0.792,0,1.476-0.036,2.88-0.108c-0.648,0.937-0.973,1.584-1.404,3.096
			c-0.216,0.756-0.468,0.9-1.584,0.9c-3.852,0-7.271-0.432-9.574-1.26c-3.06-1.08-4.68-3.096-4.68-5.795
			c0-3.852,3.167-6.192,8.423-6.192c3.239,0,5.291,0.36,7.559,1.368c-2.016-1.908-3.095-3.204-4.139-4.896
			c-1.729,0.36-2.592,0.504-3.744,0.684c-2.052,0.288-5.795,0.576-7.307,0.576c-1.152,0-1.188-0.036-1.512-3.419
			c0.792,0.036,1.403,0.036,1.764,0.036c2.304,0,6.695-0.468,9.106-0.972C56.074,12.382,55.606,11.338,55.21,10.295z"/>
	</g>
	<g>
		<path fill="#333434" d="M99.981,26.853c2.952,0,6.228-0.432,9.467-1.26c0.181-0.072,0.288-0.072,0.396-0.072
			c0.216,0,0.324,0.144,0.396,0.468c0.108,0.792,0.181,1.944,0.181,3.132c0,0.72-0.072,0.936-0.396,1.08
			c-1.08,0.575-5.939,1.115-10.114,1.115c-5.436,0-8.531-0.936-11.015-3.239c-1.188-1.116-2.376-3.06-2.376-3.852
			c0-0.54,0.324-0.792,3.275-2.448C91.091,25.341,94.079,26.853,99.981,26.853z M100.306,6.119c2.088,0,3.312-0.072,5.76-0.432
			c0.071,0,0.18,0,0.252,0c0.288,0,0.396,0.108,0.468,0.324c0.072,0.432,0.144,1.512,0.144,2.808c0,0.828-0.071,1.116-0.288,1.26
			c-0.287,0.18-3.419,0.396-5.831,0.396c-3.203,0-5.867-0.252-8.854-0.828c-2.052-0.396-2.16-0.468-2.16-1.764
			c0-0.792,0.072-2.195,0.181-3.167C93.106,5.651,96.526,6.119,100.306,6.119z M110.853,7.991c-0.18,0-0.288-0.072-0.396-0.288
			c-0.937-1.548-1.584-2.412-2.844-3.672c-0.108-0.108-0.145-0.18-0.145-0.288c0-0.288,1.44-1.44,1.836-1.44
			c0.252,0,0.684,0.324,1.584,1.296c1.151,1.224,2.016,2.375,2.016,2.664C112.904,6.659,111.32,7.991,110.853,7.991z M114.561,1.224
			c1.115,1.188,1.907,2.268,1.907,2.592c0,0.216-0.108,0.324-0.684,0.792c-0.72,0.54-1.116,0.792-1.332,0.792
			c-0.108,0-0.216-0.108-0.36-0.36c-1.079-1.584-1.691-2.34-2.771-3.42c-0.107-0.072-0.18-0.216-0.18-0.288
			c0-0.324,1.403-1.332,1.872-1.332C113.265,0,113.804,0.396,114.561,1.224z"/>
	</g>
	<g>
		<path fill="#333434" d="M136.223,13.858c-0.468-1.584-0.612-2.556-1.044-6.983c-0.144-1.728-0.288-2.591-0.647-3.815
			c2.195,0.036,3.599,0.144,4.571,0.396c0.54,0.144,0.792,0.396,0.792,0.792c0,0.144-0.036,0.324-0.108,0.612
			c-0.252,0.864-0.36,1.512-0.36,2.448c0,1.764,0.36,4.644,0.756,5.903c0.217,0.684,0.433,0.936,0.828,0.936
			c0.864,0,4.032-1.656,5.76-2.987c0.468-0.36,0.54-0.396,0.72-0.396c0.324,0,0.647,0.252,1.188,0.936
			c0.9,1.224,1.62,2.556,1.62,3.06c0,0.396-0.252,0.648-0.864,0.828c-2.231,0.612-5.903,2.052-8.387,3.24
			c-4.392,2.16-6.371,4.14-6.371,6.371c0,2.195,1.836,3.096,6.479,3.096c2.699,0,5.147-0.252,8.459-0.792
			c0.144-0.036,0.396-0.071,0.468-0.071c0.288,0,0.468,0.144,0.611,0.432c0.108,0.359,0.36,2.555,0.36,3.42
			c0,0.504-0.144,0.684-0.612,0.827c-0.791,0.181-5.146,0.433-7.883,0.433c-4.607,0-7.667-0.612-9.574-1.908
			c-1.62-1.116-2.484-2.88-2.484-5.039c0-1.656,0.468-3.132,1.44-4.572c1.26-1.872,2.627-3.06,5.651-4.859
			C136.835,15.478,136.547,14.974,136.223,13.858z"/>
	</g>
	<g>
		<path fill="#333434" d="M181.354,24.909c-1.729,2.987-4.104,4.644-6.551,4.644c-3.744,0-6.408-3.672-6.408-8.783
			c0-5.688,2.88-10.583,7.812-13.174c2.41-1.296,5.002-1.872,8.422-1.872c7.523,0,13.104,5.328,13.104,12.455
			c0,6.299-3.096,10.834-9.072,13.39c-1.188,0.504-2.123,0.792-2.592,0.792c-0.432,0-0.611-0.144-1.078-0.827
			c-0.613-0.937-1.297-1.621-2.27-2.269c7.416-1.907,10.764-5.399,10.764-11.23c0-2.988-1.26-5.507-3.492-7.091
			c-1.26-0.864-2.268-1.224-4.246-1.547C184.739,16.99,183.549,21.129,181.354,24.909z M176.17,12.167
			c-2.412,2.124-3.779,5.147-3.779,8.531c0,2.772,0.9,4.392,2.412,4.392c1.799,0,3.635-2.484,5.004-6.768
			c0.863-2.7,1.295-4.751,1.836-8.747C179.086,10.115,177.827,10.727,176.17,12.167z"/>
	</g>
	<g>
		<path fill="#333434" d="M213.276,15.19c-0.289,0.072-0.432,0.144-0.648,0.252c-0.18,0.108-0.287,0.144-0.469,0.144
			c-0.756,0-1.33-1.404-1.764-4.067c0.289,0.036,0.541,0.036,0.686,0.036c1.512,0,5.363-0.468,7.666-0.936
			c0.756-3.167,1.152-5.543,1.152-7.271c0-0.144,0-0.324-0.037-0.612c1.549,0.18,3.025,0.504,4.033,0.9
			c0.574,0.216,0.863,0.54,0.863,0.9c0,0.18-0.037,0.288-0.217,0.576c-0.539,0.972-0.539,0.972-1.654,4.931
			c0.863-0.108,1.834-0.18,2.447-0.18c1.475,0,2.627,0.288,3.455,0.864c1.439,1.044,2.16,3.167,2.16,6.443
			c0,5.363-0.973,9.935-2.629,12.203c-1.15,1.584-2.662,2.34-4.787,2.34c-1.295,0-2.52-0.18-2.879-0.396
			c-0.289-0.18-0.289-0.18-0.396-1.512c-0.107-0.972-0.324-1.8-0.756-2.808c1.871,0.612,2.34,0.72,3.492,0.72
			c1.727,0,2.447-0.828,3.238-3.708c0.541-1.908,0.828-4.391,0.828-7.019c0-2.808-0.684-3.815-2.592-3.815
			c-0.646,0-1.691,0.072-2.52,0.216c-0.107,0.396-0.143,0.432-0.287,0.936c-1.008,3.671-2.844,8.531-4.68,12.418
			c-1.908,3.923-2.375,4.716-2.844,4.716c-0.287,0-1.26-0.504-2.303-1.188c-0.828-0.504-1.045-0.72-1.045-1.008
			c0-0.18,0-0.18,1.477-2.52c1.979-3.06,4.57-9.071,5.471-12.599C215.075,14.722,213.6,15.082,213.276,15.19z M231.633,11.159
			c0-0.252,0.324-0.576,1.367-1.404c0.721-0.54,1.08-0.756,1.332-0.756c0.217,0,0.396,0.108,0.863,0.576
			c2.125,2.052,4.104,4.788,5.256,7.163c0.361,0.792,0.576,1.296,0.576,1.512c0,0.36-0.107,0.468-1.26,1.404
			c-0.721,0.576-1.547,1.044-1.836,1.044c-0.252,0-0.359-0.108-0.611-0.72c-0.721-1.764-1.404-3.132-2.268-4.463
			c-0.936-1.44-1.117-1.656-3.24-3.924C231.668,11.375,231.633,11.267,231.633,11.159z"/>
	</g>
	<g>
		<path fill="#333434" d="M254.051,13.39c-0.072,0-0.145,0-0.215,0c-0.182,0.036-0.324,0.036-0.396,0.036
			c-0.324,0-0.504-0.144-0.611-0.612c-0.217-0.9-0.361-2.016-0.434-3.384c0.504,0.036,0.9,0.036,1.152,0.036
			c1.943,0,4.211-0.144,6.119-0.396c0.361-2.375,0.541-4.211,0.541-5.687c0-0.18,0-0.468,0-0.828c4.176,0.54,4.967,0.792,4.932,1.44
			c0,0.18-0.072,0.288-0.217,0.612c-0.432,0.828-0.469,0.936-1.045,3.779c1.404-0.252,3.205-0.72,3.924-0.972
			c0.145-0.072,0.18-0.072,0.289-0.072c0.324,0,0.395,0.144,0.684,1.404c0.145,0.72,0.287,1.728,0.287,2.016
			c0,0.252-0.107,0.396-0.432,0.468c-0.648,0.216-0.648,0.216-5.578,1.08c-1.656,7.307-3.385,12.707-6.156,19.185
			c-0.18,0.469-0.359,0.648-0.576,0.648c-0.467,0-1.727-0.504-2.951-1.188c-0.611-0.324-0.791-0.504-0.791-0.685
			c0-0.144,0.107-0.396,0.287-0.756c2.736-5.183,4.715-10.69,6.084-16.63C257.364,13.103,256.247,13.21,254.051,13.39z
			 M269.422,27.068c1.043,0.685,2.555,1.009,4.68,1.009c2.338,0,4.355-0.216,5.506-0.576c0.289-0.071,0.361-0.108,0.504-0.108
			c0.324,0,0.469,0.108,0.576,0.433c0.252,0.756,0.432,2.231,0.432,3.347c0,0.469-0.143,0.648-0.611,0.757
			c-1.188,0.252-3.203,0.396-5.328,0.396c-4.498,0-7.018-0.72-8.674-2.447c-0.611-0.648-1.115-1.477-1.404-2.376
			c-0.215-0.504-0.359-1.116-0.359-1.332c0-0.612,1.08-1.26,2.951-1.872C268.09,25.808,268.522,26.457,269.422,27.068z
			 M279.536,16.594c-0.719-0.108-2.23-0.18-3.49-0.18c-2.664,0-3.779,0.108-6.947,0.648c-0.072,0.036-0.18,0.036-0.252,0.036
			c-0.217,0-0.324-0.072-0.396-0.288c-0.107-0.252-0.252-2.016-0.252-2.772c0-0.468,0.072-0.684,0.359-0.792
			c0.145-0.072,0.361-0.108,1.117-0.252c2.447-0.432,4.498-0.612,7.018-0.612c2.088,0,3.168,0.072,3.42,0.252
			c0.18,0.144,0.217,0.432,0.217,1.62c0,1.043-0.072,1.979-0.145,2.195c-0.035,0.108-0.18,0.18-0.359,0.18
			C279.752,16.63,279.645,16.63,279.536,16.594z"/>
	</g>
	<g>
		<path fill="#333434" d="M298.211,12.311c-1.943,0-2.016,0-2.232-0.432c-0.215-0.36-0.467-1.872-0.576-3.456
			c1.332,0.144,2.629,0.216,4.355,0.216c1.045,0,2.449-0.036,3.924-0.144c0.289-2.16,0.361-2.916,0.361-4.248
			c0-0.612-0.037-1.08-0.109-1.908c1.764,0.108,3.779,0.432,4.572,0.72c0.287,0.108,0.396,0.216,0.396,0.504
			c0,0.216-0.037,0.36-0.252,0.792c-0.324,0.72-0.469,1.296-0.686,2.448c-0.107,0.684-0.143,0.828-0.215,1.296
			c2.951-0.36,5.902-1.008,7.955-1.8c0.287-0.072,0.432-0.108,0.576-0.108c0.252,0,0.359,0.18,0.504,0.9
			c0.143,0.792,0.324,2.231,0.324,2.627c0,0.432-0.145,0.504-1.225,0.756c-2.844,0.576-6.408,1.116-8.891,1.332
			c-1.08,4.319-1.584,5.723-2.881,8.135c2.018-1.583,3.096-2.196,4.824-2.808c1.547-0.576,3.061-0.828,4.68-0.828
			c2.627,0,4.752,0.72,6.119,2.087c1.26,1.26,1.98,3.132,1.98,5.076c0,2.663-1.26,4.823-3.961,6.623
			c-1.979,1.368-5.254,2.52-8.531,2.952c-0.574,0.071-1.15,0.144-1.367,0.144c-0.539,0-0.791-0.181-1.043-0.612
			c-0.684-1.295-1.26-2.052-2.197-2.951c3.348-0.145,5.904-0.612,8.496-1.548c2.736-0.972,4.318-2.628,4.318-4.536
			c0-2.448-1.475-3.923-3.922-3.923c-4.068,0-8.604,2.52-11.52,6.371c-0.215,0.252-0.432,0.396-0.648,0.396
			c-0.646,0-3.131-2.268-3.131-2.843c0-0.18,0.035-0.252,0.396-0.72c1.906-2.592,3.383-6.228,4.428-10.691
			C302.422,12.167,298.608,12.311,298.211,12.311z"/>
	</g>
</g>
</svg>
