<?xml version="1.0" encoding="utf-8"?>
<!-- Generator: Adobe Illustrator 16.0.0, SVG Export Plug-In . SVG Version: 6.00 Build 0)  -->
<!DOCTYPE svg PUBLIC "-//W3C//DTD SVG 1.1//EN" "http://www.w3.org/Graphics/SVG/1.1/DTD/svg11.dtd">
<svg version="1.1" id="レイヤー_1" xmlns="http://www.w3.org/2000/svg" xmlns:xlink="http://www.w3.org/1999/xlink" x="0px"
	 y="0px" width="50px" height="50px" viewBox="0 0 50 50" enable-background="new 0 0 50 50" xml:space="preserve">
<g id="background">
</g>
<g id="main_x5F_gallery_x5F_layout" display="none">
</g>
<g id="main">
</g>
<g id="main_x5F_gallery">
</g>
<g id="main_x5F_gallery_x5F_caption" display="none">
</g>
<g id="main_x5F_gallery_x5F_text" display="none">
</g>
<g id="header_x5F_back">
</g>
<g id="header_x5F_text">
	<g>
		<path fill="#3F382E" d="M4.258,1.586h41.484c0.703,0,1.324,0.27,1.863,0.809s0.809,1.16,0.809,1.863v41.484
			c0,0.703-0.27,1.324-0.809,1.863s-1.16,0.809-1.863,0.809H4.258c-0.703,0-1.324-0.27-1.863-0.809s-0.809-1.16-0.809-1.863V4.258
			c0-0.703,0.27-1.324,0.809-1.863S3.555,1.586,4.258,1.586z M34.844,27.883h6.469l0.281-6.188h-6.75v-4.289v-0.281
			c0-0.984,0.176-1.688,0.527-2.109c0.352-0.421,1.043-0.633,2.074-0.633h3.938l0.141-5.766c-1.172-0.188-2.602-0.281-4.289-0.281
			c-2.905,0-5.121,0.773-6.645,2.32c-1.523,1.547-2.285,3.445-2.285,5.695v5.344h-4.57v6.188h4.57v17.156h6.539V27.883z"/>
	</g>
</g>
<g id="memo">
</g>
</svg>
