<?xml version="1.0" encoding="utf-8"?>
<!-- Generator: Adobe Illustrator 16.0.0, SVG Export Plug-In . SVG Version: 6.00 Build 0)  -->
<!DOCTYPE svg PUBLIC "-//W3C//DTD SVG 1.1//EN" "http://www.w3.org/Graphics/SVG/1.1/DTD/svg11.dtd">
<svg version="1.1" id="レイヤー_1" xmlns="http://www.w3.org/2000/svg" xmlns:xlink="http://www.w3.org/1999/xlink" x="0px"
	 y="0px" width="54px" height="50px" viewBox="0 0 54 50" enable-background="new 0 0 54 50" xml:space="preserve">
<g id="background">
</g>
<g id="main_x5F_gallery_x5F_layout" display="none">
</g>
<g id="main">
</g>
<g id="main_x5F_gallery">
</g>
<g id="main_x5F_gallery_x5F_caption" display="none">
</g>
<g id="main_x5F_gallery_x5F_text" display="none">
</g>
<g id="header_x5F_back">
</g>
<g id="header_x5F_text">
	<g>
		<path fill="#3F382E" d="M54,8.23c-1.547,2.25-3.398,4.172-5.555,5.766c0.047,0.328,0.07,0.82,0.07,1.477
			c0,3.75-0.703,7.453-2.109,11.109s-3.387,7.02-5.941,10.09c-2.554,3.07-5.883,5.555-9.984,7.453
			c-4.101,1.898-8.589,2.848-13.464,2.848c-6.047,0-11.719-1.664-17.016-4.992c1.688,0.142,2.578,0.211,2.672,0.211
			c5.062,0,9.633-1.594,13.711-4.78c-2.391-0.047-4.535-0.785-6.434-2.216c-1.899-1.43-3.199-3.27-3.902-5.52
			c0.609,0.141,1.312,0.211,2.109,0.211c1.031,0,2.016-0.141,2.953-0.422c-2.578-0.516-4.711-1.77-6.398-3.762
			S2.18,21.379,2.18,18.707v-0.141c1.641,0.844,3.305,1.289,4.992,1.336c-3.281-2.25-4.922-5.32-4.922-9.211
			c0-1.922,0.492-3.797,1.477-5.625c2.812,3.422,6.199,6.164,10.16,8.227c3.961,2.063,8.191,3.188,12.691,3.375
			c-0.188-1.031-0.281-1.875-0.281-2.531c0-3.047,1.078-5.66,3.234-7.84c2.156-2.18,4.758-3.27,7.805-3.27
			c3.188,0,5.906,1.195,8.156,3.586c2.344-0.469,4.664-1.383,6.961-2.742c-0.797,2.719-2.391,4.781-4.781,6.188
			C49.734,9.777,51.844,9.168,54,8.23z"/>
	</g>
</g>
<g id="memo">
</g>
</svg>
