<?xml version="1.0" encoding="utf-8"?>
<!-- Generator: Adobe Illustrator 16.0.0, SVG Export Plug-In . SVG Version: 6.00 Build 0)  -->
<!DOCTYPE svg PUBLIC "-//W3C//DTD SVG 1.1//EN" "http://www.w3.org/Graphics/SVG/1.1/DTD/svg11.dtd">
<svg version="1.1" id="レイヤー_1" xmlns="http://www.w3.org/2000/svg" xmlns:xlink="http://www.w3.org/1999/xlink" x="0px"
	 y="0px" width="50px" height="50px" viewBox="0 0 50 50" enable-background="new 0 0 50 50" xml:space="preserve">
<g id="background">
</g>
<g id="main_x5F_gallery_x5F_layout" display="none">
</g>
<g id="main">
</g>
<g id="main_x5F_gallery">
</g>
<g id="main_x5F_gallery_x5F_caption" display="none">
</g>
<g id="main_x5F_gallery_x5F_text" display="none">
</g>
<g id="header_x5F_back">
</g>
<g id="header_x5F_text">
	<g>
		<path fill="#3F382E" d="M37.305,20.43c-0.938-2.531-2.531-4.594-4.781-6.188c-2.25-1.594-4.758-2.39-7.523-2.39
			c-2.766,0-5.273,0.797-7.523,2.391c-2.25,1.594-3.844,3.656-4.781,6.188H1.094V5.875c0-1.312,0.469-2.438,1.406-3.375
			s2.062-1.406,3.375-1.406h38.25c1.312,0,2.438,0.469,3.375,1.406s1.406,2.062,1.406,3.375V20.43H37.305z M48.906,44.125
			c0,1.312-0.469,2.438-1.406,3.375s-2.062,1.406-3.375,1.406H5.875c-1.312,0-2.438-0.469-3.375-1.406s-1.406-2.062-1.406-3.375
			V24.648h10.758V25c0,3.609,1.289,6.703,3.867,9.281c2.578,2.578,5.672,3.867,9.281,3.867c3.609,0,6.703-1.289,9.281-3.867
			s3.867-5.672,3.867-9.281v-0.352h10.758V44.125z M5.242,16.281h2.391V5.312H5.242V16.281z M10.023,16.281h2.391V5.312h-2.391
			V16.281z M14.805,14.031c0.656-0.516,1.453-1.125,2.391-1.828V5.312h-2.391V14.031z M16,25c0-2.484,0.879-4.594,2.637-6.328
			c1.758-1.734,3.879-2.602,6.363-2.602c2.484,0,4.594,0.867,6.328,2.602c1.734,1.735,2.602,3.844,2.602,6.328
			c0,2.484-0.867,4.605-2.602,6.363C29.593,33.121,27.484,34,25,34c-2.484,0-4.605-0.879-6.363-2.637C16.879,29.605,16,27.484,16,25
			z M33.367,12.625c1.594,1.125,2.836,2.344,3.727,3.656h7.594V5.312H33.368L33.367,12.625L33.367,12.625z"/>
	</g>
</g>
<g id="memo">
</g>
</svg>
