<?xml version="1.0" encoding="utf-8"?>
<!-- Generator: Adobe Illustrator 16.0.0, SVG Export Plug-In . SVG Version: 6.00 Build 0)  -->
<!DOCTYPE svg PUBLIC "-//W3C//DTD SVG 1.1//EN" "http://www.w3.org/Graphics/SVG/1.1/DTD/svg11.dtd">
<svg version="1.1" id="レイヤー_1" xmlns="http://www.w3.org/2000/svg" xmlns:xlink="http://www.w3.org/1999/xlink" x="0px"
	 y="0px" width="187.532px" height="35.908px" viewBox="0 0 187.532 35.908" enable-background="new 0 0 187.532 35.908"
	 xml:space="preserve">
<g>
	<path fill="#FFFFFF" d="M0.552,11.32L3.96,7.936C4.08,7.824,4.196,7.702,4.308,7.57C4.42,7.438,4.52,7.3,4.608,7.156
		C4.696,7.012,4.766,6.86,4.818,6.7C4.87,6.54,4.896,6.372,4.896,6.196c0-0.208-0.038-0.396-0.114-0.564
		c-0.076-0.168-0.18-0.31-0.312-0.426C4.338,5.09,4.182,5,4.002,4.936c-0.18-0.063-0.37-0.096-0.57-0.096
		c-0.416,0-0.76,0.116-1.032,0.348C2.128,5.42,1.956,5.74,1.884,6.147L0.636,6.04c0.056-0.376,0.166-0.702,0.33-0.979
		C1.13,4.786,1.334,4.556,1.578,4.372c0.244-0.184,0.524-0.32,0.84-0.408s0.658-0.132,1.026-0.132c0.368,0,0.714,0.05,1.038,0.15
		c0.324,0.1,0.608,0.248,0.852,0.443C5.578,4.622,5.77,4.866,5.91,5.158C6.05,5.45,6.12,5.792,6.12,6.184
		c0,0.28-0.042,0.542-0.126,0.786S5.8,7.444,5.664,7.66C5.528,7.876,5.372,8.08,5.196,8.271C5.02,8.464,4.836,8.652,4.644,8.836
		l-2.796,2.7H6.12v1.008H0.552V11.32z"/>
	<path fill="#FFFFFF" d="M7.38,8.296c0-0.312,0.016-0.636,0.048-0.972c0.032-0.336,0.09-0.666,0.174-0.99S7.798,5.7,7.938,5.404
		c0.14-0.296,0.32-0.555,0.54-0.774s0.48-0.396,0.78-0.528c0.3-0.132,0.65-0.197,1.05-0.197s0.75,0.065,1.05,0.197
		c0.3,0.133,0.56,0.309,0.78,0.528c0.22,0.22,0.4,0.479,0.54,0.774c0.14,0.296,0.252,0.605,0.336,0.93s0.142,0.654,0.174,0.99
		c0.032,0.336,0.048,0.66,0.048,0.972c0,0.448-0.041,0.928-0.12,1.44c-0.08,0.512-0.228,0.987-0.444,1.428
		c-0.216,0.44-0.514,0.804-0.894,1.092c-0.38,0.288-0.87,0.432-1.47,0.432s-1.09-0.144-1.47-0.432
		c-0.38-0.288-0.678-0.651-0.894-1.092C7.728,10.724,7.58,10.248,7.5,9.736C7.419,9.224,7.38,8.744,7.38,8.296z M8.532,8.296
		c0,0.28,0.018,0.612,0.054,0.996c0.036,0.384,0.114,0.754,0.234,1.11c0.12,0.355,0.298,0.658,0.534,0.905
		c0.236,0.248,0.554,0.372,0.954,0.372s0.718-0.124,0.954-0.372c0.236-0.247,0.414-0.55,0.534-0.905
		c0.12-0.356,0.198-0.727,0.234-1.11s0.054-0.716,0.054-0.996c0-0.192-0.006-0.41-0.018-0.654c-0.012-0.243-0.041-0.491-0.084-0.744
		c-0.044-0.252-0.106-0.495-0.186-0.731c-0.08-0.236-0.186-0.448-0.318-0.636c-0.132-0.188-0.294-0.338-0.486-0.45
		s-0.42-0.168-0.684-0.168S9.816,4.968,9.624,5.08C9.432,5.192,9.27,5.342,9.138,5.53C9.006,5.718,8.899,5.93,8.82,6.166
		C8.74,6.402,8.678,6.646,8.634,6.897C8.59,7.15,8.562,7.398,8.55,7.642C8.538,7.886,8.532,8.104,8.532,8.296z"/>
	<path fill="#FFFFFF" d="M16.884,5.368l-1.56,1.439l-0.672-0.804l2.364-1.956h1.02v8.496h-1.152V5.368z"/>
	<path fill="#FFFFFF" d="M24.936,5.056h-4.116V4.048h5.34v0.984l-3.384,7.512h-1.296L24.936,5.056z"/>
	<path fill="#FFFFFF" d="M28.355,12.616c-0.216,0-0.402-0.078-0.558-0.234c-0.156-0.156-0.234-0.342-0.234-0.558
		s0.078-0.402,0.234-0.559c0.156-0.155,0.342-0.233,0.558-0.233s0.402,0.078,0.558,0.233c0.156,0.156,0.234,0.343,0.234,0.559
		s-0.078,0.401-0.234,0.558C28.757,12.538,28.571,12.616,28.355,12.616z"/>
	<path fill="#FFFFFF" d="M32.399,10.468c0.135,0.408,0.317,0.712,0.544,0.912s0.564,0.3,1.01,0.3c0.223,0,0.432-0.038,0.627-0.113
		c0.195-0.076,0.369-0.181,0.52-0.312c0.152-0.132,0.271-0.292,0.359-0.479c0.088-0.188,0.131-0.398,0.131-0.631
		c0-0.352-0.074-0.634-0.222-0.846c-0.148-0.212-0.338-0.372-0.57-0.479c-0.232-0.108-0.488-0.179-0.768-0.21
		c-0.28-0.032-0.556-0.049-0.828-0.049V7.552c0.44,0,0.8-0.03,1.08-0.09c0.28-0.06,0.5-0.146,0.66-0.258s0.272-0.252,0.336-0.42
		s0.096-0.356,0.096-0.564c0-0.456-0.136-0.8-0.408-1.032c-0.272-0.231-0.612-0.348-1.02-0.348c-0.312,0-0.594,0.09-0.846,0.271
		c-0.252,0.18-0.442,0.418-0.57,0.714l-1.176-0.396c0.224-0.544,0.566-0.945,1.026-1.206c0.46-0.26,0.974-0.39,1.542-0.39
		c0.344,0,0.674,0.046,0.99,0.138c0.316,0.092,0.594,0.234,0.834,0.426c0.24,0.192,0.43,0.435,0.57,0.727s0.21,0.634,0.21,1.025
		c0,0.448-0.134,0.849-0.402,1.2c-0.268,0.353-0.618,0.593-1.05,0.721v0.023c0.264,0.048,0.5,0.137,0.708,0.264
		c0.208,0.129,0.384,0.288,0.528,0.48s0.252,0.406,0.324,0.642c0.072,0.236,0.108,0.486,0.108,0.75c0,0.408-0.078,0.767-0.234,1.074
		c-0.156,0.309-0.364,0.564-0.624,0.769c-0.26,0.204-0.56,0.357-0.9,0.462c-0.34,0.104-0.698,0.155-1.074,0.155
		c-0.648,0-1.218-0.147-1.71-0.443c-0.492-0.296-0.834-0.764-1.026-1.404L32.399,10.468z"/>
	<path fill="#FFFFFF" d="M38.963,12.616c-0.216,0-0.402-0.078-0.558-0.234c-0.156-0.156-0.234-0.342-0.234-0.558
		s0.078-0.402,0.234-0.559c0.156-0.155,0.342-0.233,0.558-0.233s0.402,0.078,0.558,0.233c0.156,0.156,0.234,0.343,0.234,0.559
		s-0.078,0.401-0.234,0.558C39.365,12.538,39.179,12.616,38.963,12.616z"/>
	<path fill="#FFFFFF" d="M45.264,10.672H41.64V9.496l3.384-5.448h1.392v5.616h1.2v1.008h-1.2v1.872h-1.152V10.672z M45.264,5.416
		h-0.024l-2.592,4.248h2.616V5.416z"/>
	<path fill="#FFFFFF" d="M52.751,4.264c-0.256,0.408-0.48,0.801-0.672,1.177s-0.352,0.758-0.48,1.146s-0.224,0.79-0.288,1.206
		s-0.096,0.864-0.096,1.344c0,0.88,0.127,1.732,0.384,2.557c0.256,0.823,0.64,1.588,1.152,2.292l-0.72,0.479
		c-0.552-0.752-0.982-1.58-1.29-2.484c-0.308-0.903-0.462-1.852-0.462-2.844c0-0.92,0.148-1.84,0.444-2.76s0.732-1.776,1.308-2.568
		L52.751,4.264z"/>
	<path fill="#FFFFFF" d="M56.879,8.284c-0.128-0.16-0.286-0.294-0.474-0.402c-0.188-0.107-0.418-0.162-0.69-0.162
		c-0.256,0-0.478,0.055-0.666,0.162c-0.188,0.108-0.282,0.267-0.282,0.474c0,0.169,0.054,0.305,0.162,0.408
		c0.108,0.104,0.236,0.188,0.384,0.252c0.148,0.064,0.306,0.112,0.474,0.145s0.312,0.06,0.432,0.084
		c0.232,0.056,0.45,0.124,0.654,0.204s0.38,0.184,0.528,0.312s0.264,0.284,0.348,0.468c0.084,0.185,0.126,0.408,0.126,0.673
		c0,0.319-0.068,0.594-0.204,0.821c-0.136,0.229-0.312,0.414-0.528,0.559c-0.216,0.144-0.462,0.248-0.738,0.312
		c-0.276,0.064-0.554,0.096-0.834,0.096c-0.472,0-0.886-0.071-1.242-0.216c-0.356-0.144-0.674-0.408-0.954-0.792l0.816-0.672
		c0.176,0.176,0.372,0.332,0.588,0.468c0.216,0.137,0.48,0.204,0.792,0.204c0.136,0,0.274-0.014,0.414-0.042
		c0.14-0.027,0.264-0.071,0.372-0.132c0.108-0.06,0.196-0.136,0.264-0.228s0.102-0.198,0.102-0.318c0-0.16-0.05-0.292-0.15-0.396
		c-0.1-0.104-0.22-0.186-0.36-0.245c-0.14-0.061-0.288-0.108-0.444-0.145c-0.156-0.036-0.294-0.065-0.414-0.09
		c-0.232-0.056-0.452-0.12-0.66-0.192c-0.208-0.071-0.392-0.168-0.552-0.288c-0.16-0.119-0.288-0.271-0.384-0.456
		c-0.096-0.184-0.144-0.411-0.144-0.684c0-0.296,0.062-0.554,0.186-0.773c0.124-0.221,0.288-0.402,0.492-0.547
		C54.497,7,54.729,6.892,54.989,6.82c0.26-0.072,0.522-0.108,0.786-0.108c0.384,0,0.752,0.072,1.104,0.216
		c0.352,0.145,0.632,0.384,0.84,0.72L56.879,8.284z"/>
	<path fill="#FFFFFF" d="M59.207,7.552c0.304-0.279,0.656-0.49,1.056-0.63s0.8-0.21,1.2-0.21c0.416,0,0.774,0.052,1.074,0.156
		c0.3,0.104,0.546,0.244,0.738,0.42c0.192,0.176,0.333,0.378,0.426,0.605c0.092,0.229,0.138,0.467,0.138,0.715v2.903
		c0,0.2,0.004,0.384,0.012,0.552c0.008,0.169,0.02,0.328,0.036,0.48h-0.96c-0.024-0.288-0.036-0.576-0.036-0.864h-0.024
		c-0.24,0.368-0.524,0.628-0.852,0.78s-0.708,0.228-1.14,0.228c-0.264,0-0.516-0.035-0.756-0.107c-0.24-0.072-0.45-0.18-0.63-0.324
		c-0.18-0.144-0.322-0.322-0.426-0.534s-0.156-0.458-0.156-0.737c0-0.368,0.082-0.677,0.246-0.925
		c0.164-0.247,0.388-0.449,0.672-0.605c0.284-0.156,0.616-0.269,0.996-0.336c0.38-0.068,0.786-0.103,1.218-0.103h0.792V8.776
		c0-0.145-0.028-0.288-0.084-0.433c-0.056-0.144-0.14-0.273-0.252-0.39s-0.252-0.208-0.42-0.276c-0.168-0.067-0.368-0.102-0.6-0.102
		c-0.208,0-0.39,0.02-0.546,0.06c-0.156,0.04-0.298,0.09-0.426,0.15c-0.128,0.06-0.244,0.13-0.348,0.21s-0.204,0.156-0.3,0.228
		L59.207,7.552z M62.255,9.808c-0.256,0-0.518,0.015-0.786,0.042c-0.268,0.028-0.512,0.082-0.732,0.162
		c-0.22,0.08-0.4,0.192-0.54,0.336c-0.14,0.145-0.21,0.328-0.21,0.553c0,0.328,0.11,0.563,0.33,0.708
		c0.22,0.144,0.518,0.216,0.894,0.216c0.295,0,0.548-0.05,0.756-0.15c0.208-0.1,0.376-0.229,0.504-0.39s0.22-0.338,0.276-0.534
		s0.084-0.39,0.084-0.582v-0.36H62.255z"/>
	<path fill="#FFFFFF" d="M68.458,7.792h-1.548v2.58c0,0.16,0.004,0.318,0.012,0.474c0.008,0.156,0.038,0.296,0.09,0.42
		c0.052,0.124,0.132,0.225,0.24,0.301c0.108,0.075,0.266,0.113,0.474,0.113c0.128,0,0.26-0.012,0.396-0.036
		c0.136-0.023,0.26-0.067,0.372-0.132v0.984c-0.128,0.072-0.294,0.122-0.498,0.149c-0.204,0.028-0.362,0.042-0.474,0.042
		c-0.417,0-0.738-0.058-0.966-0.174c-0.228-0.115-0.396-0.266-0.504-0.45c-0.108-0.184-0.172-0.39-0.192-0.617
		c-0.02-0.229-0.03-0.458-0.03-0.69V7.792h-1.248V6.855h1.248V5.26h1.08v1.596h1.548V7.792z"/>
	<path fill="#FFFFFF" d="M69.323,14.008c0.256-0.408,0.48-0.8,0.672-1.176s0.352-0.758,0.48-1.146
		c0.128-0.388,0.224-0.789,0.288-1.206c0.064-0.415,0.096-0.863,0.096-1.344c0-0.88-0.128-1.731-0.384-2.556
		s-0.64-1.588-1.152-2.292l0.72-0.48c0.552,0.752,0.982,1.58,1.29,2.484s0.462,1.853,0.462,2.844c0,0.92-0.148,1.84-0.444,2.76
		s-0.732,1.776-1.308,2.568L69.323,14.008z"/>
	<path fill="#FFFFFF" d="M74.146,10.468c0.135,0.408,0.317,0.712,0.544,0.912s0.564,0.3,1.01,0.3c0.223,0,0.432-0.038,0.627-0.113
		c0.195-0.076,0.369-0.181,0.52-0.312c0.152-0.132,0.271-0.292,0.359-0.479c0.088-0.188,0.131-0.398,0.131-0.631
		c0-0.352-0.074-0.634-0.222-0.846c-0.148-0.212-0.338-0.372-0.57-0.479c-0.232-0.108-0.488-0.179-0.768-0.21
		c-0.28-0.032-0.556-0.049-0.828-0.049V7.552c0.44,0,0.8-0.03,1.08-0.09c0.28-0.06,0.5-0.146,0.66-0.258s0.272-0.252,0.336-0.42
		s0.096-0.356,0.096-0.564c0-0.456-0.136-0.8-0.408-1.032c-0.272-0.231-0.612-0.348-1.02-0.348c-0.312,0-0.594,0.09-0.846,0.271
		c-0.252,0.18-0.442,0.418-0.57,0.714l-1.176-0.396c0.224-0.544,0.566-0.945,1.026-1.206c0.46-0.26,0.974-0.39,1.542-0.39
		c0.344,0,0.674,0.046,0.99,0.138c0.316,0.092,0.594,0.234,0.834,0.426c0.24,0.192,0.43,0.435,0.57,0.727s0.21,0.634,0.21,1.025
		c0,0.448-0.134,0.849-0.402,1.2c-0.268,0.353-0.618,0.593-1.05,0.721v0.023c0.264,0.048,0.5,0.137,0.708,0.264
		c0.208,0.129,0.384,0.288,0.528,0.48s0.252,0.406,0.324,0.642c0.072,0.236,0.108,0.486,0.108,0.75c0,0.408-0.078,0.767-0.234,1.074
		c-0.156,0.309-0.364,0.564-0.624,0.769c-0.26,0.204-0.56,0.357-0.9,0.462c-0.34,0.104-0.698,0.155-1.074,0.155
		c-0.648,0-1.218-0.147-1.71-0.443c-0.492-0.296-0.834-0.764-1.026-1.404L74.146,10.468z"/>
	<path fill="#FFFFFF" d="M80.71,12.616c-0.216,0-0.402-0.078-0.558-0.234c-0.156-0.156-0.234-0.342-0.234-0.558
		s0.078-0.402,0.234-0.559c0.156-0.155,0.342-0.233,0.558-0.233s0.402,0.078,0.558,0.233c0.156,0.156,0.234,0.343,0.234,0.559
		s-0.078,0.401-0.234,0.558C81.112,12.538,80.926,12.616,80.71,12.616z"/>
	<path fill="#FFFFFF" d="M88.63,5.128h-3.444L85.15,7.252c0.056-0.024,0.136-0.048,0.24-0.072c0.104-0.023,0.21-0.044,0.318-0.06
		s0.214-0.028,0.318-0.036s0.192-0.012,0.264-0.012c0.4,0,0.762,0.067,1.086,0.204c0.324,0.136,0.602,0.328,0.834,0.575
		c0.232,0.248,0.41,0.545,0.534,0.889s0.186,0.724,0.186,1.14c0,0.424-0.078,0.809-0.234,1.152c-0.156,0.344-0.37,0.64-0.642,0.888
		c-0.272,0.248-0.588,0.438-0.948,0.57s-0.748,0.197-1.164,0.197c-0.576,0-1.096-0.147-1.56-0.443s-0.796-0.72-0.996-1.272
		l1.152-0.396c0.152,0.392,0.357,0.674,0.614,0.846s0.578,0.258,0.963,0.258c0.225,0,0.44-0.04,0.645-0.12
		c0.205-0.079,0.381-0.193,0.53-0.342c0.148-0.147,0.267-0.33,0.355-0.546s0.132-0.46,0.132-0.731c0-0.624-0.19-1.091-0.57-1.398
		S86.334,8.08,85.727,8.08c-0.216,0-0.49,0.038-0.822,0.114s-0.642,0.186-0.93,0.33l0.096-4.477h4.56V5.128z"/>
	<path fill="#FFFFFF" d="M94.498,4.264c-0.256,0.408-0.48,0.801-0.672,1.177s-0.352,0.758-0.48,1.146s-0.224,0.79-0.288,1.206
		s-0.096,0.864-0.096,1.344c0,0.88,0.127,1.732,0.384,2.557c0.256,0.823,0.64,1.588,1.152,2.292l-0.72,0.479
		c-0.552-0.752-0.982-1.58-1.29-2.484c-0.308-0.903-0.462-1.852-0.462-2.844c0-0.92,0.148-1.84,0.444-2.76s0.732-1.776,1.308-2.568
		L94.498,4.264z"/>
	<path fill="#FFFFFF" d="M98.626,8.284c-0.128-0.16-0.286-0.294-0.474-0.402c-0.188-0.107-0.418-0.162-0.69-0.162
		c-0.256,0-0.478,0.055-0.666,0.162c-0.188,0.108-0.282,0.267-0.282,0.474c0,0.169,0.054,0.305,0.162,0.408
		c0.108,0.104,0.236,0.188,0.384,0.252c0.148,0.064,0.306,0.112,0.474,0.145s0.312,0.06,0.432,0.084
		c0.232,0.056,0.45,0.124,0.654,0.204S99,9.632,99.148,9.76s0.264,0.284,0.348,0.468c0.084,0.185,0.126,0.408,0.126,0.673
		c0,0.319-0.068,0.594-0.204,0.821c-0.136,0.229-0.312,0.414-0.528,0.559c-0.216,0.144-0.462,0.248-0.738,0.312
		c-0.276,0.064-0.554,0.096-0.834,0.096c-0.472,0-0.886-0.071-1.242-0.216c-0.356-0.144-0.674-0.408-0.954-0.792l0.816-0.672
		c0.176,0.176,0.372,0.332,0.588,0.468c0.216,0.137,0.48,0.204,0.792,0.204c0.136,0,0.274-0.014,0.414-0.042
		c0.14-0.027,0.264-0.071,0.372-0.132c0.108-0.06,0.196-0.136,0.264-0.228s0.102-0.198,0.102-0.318c0-0.16-0.05-0.292-0.15-0.396
		c-0.1-0.104-0.22-0.186-0.36-0.245c-0.14-0.061-0.288-0.108-0.444-0.145c-0.156-0.036-0.294-0.065-0.414-0.09
		c-0.232-0.056-0.452-0.12-0.66-0.192C96.234,9.82,96.05,9.724,95.89,9.604c-0.16-0.119-0.288-0.271-0.384-0.456
		c-0.096-0.184-0.144-0.411-0.144-0.684c0-0.296,0.062-0.554,0.186-0.773c0.124-0.221,0.288-0.402,0.492-0.547
		C96.244,7,96.476,6.892,96.736,6.82c0.26-0.072,0.522-0.108,0.786-0.108c0.384,0,0.752,0.072,1.104,0.216
		c0.352,0.145,0.632,0.384,0.84,0.72L98.626,8.284z"/>
	<path fill="#FFFFFF" d="M105.97,12.544h-1.08v-0.876h-0.024c-0.136,0.304-0.372,0.55-0.708,0.738
		c-0.336,0.188-0.724,0.281-1.164,0.281c-0.28,0-0.544-0.042-0.792-0.126s-0.466-0.214-0.654-0.39s-0.338-0.402-0.45-0.678
		c-0.112-0.276-0.168-0.603-0.168-0.979v-3.66h1.08v3.36c0,0.264,0.036,0.49,0.108,0.678c0.072,0.188,0.168,0.341,0.288,0.456
		c0.12,0.116,0.258,0.2,0.414,0.252c0.156,0.053,0.318,0.078,0.486,0.078c0.224,0,0.432-0.036,0.624-0.107
		c0.192-0.072,0.36-0.187,0.504-0.343c0.144-0.155,0.256-0.354,0.336-0.594c0.08-0.24,0.12-0.523,0.12-0.852V6.855h1.08V12.544z"/>
	<path fill="#FFFFFF" d="M107.602,6.855h1.08v0.877h0.024c0.136-0.305,0.372-0.551,0.708-0.738c0.336-0.188,0.724-0.282,1.164-0.282
		c0.272,0,0.534,0.042,0.786,0.126s0.472,0.214,0.66,0.39c0.188,0.177,0.338,0.402,0.45,0.679c0.112,0.275,0.168,0.602,0.168,0.978
		v3.66h-1.08v-3.36c0-0.264-0.036-0.489-0.108-0.678c-0.072-0.188-0.168-0.34-0.288-0.456s-0.258-0.2-0.414-0.252
		c-0.156-0.052-0.318-0.078-0.486-0.078c-0.224,0-0.432,0.036-0.624,0.108s-0.36,0.186-0.504,0.342s-0.256,0.354-0.336,0.594
		c-0.08,0.24-0.12,0.524-0.12,0.853v2.928h-1.08V6.855z"/>
	<path fill="#FFFFFF" d="M113.746,14.008c0.256-0.408,0.48-0.8,0.672-1.176s0.352-0.758,0.48-1.146
		c0.128-0.388,0.224-0.789,0.288-1.206c0.064-0.415,0.096-0.863,0.096-1.344c0-0.88-0.128-1.731-0.384-2.556
		s-0.64-1.588-1.152-2.292l0.72-0.48c0.552,0.752,0.982,1.58,1.29,2.484s0.462,1.853,0.462,2.844c0,0.92-0.148,1.84-0.444,2.76
		s-0.732,1.776-1.308,2.568L113.746,14.008z"/>
	<path fill="#FFFFFF" d="M120.034,5.368l-1.56,1.439l-0.672-0.804l2.364-1.956h1.02v8.496h-1.152V5.368z"/>
	<path fill="#FFFFFF" d="M126.105,5.368l-1.56,1.439l-0.672-0.804l2.364-1.956h1.02v8.496h-1.152V5.368z"/>
	<path fill="#FFFFFF" d="M131.205,7.368c-0.216,0-0.402-0.078-0.558-0.234c-0.156-0.156-0.234-0.342-0.234-0.558
		s0.078-0.402,0.234-0.559c0.156-0.155,0.342-0.233,0.558-0.233s0.402,0.078,0.558,0.233c0.156,0.156,0.234,0.343,0.234,0.559
		s-0.078,0.401-0.234,0.558C131.607,7.29,131.421,7.368,131.205,7.368z M130.413,10.824c0-0.216,0.078-0.402,0.234-0.559
		c0.156-0.155,0.342-0.233,0.558-0.233s0.402,0.078,0.558,0.233c0.156,0.156,0.234,0.343,0.234,0.559s-0.078,0.401-0.234,0.558
		c-0.156,0.156-0.342,0.234-0.558,0.234s-0.402-0.078-0.558-0.234C130.491,11.226,130.413,11.04,130.413,10.824z"/>
	<path fill="#FFFFFF" d="M134.181,8.296c0-0.312,0.016-0.636,0.048-0.972c0.032-0.336,0.09-0.666,0.174-0.99s0.196-0.634,0.336-0.93
		c0.14-0.296,0.32-0.555,0.54-0.774s0.48-0.396,0.78-0.528c0.3-0.132,0.65-0.197,1.05-0.197s0.75,0.065,1.05,0.197
		c0.3,0.133,0.56,0.309,0.78,0.528c0.22,0.22,0.4,0.479,0.54,0.774c0.14,0.296,0.252,0.605,0.336,0.93s0.142,0.654,0.174,0.99
		c0.032,0.336,0.048,0.66,0.048,0.972c0,0.448-0.041,0.928-0.12,1.44c-0.08,0.512-0.228,0.987-0.444,1.428
		c-0.216,0.44-0.514,0.804-0.894,1.092c-0.38,0.288-0.87,0.432-1.47,0.432s-1.09-0.144-1.47-0.432
		c-0.38-0.288-0.678-0.651-0.894-1.092c-0.216-0.44-0.364-0.916-0.444-1.428C134.221,9.224,134.181,8.744,134.181,8.296z
		 M135.333,8.296c0,0.28,0.018,0.612,0.054,0.996c0.036,0.384,0.114,0.754,0.234,1.11c0.12,0.355,0.298,0.658,0.534,0.905
		c0.236,0.248,0.554,0.372,0.954,0.372s0.718-0.124,0.954-0.372c0.236-0.247,0.414-0.55,0.534-0.905
		c0.12-0.356,0.198-0.727,0.234-1.11s0.054-0.716,0.054-0.996c0-0.192-0.006-0.41-0.018-0.654c-0.012-0.243-0.041-0.491-0.084-0.744
		c-0.044-0.252-0.106-0.495-0.186-0.731c-0.08-0.236-0.186-0.448-0.318-0.636c-0.132-0.188-0.294-0.338-0.486-0.45
		s-0.42-0.168-0.684-0.168s-0.492,0.056-0.684,0.168c-0.192,0.112-0.354,0.262-0.486,0.45c-0.132,0.188-0.238,0.399-0.318,0.636
		c-0.08,0.236-0.142,0.479-0.186,0.731c-0.044,0.253-0.072,0.501-0.084,0.744C135.339,7.886,135.333,8.104,135.333,8.296z"/>
	<path fill="#FFFFFF" d="M141.453,8.296c0-0.312,0.016-0.636,0.048-0.972c0.032-0.336,0.09-0.666,0.174-0.99s0.196-0.634,0.336-0.93
		c0.14-0.296,0.32-0.555,0.54-0.774s0.48-0.396,0.78-0.528c0.3-0.132,0.65-0.197,1.05-0.197s0.75,0.065,1.05,0.197
		c0.3,0.133,0.56,0.309,0.78,0.528c0.22,0.22,0.4,0.479,0.54,0.774c0.14,0.296,0.252,0.605,0.336,0.93s0.142,0.654,0.174,0.99
		c0.032,0.336,0.048,0.66,0.048,0.972c0,0.448-0.041,0.928-0.12,1.44c-0.08,0.512-0.228,0.987-0.444,1.428
		c-0.216,0.44-0.514,0.804-0.894,1.092c-0.38,0.288-0.87,0.432-1.47,0.432s-1.09-0.144-1.47-0.432
		c-0.38-0.288-0.678-0.651-0.894-1.092c-0.216-0.44-0.364-0.916-0.444-1.428C141.493,9.224,141.453,8.744,141.453,8.296z
		 M142.605,8.296c0,0.28,0.018,0.612,0.054,0.996c0.036,0.384,0.114,0.754,0.234,1.11c0.12,0.355,0.298,0.658,0.534,0.905
		c0.236,0.248,0.554,0.372,0.954,0.372s0.718-0.124,0.954-0.372c0.236-0.247,0.414-0.55,0.534-0.905
		c0.12-0.356,0.198-0.727,0.234-1.11s0.054-0.716,0.054-0.996c0-0.192-0.006-0.41-0.018-0.654c-0.012-0.243-0.041-0.491-0.084-0.744
		c-0.044-0.252-0.106-0.495-0.186-0.731c-0.08-0.236-0.186-0.448-0.318-0.636c-0.132-0.188-0.294-0.338-0.486-0.45
		s-0.42-0.168-0.684-0.168s-0.492,0.056-0.684,0.168c-0.192,0.112-0.354,0.262-0.486,0.45c-0.132,0.188-0.238,0.399-0.318,0.636
		c-0.08,0.236-0.142,0.479-0.186,0.731c-0.044,0.253-0.072,0.501-0.084,0.744C142.611,7.886,142.605,8.104,142.605,8.296z"/>
	<path fill="#FFFFFF" d="M154.557,8.752c-0.24,0.408-0.49,0.687-0.75,0.834c-0.26,0.148-0.522,0.222-0.786,0.222
		c-0.232,0-0.464-0.044-0.696-0.132s-0.464-0.188-0.696-0.3c-0.232-0.112-0.454-0.212-0.666-0.3s-0.414-0.132-0.606-0.132
		c-0.128,0-0.244,0.025-0.348,0.077c-0.104,0.053-0.196,0.12-0.276,0.204c-0.08,0.084-0.152,0.177-0.216,0.276
		c-0.064,0.101-0.12,0.202-0.168,0.306l-0.48-0.744c0.184-0.312,0.4-0.565,0.648-0.762c0.248-0.195,0.564-0.294,0.948-0.294
		c0.24,0,0.474,0.044,0.702,0.131c0.228,0.086,0.446,0.185,0.654,0.295c0.208,0.111,0.412,0.212,0.612,0.302
		c0.2,0.091,0.392,0.137,0.576,0.137c0.192,0,0.376-0.062,0.552-0.184c0.176-0.122,0.348-0.349,0.516-0.681L154.557,8.752z"/>
	<path fill="#FFFFFF" d="M158.349,5.368l-1.56,1.439l-0.672-0.804l2.364-1.956h1.02v8.496h-1.152V5.368z"/>
	<path fill="#FFFFFF" d="M165.812,9.256h-0.048c-0.264,0.128-0.576,0.192-0.936,0.192c-0.304,0-0.612-0.052-0.924-0.156
		c-0.312-0.104-0.594-0.266-0.846-0.486c-0.252-0.22-0.458-0.5-0.618-0.84c-0.16-0.34-0.24-0.742-0.24-1.206
		s0.078-0.874,0.234-1.229c0.156-0.356,0.366-0.654,0.63-0.895c0.264-0.24,0.572-0.422,0.924-0.546s0.728-0.186,1.128-0.186
		s0.776,0.063,1.128,0.191s0.66,0.312,0.924,0.552c0.264,0.24,0.474,0.528,0.63,0.864c0.156,0.336,0.234,0.712,0.234,1.128
		c0,0.265-0.02,0.504-0.06,0.721c-0.04,0.216-0.098,0.422-0.174,0.617c-0.076,0.196-0.166,0.391-0.27,0.582
		c-0.104,0.192-0.22,0.389-0.348,0.588l-2.148,3.396h-1.356L165.812,9.256z M166.88,6.676c0-0.256-0.042-0.492-0.126-0.708
		s-0.204-0.401-0.36-0.558c-0.156-0.156-0.342-0.278-0.558-0.366c-0.216-0.088-0.456-0.132-0.72-0.132s-0.504,0.044-0.72,0.132
		c-0.216,0.088-0.402,0.21-0.558,0.366c-0.156,0.156-0.276,0.342-0.36,0.558c-0.084,0.216-0.126,0.452-0.126,0.708
		s0.042,0.492,0.126,0.708c0.084,0.216,0.204,0.402,0.36,0.559c0.156,0.155,0.342,0.277,0.558,0.365
		c0.216,0.089,0.456,0.133,0.72,0.133s0.504-0.044,0.72-0.133c0.216-0.088,0.402-0.21,0.558-0.365
		c0.156-0.156,0.276-0.343,0.36-0.559S166.88,6.932,166.88,6.676z"/>
	<path fill="#FFFFFF" d="M171.02,7.368c-0.216,0-0.402-0.078-0.558-0.234c-0.156-0.156-0.234-0.342-0.234-0.558
		s0.078-0.402,0.234-0.559c0.156-0.155,0.342-0.233,0.558-0.233s0.402,0.078,0.558,0.233c0.156,0.156,0.234,0.343,0.234,0.559
		s-0.078,0.401-0.234,0.558C171.422,7.29,171.236,7.368,171.02,7.368z M170.228,10.824c0-0.216,0.078-0.402,0.234-0.559
		c0.156-0.155,0.342-0.233,0.558-0.233s0.402,0.078,0.558,0.233c0.156,0.156,0.234,0.343,0.234,0.559s-0.078,0.401-0.234,0.558
		c-0.156,0.156-0.342,0.234-0.558,0.234s-0.402-0.078-0.558-0.234C170.306,11.226,170.228,11.04,170.228,10.824z"/>
	<path fill="#FFFFFF" d="M173.996,8.296c0-0.312,0.016-0.636,0.048-0.972c0.032-0.336,0.09-0.666,0.174-0.99s0.196-0.634,0.336-0.93
		c0.14-0.296,0.32-0.555,0.54-0.774s0.48-0.396,0.78-0.528c0.3-0.132,0.65-0.197,1.05-0.197s0.75,0.065,1.05,0.197
		c0.3,0.133,0.56,0.309,0.78,0.528c0.22,0.22,0.4,0.479,0.54,0.774c0.14,0.296,0.252,0.605,0.336,0.93s0.142,0.654,0.174,0.99
		c0.032,0.336,0.048,0.66,0.048,0.972c0,0.448-0.041,0.928-0.12,1.44c-0.08,0.512-0.228,0.987-0.444,1.428
		c-0.216,0.44-0.514,0.804-0.894,1.092c-0.38,0.288-0.87,0.432-1.47,0.432s-1.09-0.144-1.47-0.432
		c-0.38-0.288-0.678-0.651-0.894-1.092c-0.216-0.44-0.364-0.916-0.444-1.428C174.036,9.224,173.996,8.744,173.996,8.296z
		 M175.148,8.296c0,0.28,0.018,0.612,0.054,0.996c0.036,0.384,0.114,0.754,0.234,1.11c0.12,0.355,0.298,0.658,0.534,0.905
		c0.236,0.248,0.554,0.372,0.954,0.372s0.718-0.124,0.954-0.372c0.236-0.247,0.414-0.55,0.534-0.905
		c0.12-0.356,0.198-0.727,0.234-1.11s0.054-0.716,0.054-0.996c0-0.192-0.006-0.41-0.018-0.654c-0.012-0.243-0.041-0.491-0.084-0.744
		c-0.044-0.252-0.106-0.495-0.186-0.731c-0.08-0.236-0.186-0.448-0.318-0.636c-0.132-0.188-0.294-0.338-0.486-0.45
		s-0.42-0.168-0.684-0.168s-0.492,0.056-0.684,0.168c-0.192,0.112-0.354,0.262-0.486,0.45c-0.132,0.188-0.238,0.399-0.318,0.636
		c-0.08,0.236-0.142,0.479-0.186,0.731c-0.044,0.253-0.072,0.501-0.084,0.744C175.154,7.886,175.148,8.104,175.148,8.296z"/>
	<path fill="#FFFFFF" d="M181.268,8.296c0-0.312,0.016-0.636,0.048-0.972c0.032-0.336,0.09-0.666,0.174-0.99s0.196-0.634,0.336-0.93
		c0.14-0.296,0.32-0.555,0.54-0.774s0.48-0.396,0.78-0.528c0.3-0.132,0.65-0.197,1.05-0.197s0.75,0.065,1.05,0.197
		c0.3,0.133,0.56,0.309,0.78,0.528c0.22,0.22,0.4,0.479,0.54,0.774c0.14,0.296,0.252,0.605,0.336,0.93s0.142,0.654,0.174,0.99
		c0.032,0.336,0.048,0.66,0.048,0.972c0,0.448-0.041,0.928-0.12,1.44c-0.08,0.512-0.228,0.987-0.444,1.428
		c-0.216,0.44-0.514,0.804-0.894,1.092c-0.38,0.288-0.87,0.432-1.47,0.432s-1.09-0.144-1.47-0.432
		c-0.38-0.288-0.678-0.651-0.894-1.092c-0.216-0.44-0.364-0.916-0.444-1.428C181.308,9.224,181.268,8.744,181.268,8.296z
		 M182.42,8.296c0,0.28,0.018,0.612,0.054,0.996c0.036,0.384,0.114,0.754,0.234,1.11c0.12,0.355,0.298,0.658,0.534,0.905
		c0.236,0.248,0.554,0.372,0.954,0.372s0.718-0.124,0.954-0.372c0.236-0.247,0.414-0.55,0.534-0.905
		c0.12-0.356,0.198-0.727,0.234-1.11s0.054-0.716,0.054-0.996c0-0.192-0.006-0.41-0.018-0.654c-0.012-0.243-0.041-0.491-0.084-0.744
		c-0.044-0.252-0.106-0.495-0.186-0.731c-0.08-0.236-0.186-0.448-0.318-0.636c-0.132-0.188-0.294-0.338-0.486-0.45
		s-0.42-0.168-0.684-0.168s-0.492,0.056-0.684,0.168c-0.192,0.112-0.354,0.262-0.486,0.45c-0.132,0.188-0.238,0.399-0.318,0.636
		c-0.08,0.236-0.142,0.479-0.186,0.731c-0.044,0.253-0.072,0.501-0.084,0.744C182.426,7.886,182.42,8.104,182.42,8.296z"/>
	<path fill="#FFFFFF" d="M11.709,25.087c-0.072,0.191-0.072,0.191-0.216,0.611c-0.66,1.931-1.691,3.706-2.926,5.001
		c-0.36-0.372-0.672-0.623-1.175-0.936c0.779-0.671,1.283-1.319,1.883-2.387c0.372-0.671,0.66-1.367,0.912-2.183
		c0.048-0.132,0.096-0.336,0.144-0.6L11.709,25.087z M12.021,21.381c0-0.372-0.024-0.696-0.072-1.044h1.511
		c-0.048,0.348-0.072,0.684-0.072,1.044v0.971h2.998c0.6,0,1.092-0.023,1.56-0.071v1.427c-0.588-0.06-0.588-0.06-1.595-0.071H9.227
		c-0.768,0-1.127,0.012-1.595,0.071V22.28c0.468,0.048,1.031,0.071,1.643,0.071h2.747V21.381z M15.055,24.57
		c0.12,0.517,0.288,0.972,0.708,1.884c0.6,1.295,1.403,2.458,2.327,3.346c-0.468,0.288-0.731,0.504-1.163,0.947
		c-1.283-1.463-2.243-3.154-3.01-5.289c-0.072-0.191-0.096-0.239-0.156-0.371L15.055,24.57z"/>
	<path fill="#FFFFFF" d="M21.707,23.348c-0.492,0-0.923,0.023-1.367,0.071v-1.415c0.468,0.061,0.815,0.084,1.367,0.084h2.962v-0.815
		c0-0.456-0.024-0.731-0.072-1.067h1.439c-0.048,0.324-0.072,0.624-0.072,1.056v0.827h3.118c0.576,0,0.983-0.023,1.391-0.084v1.415
		c-0.492-0.048-0.875-0.071-1.391-0.071h-2.471c0.54,0.972,1.08,1.739,1.727,2.41c0.78,0.828,1.607,1.451,2.519,1.932
		c-0.36,0.432-0.552,0.731-0.792,1.259c-0.731-0.504-1.271-0.936-1.931-1.595v1.295c-0.348-0.048-0.672-0.06-1.151-0.06h-1.02v0.791
		c0,0.552,0.024,1.02,0.084,1.428h-1.463c0.06-0.432,0.084-0.888,0.084-1.439v-0.779h-0.912c-0.492,0-0.804,0.012-1.151,0.06v-1.283
		c-0.66,0.684-1.139,1.104-1.871,1.607c-0.228-0.516-0.396-0.78-0.779-1.199c1.715-1.067,3.118-2.627,4.006-4.426H21.707z
		 M24.669,25.542c0-0.348,0.036-0.827,0.084-1.283c-0.6,1.235-1.151,2.027-2.087,3.047c0.276,0.035,0.48,0.048,1.031,0.048h0.972
		V25.542z M27.067,27.354c0.54,0,0.732-0.013,1.02-0.048c-0.912-0.912-1.403-1.596-2.23-3.059c0.072,0.479,0.108,0.947,0.108,1.283
		v1.823H27.067z"/>
	<path fill="#FFFFFF" d="M38.996,23.611c0.996,1.907,2.423,3.334,4.485,4.449c-0.456,0.492-0.54,0.612-0.887,1.224
		c-1.043-0.731-1.667-1.235-2.231-1.835c-0.755-0.804-1.283-1.523-1.859-2.603c0.06,0.491,0.084,0.936,0.084,1.295v3.227
		c0,0.552,0.024,1.02,0.084,1.427h-1.5c0.06-0.407,0.084-0.887,0.084-1.438v-3.202c0-0.288,0.024-0.78,0.06-1.248
		c-0.863,1.775-2.099,3.154-3.946,4.426c-0.276-0.516-0.516-0.84-0.863-1.175c1.907-1.092,3.538-2.795,4.33-4.546h-2.519
		c-0.516,0-0.948,0.024-1.379,0.072v-1.355c0.42,0.06,0.839,0.084,1.379,0.084h2.938V21.32c0-0.432-0.024-0.731-0.072-1.067h1.475
		c-0.048,0.336-0.072,0.636-0.072,1.067v1.092h3.094c0.576,0,1.02-0.024,1.391-0.084v1.355c-0.42-0.048-0.899-0.072-1.391-0.072
		H38.996z"/>
	<path fill="#FFFFFF" d="M48.359,21.54h1.044l3.636,8.496h-1.344l-0.852-2.1h-4.044l-0.84,2.1h-1.344L48.359,21.54z M50.423,26.928
		l-1.584-3.899h-0.024l-1.608,3.899H50.423z"/>
	<path fill="#FFFFFF" d="M56.111,25.572l-2.856-4.032h1.476l2.208,3.264l2.184-3.264h1.44l-2.832,4.021l3.12,4.476h-1.512
		l-2.436-3.684l-2.448,3.684h-1.428L56.111,25.572z"/>
	<path fill="#FFFFFF" d="M61.919,21.54h1.152v8.496h-1.152V21.54z"/>
	<path fill="#FFFFFF" d="M65.507,28.26c0.208,0.312,0.474,0.542,0.798,0.69c0.324,0.148,0.658,0.222,1.002,0.222
		c0.192,0,0.388-0.029,0.588-0.09c0.2-0.06,0.382-0.149,0.546-0.27s0.298-0.269,0.402-0.444c0.104-0.176,0.156-0.38,0.156-0.612
		c0-0.328-0.104-0.577-0.312-0.75c-0.208-0.172-0.466-0.315-0.774-0.432s-0.644-0.229-1.008-0.336
		c-0.364-0.108-0.7-0.258-1.008-0.45s-0.566-0.45-0.774-0.774c-0.208-0.323-0.312-0.762-0.312-1.313
		c0-0.248,0.054-0.512,0.162-0.792s0.278-0.536,0.51-0.769c0.232-0.231,0.53-0.426,0.894-0.581c0.364-0.156,0.802-0.234,1.314-0.234
		c0.464,0,0.908,0.064,1.332,0.192c0.424,0.128,0.796,0.388,1.116,0.779l-0.936,0.853c-0.144-0.225-0.348-0.404-0.612-0.54
		c-0.264-0.136-0.564-0.204-0.9-0.204c-0.32,0-0.586,0.042-0.798,0.126s-0.382,0.191-0.51,0.324
		c-0.128,0.132-0.218,0.273-0.27,0.426c-0.052,0.152-0.078,0.292-0.078,0.42c0,0.36,0.104,0.636,0.312,0.828
		c0.208,0.191,0.466,0.348,0.774,0.468s0.644,0.229,1.008,0.324c0.364,0.096,0.7,0.229,1.008,0.401
		c0.308,0.173,0.566,0.404,0.774,0.696s0.312,0.694,0.312,1.206c0,0.408-0.078,0.776-0.234,1.104
		c-0.156,0.328-0.366,0.604-0.63,0.827c-0.264,0.225-0.576,0.396-0.936,0.517c-0.36,0.12-0.744,0.18-1.152,0.18
		c-0.544,0-1.06-0.096-1.548-0.288c-0.488-0.191-0.876-0.487-1.164-0.888L65.507,28.26z"/>
	<path fill="#FFFFFF" d="M75.549,20.793c0.54-0.108,1.055-0.156,1.523-0.156c0.24,0,0.324,0.061,0.324,0.229
		c0,0.048,0,0.084-0.036,0.203c-0.012,0.072-0.024,0.156-0.024,0.24c0,0.216,0.024,0.42,0.18,1.295
		c0.972-0.155,2.111-0.407,2.626-0.563c0.084-0.036,0.108-0.036,0.18-0.036c0.084,0,0.12,0.072,0.168,0.3
		c0.048,0.229,0.144,0.84,0.144,0.936c0,0.145-0.048,0.168-0.516,0.216c-0.3,0.024-0.468,0.048-1.067,0.156
		c-0.216,0.036-0.216,0.036-1.307,0.228c0.204,1.056,0.204,1.056,0.312,1.619c0.264-0.048,0.264-0.048,0.528-0.096
		c1.2-0.216,2.015-0.396,2.567-0.563c0.192-0.061,0.312-0.096,0.348-0.096c0.096,0,0.132,0.048,0.168,0.167
		c0.096,0.312,0.216,0.888,0.216,1.08c0,0.107-0.024,0.12-0.384,0.18c-0.192,0.036-0.192,0.036-0.588,0.108
		c-0.647,0.107-0.647,0.107-2.603,0.443c0.312,1.511,0.312,1.511,0.744,3.25c0.024,0.096,0.036,0.168,0.036,0.192
		c0,0.119-0.048,0.155-0.252,0.228c-0.336,0.12-0.959,0.252-1.127,0.252c-0.12,0-0.144-0.036-0.18-0.264
		c-0.084-0.576-0.276-1.644-0.588-3.406c-2.447,0.456-2.639,0.504-3.322,0.743c-0.156,0.048-0.204,0.061-0.264,0.061
		c-0.096,0-0.156-0.048-0.216-0.18c-0.144-0.301-0.264-0.685-0.408-1.271c0.624-0.024,1.283-0.12,3.982-0.588
		c-0.144-0.708-0.24-1.224-0.324-1.631c-2.183,0.384-2.183,0.384-2.794,0.563c-0.096,0.036-0.12,0.036-0.144,0.036
		c-0.191,0-0.191,0-0.54-1.403c0.66-0.012,0.66-0.012,3.238-0.432C75.957,21.92,75.765,21.236,75.549,20.793z M81.162,22.436
		c-0.252-0.468-0.516-0.815-0.887-1.199c-0.072-0.071-0.072-0.084-0.072-0.12c0-0.071,0.072-0.144,0.276-0.3
		c0.192-0.144,0.264-0.18,0.336-0.18c0.096,0,0.216,0.096,0.516,0.42c0.384,0.432,0.66,0.804,0.66,0.899
		c0,0.145-0.54,0.576-0.696,0.576C81.246,22.532,81.209,22.508,81.162,22.436z M82.829,21.524c-0.072,0.048-0.18,0.12-0.216,0.132
		c-0.012,0.012-0.012,0.012-0.06,0.024c-0.012,0-0.024,0.012-0.036,0.012c-0.036,0-0.084-0.036-0.108-0.096
		c-0.168-0.312-0.612-0.888-0.924-1.188c-0.024-0.024-0.024-0.024-0.06-0.084c0.072-0.12,0.072-0.12,0.192-0.204
		c0.18-0.12,0.372-0.239,0.396-0.239c0.144,0.023,0.144,0.023,0.288,0.144c0.324,0.288,0.899,1.007,0.899,1.151
		C83.201,21.236,83.069,21.356,82.829,21.524z"/>
	<path fill="#FFFFFF" d="M90.918,23.875c0.12-0.072,0.168-0.084,0.252-0.084c0.288,0,1.067,0.792,1.067,1.079
		c0,0.084-0.036,0.133-0.12,0.204c-0.167,0.145-0.228,0.204-0.384,0.468c-0.312,0.516-0.755,1.092-1.223,1.583
		c-0.192,0.204-0.3,0.276-0.396,0.276c-0.072,0-0.144-0.036-0.228-0.096c-0.324-0.252-0.492-0.336-1.007-0.516
		c0.671-0.444,1.127-0.876,1.655-1.607c-1.559,0.372-1.559,0.372-2.495,0.611c0.504,1.991,0.684,2.639,1.127,4.126
		c0.024,0.107,0.036,0.156,0.036,0.204c0,0.107-0.12,0.18-0.444,0.264c-0.204,0.06-0.612,0.132-0.72,0.132
		c-0.144,0-0.168-0.048-0.228-0.396c-0.108-0.636-0.54-2.375-0.983-4.019c-0.887,0.252-1.031,0.288-1.487,0.504
		c-0.132,0.061-0.204,0.084-0.264,0.084c-0.228,0-0.492-0.539-0.695-1.379c0.6-0.024,0.887-0.072,2.135-0.348
		c-0.252-0.936-0.372-1.271-0.66-1.799c0.647-0.108,1.127-0.156,1.439-0.156c0.204,0,0.288,0.06,0.288,0.191
		c0,0.036,0,0.061-0.012,0.132c-0.024,0.072-0.024,0.12-0.024,0.181c0,0.239,0.048,0.479,0.216,1.188
		C90.067,24.187,90.631,24.043,90.918,23.875z"/>
	<path fill="#FFFFFF" d="M95.794,25.171c-0.024,0-0.084,0.012-0.096,0.012c-0.264,0-0.372-0.408-0.456-1.644
		c0.588,0.097,1.416,0.132,3.646,0.132c2.399,0,3.046,0,3.274-0.023c0.18-0.012,0.216-0.024,0.456-0.096
		c0.084-0.036,0.156-0.049,0.228-0.049c0.18,0,0.324,0.084,0.516,0.288c0.324,0.372,0.54,0.708,0.54,0.852
		c0,0.132-0.06,0.228-0.204,0.384c-0.096,0.084-0.156,0.192-0.384,0.708c-0.804,1.763-1.703,2.842-3.118,3.741
		c-0.648,0.42-1.691,0.9-1.931,0.9c-0.168,0-0.264-0.072-0.468-0.312c-0.312-0.371-0.456-0.504-0.792-0.671
		c1.367-0.408,2.615-1.092,3.502-1.943c0.672-0.647,1.175-1.487,1.523-2.53C97.485,24.979,96.646,25.015,95.794,25.171z
		 M99.716,20.913c1.248,0,1.248,0,2.626-0.097c0.048,0,0.06,0,0.144,0c0.156,0,0.216,0.12,0.228,0.48c0,0.144,0,0.275,0.012,0.396
		c0,0.024,0,0.048,0,0.048c0,0.432-0.048,0.552-0.204,0.552c-0.048,0-0.144-0.012-0.252-0.012c-0.228-0.024-1.127-0.048-1.499-0.048
		c-1.799,0-3.083,0.023-3.79,0.084c-0.036,0-0.072,0-0.096,0c-0.312,0-0.359-0.181-0.432-1.523
		C97.233,20.889,97.989,20.913,99.716,20.913z"/>
	<path fill="#FFFFFF" d="M109.112,24.463c0,0.275,0.012,0.827,0.024,1.163c0,0.12,0.012,0.24,0.012,0.288
		c0,0.24-0.168,0.288-1.104,0.288c-0.36,0-0.432-0.048-0.432-0.252c0-0.048,0-0.156,0-0.24c0.048-0.936,0.072-1.451,0.072-2.303
		c0-1.391-0.036-1.931-0.132-2.555c0.612,0.013,1.175,0.048,1.451,0.108c0.168,0.036,0.264,0.12,0.264,0.264
		c0,0.06-0.012,0.096-0.036,0.168c-0.096,0.24-0.12,0.468-0.12,1.043V24.463z M113.778,22.903c0,1.716-0.108,2.831-0.336,3.67
		c-0.432,1.523-1.391,2.747-2.806,3.526c-0.3,0.168-0.528,0.264-0.612,0.264s-0.144-0.036-0.228-0.132
		c-0.276-0.348-0.492-0.539-0.911-0.815c0.768-0.288,1.415-0.695,1.943-1.211c0.611-0.6,1.007-1.319,1.223-2.183
		c0.156-0.685,0.264-1.979,0.264-3.358c0-0.972-0.036-1.451-0.12-1.896c0.72,0.013,1.151,0.061,1.523,0.132
		c0.156,0.036,0.228,0.097,0.228,0.216c0,0.061-0.012,0.108-0.048,0.217c-0.096,0.264-0.12,0.503-0.12,1.067V22.903z"/>
	<path fill="#FFFFFF" d="M121.376,24.799c2.195,0,3.454-0.024,4.666-0.108c0.036,0,0.108,0,0.156,0c0.36,0,0.36,0.013,0.36,0.972
		c0,0.492-0.036,0.576-0.24,0.576c0,0-0.036,0-0.048,0c-0.792-0.036-1.235-0.036-4.701-0.036c-1.271,0-1.907,0.012-3.01,0.048
		c-0.084,0-0.18,0-0.348,0c-0.384,0-0.443,0.012-0.671,0.048c-0.06,0-0.108,0.012-0.132,0.012c-0.132,0-0.216-0.06-0.24-0.168
		c-0.072-0.3-0.12-0.911-0.12-1.463C118.018,24.774,118.869,24.799,121.376,24.799z"/>
	<path fill="#FFFFFF" d="M134.805,21.968c-0.324,0-0.648,0.024-1.104,0.061v-1.379c0.36,0.048,0.563,0.06,1.08,0.06h1.835
		c0.479,0,0.768-0.012,1.055-0.06c-0.036,0.251-0.048,0.503-0.048,0.731c0,1.619,0.42,3.154,1.235,4.545
		c0.479,0.804,1.055,1.499,1.835,2.219c0.587,0.528,0.923,0.768,1.715,1.235c-0.443,0.432-0.66,0.72-0.971,1.308
		c-1.164-0.815-2.027-1.655-2.818-2.711c-0.408-0.563-0.672-1.007-1.008-1.703c-0.288-0.636-0.396-0.923-0.587-1.643
		c-0.408,1.475-0.875,2.459-1.643,3.478c-0.732,0.972-1.607,1.764-2.854,2.603c-0.24-0.491-0.516-0.839-0.948-1.199
		c0.983-0.563,1.547-1.007,2.315-1.811c0.899-0.936,1.607-2.159,1.979-3.406c0.228-0.792,0.324-1.392,0.372-2.327H134.805z"/>
	<path fill="#FFFFFF" d="M148.892,27.257c-0.456,0.408-0.731,0.601-1.403,0.984c-0.144-0.252-0.192-0.336-0.444-0.612
		c-0.72,0.432-1.175,0.672-2.291,1.212c-0.012,0.012-0.072,0.035-0.156,0.084l-0.108,0.06l-0.288-1.344
		c0.3-0.071,0.708-0.216,1.295-0.468v-3.034h-0.335c-0.336,0-0.588,0.013-0.888,0.061v-1.224c0.264,0.036,0.528,0.048,0.899,0.048
		h0.324v-1.427c0-0.6-0.024-0.947-0.072-1.283h1.343c-0.06,0.371-0.072,0.684-0.072,1.283v1.427h0.216
		c0.372,0,0.587-0.012,0.803-0.036v1.188c-0.251-0.023-0.479-0.036-0.803-0.036h-0.216v2.471c0.264-0.144,0.396-0.216,0.779-0.432
		v0.804c0.624-0.384,1.02-0.731,1.367-1.176h-0.264c-0.48,0-0.804,0.024-1.056,0.061v-1.151c0.252,0.048,0.54,0.06,1.067,0.06h5.038
		c0.551,0,0.911-0.023,1.199-0.06v1.14c-0.348-0.036-0.672-0.049-1.188-0.049h-3.526c-0.096,0.168-0.156,0.265-0.312,0.48h3.658
		c0.563,0,0.768-0.013,1.127-0.036c-0.024,0.191-0.036,0.359-0.048,0.684c-0.06,1.415-0.228,2.603-0.468,3.118
		c-0.24,0.527-0.611,0.684-1.619,0.684c-0.288,0-0.504-0.012-0.972-0.036c-0.048-0.42-0.132-0.731-0.312-1.056
		c-0.611,0.54-1.103,0.864-1.895,1.26c-0.264-0.372-0.443-0.576-0.827-0.876c0.995-0.432,1.487-0.719,2.099-1.235
		c0.468-0.407,0.839-0.887,1.188-1.535h-0.684c-0.72,1.08-1.703,1.848-3.202,2.52c-0.192-0.36-0.36-0.552-0.72-0.864
		c1.307-0.504,2.062-0.959,2.663-1.655H148.892z M149.24,24.283c-0.468,0-0.816,0.012-1.056,0.036
		c0.036-0.324,0.048-0.636,0.048-1.104v-1.68c0-0.479-0.012-0.695-0.048-1.043c0.36,0.048,0.612,0.06,1.164,0.06h3.358
		c0.6,0,0.875-0.012,1.235-0.06c-0.036,0.3-0.048,0.552-0.048,1.14v1.595c0,0.492,0.012,0.852,0.048,1.079
		c-0.276-0.012-0.563-0.023-1.043-0.023H149.24z M149.42,22.052h3.262v-0.491h-3.262V22.052z M149.42,23.359h3.262v-0.468h-3.262
		V23.359z M152.922,27.257c-0.443,0.96-0.899,1.607-1.607,2.255c0.492,0.072,0.852,0.097,1.188,0.097c0.419,0,0.54-0.12,0.647-0.612
		c0.084-0.407,0.144-0.911,0.204-1.739H152.922z"/>
	<path fill="#FFFFFF" d="M158.566,22.796c-0.372,0.359-0.503,0.468-0.947,0.815c-0.36-0.443-0.516-0.6-0.84-0.876
		c1.08-0.779,1.715-1.438,2.135-2.219c0.108-0.203,0.204-0.407,0.24-0.575l1.343,0.264c-0.084,0.132-0.084,0.132-0.24,0.408
		c-0.096,0.18-0.192,0.336-0.36,0.587h5.565c0.708,0,1.103-0.023,1.463-0.071V22.4c-0.419-0.036-0.479-0.049-1.139-0.061v1.535
		h0.456c0.54,0,0.792-0.012,1.127-0.06v1.271c-0.336-0.049-0.6-0.061-1.127-0.061h-0.456v1.535h0.228
		c0.563,0,0.779-0.012,1.103-0.06v1.259c-0.3-0.048-0.576-0.06-1.079-0.06h-7.844c-0.456,0-0.672,0.012-1.02,0.06v-1.259
		c0.3,0.048,0.6,0.06,1.127,0.06h0.264v-1.535h-0.492c-0.528,0-0.779,0.012-1.127,0.061v-1.271c0.324,0.048,0.588,0.06,1.127,0.06
		h0.492V22.796z M156.923,29.992c0.708-0.684,1.043-1.2,1.427-2.171l1.056,0.539c-0.468,1.115-0.756,1.596-1.476,2.423
		L156.923,29.992z M159.706,23.875h0.936V22.34h-0.936V23.875z M159.706,26.562h0.936v-1.535h-0.936V26.562z M160.233,30.735
		c0.012-0.288,0.012-0.288,0.012-0.468c0-0.443-0.096-1.499-0.18-2.039l1.127-0.132c0.192,1.044,0.252,1.56,0.3,2.519
		L160.233,30.735z M162.644,23.875V22.34h-0.959v1.535H162.644z M162.644,26.562v-1.535h-0.959v1.535H162.644z M162.919,30.699
		c-0.18-1.115-0.251-1.439-0.54-2.423l1.104-0.252c0.324,0.9,0.479,1.428,0.684,2.399L162.919,30.699z M164.646,23.875V22.34h-0.971
		v1.535H164.646z M164.646,26.562v-1.535h-0.971v1.535H164.646z M166.194,30.711c-0.42-0.959-0.696-1.438-1.379-2.41l0.996-0.492
		c0.66,0.816,0.996,1.319,1.487,2.207L166.194,30.711z"/>
	<path fill="#FFFFFF" d="M173.912,27.677c-0.06,0.156-0.072,0.204-0.132,0.384c-0.48-0.516-0.804-0.983-1.164-1.619
		c0.06,0.804,0.072,0.96,0.072,1.308v1.907c0,0.552,0.012,0.863,0.06,1.199h-1.319c0.048-0.372,0.072-0.695,0.072-1.224v-1.487
		c0-0.455,0.024-0.983,0.048-1.367c-0.516,1.247-0.887,1.907-1.499,2.579c-0.132-0.456-0.324-0.852-0.588-1.188
		c0.756-0.779,1.235-1.547,1.859-2.998h-0.6c-0.503,0-0.768,0.012-1.043,0.06v-1.224c0.276,0.048,0.492,0.061,1.032,0.061h0.779
		v-2.723c0-0.516-0.012-0.852-0.06-1.128h1.319c-0.048,0.3-0.06,0.564-0.06,1.116v2.734h0.54c0.444,0,0.636-0.013,0.888-0.048v1.199
		c-0.264-0.036-0.504-0.048-0.912-0.048h-0.408c0.432,0.743,0.852,1.247,1.475,1.763c-0.144,0.264-0.192,0.359-0.312,0.647
		c0.264-0.023,0.672-0.084,1.056-0.168l2.698-0.6v-5.253c0-0.672-0.012-0.983-0.072-1.344h1.391
		c-0.06,0.384-0.072,0.696-0.072,1.332v4.989c0.503-0.12,0.684-0.168,0.971-0.288l0.252,1.319c-0.3,0.036-0.576,0.084-1.115,0.191
		l-0.108,0.024v1.69c0,0.636,0.012,0.984,0.072,1.355h-1.391c0.06-0.396,0.072-0.659,0.072-1.367v-1.391l-2.446,0.552
		c-0.492,0.107-0.828,0.191-1.092,0.287L173.912,27.677z M170.578,20.841c0.372,1.031,0.54,1.619,0.708,2.482l-0.972,0.42
		c-0.18-1.067-0.384-1.763-0.72-2.459L170.578,20.841z M174.524,21.249c-0.288,1.055-0.444,1.463-0.912,2.494l-0.852-0.432
		c0.384-0.779,0.563-1.379,0.792-2.495L174.524,21.249z M175.1,23.852c0.911,0.636,1.415,1.055,2.015,1.69l-0.792,0.947
		c-0.804-0.875-1.188-1.211-2.027-1.774L175.1,23.852z M175.471,20.973c0.972,0.695,1.343,1.008,2.003,1.703l-0.779,0.972
		c-0.864-0.924-0.876-0.936-2.039-1.787L175.471,20.973z"/>
</g>
</svg>
