<?xml version="1.0" encoding="utf-8"?>
<!-- Generator: Adobe Illustrator 16.0.0, SVG Export Plug-In . SVG Version: 6.00 Build 0)  -->
<!DOCTYPE svg PUBLIC "-//W3C//DTD SVG 1.1//EN" "http://www.w3.org/Graphics/SVG/1.1/DTD/svg11.dtd">
<svg version="1.1" id="レイヤー_1" xmlns="http://www.w3.org/2000/svg" xmlns:xlink="http://www.w3.org/1999/xlink" x="0px"
	 y="0px" width="159.589px" height="18px" viewBox="0 0 159.589 18" enable-background="new 0 0 159.589 18" xml:space="preserve">
<g>
	<g>
		<path fill="#FFFFFF" d="M3.548,6.009C3.08,6.117,2.917,6.171,2.269,6.405c-0.234,0.09-0.36,0.126-0.468,0.126
			c-0.396,0-0.756-0.738-1.081-2.287C1.873,4.19,2.287,4.136,4.286,3.83c2.161-0.324,4.897-0.738,6.338-0.918
			c1.621-0.216,2.917-0.432,3.601-0.576C14.351,2.3,14.405,2.3,14.495,2.3c0.234,0,0.324,0.108,0.486,0.558
			c0.144,0.378,0.252,0.918,0.252,1.17c0,0.216-0.072,0.288-0.324,0.288c-0.378,0-0.72,0.036-1.062,0.09
			c-3.043,0.504-5.474,3.169-5.474,5.978c0,2.106,1.656,3.493,4.465,3.745c0.252,0.018,0.342,0.108,0.342,0.324
			c0,0.45-0.18,1.314-0.342,1.71c-0.09,0.198-0.234,0.288-0.468,0.288c-0.234,0-0.774-0.108-1.332-0.27
			c-3.061-0.9-4.664-2.845-4.664-5.6c0-1.494,0.486-2.881,1.422-4.069c0.504-0.648,0.937-1.008,1.962-1.71
			C7.401,5.199,4.916,5.667,3.548,6.009z M12.767,6.477c0.252,0,1.782,1.71,1.782,1.98c0,0.09-0.108,0.198-0.432,0.486
			c-0.342,0.288-0.36,0.288-0.504,0.342c-0.09,0.036-0.09,0.036-0.126,0.036c-0.072,0-0.09-0.018-0.414-0.522
			c-0.288-0.45-0.594-0.846-1.17-1.44c-0.036-0.036-0.09-0.126-0.09-0.144c0.036-0.09,0.054-0.144,0.072-0.144
			c0.054-0.072,0.36-0.324,0.432-0.378c0.18-0.09,0.288-0.162,0.306-0.18c0.018-0.036,0.054-0.036,0.054-0.036h0.054H12.767z
			 M15.845,7.719c-0.27,0.198-0.432,0.306-0.522,0.306c-0.072,0-0.108-0.036-0.198-0.18c-0.54-0.811-0.81-1.152-1.386-1.711
			c-0.036-0.054-0.072-0.108-0.072-0.144c0-0.09,0.108-0.198,0.36-0.378c0.252-0.18,0.468-0.288,0.558-0.288
			c0.126,0,0.342,0.162,0.72,0.54c0.522,0.541,1.008,1.207,1.008,1.369C16.313,7.341,16.188,7.467,15.845,7.719z"/>
		<path fill="#FFFFFF" d="M25.454,5.307c-1.548,0.27-3.151,0.45-4.123,0.45c-0.288,0-0.414-0.054-0.45-0.216
			c-0.072-0.271-0.144-0.811-0.18-1.477c1.458,0,2.575-0.09,4.177-0.342c-0.09-0.27-0.09-0.27-0.324-0.936
			c-0.162-0.432-0.306-0.792-0.504-1.17c0.774-0.162,1.477-0.252,2.125-0.252c0.162,0,0.252,0.108,0.252,0.288
			c0,0.018,0,0.054,0,0.09c0,0.054,0,0.108,0,0.162c0,0.324,0.072,0.756,0.252,1.458c1.35-0.306,2.502-0.685,3.421-1.081
			c0.144-0.054,0.18-0.072,0.234-0.072c0.09,0,0.144,0.09,0.306,0.468c0.162,0.414,0.324,0.882,0.324,0.973
			c0,0.09-0.036,0.126-0.144,0.18c-1.062,0.45-1.548,0.612-3.637,1.135c0.252,0.63,0.324,0.792,0.63,1.44
			c0.99-0.271,1.477-0.433,1.836-0.612c1.692-0.846,1.692-0.846,1.692-0.846c0.036-0.018,0.054-0.036,0.054-0.036
			c0.018,0,0.054,0.018,0.072,0.018c0.072,0,0.145,0.108,0.306,0.45c0.216,0.432,0.396,0.918,0.396,1.026
			c0,0.126,0,0.126-0.378,0.324c-0.99,0.541-1.765,0.846-3.061,1.207c0.72,1.062,1.746,2.215,2.358,2.646
			c0.612,0.433,0.63,0.468,0.63,0.648c0,0.162-0.18,0.54-0.522,1.134c-0.306,0.522-0.45,0.667-0.648,0.667
			c-0.108,0-0.126,0-0.396-0.198c-0.918-0.702-2.773-1.188-4.556-1.188c-1.548,0-2.521,0.54-2.521,1.44
			c0,0.558,0.432,1.008,1.206,1.296c0.703,0.252,2.251,0.414,3.925,0.414c0.396,0,0.738-0.018,1.44-0.054
			c-0.324,0.468-0.486,0.792-0.702,1.548c-0.108,0.378-0.234,0.45-0.792,0.45c-1.927,0-3.637-0.216-4.79-0.63
			c-1.531-0.54-2.341-1.548-2.341-2.899c0-1.926,1.584-3.097,4.213-3.097c1.62,0,2.646,0.18,3.781,0.684
			c-1.009-0.954-1.549-1.603-2.071-2.449c-0.864,0.18-1.296,0.252-1.873,0.342C24.05,8.836,22.177,8.98,21.421,8.98
			c-0.576,0-0.594-0.018-0.756-1.71c0.396,0.018,0.702,0.018,0.882,0.018c1.152,0,3.349-0.234,4.556-0.486
			C25.886,6.351,25.652,5.829,25.454,5.307z"/>
		<path fill="#FFFFFF" d="M43.87,13.589c1.476,0,3.115-0.216,4.735-0.63c0.09-0.036,0.144-0.036,0.198-0.036
			c0.108,0,0.162,0.072,0.198,0.234c0.054,0.396,0.09,0.972,0.09,1.566c0,0.36-0.036,0.468-0.198,0.54
			c-0.541,0.288-2.971,0.558-5.06,0.558c-2.719,0-4.267-0.468-5.51-1.621c-0.594-0.558-1.188-1.53-1.188-1.926
			c0-0.27,0.162-0.396,1.639-1.225C39.422,12.833,40.917,13.589,43.87,13.589z M44.031,3.218c1.044,0,1.657-0.036,2.881-0.216
			c0.036,0,0.09,0,0.126,0c0.144,0,0.198,0.054,0.234,0.162c0.036,0.216,0.072,0.756,0.072,1.404c0,0.414-0.036,0.558-0.145,0.63
			c-0.144,0.09-1.71,0.198-2.917,0.198c-1.603,0-2.935-0.126-4.429-0.414c-1.026-0.198-1.081-0.234-1.081-0.882
			c0-0.396,0.036-1.099,0.09-1.585C40.431,2.984,42.141,3.218,44.031,3.218z M49.307,4.154c-0.09,0-0.144-0.036-0.198-0.144
			c-0.468-0.774-0.792-1.207-1.422-1.836c-0.054-0.054-0.072-0.09-0.072-0.144c0-0.144,0.72-0.72,0.918-0.72
			c0.126,0,0.342,0.162,0.792,0.648c0.576,0.612,1.008,1.188,1.008,1.333C50.333,3.488,49.541,4.154,49.307,4.154z M51.162,0.77
			c0.558,0.594,0.954,1.134,0.954,1.296c0,0.108-0.054,0.162-0.342,0.396c-0.36,0.27-0.558,0.396-0.667,0.396
			c-0.054,0-0.108-0.054-0.18-0.18c-0.541-0.792-0.847-1.17-1.387-1.71c-0.054-0.036-0.09-0.108-0.09-0.144
			c0-0.162,0.702-0.666,0.936-0.666C50.514,0.157,50.784,0.355,51.162,0.77z"/>
		<path fill="#FFFFFF" d="M57.566,7.089c-0.234-0.792-0.306-1.278-0.522-3.493C56.972,2.732,56.9,2.3,56.72,1.688
			c1.099,0.018,1.801,0.072,2.287,0.198c0.27,0.072,0.396,0.198,0.396,0.396c0,0.072-0.018,0.162-0.054,0.306
			c-0.126,0.432-0.18,0.756-0.18,1.225c0,0.882,0.18,2.322,0.378,2.953c0.108,0.342,0.216,0.468,0.414,0.468
			c0.432,0,2.017-0.828,2.881-1.495c0.234-0.18,0.27-0.198,0.36-0.198c0.162,0,0.324,0.126,0.594,0.468
			c0.45,0.612,0.811,1.278,0.811,1.531c0,0.198-0.126,0.324-0.432,0.414c-1.117,0.306-2.953,1.026-4.195,1.621
			c-2.197,1.08-3.187,2.07-3.187,3.187c0,1.099,0.918,1.549,3.241,1.549c1.35,0,2.575-0.126,4.231-0.396
			c0.072-0.018,0.198-0.036,0.234-0.036c0.145,0,0.234,0.072,0.306,0.216c0.054,0.18,0.18,1.278,0.18,1.71
			c0,0.252-0.072,0.342-0.306,0.414c-0.396,0.09-2.575,0.216-3.943,0.216c-2.305,0-3.835-0.306-4.79-0.955
			c-0.81-0.558-1.243-1.44-1.243-2.521c0-0.828,0.234-1.566,0.721-2.287c0.63-0.937,1.314-1.531,2.827-2.431
			C57.872,7.899,57.729,7.647,57.566,7.089z"/>
		<path fill="#FFFFFF" d="M75.855,12.617c-0.864,1.495-2.053,2.323-3.277,2.323c-1.872,0-3.205-1.836-3.205-4.393
			c0-2.845,1.44-5.293,3.907-6.59c1.206-0.648,2.502-0.936,4.213-0.936c3.763,0,6.554,2.665,6.554,6.23
			c0,3.151-1.548,5.419-4.538,6.698c-0.594,0.252-1.062,0.396-1.296,0.396c-0.216,0-0.306-0.072-0.54-0.414
			c-0.306-0.468-0.648-0.81-1.134-1.134c3.709-0.954,5.384-2.701,5.384-5.618c0-1.494-0.63-2.755-1.747-3.547
			c-0.63-0.432-1.134-0.612-2.125-0.774C77.548,8.656,76.954,10.727,75.855,12.617z M73.263,6.243
			c-1.207,1.062-1.891,2.575-1.891,4.267c0,1.386,0.45,2.197,1.206,2.197c0.9,0,1.819-1.243,2.503-3.385
			c0.432-1.35,0.648-2.376,0.918-4.375C74.721,5.217,74.091,5.523,73.263,6.243z"/>
		<path fill="#FFFFFF" d="M88.958,7.755c-0.144,0.036-0.216,0.072-0.324,0.126c-0.09,0.054-0.144,0.072-0.234,0.072
			c-0.378,0-0.667-0.702-0.882-2.035c0.144,0.018,0.27,0.018,0.342,0.018c0.756,0,2.683-0.234,3.835-0.468
			c0.378-1.584,0.576-2.773,0.576-3.637c0-0.072,0-0.162-0.018-0.306c0.774,0.09,1.512,0.252,2.017,0.45
			c0.288,0.108,0.432,0.27,0.432,0.45c0,0.09-0.018,0.144-0.108,0.288c-0.27,0.486-0.27,0.486-0.829,2.467
			c0.432-0.054,0.918-0.09,1.225-0.09c0.738,0,1.314,0.144,1.729,0.432c0.72,0.522,1.08,1.584,1.08,3.223
			c0,2.683-0.486,4.97-1.314,6.104c-0.576,0.792-1.332,1.17-2.395,1.17c-0.648,0-1.26-0.09-1.44-0.198
			c-0.144-0.09-0.144-0.09-0.198-0.756c-0.054-0.486-0.162-0.9-0.378-1.404c0.937,0.306,1.17,0.36,1.747,0.36
			c0.864,0,1.224-0.414,1.621-1.854c0.27-0.955,0.414-2.197,0.414-3.511c0-1.404-0.342-1.909-1.296-1.909
			c-0.324,0-0.846,0.036-1.26,0.108c-0.054,0.198-0.072,0.216-0.144,0.468c-0.504,1.836-1.422,4.268-2.341,6.212
			c-0.955,1.962-1.188,2.359-1.422,2.359c-0.144,0-0.63-0.252-1.152-0.594c-0.414-0.252-0.522-0.36-0.522-0.504
			c0-0.09,0-0.09,0.738-1.26c0.99-1.53,2.287-4.537,2.737-6.302C89.858,7.521,89.121,7.701,88.958,7.755z M98.141,5.739
			c0-0.126,0.162-0.288,0.684-0.702c0.36-0.27,0.54-0.378,0.667-0.378c0.108,0,0.198,0.054,0.432,0.288
			c1.062,1.026,2.052,2.395,2.628,3.583c0.18,0.396,0.288,0.648,0.288,0.756c0,0.18-0.054,0.234-0.63,0.702
			c-0.36,0.288-0.774,0.522-0.918,0.522c-0.126,0-0.18-0.054-0.306-0.36c-0.36-0.882-0.702-1.567-1.134-2.233
			c-0.468-0.72-0.558-0.828-1.621-1.962C98.159,5.847,98.141,5.793,98.141,5.739z"/>
		<path fill="#FFFFFF" d="M106.167,6.855c-0.036,0-0.072,0-0.108,0c-0.09,0.018-0.162,0.018-0.198,0.018
			c-0.162,0-0.252-0.072-0.306-0.306c-0.108-0.45-0.18-1.008-0.216-1.692c0.252,0.018,0.45,0.018,0.576,0.018
			c0.972,0,2.106-0.072,3.061-0.198c0.18-1.188,0.27-2.106,0.27-2.845c0-0.09,0-0.234,0-0.414c2.088,0.27,2.484,0.396,2.466,0.72
			c0,0.09-0.036,0.144-0.108,0.306c-0.216,0.414-0.234,0.468-0.522,1.891c0.702-0.126,1.603-0.36,1.962-0.486
			c0.072-0.036,0.09-0.036,0.144-0.036c0.162,0,0.198,0.072,0.342,0.702c0.072,0.36,0.144,0.864,0.144,1.009
			c0,0.126-0.054,0.198-0.216,0.234c-0.324,0.108-0.324,0.108-2.791,0.54c-0.828,3.655-1.692,6.356-3.079,9.597
			c-0.09,0.234-0.18,0.324-0.288,0.324c-0.234,0-0.864-0.252-1.477-0.594c-0.306-0.162-0.396-0.252-0.396-0.342
			c0-0.072,0.054-0.198,0.144-0.378c1.369-2.593,2.359-5.347,3.043-8.318C107.823,6.711,107.265,6.765,106.167,6.855z
			 M113.855,13.697c0.522,0.342,1.278,0.504,2.34,0.504c1.17,0,2.179-0.108,2.755-0.288c0.144-0.036,0.18-0.054,0.252-0.054
			c0.162,0,0.234,0.054,0.288,0.216c0.126,0.378,0.216,1.116,0.216,1.675c0,0.234-0.072,0.324-0.306,0.378
			c-0.594,0.126-1.603,0.198-2.665,0.198c-2.251,0-3.511-0.36-4.339-1.225c-0.306-0.324-0.558-0.738-0.702-1.188
			c-0.108-0.252-0.18-0.558-0.18-0.666c0-0.306,0.54-0.63,1.477-0.937C113.188,13.067,113.405,13.391,113.855,13.697z
			 M118.914,8.458c-0.36-0.054-1.116-0.09-1.746-0.09c-1.333,0-1.891,0.054-3.475,0.324c-0.036,0.018-0.09,0.018-0.126,0.018
			c-0.108,0-0.162-0.036-0.198-0.145c-0.054-0.126-0.126-1.008-0.126-1.386c0-0.234,0.036-0.342,0.18-0.396
			c0.072-0.036,0.18-0.054,0.558-0.126c1.224-0.216,2.25-0.306,3.511-0.306c1.044,0,1.584,0.036,1.71,0.126
			c0.09,0.072,0.108,0.216,0.108,0.81c0,0.522-0.036,0.99-0.072,1.099c-0.018,0.054-0.09,0.09-0.18,0.09
			C119.022,8.476,118.968,8.476,118.914,8.458z"/>
		<path fill="#FFFFFF" d="M124.706,6.315c-0.972,0-1.008,0-1.116-0.216c-0.108-0.18-0.234-0.937-0.288-1.729
			c0.667,0.072,1.314,0.108,2.179,0.108c0.522,0,1.225-0.018,1.963-0.072c0.144-1.08,0.18-1.458,0.18-2.125
			c0-0.306-0.018-0.54-0.054-0.954c0.882,0.054,1.891,0.216,2.287,0.36c0.144,0.054,0.198,0.108,0.198,0.252
			c0,0.108-0.018,0.18-0.126,0.396c-0.162,0.36-0.234,0.648-0.342,1.224c-0.054,0.342-0.072,0.414-0.108,0.648
			c1.477-0.18,2.953-0.504,3.979-0.9c0.144-0.036,0.216-0.054,0.288-0.054c0.126,0,0.18,0.09,0.252,0.45
			c0.072,0.396,0.162,1.116,0.162,1.314c0,0.216-0.072,0.252-0.612,0.378c-1.422,0.288-3.205,0.559-4.447,0.667
			c-0.54,2.161-0.792,2.863-1.44,4.069c1.008-0.792,1.548-1.099,2.413-1.405c0.774-0.288,1.531-0.414,2.341-0.414
			c1.314,0,2.376,0.36,3.061,1.044c0.63,0.63,0.99,1.566,0.99,2.539c0,1.333-0.63,2.413-1.98,3.313
			c-0.99,0.685-2.629,1.261-4.268,1.477c-0.288,0.036-0.576,0.072-0.684,0.072c-0.27,0-0.396-0.09-0.522-0.306
			c-0.342-0.648-0.63-1.026-1.099-1.477c1.675-0.072,2.953-0.306,4.25-0.774c1.368-0.486,2.161-1.314,2.161-2.269
			c0-1.224-0.738-1.962-1.963-1.962c-2.034,0-4.303,1.26-5.762,3.187c-0.108,0.126-0.216,0.198-0.324,0.198
			c-0.324,0-1.567-1.134-1.567-1.422c0-0.09,0.018-0.126,0.198-0.36c0.954-1.296,1.692-3.115,2.215-5.348
			C126.813,6.243,124.904,6.315,124.706,6.315z"/>
		<path fill="#FFFFFF" d="M155.364,12.257c-0.54,0.468-0.54,0.468-1.314,1.152c-0.288,0.27-0.414,0.36-0.846,0.666
			c1.134,0.594,1.962,0.864,3.691,1.207c-0.558,0.612-0.774,0.972-1.098,1.765c-2.359-0.703-3.709-1.387-5.167-2.647v1.296
			c-1.404,0.342-2.863,0.63-6.14,1.207c-0.288,0.054-0.378,0.072-0.684,0.126l-0.288-1.98c0.162,0.018,0.234,0.018,0.306,0.018
			c0.396,0,0.936-0.036,1.765-0.144v-3.385h-1.783c-0.288,2.323-0.792,3.871-1.782,5.582c-0.504-0.63-0.882-1.026-1.549-1.566
			c0.667-1.026,1.026-1.98,1.296-3.331c0.36-1.747,0.541-4.429,0.541-8.103c0-1.332-0.018-1.926-0.09-2.61
			c0.594,0.072,1.278,0.09,2.269,0.09h9.399c0.937,0,1.495-0.018,1.999-0.072c-0.036,0.486-0.054,0.864-0.054,1.531v1.35
			c0,0.72,0.018,1.026,0.054,1.513c-0.522-0.036-1.188-0.054-1.891-0.054h-1.026v1.152h1.026c0.991,0,1.261-0.018,1.675-0.072v1.71
			c-0.504-0.036-1.062-0.054-1.71-0.054h-0.99v1.351h1.53c0.954,0,1.494-0.018,1.944-0.09v1.764c-0.576-0.054-1.17-0.09-1.908-0.09
			h-0.774L155.364,12.257z M146.722,6.081V5.865h-2.593c-0.036,1.891-0.072,3.061-0.162,4.087h2.755V8.602h-0.648
			c-0.648,0-1.044,0.018-1.476,0.054v-1.71c0.378,0.054,0.81,0.072,1.476,0.072h0.648V6.081z M154.032,4.389V3.182h-9.903v1.207
			H154.032z M147.406,11.537v3.133c1.081-0.162,1.081-0.162,2.935-0.54c-0.846-0.846-1.261-1.44-1.765-2.593H147.406z
			 M151.187,7.017V5.865h-2.683v1.152H151.187z M151.187,9.952V8.602h-2.683v1.351H151.187z M150.467,11.537
			c0.306,0.63,0.666,1.062,1.351,1.621c0.684-0.504,1.278-1.081,1.692-1.621H150.467z"/>
	</g>
</g>
</svg>
