<?xml version="1.0" encoding="utf-8"?>
<!-- Generator: Adobe Illustrator 20.0.0, SVG Export Plug-In . SVG Version: 6.00 Build 0)  -->
<svg version="1.1" id="レイヤー_1" xmlns="http://www.w3.org/2000/svg" xmlns:xlink="http://www.w3.org/1999/xlink" x="0px"
	 y="0px" width="270.6px" height="95.8px" viewBox="0 0 270.6 95.8" enable-background="new 0 0 270.6 95.8" xml:space="preserve">
<image display="none" overflow="visible" width="884" height="790" xlink:href="../../スクリーンショット 2017-01-11 0.44.08.png"  transform="matrix(1 0 0 1 -301.833 -327.7607)">
</image>
<circle display="none" fill="#FFFFFF" cx="132.3" cy="67.1" r="184.7"/>
<g id="memo">
</g>
<g>
	<g id="header_x5F_text">
		<g>
			<path fill="#3F382E" d="M451.5-322.6c-0.7,1-1.5,1.9-2.5,2.6c0,0.1,0,0.4,0,0.7c0,1.7-0.3,3.4-1,5c-0.6,1.6-1.5,3.2-2.7,4.5
				c-1.2,1.4-2.7,2.5-4.5,3.4s-3.9,1.3-6.1,1.3c-2.7,0-5.3-0.8-7.7-2.3c0.8,0.1,1.2,0.1,1.2,0.1c2.3,0,4.3-0.7,6.2-2.2
				c-1.1,0-2-0.4-2.9-1c-0.9-0.6-1.4-1.5-1.8-2.5c0.3,0.1,0.6,0.1,1,0.1c0.5,0,0.9-0.1,1.3-0.2c-1.2-0.2-2.1-0.8-2.9-1.7
				s-1.1-1.9-1.1-3.2v-0.1c0.7,0.4,1.5,0.6,2.3,0.6c-1.5-1-2.2-2.4-2.2-4.2c0-0.9,0.2-1.7,0.7-2.5c1.3,1.5,2.8,2.8,4.6,3.7
				s3.7,1.4,5.7,1.5c-0.1-0.5-0.1-0.8-0.1-1.1c0-1.4,0.5-2.6,1.5-3.5c1-1,2.1-1.5,3.5-1.5c1.4,0,2.7,0.5,3.7,1.6
				c1.1-0.2,2.1-0.6,3.1-1.2c-0.4,1.2-1.1,2.2-2.2,2.8C449.6-321.9,450.6-322.2,451.5-322.6z"/>
		</g>
	</g>
	<g id="header_x5F_text_1_">
		<g>
			<path fill="#3F382E" d="M524.1-316.3c-0.4-1.1-1.1-2.1-2.2-2.8c-1-0.7-2.1-1.1-3.4-1.1c-1.2,0-2.4,0.4-3.4,1.1
				c-1,0.7-1.7,1.6-2.2,2.8h-5.2v-6.6c0-0.6,0.2-1.1,0.6-1.5c0.4-0.4,0.9-0.6,1.5-0.6h17.2c0.6,0,1.1,0.2,1.5,0.6
				c0.4,0.4,0.6,0.9,0.6,1.5v6.6H524.1z M529.4-305.6c0,0.6-0.2,1.1-0.6,1.5s-0.9,0.6-1.5,0.6H510c-0.6,0-1.1-0.2-1.5-0.6
				c-0.4-0.4-0.6-0.9-0.6-1.5v-8.8h4.8v0.2c0,1.6,0.6,3,1.7,4.2c1.2,1.2,2.6,1.7,4.2,1.7c1.6,0,3-0.6,4.2-1.7
				c1.2-1.2,1.7-2.6,1.7-4.2v-0.2h4.8V-305.6z M509.7-318.1h1.1v-4.9h-1.1V-318.1z M511.8-318.1h1.1v-4.9h-1.1V-318.1z M514-319.2
				c0.3-0.2,0.7-0.5,1.1-0.8v-3.1H514V-319.2z M514.5-314.2c0-1.1,0.4-2.1,1.2-2.9c0.8-0.8,1.7-1.2,2.9-1.2s2.1,0.4,2.9,1.2
				c0.8,0.8,1.2,1.7,1.2,2.9c0,1.1-0.4,2.1-1.2,2.9c-0.8,0.8-1.7,1.2-2.9,1.2s-2.1-0.4-2.9-1.2C514.9-312.1,514.5-313.1,514.5-314.2
				z M522.4-319.8c0.7,0.5,1.3,1.1,1.7,1.6h3.4v-4.9h-5.1L522.4-319.8L522.4-319.8z"/>
		</g>
	</g>
	<g id="header_x5F_text_2_">
		<g>
			<path fill="#3F382E" d="M470.3-325H489c0.3,0,0.6,0.1,0.8,0.4c0.2,0.2,0.4,0.5,0.4,0.8v18.7c0,0.3-0.1,0.6-0.4,0.8
				c-0.2,0.2-0.5,0.4-0.8,0.4h-18.7c-0.3,0-0.6-0.1-0.8-0.4c-0.2-0.2-0.4-0.5-0.4-0.8v-18.7c0-0.3,0.1-0.6,0.4-0.8
				S470-325,470.3-325z M484.1-313.1h2.9l0.1-2.8h-3v-1.9v-0.1c0-0.4,0.1-0.8,0.2-1c0.2-0.2,0.5-0.3,0.9-0.3h1.8l0.1-2.6
				c-0.5-0.1-1.2-0.1-1.9-0.1c-1.3,0-2.3,0.3-3,1c-0.7,0.7-1,1.6-1,2.6v2.4h-2.1v2.8h2.1v7.7h2.9V-313.1z"/>
		</g>
	</g>
</g>
<g id="memo_1_">
</g>
<g>
	<g>
		<path fill="#444344" d="M4.1,8.5C3.4,8.6,3.2,8.7,2.2,9C1.9,9.2,1.7,9.2,1.6,9.2C1,9.2,0.5,8.1,0,5.9c1.7-0.1,2.3-0.2,5.1-0.6
			c3.1-0.5,7.1-1.1,9.2-1.3c2.3-0.3,4.2-0.6,5.2-0.8c0.2-0.1,0.3-0.1,0.4-0.1c0.3,0,0.5,0.2,0.7,0.8C20.8,4.4,21,5.2,21,5.6
			C21,5.9,20.9,6,20.5,6c-0.5,0-1,0.1-1.5,0.1c-4.4,0.7-7.9,4.6-7.9,8.6c0,3,2.4,5,6.4,5.4c0.4,0,0.5,0.2,0.5,0.5
			c0,0.6-0.3,1.9-0.5,2.5c-0.1,0.3-0.3,0.4-0.7,0.4c-0.3,0-1.1-0.2-1.9-0.4c-4.4-1.3-6.7-4.1-6.7-8.1c0-2.2,0.7-4.2,2.1-5.9
			c0.7-0.9,1.4-1.5,2.8-2.5C9.6,7.3,6.1,8,4.1,8.5z M17.4,9.1c0.4,0,2.6,2.5,2.6,2.9c0,0.1-0.2,0.3-0.6,0.7
			c-0.5,0.4-0.5,0.4-0.7,0.5c-0.1,0.1-0.1,0.1-0.2,0.1c-0.1,0-0.1,0-0.6-0.8c-0.4-0.6-0.9-1.2-1.7-2.1c-0.1-0.1-0.1-0.2-0.1-0.2
			c0.1-0.1,0.1-0.2,0.1-0.2c0.1-0.1,0.5-0.5,0.6-0.5c0.3-0.1,0.4-0.2,0.4-0.3c0-0.1,0.1-0.1,0.1-0.1H17.4L17.4,9.1z M21.8,10.9
			c-0.4,0.3-0.6,0.4-0.8,0.4c-0.1,0-0.2-0.1-0.3-0.3c-0.8-1.2-1.2-1.7-2-2.5c-0.1-0.1-0.1-0.2-0.1-0.2c0-0.1,0.2-0.3,0.5-0.5
			c0.4-0.3,0.7-0.4,0.8-0.4c0.2,0,0.5,0.2,1,0.8c0.8,0.8,1.5,1.7,1.5,2C22.5,10.4,22.3,10.6,21.8,10.9z"/>
		<path fill="#444344" d="M41.2,7.4c-2.2,0.4-4.5,0.6-6,0.6c-0.4,0-0.6-0.1-0.6-0.3c-0.1-0.4-0.2-1.2-0.3-2.1c2.1,0,3.7-0.1,6-0.5
			c-0.1-0.4-0.1-0.4-0.5-1.4c-0.2-0.6-0.4-1.1-0.7-1.7c1.1-0.2,2.1-0.4,3.1-0.4c0.2,0,0.4,0.2,0.4,0.4c0,0,0,0.1,0,0.1
			c0,0.1,0,0.2,0,0.2c0,0.5,0.1,1.1,0.4,2.1c1.9-0.4,3.6-1,4.9-1.6C48.1,3,48.2,3,48.2,3c0.1,0,0.2,0.1,0.4,0.7
			c0.2,0.6,0.5,1.3,0.5,1.4s-0.1,0.2-0.2,0.3c-1.5,0.7-2.2,0.9-5.3,1.6C44,7.9,44.1,8.1,44.6,9c1.4-0.4,2.1-0.6,2.7-0.9
			c2.4-1.2,2.4-1.2,2.4-1.2c0.1,0,0.1-0.1,0.1-0.1c0,0,0.1,0,0.1,0c0.1,0,0.2,0.2,0.4,0.7c0.3,0.6,0.6,1.3,0.6,1.5
			c0,0.2,0,0.2-0.5,0.5c-1.4,0.8-2.5,1.2-4.4,1.7c1,1.5,2.5,3.2,3.4,3.8c0.9,0.6,0.9,0.7,0.9,0.9c0,0.2-0.3,0.8-0.8,1.6
			c-0.4,0.8-0.6,1-0.9,1c-0.2,0-0.2,0-0.6-0.3c-1.3-1-4-1.7-6.6-1.7c-2.2,0-3.6,0.8-3.6,2.1c0,0.8,0.6,1.5,1.7,1.9
			c1,0.4,3.3,0.6,5.7,0.6c0.6,0,1.1,0,2.1-0.1c-0.5,0.7-0.7,1.1-1,2.2c-0.2,0.5-0.3,0.6-1.1,0.6c-2.8,0-5.3-0.3-6.9-0.9
			c-2.2-0.8-3.4-2.2-3.4-4.2c0-2.8,2.3-4.5,6.1-4.5c2.3,0,3.8,0.3,5.5,1c-1.5-1.4-2.2-2.3-3-3.5c-1.2,0.3-1.9,0.4-2.7,0.5
			c-1.5,0.2-4.2,0.4-5.3,0.4c-0.8,0-0.9,0-1.1-2.5c0.6,0,1,0,1.3,0c1.7,0,4.8-0.3,6.6-0.7C41.8,8.9,41.5,8.2,41.2,7.4z"/>
		<path fill="#444344" d="M72.7,19.4c2.1,0,4.5-0.3,6.8-0.9c0.1-0.1,0.2-0.1,0.3-0.1c0.2,0,0.2,0.1,0.3,0.3c0.1,0.6,0.1,1.4,0.1,2.3
			c0,0.5-0.1,0.7-0.3,0.8c-0.8,0.4-4.3,0.8-7.3,0.8c-3.9,0-6.2-0.7-8-2.3c-0.9-0.8-1.7-2.2-1.7-2.8c0-0.4,0.2-0.6,2.4-1.8
			C66.3,18.3,68.5,19.4,72.7,19.4z M73,4.4c1.5,0,2.4-0.1,4.2-0.3c0.1,0,0.1,0,0.2,0c0.2,0,0.3,0.1,0.3,0.2c0.1,0.3,0.1,1.1,0.1,2
			c0,0.6-0.1,0.8-0.2,0.9c-0.2,0.1-2.5,0.3-4.2,0.3C71,7.6,69.1,7.4,67,7c-1.5-0.3-1.6-0.3-1.6-1.3c0-0.6,0.1-1.6,0.1-2.3
			C67.8,4.1,70.3,4.4,73,4.4z M80.6,5.8c-0.1,0-0.2-0.1-0.3-0.2c-0.7-1.1-1.1-1.7-2.1-2.7c-0.1-0.1-0.1-0.1-0.1-0.2c0-0.2,1-1,1.3-1
			c0.2,0,0.5,0.2,1.1,0.9c0.8,0.9,1.5,1.7,1.5,1.9C82.1,4.8,80.9,5.8,80.6,5.8z M83.3,0.9c0.8,0.9,1.4,1.6,1.4,1.9
			c0,0.2-0.1,0.2-0.5,0.6c-0.5,0.4-0.8,0.6-1,0.6c-0.1,0-0.2-0.1-0.3-0.3c-0.8-1.1-1.2-1.7-2-2.5C80.9,1.1,80.8,1,80.8,1
			c0-0.2,1-1,1.4-1C82.3,0,82.7,0.3,83.3,0.9z"/>
		<path fill="#444344" d="M97.6,10c-0.3-1.1-0.4-1.8-0.8-5c-0.1-1.2-0.2-1.9-0.5-2.8c1.6,0,2.6,0.1,3.3,0.3c0.4,0.1,0.6,0.3,0.6,0.6
			c0,0.1,0,0.2-0.1,0.4c-0.2,0.6-0.3,1.1-0.3,1.8c0,1.3,0.3,3.4,0.5,4.3c0.2,0.5,0.3,0.7,0.6,0.7c0.6,0,2.9-1.2,4.2-2.2
			c0.3-0.3,0.4-0.3,0.5-0.3c0.2,0,0.5,0.2,0.9,0.7c0.7,0.9,1.2,1.8,1.2,2.2c0,0.3-0.2,0.5-0.6,0.6c-1.6,0.4-4.3,1.5-6.1,2.3
			c-3.2,1.6-4.6,3-4.6,4.6c0,1.6,1.3,2.2,4.7,2.2c2,0,3.7-0.2,6.1-0.6c0.1,0,0.3-0.1,0.3-0.1c0.2,0,0.3,0.1,0.4,0.3
			c0.1,0.3,0.3,1.8,0.3,2.5c0,0.4-0.1,0.5-0.4,0.6c-0.6,0.1-3.7,0.3-5.7,0.3c-3.3,0-5.5-0.4-6.9-1.4c-1.2-0.8-1.8-2.1-1.8-3.6
			c0-1.2,0.3-2.3,1-3.3c0.9-1.4,1.9-2.2,4.1-3.5C98.1,11.2,97.9,10.8,97.6,10z"/>
		<path fill="#444344" d="M130,18c-1.2,2.2-3,3.4-4.7,3.4c-2.7,0-4.6-2.7-4.6-6.3c0-4.1,2.1-7.6,5.6-9.5c1.7-0.9,3.6-1.4,6.1-1.4
			c5.4,0,9.5,3.8,9.5,9c0,4.6-2.2,7.8-6.6,9.7c-0.9,0.4-1.5,0.6-1.9,0.6c-0.3,0-0.4-0.1-0.8-0.6c-0.4-0.7-0.9-1.2-1.6-1.6
			c5.4-1.4,7.8-3.9,7.8-8.1c0-2.2-0.9-4-2.5-5.1c-0.9-0.6-1.6-0.9-3.1-1.1C132.4,12.3,131.6,15.3,130,18z M126.2,8.8
			c-1.7,1.5-2.7,3.7-2.7,6.2c0,2,0.6,3.2,1.7,3.2c1.3,0,2.6-1.8,3.6-4.9c0.6-2,0.9-3.4,1.3-6.3C128.3,7.3,127.4,7.7,126.2,8.8z"/>
		<path fill="#444344" d="M155.9,11c-0.2,0.1-0.3,0.1-0.5,0.2c-0.1,0.1-0.2,0.1-0.3,0.1c-0.5,0-1-1-1.3-2.9c0.2,0,0.4,0,0.5,0
			c1.1,0,3.9-0.3,5.5-0.7c0.5-2.3,0.8-4,0.8-5.3c0-0.1,0-0.2,0-0.4c1.1,0.1,2.2,0.4,2.9,0.7c0.4,0.2,0.6,0.4,0.6,0.6
			c0,0.1,0,0.2-0.2,0.4c-0.4,0.7-0.4,0.7-1.2,3.6c0.6-0.1,1.3-0.1,1.8-0.1c1.1,0,1.9,0.2,2.5,0.6c1,0.8,1.6,2.3,1.6,4.7
			c0,3.9-0.7,7.2-1.9,8.8c-0.8,1.1-1.9,1.7-3.5,1.7c-0.9,0-1.8-0.1-2.1-0.3c-0.2-0.1-0.2-0.1-0.3-1.1c-0.1-0.7-0.2-1.3-0.5-2
			c1.4,0.4,1.7,0.5,2.5,0.5c1.2,0,1.8-0.6,2.3-2.7c0.4-1.4,0.6-3.2,0.6-5.1c0-2-0.5-2.8-1.9-2.8c-0.5,0-1.2,0.1-1.8,0.2
			c-0.1,0.3-0.1,0.3-0.2,0.7c-0.7,2.7-2.1,6.2-3.4,9c-1.4,2.8-1.7,3.4-2.1,3.4c-0.2,0-0.9-0.4-1.7-0.9c-0.6-0.4-0.8-0.5-0.8-0.7
			c0-0.1,0-0.1,1.1-1.8c1.4-2.2,3.3-6.6,4-9.1C157.2,10.6,156.1,10.9,155.9,11z M169.2,8.1c0-0.2,0.2-0.4,1-1c0.5-0.4,0.8-0.5,1-0.5
			c0.2,0,0.3,0.1,0.6,0.4c1.5,1.5,3,3.5,3.8,5.2c0.3,0.6,0.4,0.9,0.4,1.1c0,0.3-0.1,0.3-0.9,1c-0.5,0.4-1.1,0.8-1.3,0.8
			c-0.2,0-0.3-0.1-0.4-0.5c-0.5-1.3-1-2.3-1.6-3.2c-0.7-1-0.8-1.2-2.3-2.8C169.2,8.2,169.2,8.1,169.2,8.1z"/>
		<path fill="#444344" d="M187.2,9.7c-0.1,0-0.1,0-0.2,0c-0.1,0-0.2,0-0.3,0c-0.2,0-0.4-0.1-0.4-0.4c-0.2-0.6-0.3-1.5-0.3-2.4
			c0.4,0,0.7,0,0.8,0c1.4,0,3-0.1,4.4-0.3c0.3-1.7,0.4-3,0.4-4.1c0-0.1,0-0.3,0-0.6c3,0.4,3.6,0.6,3.6,1c0,0.1-0.1,0.2-0.2,0.4
			c-0.3,0.6-0.3,0.7-0.8,2.7c1-0.2,2.3-0.5,2.8-0.7c0.1-0.1,0.1-0.1,0.2-0.1c0.2,0,0.3,0.1,0.5,1c0.1,0.5,0.2,1.2,0.2,1.5
			c0,0.2-0.1,0.3-0.3,0.3c-0.5,0.2-0.5,0.2-4,0.8c-1.2,5.3-2.4,9.2-4.4,13.9c-0.1,0.3-0.3,0.5-0.4,0.5c-0.3,0-1.2-0.4-2.1-0.9
			c-0.4-0.2-0.6-0.4-0.6-0.5c0-0.1,0.1-0.3,0.2-0.5c2-3.7,3.4-7.7,4.4-12C189.6,9.5,188.8,9.5,187.2,9.7z M198.3,19.6
			c0.8,0.5,1.8,0.7,3.4,0.7c1.7,0,3.1-0.2,4-0.4c0.2-0.1,0.3-0.1,0.4-0.1c0.2,0,0.3,0.1,0.4,0.3c0.2,0.5,0.3,1.6,0.3,2.4
			c0,0.3-0.1,0.5-0.4,0.5c-0.9,0.2-2.3,0.3-3.8,0.3c-3.2,0-5.1-0.5-6.3-1.8c-0.4-0.5-0.8-1.1-1-1.7c-0.2-0.4-0.3-0.8-0.3-1
			c0-0.4,0.8-0.9,2.1-1.4C197.3,18.6,197.6,19.1,198.3,19.6z M205.6,12c-0.5-0.1-1.6-0.1-2.5-0.1c-1.9,0-2.7,0.1-5,0.5
			c-0.1,0-0.1,0-0.2,0c-0.2,0-0.2-0.1-0.3-0.2c-0.1-0.2-0.2-1.5-0.2-2c0-0.3,0.1-0.5,0.3-0.6c0.1-0.1,0.3-0.1,0.8-0.2
			c1.8-0.3,3.2-0.4,5.1-0.4c1.5,0,2.3,0.1,2.5,0.2c0.1,0.1,0.2,0.3,0.2,1.2c0,0.8-0.1,1.4-0.1,1.6c0,0.1-0.1,0.1-0.3,0.1
			C205.7,12,205.7,12,205.6,12z"/>
		<path fill="#444344" d="M219.3,8.9c-1.4,0-1.5,0-1.6-0.3c-0.2-0.3-0.3-1.4-0.4-2.5c1,0.1,1.9,0.2,3.1,0.2c0.8,0,1.8,0,2.8-0.1
			c0.2-1.6,0.3-2.1,0.3-3.1c0-0.4,0-0.8-0.1-1.4c1.3,0.1,2.7,0.3,3.3,0.5c0.2,0.1,0.3,0.2,0.3,0.4c0,0.2,0,0.3-0.2,0.6
			c-0.2,0.5-0.3,0.9-0.5,1.8c-0.1,0.5-0.1,0.6-0.2,0.9c2.1-0.3,4.3-0.7,5.7-1.3c0.2-0.1,0.3-0.1,0.4-0.1c0.2,0,0.3,0.1,0.4,0.7
			c0.1,0.6,0.2,1.6,0.2,1.9c0,0.3-0.1,0.4-0.9,0.5c-2.1,0.4-4.6,0.8-6.4,1c-0.8,3.1-1.1,4.1-2.1,5.9c1.5-1.1,2.2-1.6,3.5-2
			c1.1-0.4,2.2-0.6,3.4-0.6c1.9,0,3.4,0.5,4.4,1.5c0.9,0.9,1.4,2.3,1.4,3.7c0,1.9-0.9,3.5-2.9,4.8c-1.4,1-3.8,1.8-6.2,2.1
			c-0.4,0.1-0.8,0.1-1,0.1c-0.4,0-0.6-0.1-0.8-0.4c-0.5-0.9-0.9-1.5-1.6-2.1c2.4-0.1,4.3-0.4,6.1-1.1c2-0.7,3.1-1.9,3.1-3.3
			c0-1.8-1.1-2.8-2.8-2.8c-2.9,0-6.2,1.8-8.3,4.6c-0.2,0.2-0.3,0.3-0.5,0.3c-0.5,0-2.3-1.6-2.3-2.1c0-0.1,0-0.2,0.3-0.5
			c1.4-1.9,2.4-4.5,3.2-7.7C222.4,8.8,219.6,8.9,219.3,8.9z"/>
		<path fill="#444344" d="M268.4,17.5c-0.8,0.7-0.8,0.7-1.9,1.7c-0.4,0.4-0.6,0.5-1.2,1c1.6,0.9,2.8,1.2,5.3,1.7
			c-0.8,0.9-1.1,1.4-1.6,2.5c-3.4-1-5.4-2-7.5-3.8v1.9c-2,0.5-4.1,0.9-8.9,1.7c-0.4,0.1-0.5,0.1-1,0.2l-0.4-2.9c0.2,0,0.3,0,0.4,0
			c0.6,0,1.4-0.1,2.5-0.2v-4.9h-2.6c-0.4,3.4-1.1,5.6-2.6,8.1c-0.7-0.9-1.3-1.5-2.2-2.3c1-1.5,1.5-2.9,1.9-4.8
			c0.5-2.5,0.8-6.4,0.8-11.7c0-1.9,0-2.8-0.1-3.8c0.9,0.1,1.8,0.1,3.3,0.1h13.6c1.4,0,2.2,0,2.9-0.1c-0.1,0.7-0.1,1.2-0.1,2.2v2
			c0,1,0,1.5,0.1,2.2c-0.8-0.1-1.7-0.1-2.7-0.1h-1.5v1.7h1.5c1.4,0,1.8,0,2.4-0.1v2.5c-0.7-0.1-1.5-0.1-2.5-0.1h-1.4v1.9h2.2
			c1.4,0,2.2,0,2.8-0.1v2.5c-0.8-0.1-1.7-0.1-2.8-0.1h-1.1L268.4,17.5z M255.9,8.6V8.2h-3.7c-0.1,2.7-0.1,4.4-0.2,5.9h4v-1.9H255
			c-0.9,0-1.5,0-2.1,0.1V9.8c0.5,0.1,1.2,0.1,2.1,0.1h0.9V8.6z M266.4,6.1V4.4h-14.3v1.7H266.4z M256.9,16.4V21
			c1.6-0.2,1.6-0.2,4.2-0.8c-1.2-1.2-1.8-2.1-2.5-3.7H256.9z M262.3,9.9V8.2h-3.9v1.7H262.3z M262.3,14.1v-1.9h-3.9v1.9H262.3z
			 M261.3,16.4c0.4,0.9,1,1.5,1.9,2.3c1-0.7,1.8-1.6,2.4-2.3H261.3z"/>
	</g>
	<g>
		<path fill="#444344" d="M12.8,87.6c-0.1,0.2-0.1,0.2-0.2,0.5c-1,3-2.4,5.6-4.3,7.4c-0.3-0.3-0.6-0.5-1-0.8
			c1.6-1.4,2.9-3.4,3.7-5.6c0.3-0.8,0.5-1.5,0.6-2L12.8,87.6z M14,82.7c0-0.7,0-1.1-0.1-1.6h1.4c-0.1,0.5-0.1,0.9-0.1,1.6v1.5H20
			c0.8,0,1.3,0,1.9-0.1v1.3c-0.6-0.1-0.7-0.1-0.8-0.1c0,0-0.5,0-1.1,0H9.4c-0.8,0-1.4,0-1.9,0.1v-1.3c0.6,0.1,1.2,0.1,1.9,0.1H14
			V82.7z M17.4,87.1c0.4,1.3,0.7,2,1.3,3.1c1,1.9,1.8,3,3.3,4.5c-0.4,0.2-0.7,0.5-1,0.8c-1.4-1.6-2.5-3.2-3.5-5.2
			c-0.3-0.7-0.6-1.4-0.9-2.2l-0.2-0.7L17.4,87.1z"/>
		<path fill="#444344" d="M29.1,84.8c-0.6,0-1.2,0-1.8,0.1v-1.2c0.6,0.1,1.1,0.1,1.8,0.1h4.6v-1.4c0-0.5,0-0.9-0.1-1.5h1.3
			c-0.1,0.5-0.1,1-0.1,1.5v1.4h4.8c0.8,0,1.3,0,1.8-0.1v1.2c-0.7-0.1-1.2-0.1-1.8-0.1h-4.4c1.8,3.3,4,5.6,6.7,7.1
			c-0.4,0.4-0.5,0.6-0.7,1.1c-1.3-0.9-2.3-1.7-3.4-2.9c-1.4-1.4-2.3-2.8-3.1-4.6c0.1,0.9,0.1,1.6,0.1,2.1v3.7h1.8
			c0.8,0,1.2,0,1.6-0.1v1.1c-0.5-0.1-0.9-0.1-1.6-0.1h-1.8v1.6c0,0.8,0,1.3,0.1,1.9h-1.3c0.1-0.6,0.1-1.2,0.1-1.9v-1.5h-1.6
			c-0.7,0-1.2,0-1.6,0.1v-1.1c0.4,0.1,0.8,0.1,1.6,0.1h1.6v-3.7c0-0.6,0-1.2,0.1-2.1c-0.7,1.8-1.6,3.1-3.1,4.7
			c-1,1.1-1.9,1.9-3.1,2.7c-0.3-0.4-0.4-0.6-0.8-1c1.4-0.8,2.6-1.9,3.8-3.3c1.2-1.4,1.9-2.4,2.7-3.9H29.1z"/>
		<path fill="#444344" d="M54.6,85.4c1,1.7,1.8,2.8,2.8,3.9c1.3,1.4,2.6,2.4,4.2,3.2c-0.4,0.4-0.5,0.6-0.8,1c-1-0.7-1.4-1-2.2-1.7
			c-1.3-1.2-1.8-1.7-2.7-2.9c-0.5-0.7-0.8-1.2-1.5-2.5c0.1,0.8,0.1,1.5,0.1,2.1v5.3c0,0.7,0,1.3,0.1,1.9h-1.3
			c0.1-0.5,0.1-1.1,0.1-1.9v-5.3c0-0.5,0-1.3,0.1-2c-0.9,1.8-1.7,3.1-3,4.4c-1,1-2,1.9-3.2,2.7c-0.2-0.4-0.5-0.7-0.8-1
			c1.5-0.9,3-2.2,4.1-3.5c1-1.1,1.6-2.1,2.6-3.7h-4.4c-0.7,0-1.2,0-1.8,0.1v-1.2c0.6,0.1,1.1,0.1,1.8,0.1h4.6v-1.8
			c0-0.6,0-1-0.1-1.5h1.3c-0.1,0.5-0.1,1-0.1,1.5v1.8h4.8c0.8,0,1.3,0,1.8-0.1v1.2c-0.6-0.1-1.2-0.1-1.8-0.1H54.6z"/>
		<path fill="#444344" d="M66.8,94.5h-1.4l4-12.6h1.7l4.1,12.6h-1.4l-1.3-4H68L66.8,94.5z M72.1,89.4l-0.9-3.1c0,0-0.3-1.1-0.9-3.2
			h-0.2c-0.3,1.1-0.6,2.4-0.9,3.2l-1,3.2H72.1z"/>
		<path fill="#444344" d="M78.3,85.5h1.4l2.1,3.4l2-3.4h1.4l-2.7,4.3l3,4.7H84l-2.3-3.8l-2.2,3.8h-1.4l2.9-4.7L78.3,85.5z"/>
		<path fill="#444344" d="M90.9,83.1c0,0.5-0.4,0.9-0.9,0.9s-0.9-0.4-0.9-0.9s0.4-0.9,0.9-0.9S90.9,82.6,90.9,83.1z M90.7,94.6h-1.3
			v-9.1h1.3V94.6z"/>
		<path fill="#444344" d="M100,87.6c-0.5-0.9-1.2-1.3-2.1-1.3c-1,0-1.6,0.5-1.6,1.3c0,0.5,0.2,0.9,0.7,1.2c0.3,0.2,0.4,0.2,1.9,0.7
			c0.9,0.3,1.3,0.6,1.7,0.9c0.4,0.4,0.7,1,0.7,1.6c0,1.6-1.2,2.7-3,2.7c-1.6,0-2.7-0.6-3.6-2l1.1-0.6c0.4,0.6,0.6,0.8,1,1.1
			c0.4,0.3,1,0.5,1.5,0.5c1.1,0,1.8-0.6,1.8-1.5c0-0.6-0.2-0.9-0.9-1.3c-0.3-0.2-0.4-0.2-1.9-0.7c-1.5-0.6-2.2-1.3-2.2-2.4
			c0-1.5,1.1-2.4,2.8-2.4c1.4,0,2.3,0.5,3.1,1.6L100,87.6z"/>
		<path fill="#444344" d="M112.4,85.6c0.1,0.3,0.3,1.3,0.6,3.1c2.7-0.5,4.1-0.8,4.7-1c0.3-0.1,0.4-0.1,0.4-0.1
			c0.1,0,0.2,0.1,0.2,0.2c0.1,0.3,0.2,0.6,0.2,0.8c0,0.1-0.1,0.2-0.2,0.2c0,0-0.1,0-0.1,0c0,0-0.1,0-0.1,0c-1.4,0.2-1.9,0.3-4.8,0.8
			c0.6,2.9,0.8,4,1,4.7c0.1,0.2,0.1,0.3,0.1,0.4c0,0.1-0.1,0.2-0.2,0.2c-0.3,0.1-0.7,0.2-0.9,0.2c-0.2,0-0.2,0-0.4-1
			c-0.1-0.5-0.3-1.7-0.8-4.3c-3.2,0.6-4.2,0.8-4.9,1c-0.4,0.1-0.4,0.1-0.5,0.1c-0.2,0-0.3-0.4-0.5-1.2c0.9-0.1,1.5-0.1,5.8-0.9
			c-0.1-0.3-0.1-0.3-0.6-3.1c-3.2,0.6-3.4,0.6-4.3,0.8c-0.1,0-0.1,0-0.1,0c-0.1,0-0.1,0-0.2-0.2c-0.1-0.3-0.2-0.6-0.3-1
			c1.2-0.1,1.4-0.1,4.7-0.7c-0.5-2.4-0.5-2.4-0.9-3.1c0.5-0.1,0.9-0.1,1.4-0.1c0.2,0,0.3,0.1,0.3,0.2c0,0,0,0,0,0.2
			c0,0.1,0,0.2,0,0.3c0,0.5,0,0.5,0.3,2.4c2.8-0.5,3.4-0.6,4.2-0.9c0.1,0,0.1,0,0.2,0c0.1,0,0.1,0.1,0.2,0.2
			c0.1,0.2,0.1,0.6,0.1,0.7c0,0.2,0,0.2-0.4,0.3c-0.2,0-1.1,0.2-2.7,0.5L112.4,85.6z M116.5,81.9c0,0,0.1-0.1,0.1-0.1
			c0.2-0.2,0.3-0.2,0.4-0.2c0.1,0,0.5,0.3,0.9,0.8c0.3,0.4,0.7,0.9,0.7,1c0,0.1-0.1,0.2-0.3,0.3c-0.2,0.2-0.4,0.3-0.4,0.3
			c-0.1,0-0.1,0-0.2-0.1c-0.4-0.7-0.8-1.2-1.3-1.7c-0.1-0.1-0.1-0.1-0.1-0.2S116.4,81.9,116.5,81.9z M118.5,80.6
			c0.3,0,1.6,1.5,1.6,1.8c0,0.1-0.1,0.1-0.4,0.4c-0.2,0.1-0.3,0.2-0.3,0.2c-0.1,0-0.1,0-0.1-0.1c-0.4-0.7-0.8-1.2-1.4-1.7
			c-0.1,0-0.1-0.1-0.1-0.1C117.8,80.9,118.3,80.6,118.5,80.6z"/>
		<path fill="#444344" d="M126.9,88.8c-1,0.2-1.6,0.4-2.2,0.7c-0.1,0-0.2,0.1-0.2,0.1c-0.2,0-0.4-0.4-0.6-1.2
			c0.9-0.1,1.3-0.2,3.2-0.6c-0.4-1.5-0.5-1.9-1-2.7c0.4-0.1,1.1-0.2,1.4-0.2c0.2,0,0.3,0.1,0.3,0.2c0,0,0,0.1,0,0.1
			c0,0.1,0,0.1,0,0.2c0,0.4,0.1,0.7,0.4,2.1l4.1-1c0.7-0.2,0.7-0.2,0.9-0.3c0.1-0.1,0.2-0.1,0.2-0.1c0.3,0,1.1,0.7,1.1,1
			c0,0.1,0,0.1-0.1,0.2c-0.2,0.2-0.3,0.3-0.8,1.1c-0.3,0.6-1.3,1.6-1.8,2.1c-0.2,0.2-0.3,0.2-0.4,0.2c-0.1,0-0.1,0-0.3-0.2
			c-0.2-0.1-0.4-0.3-0.7-0.3c1-0.8,1.8-1.6,2.5-2.8c-1.2,0.3-2.7,0.6-4.6,1.1c1,3.8,1.3,5.1,1.6,6.1c0,0.1,0.1,0.2,0.1,0.2
			c0,0.1,0,0.2-0.2,0.2c-0.2,0.1-0.6,0.2-0.8,0.2c-0.1,0-0.2-0.1-0.2-0.2c-0.1-0.7-0.4-1.8-1.6-6.2L126.9,88.8z"/>
		<path fill="#444344" d="M148.6,85.9c0.4,0,0.5,0,0.8-0.1c0.1-0.1,0.2-0.1,0.3-0.1c0.2,0,0.4,0.2,0.8,0.6c0.2,0.3,0.3,0.4,0.3,0.5
			c0,0.1,0,0.1-0.1,0.3c-0.1,0.1-0.2,0.3-0.4,0.8c-0.7,1.6-1.5,3-2.6,4.1c-0.9,0.9-2,1.7-3.2,2.3c-0.8,0.4-1.4,0.6-1.6,0.6
			c-0.1,0-0.2-0.1-0.3-0.2c-0.3-0.3-0.4-0.5-0.8-0.6c2.4-0.9,3.8-1.7,5-2.9c1.2-1.2,1.8-2.3,2.4-4.1c-8.4,0.1-8.7,0.1-9.5,0.2
			c-0.1,0-0.1,0-0.1,0c-0.3,0-0.4-0.4-0.4-1.4c0.8,0.1,1.5,0.1,2.7,0.1H148.6z M143.9,82.1c2.8,0,3.9,0,5.1-0.1c0,0,0,0,0,0
			c0.2,0,0.2,0.2,0.2,0.7c0,0.5,0,0.5-0.2,0.5c-0.1,0-0.1,0-0.2,0c-0.2,0-2.1,0-2.8,0c-2.6,0-4.3,0-4.9,0.1c0,0-0.1,0-0.1,0
			c-0.1,0-0.2-0.1-0.2-0.2c-0.1-0.3-0.1-0.7-0.1-1.2C141.6,82.1,142.2,82.1,143.9,82.1z"/>
		<path fill="#444344" d="M156.4,84.1c0-1,0-1.5-0.2-2.2c1.2,0.1,1.5,0.2,1.5,0.3c0,0.1,0,0.1-0.1,0.2c-0.1,0.2-0.1,0.6-0.1,1.6v2.8
			c0,0.5,0,1.5,0,1.7c0,0.2,0,0.3,0,0.3c0,0.2-0.1,0.3-0.3,0.3c-0.2,0-0.4,0-0.6,0c0,0,0,0-0.1,0s0,0-0.1,0c0,0-0.1,0-0.1,0
			c-0.2,0-0.3-0.1-0.3-0.3c0-0.1,0-0.2,0-0.5c0-0.6,0.1-1.2,0.1-1.5V84.1z M164.4,82.2c0,0.1,0,0.1-0.1,0.2
			c-0.1,0.2-0.1,0.6-0.1,1.3c0,0.2,0,0.4,0,0.8c0,0.3,0,0.6,0,0.8c0,2.8-0.2,4-0.7,5.3c-0.6,1.6-1.9,3-3.6,3.9
			c-0.4,0.2-0.7,0.3-0.8,0.3c-0.1,0-0.1,0-0.3-0.3c-0.2-0.2-0.4-0.4-0.6-0.5c1.2-0.6,1.7-0.9,2.3-1.4c1.3-1.1,2-2.6,2.3-4.6
			c0.1-0.8,0.1-1.5,0.1-3.1c0-1.5-0.1-2.5-0.2-3.2C164.1,81.8,164.4,81.9,164.4,82.2z"/>
		<path fill="#444344" d="M175.7,87.8c3.4,0,6.4-0.1,7.4-0.1c0,0,0.1,0,0.1,0c0.2,0,0.2,0.1,0.2,0.4c0,0.8,0,0.9-0.2,0.9
			c0,0-0.1,0-0.1,0c-0.3,0-1.9-0.1-3-0.1c-0.3,0-4.5,0-6,0c-1.7,0-2.3,0-3.3,0.2c-0.1,0-0.1,0-0.1,0c-0.1,0-0.2-0.1-0.2-0.2
			c-0.1-0.3-0.1-0.6-0.2-1.4C171.4,87.7,172.6,87.8,175.7,87.8z"/>
		<path fill="#444344" d="M199.7,83c-0.3,0-0.7,0-1.2,0.1v-1.2c0.3,0.1,0.6,0.1,1.2,0.1h2.2c0.8,0,1.2,0,1.5-0.1
			c-0.1,0.4-0.1,0.7-0.1,1.1c0,2.1,0.4,3.9,1.4,5.7c0.6,1.2,1.4,2.3,2.4,3.4c1,1,1.6,1.5,3.1,2.4c-0.5,0.4-0.5,0.5-0.9,1
			c-1.4-1-2.2-1.6-3.2-2.8c-0.9-1.1-1.8-2.3-2.3-3.5c-0.5-1-0.7-1.8-1-3c-0.5,2.2-1.2,3.7-2.3,5.3c-1.1,1.6-2.3,2.8-4.2,4.1
			c-0.3-0.4-0.5-0.7-0.9-1c1.8-1.1,2.7-1.9,3.8-3.2c1.2-1.4,2-3,2.5-4.7c0.3-1.1,0.4-1.9,0.5-3.6H199.7z"/>
		<path fill="#444344" d="M216.1,82.9c0-0.8,0-1.4-0.1-1.8h1.2c-0.1,0.5-0.1,1-0.1,1.8v2.3h0.4c0.6,0,1,0,1.3-0.1v1.1
			c-0.5-0.1-0.9-0.1-1.4-0.1h-0.4v4.2c0.5-0.3,0.8-0.4,1.4-0.8l0.1,1c-0.9,0.6-2.4,1.4-3.4,1.9c-0.2,0.1-0.7,0.3-0.9,0.4l-0.3-1.2
			c0.6-0.1,0.6-0.1,2.1-0.8v-4.7h-0.7c-0.5,0-1,0-1.4,0.1v-1.1c0.5,0.1,0.8,0.1,1.4,0.1h0.7V82.9z M220.7,90.3
			c-0.7,0.8-1.6,1.5-2.8,2.2c-0.2-0.3-0.4-0.5-0.6-0.7c1.9-1,3.1-2.1,3.8-3.4h-1c-0.7,0-1.2,0-1.5,0.1v-1c0.4,0.1,0.7,0.1,1.5,0.1h7
			c0.8,0,1.3,0,1.6-0.1v1c-0.4-0.1-0.9-0.1-1.6-0.1h-5c-0.3,0.5-0.4,0.7-0.8,1.2h5.4c0.8,0,1.2,0,1.6-0.1c0,0.2-0.1,0.3-0.1,1
			c-0.1,2-0.4,3.8-0.7,4.4c-0.3,0.6-0.7,0.7-1.8,0.7c-0.4,0-0.9,0-1.4-0.1c-0.1-0.4-0.1-0.7-0.3-1.1c0.7,0.1,1.4,0.2,1.9,0.2
			c0.6,0,0.8-0.1,0.9-0.5c0.3-0.9,0.4-2.1,0.5-3.7h-1.1c-0.4,1-0.9,1.8-1.5,2.5c-0.5,0.6-1.4,1.5-2,2c-0.4,0.3-0.7,0.5-1.3,0.9
			c-0.2-0.4-0.4-0.5-0.7-0.8c1.5-0.8,2.3-1.5,3.2-2.5c0.6-0.7,1-1.3,1.3-2.1h-1.6c-0.9,1.6-2.4,2.9-4.5,4.1
			c-0.2-0.3-0.4-0.5-0.7-0.8c1.9-0.9,3.3-2,4.1-3.3H220.7z M221.2,86.4c-0.7,0-1.1,0-1.5,0.1c0.1-0.5,0.1-0.8,0.1-1.5v-2.1
			c0-0.7,0-1-0.1-1.4c0.5,0.1,0.8,0.1,1.6,0.1h4.3c0.7,0,1.2,0,1.7-0.1c-0.1,0.4-0.1,0.8-0.1,1.5v2c0,0.8,0,1.2,0.1,1.5
			c-0.3,0-0.8-0.1-1.5-0.1H221.2z M220.7,83.5h5.5v-1.2h-5.5V83.5z M220.7,85.6h5.5v-1.3h-5.5V85.6z"/>
		<path fill="#444344" d="M235.2,83.9c-0.6,0.8-1,1.1-1.8,1.8c-0.2-0.3-0.4-0.5-0.8-0.7c1.6-1.3,2.5-2.2,3.2-3.6
			c0.2-0.3,0.3-0.6,0.3-0.9l1.1,0.3c-0.1,0.2-0.1,0.2-0.4,0.7c-0.2,0.4-0.4,0.7-0.7,1.1h8.4c1.1,0,1.6,0,2.1-0.1v1.1
			c-0.6-0.1-1.1-0.1-1.8-0.1v2.9h0.9c0.7,0,1.2,0,1.6-0.1v1.1c-0.5-0.1-0.9-0.1-1.6-0.1h-0.9v2.9h0.5c0.7,0,1.1,0,1.6-0.1v1.1
			c-0.5-0.1-0.9-0.1-1.6-0.1h-10.6c-0.6,0-1.1,0-1.5,0.1v-1.1c0.4,0.1,0.9,0.1,1.6,0.1h0.4v-2.9h-0.9c-0.7,0-1.1,0-1.6,0.1v-1.1
			c0.4,0.1,0.9,0.1,1.6,0.1h0.9V83.9z M232.9,94.8c1-1,1.5-1.7,2.1-3.1l0.9,0.5c-0.6,1.5-1.1,2.3-2.1,3.3L232.9,94.8z M236.1,86.5
			h1.9v-2.9h-1.9V86.5z M236.1,90.3h1.9v-2.9h-1.9V90.3z M237.7,95.5c0-1.2-0.1-2.3-0.4-3.4l0.9-0.2c0.3,1.2,0.4,2,0.5,3.4
			L237.7,95.5z M240.9,86.5v-2.9H239v2.9H240.9z M240.9,90.3v-2.9H239v2.9H240.9z M241.5,95.5c-0.3-1.6-0.4-2.1-0.8-3.3l0.9-0.3
			c0.5,1.1,0.6,1.7,1,3.3L241.5,95.5z M243.9,86.5v-2.9h-2v2.9H243.9z M243.9,90.3v-2.9h-2v2.9H243.9z M246.1,95.4
			c-0.6-1.3-1.1-2.1-2-3.2l0.8-0.4c1,1.1,1.4,1.9,2.1,3.1L246.1,95.4z"/>
		<path fill="#444344" d="M253.1,87.5c-0.7,0-1,0-1.4,0.1v-1.1c0.3,0.1,0.7,0.1,1.4,0.1h1.3v-3.8c0-0.8,0-1.3-0.1-1.8h1.2
			c-0.1,0.4-0.1,0.9-0.1,1.7v3.9h1c0.6,0,0.9,0,1.2-0.1v1c-0.4-0.1-0.7-0.1-1.2-0.1h-0.9c0.7,1.3,1.3,2.2,2.3,3
			c-0.2,0.3-0.4,0.6-0.6,0.9c-1-1.1-1.4-1.8-1.9-2.9c0,0.5,0,0.7,0.1,1.2c0,0.8,0,1.2,0,1.2V94c0,0.8,0,1.3,0.1,1.8h-1.2
			c0.1-0.5,0.1-1.1,0.1-1.8v-2.8c0-0.7,0-1.7,0.1-2.5c-0.7,2.1-1.4,3.4-2.5,4.7c-0.2-0.4-0.3-0.6-0.6-0.9c0.8-0.9,1.3-1.6,1.9-2.8
			c0.4-0.8,0.6-1.2,0.9-2.2H253.1z M252.6,82c0.6,1.4,0.8,2.1,1.1,3.5l-0.8,0.4c-0.3-1.5-0.6-2.4-1.1-3.5L252.6,82z M258,82.4
			c-0.7,2.3-0.7,2.3-1.3,3.6l-0.8-0.4c0.6-1.2,0.9-1.9,1.2-3.6L258,82.4z M263.2,82.7c0-0.9,0-1.3-0.1-1.7h1.3
			c-0.1,0.5-0.1,0.9-0.1,1.7v7.5l0.2-0.1c0.7-0.2,1.2-0.3,1.5-0.5l0.2,1.1c-0.4,0.1-0.9,0.2-1.6,0.3l-0.4,0.1V94
			c0,0.8,0,1.3,0.1,1.8h-1.3c0.1-0.4,0.1-0.9,0.1-1.8v-2.4l-4.3,1c-0.7,0.2-1.1,0.3-1.5,0.4l-0.2-1.2c0.4,0,1-0.1,1.6-0.3l4.5-1.1
			V82.7z M258.9,86.3c1.4,0.9,2.1,1.5,2.9,2.5l-0.7,0.8c-1-1.2-1.6-1.7-2.9-2.5L258.9,86.3z M259.4,82.2c1.4,1.1,2,1.5,2.9,2.5
			l-0.7,0.8c-1.1-1.2-1.7-1.7-3-2.6L259.4,82.2z"/>
	</g>
	<g>
		<path fill="#444344" d="M4.1,66.4l5.1-5.1c0.2-0.2,0.4-0.4,0.5-0.5s0.3-0.4,0.5-0.6c0.1-0.2,0.2-0.4,0.3-0.7
			c0.1-0.2,0.1-0.5,0.1-0.8c0-0.3-0.1-0.6-0.2-0.8s-0.3-0.5-0.5-0.6c-0.2-0.2-0.4-0.3-0.7-0.4c-0.3-0.1-0.6-0.1-0.9-0.1
			c-0.6,0-1.1,0.2-1.5,0.5c-0.4,0.3-0.7,0.8-0.8,1.4l-1.9-0.2c0.1-0.6,0.2-1.1,0.5-1.5c0.2-0.4,0.6-0.8,0.9-1
			c0.4-0.3,0.8-0.5,1.3-0.6c0.5-0.1,1-0.2,1.5-0.2c0.6,0,1.1,0.1,1.6,0.2c0.5,0.1,0.9,0.4,1.3,0.7c0.4,0.3,0.7,0.7,0.9,1.1
			c0.2,0.4,0.3,1,0.3,1.5c0,0.4-0.1,0.8-0.2,1.2s-0.3,0.7-0.5,1c-0.2,0.3-0.4,0.6-0.7,0.9c-0.3,0.3-0.5,0.6-0.8,0.8l-4.2,4h6.4v1.5
			H4.1V66.4z"/>
		<path fill="#444344" d="M14.9,61.9c0-0.5,0-1,0.1-1.5c0-0.5,0.1-1,0.3-1.5c0.1-0.5,0.3-1,0.5-1.4c0.2-0.4,0.5-0.8,0.8-1.2
			c0.3-0.3,0.7-0.6,1.2-0.8c0.4-0.2,1-0.3,1.6-0.3s1.1,0.1,1.6,0.3c0.4,0.2,0.8,0.5,1.2,0.8c0.3,0.3,0.6,0.7,0.8,1.2
			s0.4,0.9,0.5,1.4c0.1,0.5,0.2,1,0.3,1.5c0,0.5,0.1,1,0.1,1.5c0,0.7-0.1,1.4-0.2,2.2c-0.1,0.8-0.3,1.5-0.7,2.1
			c-0.3,0.7-0.8,1.2-1.3,1.6c-0.6,0.4-1.3,0.6-2.2,0.6s-1.6-0.2-2.2-0.6s-1-1-1.3-1.6s-0.5-1.4-0.7-2.1C15,63.2,14.9,62.5,14.9,61.9
			z M16.7,61.9c0,0.4,0,0.9,0.1,1.5c0.1,0.6,0.2,1.1,0.4,1.7c0.2,0.5,0.4,1,0.8,1.4c0.4,0.4,0.8,0.6,1.4,0.6s1.1-0.2,1.4-0.6
			c0.4-0.4,0.6-0.8,0.8-1.4c0.2-0.5,0.3-1.1,0.4-1.7c0.1-0.6,0.1-1.1,0.1-1.5c0-0.3,0-0.6,0-1s-0.1-0.7-0.1-1.1
			c-0.1-0.4-0.2-0.7-0.3-1.1c-0.1-0.4-0.3-0.7-0.5-1c-0.2-0.3-0.4-0.5-0.7-0.7c-0.3-0.2-0.6-0.3-1-0.3s-0.7,0.1-1,0.3
			s-0.5,0.4-0.7,0.7c-0.2,0.3-0.4,0.6-0.5,1c-0.1,0.4-0.2,0.7-0.3,1.1c-0.1,0.4-0.1,0.8-0.1,1.1C16.7,61.2,16.7,61.6,16.7,61.9z"/>
		<path fill="#444344" d="M30.2,57.5l-2.3,2.2l-1-1.2l3.5-2.9H32v12.7h-1.7V57.5z"/>
		<path fill="#444344" d="M43.3,57h-6.2v-1.5h8V57l-5.1,11.3h-1.9L43.3,57z"/>
		<path fill="#444344" d="M47.8,68.3c-0.3,0-0.6-0.1-0.8-0.4c-0.2-0.2-0.4-0.5-0.4-0.8c0-0.3,0.1-0.6,0.4-0.8
			c0.2-0.2,0.5-0.4,0.8-0.4c0.3,0,0.6,0.1,0.8,0.4c0.2,0.2,0.4,0.5,0.4,0.8c0,0.3-0.1,0.6-0.4,0.8C48.4,68.2,48.1,68.3,47.8,68.3z"
			/>
		<path fill="#444344" d="M54,65.1c0.2,0.6,0.5,1.1,0.8,1.4c0.3,0.3,0.8,0.5,1.5,0.5c0.3,0,0.6-0.1,0.9-0.2s0.6-0.3,0.8-0.5
			c0.2-0.2,0.4-0.4,0.5-0.7c0.1-0.3,0.2-0.6,0.2-0.9c0-0.5-0.1-1-0.3-1.3c-0.2-0.3-0.5-0.6-0.9-0.7c-0.3-0.2-0.7-0.3-1.2-0.3
			s-0.8-0.1-1.2-0.1v-1.5c0.7,0,1.2,0,1.6-0.1c0.4-0.1,0.7-0.2,1-0.4c0.2-0.2,0.4-0.4,0.5-0.6s0.1-0.5,0.1-0.8
			c0-0.7-0.2-1.2-0.6-1.5c-0.4-0.3-0.9-0.5-1.5-0.5c-0.5,0-0.9,0.1-1.3,0.4c-0.4,0.3-0.7,0.6-0.9,1.1l-1.8-0.6
			c0.3-0.8,0.8-1.4,1.5-1.8c0.7-0.4,1.5-0.6,2.3-0.6c0.5,0,1,0.1,1.5,0.2c0.5,0.1,0.9,0.4,1.3,0.6c0.4,0.3,0.6,0.7,0.9,1.1
			s0.3,1,0.3,1.5c0,0.7-0.2,1.3-0.6,1.8c-0.4,0.5-0.9,0.9-1.6,1.1v0c0.4,0.1,0.7,0.2,1.1,0.4c0.3,0.2,0.6,0.4,0.8,0.7
			c0.2,0.3,0.4,0.6,0.5,1s0.2,0.7,0.2,1.1c0,0.6-0.1,1.1-0.4,1.6s-0.5,0.8-0.9,1.2c-0.4,0.3-0.8,0.5-1.4,0.7c-0.5,0.2-1,0.2-1.6,0.2
			c-1,0-1.8-0.2-2.6-0.7c-0.7-0.4-1.3-1.1-1.5-2.1L54,65.1z"/>
		<path fill="#444344" d="M64.8,68.3c-0.3,0-0.6-0.1-0.8-0.4c-0.2-0.2-0.4-0.5-0.4-0.8c0-0.3,0.1-0.6,0.4-0.8
			c0.2-0.2,0.5-0.4,0.8-0.4c0.3,0,0.6,0.1,0.8,0.4c0.2,0.2,0.4,0.5,0.4,0.8c0,0.3-0.1,0.6-0.4,0.8C65.4,68.2,65.2,68.3,64.8,68.3z"
			/>
		<path fill="#444344" d="M74.4,65.4H69v-1.8l5.1-8.2h2.1v8.4h1.8v1.5h-1.8v2.8h-1.7V65.4z M74.4,57.5L74.4,57.5l-3.9,6.4h3.9V57.5z
			"/>
		<path fill="#444344" d="M83.3,70.2c-0.6-0.9-0.9-1.3-1.2-2.1c-0.4-1-0.6-1.9-0.6-3c0-1,0.2-1.9,0.6-2.9c0.3-0.8,0.6-1.3,1.2-2.1
			h1.5c-0.8,1-1.1,1.4-1.4,2.2c-0.4,0.9-0.6,1.8-0.6,2.9c0,1.1,0.2,2.1,0.6,3c0.3,0.7,0.6,1.2,1.4,2.2H83.3z"/>
		<path fill="#444344" d="M91.2,61.6c0-0.4,0-0.8-0.1-1.2h1.4c-0.1,0.4-0.1,0.7-0.1,1.2v1.9h2.1c0.6,0,1,0,1.3-0.1v1.2
			c-0.4,0-0.8-0.1-1.3-0.1h-2.1v3.7h2.7c0.6,0,1.1,0,1.4-0.1v1.2c-0.4-0.1-0.9-0.1-1.4-0.1h-6.4c-0.6,0-1.1,0-1.5,0.1v-1.2
			c0.4,0,0.8,0.1,1.5,0.1h2.5v-3.7h-1.9c-0.5,0-0.9,0-1.3,0.1v-1.2c0.4,0,0.8,0.1,1.3,0.1h1.9V61.6z"/>
		<path fill="#444344" d="M99.3,70.2c0.8-1,1.1-1.4,1.4-2.2c0.4-0.9,0.6-1.9,0.6-3c0-1.1-0.2-2-0.6-2.9c-0.3-0.7-0.6-1.2-1.4-2.2
			h1.5c0.6,0.9,0.9,1.3,1.2,2.1c0.4,1,0.6,1.9,0.6,2.9c0,1-0.2,2-0.6,3c-0.3,0.8-0.6,1.3-1.2,2.1H99.3z"/>
		<path fill="#444344" d="M108.3,65.1c0.2,0.6,0.5,1.1,0.8,1.4c0.3,0.3,0.8,0.5,1.5,0.5c0.3,0,0.6-0.1,0.9-0.2s0.6-0.3,0.8-0.5
			c0.2-0.2,0.4-0.4,0.5-0.7c0.1-0.3,0.2-0.6,0.2-0.9c0-0.5-0.1-1-0.3-1.3c-0.2-0.3-0.5-0.6-0.9-0.7c-0.3-0.2-0.7-0.3-1.2-0.3
			s-0.8-0.1-1.2-0.1v-1.5c0.7,0,1.2,0,1.6-0.1c0.4-0.1,0.7-0.2,1-0.4c0.2-0.2,0.4-0.4,0.5-0.6s0.1-0.5,0.1-0.8
			c0-0.7-0.2-1.2-0.6-1.5c-0.4-0.3-0.9-0.5-1.5-0.5c-0.5,0-0.9,0.1-1.3,0.4c-0.4,0.3-0.7,0.6-0.9,1.1l-1.8-0.6
			c0.3-0.8,0.8-1.4,1.5-1.8c0.7-0.4,1.5-0.6,2.3-0.6c0.5,0,1,0.1,1.5,0.2c0.5,0.1,0.9,0.4,1.3,0.6c0.4,0.3,0.6,0.7,0.9,1.1
			s0.3,1,0.3,1.5c0,0.7-0.2,1.3-0.6,1.8c-0.4,0.5-0.9,0.9-1.6,1.1v0c0.4,0.1,0.7,0.2,1.1,0.4c0.3,0.2,0.6,0.4,0.8,0.7
			c0.2,0.3,0.4,0.6,0.5,1s0.2,0.7,0.2,1.1c0,0.6-0.1,1.1-0.4,1.6s-0.5,0.8-0.9,1.2c-0.4,0.3-0.8,0.5-1.4,0.7c-0.5,0.2-1,0.2-1.6,0.2
			c-1,0-1.8-0.2-2.6-0.7c-0.7-0.4-1.3-1.1-1.5-2.1L108.3,65.1z"/>
		<path fill="#444344" d="M119.1,68.3c-0.3,0-0.6-0.1-0.8-0.4c-0.2-0.2-0.4-0.5-0.4-0.8c0-0.3,0.1-0.6,0.4-0.8
			c0.2-0.2,0.5-0.4,0.8-0.4c0.3,0,0.6,0.1,0.8,0.4c0.2,0.2,0.4,0.5,0.4,0.8c0,0.3-0.1,0.6-0.4,0.8C119.8,68.2,119.5,68.3,119.1,68.3
			z"/>
		<path fill="#444344" d="M131.2,57.1H126l-0.1,3.2c0.1,0,0.2-0.1,0.4-0.1c0.2,0,0.3-0.1,0.5-0.1c0.2,0,0.3,0,0.5-0.1
			c0.2,0,0.3,0,0.4,0c0.6,0,1.1,0.1,1.6,0.3c0.5,0.2,0.9,0.5,1.3,0.9c0.3,0.4,0.6,0.8,0.8,1.3c0.2,0.5,0.3,1.1,0.3,1.7
			c0,0.6-0.1,1.2-0.4,1.7c-0.2,0.5-0.6,1-1,1.3c-0.4,0.4-0.9,0.7-1.4,0.9c-0.5,0.2-1.1,0.3-1.7,0.3c-0.9,0-1.6-0.2-2.3-0.7
			c-0.7-0.4-1.2-1.1-1.5-1.9l1.7-0.6c0.2,0.6,0.5,1,0.9,1.3s0.9,0.4,1.4,0.4c0.3,0,0.7-0.1,1-0.2s0.6-0.3,0.8-0.5
			c0.2-0.2,0.4-0.5,0.5-0.8c0.1-0.3,0.2-0.7,0.2-1.1c0-0.9-0.3-1.6-0.9-2.1c-0.6-0.5-1.3-0.7-2.2-0.7c-0.3,0-0.7,0.1-1.2,0.2
			c-0.5,0.1-1,0.3-1.4,0.5l0.1-6.7h6.8V57.1z"/>
		<path fill="#444344" d="M138,70.2c-0.6-0.9-0.9-1.3-1.2-2.1c-0.4-1-0.6-1.9-0.6-3c0-1,0.2-1.9,0.6-2.9c0.3-0.8,0.6-1.3,1.2-2.1
			h1.5c-0.8,1-1.1,1.4-1.4,2.2c-0.4,0.9-0.6,1.8-0.6,2.9c0,1.1,0.2,2.1,0.6,3c0.3,0.7,0.6,1.2,1.4,2.2H138z"/>
		<path fill="#444344" d="M142.9,61.9c0-0.4,0-0.8-0.1-1.1c0.3,0,0.7,0.1,1.2,0.1h5c0.5,0,0.8,0,1.1-0.1c0,0.4-0.1,0.7-0.1,1.1v6.7
			c0,0.5,0,0.9,0.1,1.3h-1.2v-0.6h-4.8v0.6h-1.2c0-0.4,0.1-0.8,0.1-1.3V61.9z M144.1,64.3h4.8v-2.4h-4.8V64.3z M144.1,68.1h4.8v-2.6
			h-4.8V68.1z"/>
		<path fill="#444344" d="M153.3,70.2c0.8-1,1.1-1.4,1.4-2.2c0.4-0.9,0.6-1.9,0.6-3c0-1.1-0.2-2-0.6-2.9c-0.3-0.7-0.6-1.2-1.4-2.2
			h1.5c0.6,0.9,0.9,1.3,1.2,2.1c0.4,1,0.6,1.9,0.6,2.9c0,1-0.2,2-0.6,3c-0.3,0.8-0.6,1.3-1.2,2.1H153.3z"/>
		<path fill="#444344" d="M166.4,57.5l-2.3,2.2l-1-1.2l3.5-2.9h1.5v12.7h-1.7V57.5z"/>
		<path fill="#444344" d="M174.9,57.5l-2.3,2.2l-1-1.2l3.5-2.9h1.5v12.7h-1.7V57.5z"/>
		<path fill="#444344" d="M181.4,62c-0.3,0-0.6-0.1-0.8-0.4c-0.2-0.2-0.4-0.5-0.4-0.8c0-0.3,0.1-0.6,0.4-0.8
			c0.2-0.2,0.5-0.4,0.8-0.4c0.3,0,0.6,0.1,0.8,0.4c0.2,0.2,0.4,0.5,0.4,0.8c0,0.3-0.1,0.6-0.4,0.8C182,61.8,181.8,62,181.4,62z
			 M180.3,67.1c0-0.3,0.1-0.6,0.4-0.8c0.2-0.2,0.5-0.4,0.8-0.4c0.3,0,0.6,0.1,0.8,0.4c0.2,0.2,0.4,0.5,0.4,0.8
			c0,0.3-0.1,0.6-0.4,0.8c-0.2,0.2-0.5,0.4-0.8,0.4c-0.3,0-0.6-0.1-0.8-0.4C180.4,67.7,180.3,67.5,180.3,67.1z"/>
		<path fill="#444344" d="M186.3,61.9c0-0.5,0-1,0.1-1.5c0-0.5,0.1-1,0.3-1.5c0.1-0.5,0.3-1,0.5-1.4s0.5-0.8,0.8-1.2
			c0.3-0.3,0.7-0.6,1.2-0.8c0.4-0.2,1-0.3,1.6-0.3c0.6,0,1.1,0.1,1.6,0.3c0.5,0.2,0.8,0.5,1.2,0.8c0.3,0.3,0.6,0.7,0.8,1.2
			s0.4,0.9,0.5,1.4c0.1,0.5,0.2,1,0.3,1.5s0.1,1,0.1,1.5c0,0.7-0.1,1.4-0.2,2.2c-0.1,0.8-0.3,1.5-0.7,2.1c-0.3,0.7-0.8,1.2-1.3,1.6
			s-1.3,0.6-2.2,0.6c-0.9,0-1.6-0.2-2.2-0.6c-0.6-0.4-1-1-1.3-1.6s-0.5-1.4-0.7-2.1C186.4,63.2,186.3,62.5,186.3,61.9z M188,61.9
			c0,0.4,0,0.9,0.1,1.5c0.1,0.6,0.2,1.1,0.4,1.7c0.2,0.5,0.4,1,0.8,1.4c0.4,0.4,0.8,0.6,1.4,0.6c0.6,0,1.1-0.2,1.4-0.6
			c0.4-0.4,0.6-0.8,0.8-1.4c0.2-0.5,0.3-1.1,0.4-1.7c0.1-0.6,0.1-1.1,0.1-1.5c0-0.3,0-0.6,0-1c0-0.4-0.1-0.7-0.1-1.1
			c-0.1-0.4-0.2-0.7-0.3-1.1c-0.1-0.4-0.3-0.7-0.5-1c-0.2-0.3-0.4-0.5-0.7-0.7s-0.6-0.3-1-0.3c-0.4,0-0.7,0.1-1,0.3
			s-0.5,0.4-0.7,0.7c-0.2,0.3-0.4,0.6-0.5,1c-0.1,0.4-0.2,0.7-0.3,1.1c-0.1,0.4-0.1,0.8-0.1,1.1S188,61.6,188,61.9z"/>
		<path fill="#444344" d="M197.7,61.9c0-0.5,0-1,0.1-1.5c0-0.5,0.1-1,0.3-1.5c0.1-0.5,0.3-1,0.5-1.4s0.5-0.8,0.8-1.2
			c0.3-0.3,0.7-0.6,1.2-0.8c0.4-0.2,1-0.3,1.6-0.3c0.6,0,1.1,0.1,1.6,0.3c0.5,0.2,0.8,0.5,1.2,0.8c0.3,0.3,0.6,0.7,0.8,1.2
			s0.4,0.9,0.5,1.4c0.1,0.5,0.2,1,0.3,1.5s0.1,1,0.1,1.5c0,0.7-0.1,1.4-0.2,2.2c-0.1,0.8-0.3,1.5-0.7,2.1c-0.3,0.7-0.8,1.2-1.3,1.6
			s-1.3,0.6-2.2,0.6c-0.9,0-1.6-0.2-2.2-0.6c-0.6-0.4-1-1-1.3-1.6s-0.5-1.4-0.7-2.1C197.8,63.2,197.7,62.5,197.7,61.9z M199.4,61.9
			c0,0.4,0,0.9,0.1,1.5c0.1,0.6,0.2,1.1,0.4,1.7c0.2,0.5,0.4,1,0.8,1.4c0.4,0.4,0.8,0.6,1.4,0.6c0.6,0,1.1-0.2,1.4-0.6
			c0.4-0.4,0.6-0.8,0.8-1.4c0.2-0.5,0.3-1.1,0.4-1.7c0.1-0.6,0.1-1.1,0.1-1.5c0-0.3,0-0.6,0-1c0-0.4-0.1-0.7-0.1-1.1
			c-0.1-0.4-0.2-0.7-0.3-1.1c-0.1-0.4-0.3-0.7-0.5-1c-0.2-0.3-0.4-0.5-0.7-0.7s-0.6-0.3-1-0.3c-0.4,0-0.7,0.1-1,0.3
			s-0.5,0.4-0.7,0.7c-0.2,0.3-0.4,0.6-0.5,1c-0.1,0.4-0.2,0.7-0.3,1.1c-0.1,0.4-0.1,0.8-0.1,1.1S199.4,61.6,199.4,61.9z"/>
		<path fill="#444344" d="M218.4,62.5c-0.4,0.6-0.7,1-1.1,1.3s-0.8,0.3-1.2,0.3c-0.3,0-0.7-0.1-1-0.2c-0.3-0.1-0.7-0.3-1-0.5
			c-0.3-0.2-0.7-0.3-1-0.5c-0.3-0.1-0.6-0.2-0.9-0.2c-0.2,0-0.4,0-0.5,0.1c-0.2,0.1-0.3,0.2-0.4,0.3s-0.2,0.3-0.3,0.4
			c-0.1,0.2-0.2,0.3-0.3,0.5l-0.7-1.1c0.3-0.5,0.6-0.8,1-1.1c0.4-0.3,0.8-0.4,1.4-0.4c0.4,0,0.7,0.1,1.1,0.2s0.7,0.3,1,0.4
			c0.3,0.2,0.6,0.3,0.9,0.5c0.3,0.1,0.6,0.2,0.9,0.2c0.3,0,0.6-0.1,0.8-0.3c0.3-0.2,0.5-0.5,0.8-1L218.4,62.5z"/>
		<path fill="#444344" d="M224.2,57.5l-2.3,2.2l-1-1.2l3.5-2.9h1.5v12.7h-1.7V57.5z"/>
		<path fill="#444344" d="M235,63.3L235,63.3c-0.5,0.2-0.9,0.3-1.5,0.3c-0.5,0-0.9-0.1-1.4-0.2c-0.5-0.2-0.9-0.4-1.3-0.7
			s-0.7-0.8-0.9-1.3c-0.2-0.5-0.4-1.1-0.4-1.8c0-0.7,0.1-1.3,0.4-1.8c0.2-0.5,0.5-1,0.9-1.3c0.4-0.4,0.9-0.6,1.4-0.8
			c0.5-0.2,1.1-0.3,1.7-0.3c0.6,0,1.2,0.1,1.7,0.3c0.5,0.2,1,0.5,1.4,0.8c0.4,0.4,0.7,0.8,0.9,1.3c0.2,0.5,0.4,1.1,0.4,1.7
			c0,0.4,0,0.8-0.1,1.1c-0.1,0.3-0.1,0.6-0.3,0.9s-0.2,0.6-0.4,0.9c-0.2,0.3-0.3,0.6-0.5,0.9l-3.2,5.1h-2L235,63.3z M236.6,59.4
			c0-0.4-0.1-0.7-0.2-1.1c-0.1-0.3-0.3-0.6-0.5-0.8c-0.2-0.2-0.5-0.4-0.8-0.5c-0.3-0.1-0.7-0.2-1.1-0.2c-0.4,0-0.8,0.1-1.1,0.2
			c-0.3,0.1-0.6,0.3-0.8,0.5c-0.2,0.2-0.4,0.5-0.5,0.8c-0.1,0.3-0.2,0.7-0.2,1.1s0.1,0.7,0.2,1.1c0.1,0.3,0.3,0.6,0.5,0.8
			c0.2,0.2,0.5,0.4,0.8,0.5s0.7,0.2,1.1,0.2c0.4,0,0.8-0.1,1.1-0.2s0.6-0.3,0.8-0.5c0.2-0.2,0.4-0.5,0.5-0.8
			C236.5,60.2,236.6,59.8,236.6,59.4z"/>
		<path fill="#444344" d="M242.1,62c-0.3,0-0.6-0.1-0.8-0.4c-0.2-0.2-0.4-0.5-0.4-0.8c0-0.3,0.1-0.6,0.4-0.8
			c0.2-0.2,0.5-0.4,0.8-0.4s0.6,0.1,0.8,0.4c0.2,0.2,0.4,0.5,0.4,0.8c0,0.3-0.1,0.6-0.4,0.8C242.7,61.8,242.4,62,242.1,62z
			 M240.9,67.1c0-0.3,0.1-0.6,0.4-0.8c0.2-0.2,0.5-0.4,0.8-0.4s0.6,0.1,0.8,0.4c0.2,0.2,0.4,0.5,0.4,0.8c0,0.3-0.1,0.6-0.4,0.8
			c-0.2,0.2-0.5,0.4-0.8,0.4s-0.6-0.1-0.8-0.4C241,67.7,240.9,67.5,240.9,67.1z"/>
		<path fill="#444344" d="M247,61.9c0-0.5,0-1,0.1-1.5s0.1-1,0.3-1.5c0.1-0.5,0.3-1,0.5-1.4s0.5-0.8,0.8-1.2
			c0.3-0.3,0.7-0.6,1.2-0.8c0.5-0.2,1-0.3,1.6-0.3s1.1,0.1,1.6,0.3c0.5,0.2,0.8,0.5,1.2,0.8c0.3,0.3,0.6,0.7,0.8,1.2
			s0.4,0.9,0.5,1.4c0.1,0.5,0.2,1,0.3,1.5s0.1,1,0.1,1.5c0,0.7-0.1,1.4-0.2,2.2c-0.1,0.8-0.3,1.5-0.7,2.1s-0.8,1.2-1.3,1.6
			s-1.3,0.6-2.2,0.6s-1.6-0.2-2.2-0.6s-1-1-1.3-1.6c-0.3-0.7-0.5-1.4-0.7-2.1C247,63.2,247,62.5,247,61.9z M248.7,61.9
			c0,0.4,0,0.9,0.1,1.5s0.2,1.1,0.4,1.7c0.2,0.5,0.4,1,0.8,1.4c0.4,0.4,0.8,0.6,1.4,0.6s1.1-0.2,1.4-0.6c0.4-0.4,0.6-0.8,0.8-1.4
			c0.2-0.5,0.3-1.1,0.4-1.7s0.1-1.1,0.1-1.5c0-0.3,0-0.6,0-1c0-0.4-0.1-0.7-0.1-1.1c-0.1-0.4-0.2-0.7-0.3-1.1
			c-0.1-0.4-0.3-0.7-0.5-1c-0.2-0.3-0.4-0.5-0.7-0.7s-0.6-0.3-1-0.3c-0.4,0-0.7,0.1-1,0.3c-0.3,0.2-0.5,0.4-0.7,0.7
			c-0.2,0.3-0.4,0.6-0.5,1c-0.1,0.4-0.2,0.7-0.3,1.1c-0.1,0.4-0.1,0.8-0.1,1.1C248.7,61.2,248.7,61.6,248.7,61.9z"/>
		<path fill="#444344" d="M258.4,61.9c0-0.5,0-1,0.1-1.5s0.1-1,0.3-1.5c0.1-0.5,0.3-1,0.5-1.4s0.5-0.8,0.8-1.2
			c0.3-0.3,0.7-0.6,1.2-0.8c0.5-0.2,1-0.3,1.6-0.3s1.1,0.1,1.6,0.3c0.5,0.2,0.8,0.5,1.2,0.8c0.3,0.3,0.6,0.7,0.8,1.2
			s0.4,0.9,0.5,1.4c0.1,0.5,0.2,1,0.3,1.5s0.1,1,0.1,1.5c0,0.7-0.1,1.4-0.2,2.2c-0.1,0.8-0.3,1.5-0.7,2.1s-0.8,1.2-1.3,1.6
			s-1.3,0.6-2.2,0.6s-1.6-0.2-2.2-0.6s-1-1-1.3-1.6s-0.5-1.4-0.7-2.1C258.4,63.2,258.4,62.5,258.4,61.9z M260.1,61.9
			c0,0.4,0,0.9,0.1,1.5s0.2,1.1,0.4,1.7c0.2,0.5,0.4,1,0.8,1.4c0.4,0.4,0.8,0.6,1.4,0.6s1.1-0.2,1.4-0.6c0.4-0.4,0.6-0.8,0.8-1.4
			c0.2-0.5,0.3-1.1,0.4-1.7s0.1-1.1,0.1-1.5c0-0.3,0-0.6,0-1c0-0.4-0.1-0.7-0.1-1.1c-0.1-0.4-0.2-0.7-0.3-1.1
			c-0.1-0.4-0.3-0.7-0.5-1c-0.2-0.3-0.4-0.5-0.7-0.7s-0.6-0.3-1-0.3c-0.4,0-0.7,0.1-1,0.3c-0.3,0.2-0.5,0.4-0.7,0.7
			c-0.2,0.3-0.4,0.6-0.5,1c-0.1,0.4-0.2,0.7-0.3,1.1c-0.1,0.4-0.1,0.8-0.1,1.1C260.1,61.2,260.1,61.6,260.1,61.9z"/>
	</g>
</g>
<g>
	<text transform="matrix(1 0 0 1 617.8123 -155.9092)"><tspan x="0" y="0" fill="#444344" font-family="'KoburinaGoStd-W6-83pv-RKSJ-H'" font-size="26px" letter-spacing="5">で</tspan><tspan x="31.6" y="0" fill="#444344" font-family="'KoburinaGoStd-W6-83pv-RKSJ-H'" font-size="26px" letter-spacing="3">き</tspan><tspan x="61.2" y="0" fill="#444344" font-family="'KoburinaGoStd-W6-83pv-RKSJ-H'" font-size="26px" letter-spacing="3">ご</tspan><tspan x="90.2" y="0" fill="#444344" font-family="'KoburinaGoStd-W6-83pv-RKSJ-H'" font-size="26px" letter-spacing="4">と</tspan><tspan x="120.3" y="0" fill="#444344" font-family="'KoburinaGoStd-W6-83pv-RKSJ-H'" font-size="26px" letter-spacing="7">の</tspan><tspan x="153.5" y="0" fill="#444344" font-family="'KoburinaGoStd-W6-83pv-RKSJ-H'" font-size="26px" letter-spacing="6">か</tspan><tspan x="185.7" y="0" fill="#444344" font-family="'KoburinaGoStd-W6-83pv-RKSJ-H'" font-size="26px" letter-spacing="4">た</tspan><tspan x="216.3" y="0" fill="#444344" font-family="'KoburinaGoStd-W6-83pv-RKSJ-H'" font-size="26px" letter-spacing="5">ち</tspan><tspan x="247.9" y="0" fill="#444344" font-family="'KoburinaGoStd-W6-83pv-RKSJ-H'" font-size="26px" letter-spacing="5">展</tspan></text>
	<text transform="matrix(1 0 0 1 620.4828 -73.7734)"><tspan x="0" y="0" fill="#444344" font-family="'KoburinaGoStd-W3-83pv-RKSJ-H'" font-size="17px" letter-spacing="2">六本</tspan><tspan x="39.3" y="0" fill="#444344" font-family="'KoburinaGoStd-W3-83pv-RKSJ-H'" font-size="17px" letter-spacing="2">木</tspan><tspan x="58.8" y="0" fill="#444344" font-family="'KoburinaGoStd-W3-83pv-RKSJ-H'" font-size="17px" letter-spacing="2">Axi</tspan><tspan x="88.1" y="0" fill="#444344" font-family="'KoburinaGoStd-W3-83pv-RKSJ-H'" font-size="17px" letter-spacing="2">s</tspan><tspan x="98.6" y="0" fill="#444344" font-family="'KoburinaGoStd-W3-83pv-RKSJ-H'" font-size="17px" letter-spacing="1">ギャラリー 入場無料</tspan></text>
	
		<text transform="matrix(1 0 0 1 623.1628 -100.3306)" fill="#444344" font-family="'Avenir-Medium'" font-size="18px" letter-spacing="1">201</text>
	
		<text transform="matrix(1 0 0 1 656.2643 -100.3306)" fill="#444344" font-family="'Avenir-Medium'" font-size="18px" letter-spacing="-1">7</text>
	
		<text transform="matrix(1 0 0 1 665.1379 -100.3306)" fill="#444344" font-family="'Avenir-Medium'" font-size="18px" letter-spacing="1">.3.</text>
	
		<text transform="matrix(1 0 0 1 688.2316 -100.3306)" fill="#444344" font-family="'Avenir-Medium'" font-size="18px" letter-spacing="-4">4</text>
	
		<text transform="matrix(0.6 0 0 0.6 694.2253 -99.3628)" fill="#444344" font-family="'KoburinaGoStd-W6-83pv-RKSJ-H'" font-size="18px" letter-spacing="1.7">（</text>
	
		<text transform="matrix(0.6 0 0 0.6 706.321 -99.3628)" fill="#444344" font-family="'KoburinaGoStd-W6-83pv-RKSJ-H'" font-size="18px" letter-spacing="1.7">土</text>
	
		<text transform="matrix(0.6 0 0 0.6 718.8166 -99.3628)" fill="#444344" font-family="'KoburinaGoStd-W6-83pv-RKSJ-H'" font-size="18px" letter-spacing="-6.7">）</text>
	
		<text transform="matrix(1 0 0 1 725.4797 -100.3306)" fill="#444344" font-family="'Avenir-Medium'" font-size="18px" letter-spacing="1">3.</text>
	
		<text transform="matrix(1 0 0 1 742.5432 -100.3306)" fill="#444344" font-family="'Avenir-Medium'" font-size="18px" letter-spacing="-3">5</text>
	
		<text transform="matrix(0.6 0 0 0.6 748.8972 -99.3628)" fill="#444344" font-family="'KoburinaGoStd-W6-83pv-RKSJ-H'" font-size="18px" letter-spacing="1.7">（</text>
	
		<text transform="matrix(0.6 0 0 0.6 760.9606 -99.3628)" fill="#444344" font-family="'KoburinaGoStd-W6-83pv-RKSJ-H'" font-size="18px" letter-spacing="1.7">日</text>
	
		<text transform="matrix(0.6 0 0 0.6 772.8078 -99.3628)" fill="#444344" font-family="'KoburinaGoStd-W6-83pv-RKSJ-H'" font-size="18px" letter-spacing="-3.3">）</text>
	
		<text transform="matrix(1 0 0 1 781.4152 -100.3306)" fill="#444344" font-family="'Avenir-Medium'" font-size="18px" letter-spacing="-1">1</text>
	
		<text transform="matrix(1 0 0 1 789.9289 -100.3306)" fill="#444344" font-family="'Avenir-Medium'" font-size="18px" letter-spacing="-1">1</text>
	
		<text transform="matrix(1 0 0 1 798.8029 -100.3306)" fill="#444344" font-family="'Avenir-Medium'" font-size="18px" letter-spacing="1">:</text>
	
		<text transform="matrix(1 0 0 1 805.5529 -100.3306)" fill="#444344" font-family="'Avenir-Medium'" font-size="18px" letter-spacing="1">0</text>
	
		<text transform="matrix(1 0 0 1 816.9465 -100.3306)" fill="#444344" font-family="'Avenir-Medium'" font-size="18px" letter-spacing="1">0</text>
	<text transform="matrix(1 0 0 1 827.9802 -100.3306)" fill="#444344" font-family="'Avenir-Medium'" font-size="18px">~</text>
	<text transform="matrix(1 0 0 1 839.194 -100.3306)" fill="#444344" font-family="'Avenir-Medium'" font-size="18px">1</text>
	<text transform="matrix(1 0 0 1 848.7878 -100.3306)" fill="#444344" font-family="'Avenir-Medium'" font-size="18px">9</text>
	
		<text transform="matrix(1 0 0 1 859.4616 -100.3306)" fill="#444344" font-family="'Avenir-Medium'" font-size="18px" letter-spacing="1">:</text>
	
		<text transform="matrix(1 0 0 1 866.2121 -100.3306)" fill="#444344" font-family="'Avenir-Medium'" font-size="18px" letter-spacing="1">0</text>
	
		<text transform="matrix(1 0 0 1 877.6057 -100.3306)" fill="#444344" font-family="'Avenir-Medium'" font-size="18px" letter-spacing="3">0</text>
</g>
</svg>
