<?xml version="1.0" encoding="utf-8"?>
<!-- Generator: Adobe Illustrator 16.0.0, SVG Export Plug-In . SVG Version: 6.00 Build 0)  -->
<!DOCTYPE svg PUBLIC "-//W3C//DTD SVG 1.1//EN" "http://www.w3.org/Graphics/SVG/1.1/DTD/svg11.dtd">
<svg version="1.1" id="レイヤー_1" xmlns="http://www.w3.org/2000/svg" xmlns:xlink="http://www.w3.org/1999/xlink" x="0px"
	 y="0px" width="578.937px" height="168.376px" viewBox="0 0 578.937 168.376" enable-background="new 0 0 578.937 168.376"
	 xml:space="preserve">
<g>
	<g>
		<path fill="#333434" d="M1.84,93.885l11.36-11.28c0.4-0.373,0.786-0.779,1.16-1.22c0.373-0.439,0.707-0.9,1-1.38
			c0.293-0.48,0.526-0.986,0.7-1.521c0.173-0.532,0.26-1.093,0.26-1.68c0-0.693-0.126-1.32-0.38-1.88
			c-0.254-0.56-0.6-1.033-1.04-1.42s-0.96-0.687-1.56-0.9c-0.6-0.213-1.233-0.319-1.9-0.319c-1.387,0-2.534,0.387-3.44,1.16
			c-0.907,0.773-1.48,1.84-1.72,3.199l-4.16-0.359c0.186-1.254,0.553-2.34,1.1-3.261c0.546-0.92,1.226-1.686,2.04-2.3
			c0.813-0.613,1.747-1.066,2.8-1.359c1.053-0.294,2.193-0.44,3.42-0.44c1.226,0,2.38,0.167,3.46,0.5
			c1.08,0.334,2.026,0.827,2.84,1.48s1.453,1.467,1.92,2.439c0.466,0.974,0.7,2.114,0.7,3.42c0,0.934-0.14,1.807-0.42,2.62
			s-0.647,1.58-1.1,2.3c-0.454,0.721-0.974,1.4-1.56,2.04c-0.587,0.641-1.2,1.268-1.84,1.88l-9.32,9H20.4v3.36H1.84V93.885z"/>
		<path fill="#333434" d="M24.6,83.805c0-1.04,0.053-2.12,0.16-3.24c0.106-1.119,0.3-2.22,0.58-3.3c0.28-1.08,0.653-2.113,1.12-3.1
			c0.466-0.986,1.066-1.847,1.8-2.58c0.733-0.733,1.6-1.32,2.6-1.76c1-0.44,2.166-0.66,3.5-0.66c1.333,0,2.5,0.22,3.5,0.66
			c1,0.439,1.866,1.026,2.6,1.76c0.733,0.733,1.333,1.594,1.8,2.58c0.466,0.986,0.84,2.02,1.12,3.1c0.28,1.08,0.473,2.181,0.58,3.3
			c0.106,1.12,0.16,2.2,0.16,3.24c0,1.494-0.134,3.094-0.4,4.8c-0.267,1.707-0.76,3.294-1.48,4.761s-1.714,2.68-2.98,3.64
			c-1.267,0.96-2.9,1.44-4.9,1.44s-3.634-0.48-4.9-1.44c-1.267-0.96-2.26-2.173-2.98-3.64c-0.72-1.467-1.214-3.054-1.48-4.761
			C24.733,86.898,24.6,85.299,24.6,83.805z M28.44,83.805c0,0.934,0.06,2.04,0.18,3.32s0.38,2.514,0.78,3.7
			c0.4,1.187,0.993,2.193,1.78,3.02c0.786,0.827,1.846,1.24,3.18,1.24c1.333,0,2.393-0.413,3.18-1.24
			c0.787-0.826,1.38-1.833,1.78-3.02s0.66-2.42,0.78-3.7c0.12-1.28,0.18-2.387,0.18-3.32c0-0.64-0.02-1.366-0.06-2.18
			s-0.134-1.641-0.28-2.48c-0.147-0.84-0.354-1.652-0.62-2.439c-0.267-0.786-0.62-1.493-1.06-2.12c-0.44-0.626-0.98-1.126-1.62-1.5
			c-0.64-0.373-1.4-0.561-2.28-0.561s-1.64,0.188-2.28,0.561c-0.64,0.374-1.18,0.874-1.62,1.5c-0.44,0.627-0.794,1.334-1.06,2.12
			c-0.267,0.787-0.474,1.6-0.62,2.439c-0.147,0.84-0.24,1.667-0.28,2.48C28.46,82.438,28.44,83.165,28.44,83.805z"/>
		<path fill="#333434" d="M56.28,74.045l-5.2,4.8l-2.24-2.68l7.88-6.521h3.4v28.32h-3.84V74.045z"/>
		<path fill="#333434" d="M83.12,73.005H69.4v-3.36h17.8v3.28l-11.28,25.04H71.6L83.12,73.005z"/>
		<path fill="#333434" d="M94.521,98.205c-0.72,0-1.34-0.26-1.86-0.78c-0.52-0.52-0.78-1.14-0.78-1.86c0-0.72,0.26-1.34,0.78-1.859
			c0.52-0.521,1.14-0.78,1.86-0.78c0.72,0,1.34,0.26,1.86,0.78c0.52,0.52,0.78,1.14,0.78,1.859c0,0.721-0.26,1.341-0.78,1.86
			C95.86,97.945,95.24,98.205,94.521,98.205z"/>
		<path fill="#333434" d="M108,91.045c0.451,1.36,1.056,2.374,1.813,3.04c0.757,0.667,1.879,1,3.368,1
			c0.744,0,1.44-0.126,2.092-0.38c0.651-0.253,1.228-0.601,1.733-1.04c0.505-0.44,0.903-0.974,1.195-1.601
			c0.292-0.626,0.439-1.326,0.439-2.1c0-1.173-0.247-2.113-0.74-2.82c-0.494-0.706-1.126-1.239-1.9-1.6s-1.627-0.593-2.56-0.7
			c-0.934-0.106-1.854-0.16-2.76-0.16v-3.359c1.466,0,2.666-0.101,3.6-0.301c0.933-0.199,1.666-0.485,2.2-0.859
			c0.533-0.373,0.906-0.84,1.12-1.4c0.213-0.56,0.32-1.187,0.32-1.88c0-1.52-0.454-2.666-1.36-3.439
			c-0.907-0.773-2.04-1.16-3.4-1.16c-1.04,0-1.98,0.3-2.82,0.899c-0.84,0.601-1.474,1.394-1.9,2.38l-3.92-1.319
			c0.746-1.813,1.886-3.153,3.42-4.021c1.533-0.866,3.247-1.3,5.14-1.3c1.146,0,2.246,0.153,3.3,0.46
			c1.053,0.307,1.98,0.78,2.78,1.42c0.8,0.641,1.433,1.447,1.9,2.42c0.466,0.974,0.7,2.114,0.7,3.42c0,1.494-0.447,2.827-1.34,4
			c-0.894,1.174-2.06,1.974-3.5,2.4v0.08c0.88,0.16,1.667,0.453,2.36,0.88c0.693,0.427,1.28,0.96,1.76,1.6
			c0.48,0.641,0.84,1.354,1.08,2.141c0.24,0.786,0.36,1.62,0.36,2.5c0,1.359-0.26,2.554-0.78,3.58s-1.214,1.88-2.08,2.56
			c-0.867,0.68-1.867,1.193-3,1.54c-1.134,0.347-2.327,0.521-3.58,0.521c-2.16,0-4.06-0.493-5.7-1.48
			c-1.64-0.986-2.78-2.546-3.42-4.68L108,91.045z"/>
		<path fill="#333434" d="M129.881,98.205c-0.72,0-1.34-0.26-1.86-0.78c-0.52-0.52-0.78-1.14-0.78-1.86c0-0.72,0.26-1.34,0.78-1.859
			c0.52-0.521,1.14-0.78,1.86-0.78c0.72,0,1.34,0.26,1.86,0.78c0.52,0.52,0.78,1.14,0.78,1.859c0,0.721-0.26,1.341-0.78,1.86
			C131.221,97.945,130.601,98.205,129.881,98.205z"/>
		<path fill="#333434" d="M150.881,91.725h-12.08v-3.92l11.28-18.16h4.64v18.721h4v3.359h-4v6.24h-3.84V91.725z M150.881,74.205
			h-0.08l-8.64,14.16h8.72V74.205z"/>
		<path fill="#333434" d="M173.578,75.172c-1.464,2.424-2.04,3.696-2.592,5.593c-0.528,1.848-0.792,3.792-0.792,5.88
			c0,2.089,0.264,4.032,0.792,5.856c0.552,1.896,1.152,3.169,2.592,5.593l-2.04,0.72c-1.656-2.52-2.304-3.815-2.976-5.904
			c-0.624-2.04-0.96-4.128-0.96-6.265c0-2.136,0.336-4.224,0.96-6.288c0.672-2.088,1.32-3.385,2.976-5.904L173.578,75.172z"/>
		<path fill="#333434" d="M190.354,76.708c0-0.984-0.048-1.824-0.168-2.712h3c-0.12,0.84-0.168,1.656-0.168,2.712v4.177h4.608
			c1.296,0,2.112-0.049,2.976-0.145v2.712c-0.912-0.096-1.8-0.144-2.976-0.144h-4.608v8.329h6.072c1.296,0,2.376-0.049,3.192-0.145
			v2.761c-0.912-0.12-1.92-0.168-3.192-0.168h-14.305c-1.296,0-2.376,0.048-3.288,0.168v-2.761c0.84,0.096,1.872,0.145,3.288,0.145
			h5.568v-8.329h-4.176c-1.176,0-2.064,0.048-2.976,0.144V80.74c0.792,0.096,1.752,0.145,2.976,0.145h4.176V76.708z"/>
		<path fill="#333434" d="M212.265,74.452c1.656,2.544,2.304,3.816,2.952,5.904c0.672,2.064,0.984,4.128,0.984,6.288
			s-0.312,4.225-0.96,6.265c-0.672,2.089-1.32,3.385-2.976,5.904l-2.041-0.72c1.464-2.424,2.041-3.696,2.592-5.593
			c0.528-1.824,0.792-3.744,0.792-5.856s-0.264-4.032-0.792-5.88c-0.552-1.896-1.128-3.169-2.592-5.593L212.265,74.452z"/>
		<path fill="#333434" d="M228.528,91.045c0.451,1.36,1.056,2.374,1.813,3.04c0.757,0.667,1.879,1,3.368,1
			c0.744,0,1.44-0.126,2.092-0.38c0.651-0.253,1.228-0.601,1.733-1.04c0.505-0.44,0.903-0.974,1.195-1.601
			c0.292-0.626,0.439-1.326,0.439-2.1c0-1.173-0.247-2.113-0.74-2.82c-0.494-0.706-1.126-1.239-1.9-1.6s-1.627-0.593-2.56-0.7
			c-0.934-0.106-1.854-0.16-2.76-0.16v-3.359c1.466,0,2.666-0.101,3.6-0.301c0.933-0.199,1.666-0.485,2.2-0.859
			c0.533-0.373,0.906-0.84,1.12-1.4c0.213-0.56,0.32-1.187,0.32-1.88c0-1.52-0.454-2.666-1.36-3.439
			c-0.907-0.773-2.04-1.16-3.4-1.16c-1.04,0-1.98,0.3-2.82,0.899c-0.84,0.601-1.474,1.394-1.9,2.38l-3.92-1.319
			c0.746-1.813,1.886-3.153,3.42-4.021c1.533-0.866,3.247-1.3,5.14-1.3c1.146,0,2.246,0.153,3.3,0.46
			c1.053,0.307,1.98,0.78,2.78,1.42c0.8,0.641,1.433,1.447,1.9,2.42c0.466,0.974,0.7,2.114,0.7,3.42c0,1.494-0.447,2.827-1.34,4
			c-0.894,1.174-2.06,1.974-3.5,2.4v0.08c0.88,0.16,1.667,0.453,2.36,0.88c0.693,0.427,1.28,0.96,1.76,1.6
			c0.48,0.641,0.84,1.354,1.08,2.141c0.24,0.786,0.36,1.62,0.36,2.5c0,1.359-0.26,2.554-0.78,3.58s-1.214,1.88-2.08,2.56
			c-0.867,0.68-1.867,1.193-3,1.54c-1.134,0.347-2.327,0.521-3.58,0.521c-2.16,0-4.06-0.493-5.7-1.48
			c-1.64-0.986-2.78-2.546-3.42-4.68L228.528,91.045z"/>
		<path fill="#333434" d="M250.408,98.205c-0.72,0-1.34-0.26-1.86-0.78c-0.52-0.52-0.78-1.14-0.78-1.86c0-0.72,0.26-1.34,0.78-1.859
			c0.52-0.521,1.14-0.78,1.86-0.78c0.72,0,1.34,0.26,1.86,0.78c0.52,0.52,0.78,1.14,0.78,1.859c0,0.721-0.26,1.341-0.78,1.86
			C251.748,97.945,251.128,98.205,250.408,98.205z"/>
		<path fill="#333434" d="M276.808,73.245h-11.48l-0.12,7.08c0.186-0.08,0.453-0.16,0.8-0.24c0.346-0.08,0.7-0.146,1.06-0.2
			c0.36-0.053,0.713-0.093,1.06-0.12c0.346-0.026,0.64-0.04,0.88-0.04c1.333,0,2.54,0.228,3.62,0.681s2.006,1.094,2.78,1.92
			c0.773,0.826,1.366,1.813,1.78,2.96c0.413,1.146,0.62,2.413,0.62,3.8c0,1.414-0.26,2.693-0.78,3.84s-1.234,2.134-2.14,2.96
			c-0.907,0.827-1.96,1.46-3.16,1.9c-1.2,0.439-2.494,0.66-3.88,0.66c-1.92,0-3.654-0.493-5.2-1.48
			c-1.547-0.986-2.654-2.4-3.32-4.24l3.84-1.319c0.509,1.307,1.191,2.246,2.047,2.819c0.856,0.574,1.927,0.86,3.212,0.86
			c0.75,0,1.465-0.133,2.148-0.4c0.683-0.266,1.271-0.646,1.766-1.14c0.495-0.493,0.89-1.1,1.185-1.82
			c0.294-0.72,0.442-1.533,0.442-2.439c0-2.08-0.634-3.634-1.9-4.66c-1.267-1.026-2.914-1.54-4.94-1.54
			c-0.72,0-1.634,0.127-2.74,0.38c-1.107,0.254-2.14,0.62-3.1,1.1l0.32-14.92h15.2V73.245z"/>
		<path fill="#333434" d="M294.105,75.172c-1.464,2.424-2.04,3.696-2.592,5.593c-0.528,1.848-0.792,3.792-0.792,5.88
			c0,2.089,0.264,4.032,0.792,5.856c0.552,1.896,1.152,3.169,2.592,5.593l-2.04,0.72c-1.656-2.52-2.304-3.815-2.976-5.904
			c-0.624-2.04-0.96-4.128-0.96-6.265c0-2.136,0.336-4.224,0.96-6.288c0.672-2.088,1.32-3.385,2.976-5.904L294.105,75.172z"/>
		<path fill="#333434" d="M304.4,77.332c0-0.888-0.047-1.704-0.119-2.473c0.695,0.097,1.464,0.12,2.568,0.12h11.16
			c1.104,0,1.801-0.023,2.473-0.12c-0.096,0.864-0.12,1.561-0.12,2.377v14.857c0,1.176,0.024,1.943,0.12,2.808h-2.76V93.51h-10.705
			v1.392h-2.761c0.097-0.84,0.144-1.704,0.144-2.808V77.332z M307.017,82.78h10.705v-5.353h-10.705V82.78z M307.017,91.085h10.705
			v-5.88h-10.705V91.085z"/>
		<path fill="#333434" d="M332.792,74.452c1.656,2.544,2.305,3.816,2.952,5.904c0.672,2.064,0.983,4.128,0.983,6.288
			s-0.312,4.225-0.959,6.265c-0.672,2.089-1.32,3.385-2.977,5.904l-2.041-0.72c1.465-2.424,2.041-3.696,2.593-5.593
			c0.528-1.824,0.792-3.744,0.792-5.856s-0.264-4.032-0.792-5.88c-0.552-1.896-1.128-3.169-2.593-5.593L332.792,74.452z"/>
		<path fill="#333434" d="M353.935,74.045l-5.199,4.8l-2.24-2.68l7.881-6.521h3.399v28.32h-3.841V74.045z"/>
		<path fill="#333434" d="M374.175,74.045l-5.199,4.8l-2.24-2.68l7.88-6.521h3.399v28.32h-3.84V74.045z"/>
		<path fill="#333434" d="M391.175,81.045c-0.72,0-1.34-0.26-1.859-0.78c-0.52-0.52-0.78-1.14-0.78-1.859
			c0-0.721,0.261-1.341,0.78-1.86c0.52-0.521,1.14-0.78,1.859-0.78c0.721,0,1.34,0.26,1.86,0.78c0.521,0.52,0.78,1.14,0.78,1.86
			c0,0.72-0.26,1.34-0.78,1.859C392.515,80.785,391.896,81.045,391.175,81.045z M388.536,92.564c0-0.72,0.261-1.34,0.78-1.859
			c0.52-0.521,1.14-0.78,1.859-0.78c0.721,0,1.34,0.26,1.86,0.78c0.521,0.52,0.78,1.14,0.78,1.859c0,0.721-0.26,1.341-0.78,1.86
			c-0.521,0.521-1.14,0.78-1.86,0.78c-0.72,0-1.34-0.26-1.859-0.78C388.796,93.905,388.536,93.285,388.536,92.564z"/>
		<path fill="#333434" d="M401.095,83.805c0-1.04,0.054-2.12,0.16-3.24c0.107-1.119,0.301-2.22,0.58-3.3
			c0.28-1.08,0.653-2.113,1.121-3.1c0.465-0.986,1.065-1.847,1.799-2.58s1.601-1.32,2.601-1.76c1-0.44,2.166-0.66,3.5-0.66
			c1.333,0,2.5,0.22,3.5,0.66c1,0.439,1.866,1.026,2.601,1.76c0.732,0.733,1.332,1.594,1.799,2.58s0.84,2.02,1.121,3.1
			c0.279,1.08,0.473,2.181,0.58,3.3c0.105,1.12,0.159,2.2,0.159,3.24c0,1.494-0.134,3.094-0.399,4.8
			c-0.268,1.707-0.76,3.294-1.48,4.761s-1.714,2.68-2.98,3.64s-2.899,1.44-4.899,1.44s-3.634-0.48-4.899-1.44
			c-1.268-0.96-2.261-2.173-2.98-3.64c-0.721-1.467-1.214-3.054-1.48-4.761C401.229,86.898,401.095,85.299,401.095,83.805z
			 M404.936,83.805c0,0.934,0.06,2.04,0.18,3.32s0.38,2.514,0.78,3.7s0.993,2.193,1.779,3.02c0.787,0.827,1.847,1.24,3.181,1.24
			c1.333,0,2.394-0.413,3.18-1.24c0.786-0.826,1.38-1.833,1.78-3.02s0.66-2.42,0.779-3.7c0.121-1.28,0.181-2.387,0.181-3.32
			c0-0.64-0.021-1.366-0.06-2.18c-0.041-0.813-0.135-1.641-0.28-2.48c-0.147-0.84-0.354-1.652-0.62-2.439
			c-0.268-0.786-0.62-1.493-1.061-2.12c-0.439-0.626-0.979-1.126-1.619-1.5c-0.641-0.373-1.4-0.561-2.28-0.561
			s-1.64,0.188-2.28,0.561c-0.64,0.374-1.18,0.874-1.619,1.5c-0.441,0.627-0.795,1.334-1.061,2.12
			c-0.268,0.787-0.475,1.6-0.62,2.439c-0.147,0.84-0.24,1.667-0.28,2.48C404.957,82.438,404.936,83.165,404.936,83.805z"/>
		<path fill="#333434" d="M425.335,83.805c0-1.04,0.054-2.12,0.16-3.24c0.107-1.119,0.301-2.22,0.58-3.3
			c0.28-1.08,0.653-2.113,1.121-3.1c0.465-0.986,1.065-1.847,1.799-2.58s1.601-1.32,2.601-1.76c1-0.44,2.166-0.66,3.5-0.66
			c1.333,0,2.5,0.22,3.5,0.66c1,0.439,1.866,1.026,2.601,1.76c0.732,0.733,1.332,1.594,1.799,2.58s0.84,2.02,1.121,3.1
			c0.279,1.08,0.473,2.181,0.58,3.3c0.105,1.12,0.159,2.2,0.159,3.24c0,1.494-0.134,3.094-0.399,4.8
			c-0.268,1.707-0.76,3.294-1.48,4.761s-1.714,2.68-2.98,3.64s-2.899,1.44-4.899,1.44s-3.634-0.48-4.899-1.44
			c-1.268-0.96-2.261-2.173-2.98-3.64c-0.721-1.467-1.214-3.054-1.48-4.761C425.469,86.898,425.335,85.299,425.335,83.805z
			 M429.176,83.805c0,0.934,0.06,2.04,0.18,3.32s0.38,2.514,0.78,3.7s0.993,2.193,1.779,3.02c0.787,0.827,1.847,1.24,3.181,1.24
			c1.333,0,2.394-0.413,3.18-1.24c0.786-0.826,1.38-1.833,1.78-3.02s0.66-2.42,0.779-3.7c0.121-1.28,0.181-2.387,0.181-3.32
			c0-0.64-0.021-1.366-0.06-2.18c-0.041-0.813-0.135-1.641-0.28-2.48c-0.147-0.84-0.354-1.652-0.62-2.439
			c-0.268-0.786-0.62-1.493-1.061-2.12c-0.439-0.626-0.979-1.126-1.619-1.5c-0.641-0.373-1.4-0.561-2.28-0.561
			s-1.64,0.188-2.28,0.561c-0.64,0.374-1.18,0.874-1.619,1.5c-0.441,0.627-0.795,1.334-1.061,2.12
			c-0.268,0.787-0.475,1.6-0.62,2.439c-0.147,0.84-0.24,1.667-0.28,2.48C429.197,82.438,429.176,83.165,429.176,83.805z"/>
		<path fill="#333434" d="M469.016,85.325c-0.8,1.359-1.634,2.286-2.5,2.779c-0.866,0.494-1.739,0.74-2.62,0.74
			c-0.773,0-1.547-0.146-2.32-0.439c-0.773-0.294-1.547-0.627-2.319-1c-0.774-0.374-1.514-0.707-2.22-1
			c-0.707-0.294-1.381-0.44-2.021-0.44c-0.427,0-0.813,0.087-1.159,0.26c-0.348,0.174-0.654,0.4-0.92,0.681
			c-0.268,0.279-0.508,0.587-0.721,0.92c-0.214,0.333-0.4,0.674-0.561,1.02l-1.6-2.479c0.613-1.04,1.334-1.887,2.16-2.54
			s1.88-0.98,3.16-0.98c0.8,0,1.58,0.146,2.34,0.435s1.486,0.618,2.18,0.985c0.693,0.369,1.373,0.704,2.041,1.007
			c0.666,0.302,1.306,0.453,1.92,0.453c0.639,0,1.252-0.203,1.84-0.611c0.586-0.407,1.16-1.163,1.72-2.269L469.016,85.325z"/>
		<path fill="#333434" d="M481.656,74.045l-5.199,4.8l-2.24-2.68l7.88-6.521h3.399v28.32h-3.84V74.045z"/>
		<path fill="#333434" d="M506.537,87.005h-0.16c-0.881,0.427-1.92,0.64-3.12,0.64c-1.014,0-2.04-0.173-3.08-0.52
			s-1.979-0.887-2.82-1.62c-0.84-0.733-1.526-1.666-2.06-2.8c-0.534-1.134-0.801-2.474-0.801-4.021c0-1.546,0.261-2.913,0.781-4.1
			c0.52-1.187,1.219-2.18,2.1-2.98c0.88-0.8,1.906-1.406,3.08-1.819c1.173-0.413,2.426-0.62,3.76-0.62
			c1.333,0,2.586,0.214,3.76,0.64c1.174,0.427,2.2,1.04,3.08,1.84c0.88,0.801,1.58,1.761,2.1,2.88c0.521,1.12,0.78,2.374,0.78,3.761
			c0,0.88-0.067,1.68-0.2,2.399c-0.133,0.721-0.326,1.407-0.58,2.061s-0.553,1.3-0.899,1.939c-0.347,0.641-0.733,1.294-1.16,1.96
			l-7.16,11.32h-4.521L506.537,87.005z M510.096,78.405c0-0.854-0.14-1.641-0.42-2.36s-0.681-1.34-1.2-1.86
			c-0.52-0.52-1.14-0.926-1.859-1.22c-0.721-0.293-1.521-0.44-2.4-0.44s-1.68,0.147-2.4,0.44c-0.72,0.294-1.34,0.7-1.859,1.22
			c-0.521,0.521-0.92,1.141-1.2,1.86s-0.42,1.507-0.42,2.36s0.14,1.64,0.42,2.359s0.68,1.34,1.2,1.86
			c0.52,0.52,1.14,0.927,1.859,1.22c0.721,0.294,1.521,0.44,2.4,0.44s1.68-0.146,2.4-0.44c0.72-0.293,1.34-0.7,1.859-1.22
			c0.52-0.521,0.92-1.141,1.2-1.86S510.096,79.259,510.096,78.405z"/>
		<path fill="#333434" d="M523.896,81.045c-0.72,0-1.34-0.26-1.859-0.78c-0.52-0.52-0.78-1.14-0.78-1.859
			c0-0.721,0.261-1.341,0.78-1.86c0.52-0.521,1.14-0.78,1.859-0.78c0.721,0,1.34,0.26,1.86,0.78c0.521,0.52,0.78,1.14,0.78,1.86
			c0,0.72-0.26,1.34-0.78,1.859C525.236,80.785,524.617,81.045,523.896,81.045z M521.256,92.564c0-0.72,0.261-1.34,0.78-1.859
			c0.52-0.521,1.14-0.78,1.859-0.78c0.721,0,1.34,0.26,1.86,0.78c0.521,0.52,0.78,1.14,0.78,1.859c0,0.721-0.26,1.341-0.78,1.86
			c-0.521,0.521-1.14,0.78-1.86,0.78c-0.72,0-1.34-0.26-1.859-0.78C521.517,93.905,521.256,93.285,521.256,92.564z"/>
		<path fill="#333434" d="M533.816,83.805c0-1.04,0.054-2.12,0.16-3.24c0.107-1.119,0.301-2.22,0.58-3.3
			c0.28-1.08,0.653-2.113,1.121-3.1c0.465-0.986,1.065-1.847,1.799-2.58s1.601-1.32,2.601-1.76c1-0.44,2.166-0.66,3.5-0.66
			c1.333,0,2.5,0.22,3.5,0.66c1,0.439,1.866,1.026,2.601,1.76c0.732,0.733,1.332,1.594,1.799,2.58s0.84,2.02,1.121,3.1
			c0.279,1.08,0.473,2.181,0.58,3.3c0.105,1.12,0.159,2.2,0.159,3.24c0,1.494-0.134,3.094-0.399,4.8
			c-0.268,1.707-0.76,3.294-1.48,4.761s-1.714,2.68-2.98,3.64s-2.899,1.44-4.899,1.44s-3.634-0.48-4.899-1.44
			c-1.268-0.96-2.261-2.173-2.98-3.64c-0.721-1.467-1.214-3.054-1.48-4.761C533.95,86.898,533.816,85.299,533.816,83.805z
			 M537.657,83.805c0,0.934,0.06,2.04,0.18,3.32s0.38,2.514,0.78,3.7s0.993,2.193,1.779,3.02c0.787,0.827,1.847,1.24,3.181,1.24
			c1.333,0,2.394-0.413,3.18-1.24c0.786-0.826,1.38-1.833,1.78-3.02s0.66-2.42,0.779-3.7c0.121-1.28,0.181-2.387,0.181-3.32
			c0-0.64-0.021-1.366-0.06-2.18c-0.041-0.813-0.135-1.641-0.28-2.48c-0.147-0.84-0.354-1.652-0.62-2.439
			c-0.268-0.786-0.62-1.493-1.061-2.12c-0.439-0.626-0.979-1.126-1.619-1.5c-0.641-0.373-1.4-0.561-2.28-0.561
			s-1.64,0.188-2.28,0.561c-0.64,0.374-1.18,0.874-1.619,1.5c-0.441,0.627-0.795,1.334-1.061,2.12
			c-0.268,0.787-0.475,1.6-0.62,2.439c-0.147,0.84-0.24,1.667-0.28,2.48C537.677,82.438,537.657,83.165,537.657,83.805z"/>
		<path fill="#333434" d="M558.056,83.805c0-1.04,0.054-2.12,0.16-3.24c0.107-1.119,0.301-2.22,0.58-3.3
			c0.28-1.08,0.653-2.113,1.121-3.1c0.465-0.986,1.065-1.847,1.799-2.58s1.601-1.32,2.601-1.76c1-0.44,2.166-0.66,3.5-0.66
			c1.333,0,2.5,0.22,3.5,0.66c1,0.439,1.866,1.026,2.601,1.76c0.732,0.733,1.332,1.594,1.799,2.58s0.84,2.02,1.121,3.1
			c0.279,1.08,0.473,2.181,0.58,3.3c0.105,1.12,0.159,2.2,0.159,3.24c0,1.494-0.134,3.094-0.399,4.8
			c-0.268,1.707-0.76,3.294-1.48,4.761s-1.714,2.68-2.98,3.64s-2.899,1.44-4.899,1.44s-3.634-0.48-4.899-1.44
			c-1.268-0.96-2.261-2.173-2.98-3.64c-0.721-1.467-1.214-3.054-1.48-4.761C558.19,86.898,558.056,85.299,558.056,83.805z
			 M561.897,83.805c0,0.934,0.06,2.04,0.18,3.32s0.38,2.514,0.78,3.7s0.993,2.193,1.779,3.02c0.787,0.827,1.847,1.24,3.181,1.24
			c1.333,0,2.394-0.413,3.18-1.24c0.786-0.826,1.38-1.833,1.78-3.02s0.66-2.42,0.779-3.7c0.121-1.28,0.181-2.387,0.181-3.32
			c0-0.64-0.021-1.366-0.06-2.18c-0.041-0.813-0.135-1.641-0.28-2.48c-0.147-0.84-0.354-1.652-0.62-2.439
			c-0.268-0.786-0.62-1.493-1.061-2.12c-0.439-0.626-0.979-1.126-1.619-1.5c-0.641-0.373-1.4-0.561-2.28-0.561
			s-1.64,0.188-2.28,0.561c-0.64,0.374-1.18,0.874-1.619,1.5c-0.441,0.627-0.795,1.334-1.061,2.12
			c-0.268,0.787-0.475,1.6-0.62,2.439c-0.147,0.84-0.24,1.667-0.28,2.48C561.917,82.438,561.897,83.165,561.897,83.805z"/>
	</g>
	<g>
		<path fill="#333434" d="M34.515,135.906c-0.216,0.576-0.216,0.576-0.648,1.836c-1.98,5.795-5.075,11.123-8.783,15.01
			c-1.08-1.115-2.016-1.871-3.528-2.808c2.34-2.016,3.852-3.959,5.651-7.163c1.116-2.016,1.98-4.104,2.736-6.551
			c0.144-0.396,0.288-1.008,0.432-1.8L34.515,135.906z M35.451,124.784c0-1.116-0.072-2.088-0.216-3.132h4.536
			c-0.144,1.044-0.216,2.052-0.216,3.132v2.915h8.999c1.8,0,3.276-0.071,4.68-0.216v4.283c-1.764-0.18-1.764-0.18-4.788-0.216
			H27.063c-2.304,0-3.383,0.036-4.787,0.216v-4.283c1.404,0.145,3.095,0.216,4.931,0.216h8.243V124.784z M44.558,134.358
			c0.36,1.548,0.864,2.916,2.124,5.651c1.8,3.888,4.211,7.379,6.983,10.043c-1.404,0.864-2.195,1.512-3.491,2.844
			c-3.852-4.392-6.731-9.467-9.035-15.874c-0.216-0.576-0.288-0.72-0.468-1.116L44.558,134.358z"/>
		<path fill="#333434" d="M64.503,130.688c-1.476,0-2.771,0.071-4.104,0.216v-4.248c1.404,0.181,2.448,0.252,4.104,0.252h8.891
			v-2.447c0-1.368-0.072-2.195-0.216-3.204h4.319c-0.144,0.973-0.216,1.872-0.216,3.168v2.483h9.359
			c1.728,0,2.952-0.071,4.175-0.252v4.248c-1.476-0.145-2.627-0.216-4.175-0.216h-7.415c1.62,2.915,3.24,5.219,5.183,7.234
			c2.34,2.484,4.824,4.355,7.559,5.796c-1.08,1.296-1.656,2.195-2.375,3.779c-2.196-1.512-3.815-2.808-5.795-4.787v3.887
			c-1.044-0.144-2.016-0.18-3.456-0.18h-3.06v2.376c0,1.655,0.072,3.06,0.252,4.283h-4.391c0.18-1.296,0.252-2.663,0.252-4.319
			v-2.34h-2.736c-1.476,0-2.412,0.036-3.456,0.18v-3.852c-1.98,2.052-3.419,3.312-5.615,4.824c-0.684-1.548-1.188-2.34-2.34-3.6
			c5.147-3.204,9.359-7.883,12.022-13.282H64.503z M73.395,137.274c0-1.044,0.108-2.483,0.252-3.852
			c-1.8,3.707-3.456,6.083-6.264,9.143c0.828,0.108,1.44,0.145,3.096,0.145h2.916V137.274z M80.593,142.71
			c1.62,0,2.196-0.036,3.06-0.145c-2.735-2.735-4.211-4.787-6.695-9.179c0.216,1.439,0.324,2.844,0.324,3.852v5.472H80.593z"/>
		<path fill="#333434" d="M116.378,131.479c2.988,5.723,7.271,10.006,13.462,13.354c-1.368,1.477-1.62,1.836-2.664,3.672
			c-3.132-2.195-5.003-3.708-6.695-5.507c-2.268-2.412-3.852-4.572-5.579-7.812c0.18,1.476,0.252,2.808,0.252,3.888v9.683
			c0,1.656,0.072,3.06,0.252,4.283h-4.5c0.18-1.224,0.252-2.663,0.252-4.319v-9.61c0-0.864,0.072-2.34,0.18-3.744
			c-2.591,5.328-6.299,9.467-11.842,13.282c-0.828-1.548-1.548-2.52-2.592-3.527c5.723-3.275,10.619-8.387,12.995-13.642h-7.559
			c-1.548,0-2.844,0.071-4.14,0.216v-4.067c1.26,0.18,2.52,0.252,4.14,0.252h8.819v-3.276c0-1.296-0.072-2.195-0.216-3.203h4.428
			c-0.144,1.008-0.216,1.907-0.216,3.203v3.276h9.287c1.728,0,3.06-0.072,4.175-0.252v4.067c-1.26-0.145-2.699-0.216-4.175-0.216
			H116.378z"/>
		<path fill="#333434" d="M146.261,125.271h3.132l10.908,25.488h-4.032l-2.556-6.3h-12.132l-2.52,6.3h-4.032L146.261,125.271z
			 M152.453,141.436l-4.752-11.7h-0.072l-4.824,11.7H152.453z"/>
		<path fill="#333434" d="M167.464,141.651l-6.048-7.956h4.176l4.14,6.049l4.068-6.049h3.924l-5.832,7.956l6.912,9.108h-4.176
			l-5.04-7.164l-5.04,7.164h-3.996L167.464,141.651z"/>
		<path fill="#333434" d="M180.964,127.576c0-0.648,0.234-1.206,0.702-1.675c0.468-0.468,1.026-0.701,1.674-0.701
			s1.206,0.233,1.674,0.701c0.468,0.469,0.702,1.026,0.702,1.675c0,0.647-0.234,1.206-0.702,1.674
			c-0.468,0.468-1.026,0.702-1.674,0.702s-1.206-0.234-1.674-0.702S180.964,128.224,180.964,127.576z M181.721,133.695h3.24v17.064
			h-3.24V133.695z"/>
		<path fill="#333434" d="M199.18,137.979c-0.384-0.479-0.858-0.882-1.422-1.206c-0.564-0.323-1.254-0.485-2.07-0.485
			c-0.768,0-1.434,0.162-1.998,0.485c-0.564,0.324-0.846,0.799-0.846,1.422c0,0.505,0.162,0.913,0.486,1.225
			c0.324,0.312,0.708,0.564,1.152,0.756c0.444,0.192,0.918,0.336,1.422,0.432c0.504,0.097,0.936,0.181,1.296,0.252
			c0.696,0.169,1.35,0.373,1.962,0.612c0.612,0.24,1.14,0.553,1.584,0.937c0.444,0.384,0.792,0.852,1.044,1.403
			c0.252,0.553,0.378,1.225,0.378,2.017c0,0.96-0.204,1.781-0.612,2.466c-0.408,0.684-0.936,1.242-1.584,1.674
			s-1.386,0.744-2.214,0.936c-0.828,0.192-1.662,0.288-2.502,0.288c-1.417,0-2.659-0.216-3.726-0.647
			c-1.068-0.433-2.022-1.225-2.862-2.376l2.448-2.017c0.527,0.528,1.116,0.997,1.764,1.404c0.648,0.408,1.44,0.612,2.376,0.612
			c0.408,0,0.822-0.042,1.242-0.126s0.792-0.216,1.116-0.396c0.324-0.18,0.588-0.407,0.792-0.684
			c0.204-0.275,0.306-0.594,0.306-0.954c0-0.479-0.15-0.876-0.45-1.188c-0.3-0.312-0.661-0.558-1.08-0.737
			c-0.42-0.181-0.864-0.324-1.332-0.433c-0.468-0.107-0.882-0.197-1.242-0.27c-0.697-0.168-1.356-0.36-1.98-0.576
			s-1.176-0.504-1.656-0.864c-0.48-0.359-0.864-0.815-1.152-1.368c-0.288-0.552-0.432-1.235-0.432-2.052
			c0-0.888,0.186-1.661,0.558-2.321c0.372-0.66,0.864-1.206,1.476-1.639c0.612-0.432,1.308-0.756,2.088-0.972
			c0.779-0.216,1.566-0.324,2.358-0.324c1.152,0,2.256,0.216,3.312,0.648c1.056,0.432,1.896,1.151,2.52,2.159L199.18,137.979z"/>
		<path fill="#333434" d="M217.79,123.021c1.62-0.324,3.167-0.469,4.571-0.469c0.72,0,0.972,0.181,0.972,0.685
			c0,0.144,0,0.252-0.108,0.611c-0.036,0.216-0.072,0.468-0.072,0.721c0,0.647,0.072,1.26,0.54,3.887
			c2.916-0.468,6.335-1.224,7.883-1.691c0.252-0.108,0.324-0.108,0.54-0.108c0.252,0,0.36,0.217,0.504,0.9s0.432,2.52,0.432,2.808
			c0,0.432-0.144,0.504-1.548,0.647c-0.9,0.072-1.404,0.145-3.204,0.469c-0.648,0.107-0.648,0.107-3.923,0.684
			c0.612,3.167,0.612,3.167,0.936,4.859c0.792-0.145,0.792-0.145,1.583-0.288c3.6-0.647,6.047-1.188,7.703-1.691
			c0.576-0.181,0.936-0.288,1.044-0.288c0.288,0,0.396,0.144,0.504,0.504c0.288,0.936,0.648,2.663,0.648,3.239
			c0,0.324-0.072,0.36-1.152,0.54c-0.576,0.108-0.576,0.108-1.764,0.324c-1.944,0.323-1.944,0.323-7.811,1.332
			c0.936,4.535,0.936,4.535,2.231,9.754c0.072,0.288,0.108,0.504,0.108,0.576c0,0.36-0.144,0.468-0.756,0.684
			c-1.008,0.36-2.879,0.757-3.383,0.757c-0.36,0-0.432-0.108-0.54-0.792c-0.252-1.729-0.828-4.932-1.764-10.223
			c-7.343,1.367-7.919,1.512-9.971,2.231c-0.468,0.144-0.612,0.18-0.792,0.18c-0.288,0-0.468-0.144-0.648-0.54
			c-0.432-0.899-0.792-2.052-1.224-3.815c1.872-0.072,3.852-0.359,11.95-1.764c-0.432-2.124-0.72-3.672-0.972-4.896
			c-6.551,1.152-6.551,1.152-8.387,1.692c-0.288,0.107-0.36,0.107-0.432,0.107c-0.576,0-0.576,0-1.62-4.211
			c1.98-0.036,1.98-0.036,9.719-1.296C219.014,126.403,218.438,124.352,217.79,123.021z M234.636,127.951
			c-0.756-1.403-1.548-2.447-2.664-3.6c-0.216-0.216-0.216-0.252-0.216-0.359c0-0.216,0.216-0.433,0.828-0.9
			c0.576-0.432,0.792-0.54,1.008-0.54c0.288,0,0.648,0.288,1.548,1.26c1.152,1.296,1.979,2.412,1.979,2.7
			c0,0.432-1.62,1.728-2.087,1.728C234.888,128.239,234.78,128.167,234.636,127.951z M239.639,125.216
			c-0.216,0.144-0.54,0.36-0.648,0.396c-0.036,0.036-0.036,0.036-0.18,0.072c-0.036,0-0.072,0.036-0.108,0.036
			c-0.108,0-0.252-0.108-0.324-0.288c-0.504-0.936-1.836-2.663-2.772-3.563c-0.072-0.072-0.072-0.072-0.18-0.252
			c0.216-0.36,0.216-0.36,0.576-0.612c0.54-0.359,1.116-0.72,1.188-0.72c0.432,0.072,0.432,0.072,0.864,0.433
			c0.972,0.863,2.7,3.023,2.7,3.455C240.755,124.352,240.359,124.712,239.639,125.216z"/>
		<path fill="#333434" d="M263.904,132.271c0.36-0.216,0.504-0.252,0.756-0.252c0.864,0,3.203,2.376,3.203,3.24
			c0,0.252-0.108,0.396-0.36,0.611c-0.504,0.433-0.684,0.612-1.152,1.404c-0.936,1.548-2.268,3.275-3.671,4.751
			c-0.576,0.612-0.9,0.828-1.188,0.828c-0.216,0-0.432-0.108-0.684-0.288c-0.972-0.756-1.476-1.008-3.024-1.548
			c2.016-1.332,3.384-2.627,4.967-4.823c-4.679,1.116-4.679,1.116-7.487,1.836c1.512,5.976,2.052,7.919,3.383,12.383
			c0.072,0.323,0.108,0.468,0.108,0.611c0,0.324-0.36,0.54-1.332,0.792c-0.612,0.18-1.836,0.396-2.16,0.396
			c-0.432,0-0.504-0.145-0.684-1.188c-0.324-1.907-1.62-7.127-2.952-12.059c-2.664,0.756-3.095,0.864-4.463,1.512
			c-0.396,0.181-0.612,0.252-0.792,0.252c-0.684,0-1.476-1.619-2.087-4.139c1.8-0.072,2.664-0.217,6.407-1.044
			c-0.756-2.808-1.116-3.815-1.98-5.399c1.944-0.324,3.384-0.468,4.319-0.468c0.612,0,0.864,0.18,0.864,0.575
			c0,0.108,0,0.181-0.036,0.396c-0.072,0.216-0.072,0.359-0.072,0.54c0,0.72,0.144,1.439,0.648,3.563
			C261.348,133.207,263.04,132.774,263.904,132.271z"/>
		<path fill="#333434" d="M278.522,136.158c-0.072,0-0.252,0.036-0.288,0.036c-0.792,0-1.116-1.224-1.368-4.932
			c1.764,0.288,4.248,0.396,10.943,0.396c7.2,0,9.143,0,9.827-0.072c0.54-0.036,0.648-0.072,1.367-0.288
			c0.252-0.107,0.469-0.144,0.685-0.144c0.54,0,0.972,0.252,1.548,0.863c0.972,1.116,1.619,2.124,1.619,2.556
			c0,0.396-0.18,0.685-0.611,1.152c-0.288,0.252-0.468,0.576-1.152,2.124c-2.411,5.291-5.111,8.53-9.358,11.23
			c-1.944,1.26-5.075,2.699-5.795,2.699c-0.504,0-0.792-0.216-1.404-0.936c-0.936-1.116-1.368-1.512-2.375-2.016
			c4.104-1.224,7.847-3.275,10.511-5.831c2.016-1.944,3.527-4.464,4.57-7.596C283.598,135.582,281.078,135.69,278.522,136.158z
			 M290.293,123.38c3.744,0,3.744,0,7.883-0.288c0.144,0,0.18,0,0.432,0c0.468,0,0.647,0.36,0.685,1.44c0,0.432,0,0.827,0.035,1.188
			c0,0.072,0,0.144,0,0.144c0,1.296-0.144,1.656-0.611,1.656c-0.145,0-0.432-0.036-0.756-0.036c-0.684-0.072-3.384-0.144-4.5-0.144
			c-5.399,0-9.25,0.071-11.374,0.252c-0.108,0-0.216,0-0.288,0c-0.936,0-1.08-0.54-1.296-4.571
			C282.842,123.308,285.11,123.38,290.293,123.38z"/>
		<path fill="#333434" d="M318.482,134.035c0,0.827,0.035,2.483,0.072,3.491c0,0.359,0.035,0.72,0.035,0.864
			c0,0.72-0.504,0.863-3.312,0.863c-1.079,0-1.296-0.144-1.296-0.756c0-0.144,0-0.468,0-0.72c0.145-2.808,0.217-4.355,0.217-6.911
			c0-4.176-0.108-5.795-0.396-7.667c1.836,0.036,3.527,0.144,4.355,0.324c0.504,0.107,0.792,0.359,0.792,0.791
			c0,0.181-0.036,0.288-0.108,0.505c-0.287,0.72-0.359,1.403-0.359,3.131V134.035z M332.484,129.355
			c0,5.147-0.324,8.495-1.008,11.015c-1.296,4.571-4.176,8.243-8.423,10.582c-0.899,0.504-1.584,0.792-1.836,0.792
			s-0.433-0.107-0.685-0.396c-0.827-1.044-1.475-1.62-2.734-2.448c2.303-0.863,4.246-2.087,5.83-3.635
			c1.836-1.8,3.023-3.96,3.672-6.552c0.469-2.052,0.792-5.939,0.792-10.078c0-2.916-0.108-4.355-0.36-5.688
			c2.16,0.036,3.456,0.18,4.572,0.396c0.468,0.108,0.684,0.288,0.684,0.648c0,0.18-0.036,0.323-0.145,0.647
			c-0.287,0.792-0.359,1.512-0.359,3.204V129.355z"/>
		<path fill="#333434" d="M355.273,135.043c6.588,0,10.367-0.072,14.003-0.324c0.108,0,0.323,0,0.468,0
			c1.08,0,1.08,0.036,1.08,2.915c0,1.477-0.108,1.729-0.721,1.729c0,0-0.107,0-0.144,0c-2.376-0.108-3.708-0.108-14.11-0.108
			c-3.815,0-5.723,0.036-9.035,0.145c-0.252,0-0.539,0-1.043,0c-1.152,0-1.332,0.035-2.016,0.144c-0.181,0-0.324,0.036-0.396,0.036
			c-0.396,0-0.648-0.18-0.72-0.504c-0.216-0.9-0.36-2.735-0.36-4.392C345.195,134.971,347.75,135.043,355.273,135.043z"/>
		<path fill="#333434" d="M419.57,126.548c-0.972,0-1.943,0.072-3.312,0.18v-4.14c1.08,0.145,1.692,0.181,3.239,0.181h5.508
			c1.439,0,2.304-0.036,3.168-0.181c-0.108,0.756-0.145,1.512-0.145,2.196c0,4.859,1.26,9.467,3.707,13.642
			c1.44,2.412,3.168,4.5,5.508,6.659c1.764,1.584,2.771,2.304,5.147,3.708c-1.332,1.296-1.979,2.159-2.915,3.924
			c-3.492-2.448-6.084-4.968-8.459-8.136c-1.225-1.691-2.017-3.023-3.024-5.111c-0.864-1.907-1.188-2.771-1.764-4.931
			c-1.224,4.427-2.628,7.379-4.931,10.438c-2.196,2.915-4.824,5.291-8.567,7.811c-0.72-1.476-1.548-2.52-2.844-3.6
			c2.952-1.691,4.644-3.023,6.947-5.435c2.699-2.808,4.823-6.479,5.938-10.224c0.685-2.375,0.973-4.175,1.116-6.982H419.57z"/>
		<path fill="#333434" d="M461.833,142.422c-1.368,1.224-2.196,1.8-4.212,2.951c-0.432-0.756-0.575-1.008-1.331-1.836
			c-2.16,1.296-3.528,2.017-6.876,3.636c-0.036,0.036-0.216,0.108-0.468,0.252l-0.324,0.181l-0.863-4.032
			c0.899-0.216,2.123-0.647,3.887-1.403v-9.107h-1.008c-1.008,0-1.764,0.036-2.663,0.181v-3.672
			c0.792,0.108,1.583,0.144,2.699,0.144h0.972v-4.283c0-1.8-0.072-2.844-0.215-3.852h4.031c-0.181,1.116-0.217,2.052-0.217,3.852
			v4.283h0.648c1.115,0,1.764-0.035,2.412-0.107v3.563c-0.756-0.072-1.44-0.108-2.412-0.108h-0.648v7.415
			c0.793-0.432,1.188-0.647,2.34-1.296v2.412c1.872-1.151,3.061-2.195,4.104-3.527h-0.791c-1.44,0-2.412,0.071-3.168,0.18v-3.455
			c0.756,0.144,1.619,0.18,3.203,0.18h15.118c1.655,0,2.735-0.072,3.6-0.18v3.419c-1.044-0.107-2.016-0.144-3.563-0.144h-10.582
			c-0.289,0.504-0.469,0.792-0.937,1.439h10.979c1.692,0,2.304-0.036,3.384-0.107c-0.072,0.575-0.107,1.079-0.145,2.052
			c-0.18,4.247-0.684,7.811-1.403,9.358c-0.72,1.584-1.836,2.052-4.859,2.052c-0.864,0-1.512-0.036-2.915-0.108
			c-0.145-1.26-0.396-2.195-0.937-3.167c-1.836,1.619-3.312,2.592-5.688,3.779c-0.792-1.116-1.331-1.728-2.483-2.628
			c2.987-1.296,4.463-2.159,6.299-3.707c1.404-1.224,2.52-2.664,3.564-4.607h-2.053c-2.159,3.239-5.111,5.543-9.61,7.559
			c-0.576-1.08-1.08-1.655-2.159-2.592c3.923-1.512,6.19-2.879,7.99-4.967H461.833z M462.876,133.495
			c-1.403,0-2.447,0.035-3.167,0.107c0.108-0.972,0.144-1.907,0.144-3.312v-5.039c0-1.44-0.035-2.088-0.144-3.132
			c1.079,0.145,1.836,0.18,3.491,0.18h10.079c1.8,0,2.628-0.035,3.708-0.18c-0.108,0.9-0.145,1.656-0.145,3.42v4.787
			c0,1.476,0.036,2.556,0.145,3.239c-0.828-0.036-1.692-0.071-3.133-0.071H462.876z M463.417,126.8h9.79v-1.476h-9.79V126.8z
			 M463.417,130.723h9.79v-1.403h-9.79V130.723z M473.927,142.422c-1.332,2.88-2.699,4.823-4.823,6.767
			c1.476,0.216,2.556,0.288,3.563,0.288c1.26,0,1.62-0.359,1.943-1.836c0.252-1.224,0.433-2.735,0.613-5.219H473.927z"/>
		<path fill="#333434" d="M490.851,129.031c-1.116,1.08-1.512,1.404-2.844,2.448c-1.08-1.332-1.549-1.8-2.52-2.628
			c3.238-2.34,5.146-4.319,6.406-6.659c0.324-0.612,0.612-1.224,0.721-1.728l4.031,0.791c-0.252,0.396-0.252,0.396-0.721,1.225
			c-0.287,0.54-0.575,1.008-1.079,1.764h16.702c2.123,0,3.311-0.072,4.391-0.216v3.815c-1.26-0.108-1.439-0.145-3.419-0.181v4.607
			h1.368c1.619,0,2.375-0.035,3.383-0.18v3.815c-1.008-0.144-1.799-0.18-3.383-0.18h-1.368v4.607h0.684
			c1.692,0,2.34-0.036,3.312-0.18v3.779c-0.9-0.145-1.728-0.18-3.239-0.18h-23.541c-1.368,0-2.017,0.035-3.06,0.18v-3.779
			c0.9,0.144,1.799,0.18,3.383,0.18h0.793v-4.607h-1.477c-1.584,0-2.34,0.036-3.383,0.18v-3.815c0.971,0.145,1.764,0.18,3.383,0.18
			h1.477V129.031z M485.919,150.629c2.123-2.052,3.131-3.6,4.283-6.516l3.168,1.62c-1.404,3.348-2.268,4.787-4.428,7.271
			L485.919,150.629z M494.27,132.271h2.808v-4.607h-2.808V132.271z M494.27,140.334h2.808v-4.607h-2.808V140.334z M495.854,152.86
			c0.036-0.864,0.036-0.864,0.036-1.404c0-1.331-0.288-4.499-0.54-6.119l3.384-0.396c0.576,3.132,0.756,4.68,0.899,7.559
			L495.854,152.86z M503.089,132.271v-4.607h-2.88v4.607H503.089z M503.089,140.334v-4.607h-2.88v4.607H503.089z M503.917,152.752
			c-0.541-3.348-0.756-4.319-1.621-7.271l3.312-0.756c0.972,2.699,1.439,4.283,2.052,7.199L503.917,152.752z M509.1,132.271v-4.607
			h-2.915v4.607H509.1z M509.1,140.334v-4.607h-2.915v4.607H509.1z M513.744,152.788c-1.26-2.879-2.088-4.319-4.14-7.234
			l2.987-1.477c1.98,2.448,2.988,3.96,4.464,6.623L513.744,152.788z"/>
		<path fill="#333434" d="M536.894,143.682c-0.181,0.468-0.217,0.611-0.396,1.151c-1.439-1.548-2.412-2.951-3.492-4.859
			c0.18,2.412,0.217,2.88,0.217,3.924v5.724c0,1.655,0.035,2.592,0.18,3.6h-3.959c0.144-1.116,0.215-2.088,0.215-3.672v-4.464
			c0-1.367,0.072-2.951,0.145-4.104c-1.548,3.744-2.664,5.724-4.5,7.739c-0.396-1.368-0.971-2.556-1.764-3.563
			c2.268-2.34,3.708-4.644,5.58-8.999h-1.801c-1.512,0-2.303,0.036-3.131,0.181v-3.672c0.828,0.144,1.476,0.18,3.096,0.18h2.34
			v-8.171c0-1.548-0.036-2.556-0.18-3.384h3.959c-0.145,0.9-0.18,1.692-0.18,3.348v8.207h1.619c1.332,0,1.908-0.036,2.664-0.144v3.6
			c-0.792-0.108-1.512-0.145-2.736-0.145h-1.223c1.295,2.232,2.555,3.744,4.427,5.292c-0.433,0.791-0.575,1.079-0.937,1.943
			c0.793-0.072,2.017-0.252,3.168-0.504l8.1-1.8v-15.766c0-2.017-0.036-2.952-0.217-4.032h4.176
			c-0.18,1.152-0.216,2.088-0.216,3.996v14.974c1.512-0.359,2.052-0.504,2.915-0.863l0.756,3.959
			c-0.899,0.108-1.727,0.252-3.347,0.576l-0.324,0.072v5.075c0,1.907,0.036,2.951,0.216,4.067h-4.176
			c0.181-1.188,0.217-1.979,0.217-4.104v-4.176l-7.344,1.656c-1.476,0.323-2.483,0.575-3.275,0.863L536.894,143.682z
			 M526.886,123.164c1.116,3.096,1.62,4.859,2.124,7.451l-2.915,1.26c-0.541-3.204-1.152-5.291-2.16-7.379L526.886,123.164z
			 M538.729,124.388c-0.864,3.168-1.331,4.392-2.735,7.487l-2.557-1.296c1.152-2.34,1.692-4.14,2.377-7.487L538.729,124.388z
			 M540.457,132.199c2.736,1.907,4.248,3.167,6.047,5.075l-2.375,2.844c-2.412-2.628-3.563-3.636-6.084-5.327L540.457,132.199z
			 M541.573,123.56c2.915,2.088,4.031,3.024,6.011,5.111l-2.34,2.916c-2.592-2.771-2.627-2.808-6.119-5.363L541.573,123.56z"/>
	</g>
	<g>
		<g>
			<path fill="#333434" d="M73.998,16.03c-1.248,0.288-1.68,0.432-3.408,1.056c-0.624,0.24-0.96,0.336-1.249,0.336
				c-1.056,0-2.016-1.968-2.88-6.096c3.072-0.144,4.176-0.288,9.505-1.104c5.76-0.864,13.057-1.968,16.897-2.448
				c4.32-0.576,7.776-1.152,9.601-1.536c0.336-0.096,0.48-0.096,0.72-0.096c0.624,0,0.864,0.288,1.296,1.488
				c0.384,1.008,0.672,2.448,0.672,3.12c0,0.576-0.192,0.768-0.864,0.768c-1.008,0-1.92,0.096-2.833,0.24
				c-8.112,1.344-14.593,8.449-14.593,15.937c0,5.617,4.416,9.313,11.905,9.985c0.672,0.048,0.912,0.288,0.912,0.864
				c0,1.2-0.48,3.504-0.912,4.561c-0.24,0.528-0.624,0.768-1.248,0.768s-2.064-0.288-3.552-0.72
				c-8.161-2.4-12.433-7.584-12.433-14.929c0-3.984,1.296-7.681,3.792-10.849c1.344-1.728,2.496-2.688,5.232-4.561
				C84.271,13.87,77.646,15.118,73.998,16.03z M98.576,17.278c0.672,0,4.752,4.56,4.752,5.28c0,0.24-0.288,0.528-1.152,1.296
				c-0.912,0.768-0.96,0.768-1.344,0.912c-0.24,0.096-0.24,0.096-0.336,0.096c-0.192,0-0.24-0.048-1.104-1.392
				c-0.768-1.2-1.584-2.256-3.12-3.84c-0.096-0.096-0.24-0.336-0.24-0.384c0.096-0.24,0.144-0.384,0.192-0.384
				c0.144-0.192,0.96-0.864,1.152-1.008c0.48-0.24,0.768-0.432,0.816-0.48c0.048-0.096,0.144-0.096,0.144-0.096h0.144H98.576z
				 M106.784,20.59c-0.72,0.528-1.152,0.816-1.392,0.816c-0.192,0-0.288-0.096-0.528-0.48c-1.44-2.16-2.16-3.072-3.696-4.56
				c-0.096-0.144-0.192-0.288-0.192-0.384c0-0.24,0.288-0.528,0.96-1.008c0.672-0.48,1.248-0.768,1.488-0.768
				c0.336,0,0.912,0.432,1.92,1.44c1.392,1.44,2.688,3.216,2.688,3.648C108.032,19.582,107.696,19.918,106.784,20.59z"/>
			<path fill="#333434" d="M134.478,14.158c-4.128,0.72-8.4,1.2-10.993,1.2c-0.768,0-1.104-0.144-1.2-0.576
				c-0.192-0.72-0.384-2.16-0.48-3.936c3.888,0,6.865-0.24,11.137-0.912c-0.24-0.72-0.24-0.72-0.864-2.497
				c-0.432-1.152-0.816-2.112-1.344-3.12c2.064-0.432,3.937-0.672,5.665-0.672c0.432,0,0.672,0.288,0.672,0.768
				c0,0.048,0,0.144,0,0.24c0,0.144,0,0.288,0,0.432c0,0.864,0.192,2.016,0.672,3.888c3.6-0.816,6.672-1.824,9.121-2.88
				c0.384-0.144,0.48-0.192,0.624-0.192c0.24,0,0.384,0.24,0.816,1.249c0.432,1.104,0.864,2.352,0.864,2.592
				c0,0.24-0.096,0.336-0.384,0.48c-2.833,1.2-4.128,1.632-9.697,3.024c0.672,1.68,0.864,2.112,1.68,3.84
				c2.64-0.72,3.937-1.152,4.896-1.632c4.513-2.256,4.513-2.256,4.513-2.256c0.096-0.048,0.144-0.096,0.144-0.096
				c0.048,0,0.144,0.048,0.192,0.048c0.192,0,0.384,0.288,0.816,1.2c0.576,1.152,1.056,2.448,1.056,2.736
				c0,0.336,0,0.336-1.008,0.864c-2.64,1.44-4.704,2.256-8.161,3.216c1.92,2.832,4.657,5.904,6.289,7.057
				c1.632,1.152,1.68,1.248,1.68,1.728c0,0.432-0.48,1.44-1.392,3.024c-0.816,1.392-1.2,1.776-1.728,1.776
				c-0.288,0-0.336,0-1.056-0.528c-2.448-1.872-7.393-3.168-12.145-3.168c-4.128,0-6.721,1.44-6.721,3.84
				c0,1.488,1.152,2.688,3.216,3.457c1.872,0.672,6,1.104,10.465,1.104c1.056,0,1.968-0.048,3.84-0.144
				c-0.864,1.248-1.296,2.112-1.872,4.128c-0.288,1.008-0.624,1.2-2.112,1.2c-5.136,0-9.697-0.576-12.769-1.68
				c-4.08-1.44-6.24-4.128-6.24-7.729c0-5.136,4.224-8.256,11.233-8.256c4.32,0,7.057,0.48,10.081,1.824
				c-2.688-2.544-4.128-4.272-5.521-6.528c-2.304,0.48-3.456,0.672-4.992,0.912c-2.736,0.384-7.729,0.768-9.745,0.768
				c-1.536,0-1.584-0.048-2.016-4.561c1.056,0.048,1.872,0.048,2.353,0.048c3.072,0,8.929-0.624,12.145-1.296
				C135.63,16.942,135.006,15.55,134.478,14.158z"/>
			<path fill="#333434" d="M188.574,36.24c3.937,0,8.305-0.576,12.625-1.68c0.24-0.096,0.384-0.096,0.528-0.096
				c0.288,0,0.432,0.192,0.528,0.624c0.144,1.056,0.24,2.592,0.24,4.177c0,0.96-0.096,1.248-0.528,1.44
				c-1.44,0.768-7.921,1.488-13.489,1.488c-7.249,0-11.377-1.248-14.689-4.32c-1.584-1.488-3.168-4.081-3.168-5.137
				c0-0.72,0.432-1.056,4.368-3.264C176.717,34.224,180.702,36.24,188.574,36.24z M189.006,8.589c2.784,0,4.417-0.096,7.681-0.576
				c0.096,0,0.24,0,0.336,0c0.384,0,0.528,0.144,0.624,0.432c0.096,0.576,0.192,2.016,0.192,3.744c0,1.104-0.096,1.488-0.384,1.68
				c-0.384,0.24-4.56,0.528-7.776,0.528c-4.272,0-7.825-0.336-11.809-1.104c-2.736-0.528-2.88-0.624-2.88-2.353
				c0-1.056,0.096-2.928,0.24-4.224C179.406,7.965,183.966,8.589,189.006,8.589z M203.072,11.085c-0.24,0-0.384-0.096-0.528-0.384
				c-1.248-2.064-2.112-3.216-3.792-4.896c-0.144-0.144-0.192-0.24-0.192-0.384c0-0.384,1.92-1.92,2.448-1.92
				c0.336,0,0.912,0.432,2.112,1.728c1.536,1.632,2.688,3.168,2.688,3.552C205.808,9.31,203.696,11.085,203.072,11.085z
				 M208.016,2.061c1.488,1.584,2.544,3.024,2.544,3.457c0,0.288-0.144,0.432-0.912,1.056c-0.96,0.72-1.488,1.056-1.776,1.056
				c-0.144,0-0.288-0.144-0.48-0.48c-1.44-2.112-2.256-3.121-3.696-4.561c-0.144-0.096-0.24-0.288-0.24-0.384
				c0-0.432,1.872-1.776,2.497-1.776C206.288,0.429,207.008,0.957,208.016,2.061z"/>
			<path fill="#333434" d="M231.294,18.91c-0.624-2.112-0.816-3.408-1.392-9.312c-0.192-2.305-0.384-3.457-0.864-5.089
				c2.928,0.048,4.8,0.192,6.096,0.528c0.72,0.192,1.056,0.528,1.056,1.056c0,0.192-0.048,0.432-0.144,0.816
				c-0.336,1.152-0.48,2.016-0.48,3.264c0,2.353,0.48,6.193,1.008,7.873c0.288,0.912,0.576,1.249,1.104,1.249
				c1.152,0,5.376-2.208,7.681-3.984c0.624-0.48,0.72-0.528,0.96-0.528c0.432,0,0.864,0.336,1.584,1.248
				c1.2,1.632,2.16,3.409,2.16,4.081c0,0.528-0.336,0.864-1.152,1.104c-2.976,0.816-7.873,2.736-11.185,4.32
				c-5.856,2.88-8.497,5.521-8.497,8.497c0,2.928,2.448,4.128,8.641,4.128c3.601,0,6.865-0.336,11.281-1.056
				c0.192-0.048,0.528-0.096,0.624-0.096c0.384,0,0.624,0.192,0.816,0.576c0.144,0.48,0.48,3.408,0.48,4.56
				c0,0.672-0.192,0.912-0.816,1.104c-1.056,0.24-6.865,0.576-10.513,0.576c-6.145,0-10.225-0.816-12.769-2.544
				c-2.16-1.488-3.312-3.84-3.312-6.721c0-2.208,0.624-4.176,1.92-6.097c1.68-2.496,3.504-4.08,7.537-6.48
				C232.11,21.07,231.726,20.398,231.294,18.91z"/>
			<path fill="#333434" d="M285.871,33.647c-2.304,3.984-5.473,6.192-8.737,6.192c-4.993,0-8.545-4.896-8.545-11.713
				c0-7.584,3.84-14.113,10.417-17.569c3.216-1.729,6.672-2.496,11.233-2.496c10.032,0,17.474,7.104,17.474,16.609
				c0,8.4-4.129,14.449-12.098,17.857c-1.584,0.672-2.832,1.056-3.455,1.056c-0.576,0-0.816-0.192-1.441-1.104
				c-0.816-1.249-1.728-2.16-3.024-3.024c9.889-2.544,14.354-7.201,14.354-14.978c0-3.984-1.681-7.344-4.656-9.457
				c-1.681-1.152-3.025-1.632-5.665-2.064C290.383,23.086,288.799,28.607,285.871,33.647z M278.958,16.654
				c-3.216,2.833-5.041,6.865-5.041,11.377c0,3.696,1.2,5.856,3.216,5.856c2.4,0,4.848-3.312,6.672-9.025
				c1.152-3.601,1.728-6.336,2.448-11.665C282.846,13.918,281.166,14.734,278.958,16.654z"/>
			<path fill="#333434" d="M322.83,20.687c-0.385,0.096-0.576,0.192-0.864,0.336c-0.24,0.144-0.384,0.192-0.624,0.192
				c-1.008,0-1.776-1.872-2.353-5.424c0.384,0.048,0.72,0.048,0.912,0.048c2.017,0,7.153-0.624,10.226-1.248
				c1.008-4.225,1.535-7.393,1.535-9.697c0-0.192,0-0.432-0.048-0.816c2.064,0.24,4.032,0.672,5.376,1.2
				c0.769,0.288,1.152,0.72,1.152,1.2c0,0.24-0.048,0.384-0.287,0.768c-0.721,1.296-0.721,1.296-2.209,6.577
				c1.152-0.144,2.448-0.24,3.265-0.24c1.968,0,3.504,0.384,4.608,1.152c1.92,1.392,2.88,4.224,2.88,8.593
				c0,7.152-1.296,13.249-3.504,16.273c-1.536,2.112-3.552,3.12-6.385,3.12c-1.728,0-3.36-0.24-3.841-0.528
				c-0.383-0.24-0.383-0.24-0.527-2.016c-0.145-1.296-0.432-2.4-1.008-3.745c2.496,0.816,3.12,0.96,4.656,0.96
				c2.304,0,3.264-1.104,4.32-4.944c0.72-2.544,1.104-5.856,1.104-9.361c0-3.744-0.912-5.088-3.456-5.088
				c-0.864,0-2.256,0.096-3.36,0.288c-0.144,0.528-0.191,0.576-0.384,1.248c-1.345,4.896-3.792,11.377-6.241,16.562
				c-2.543,5.232-3.168,6.289-3.791,6.289c-0.385,0-1.681-0.672-3.072-1.584c-1.105-0.672-1.393-0.96-1.393-1.344
				c0-0.24,0-0.24,1.968-3.36c2.641-4.081,6.097-12.097,7.297-16.801C325.23,20.062,323.261,20.542,322.83,20.687z M347.311,15.31
				c0-0.336,0.433-0.768,1.824-1.873c0.96-0.72,1.44-1.008,1.776-1.008c0.288,0,0.528,0.144,1.152,0.768
				c2.832,2.736,5.473,6.384,7.009,9.553c0.479,1.056,0.768,1.728,0.768,2.016c0,0.48-0.144,0.624-1.68,1.872
				c-0.961,0.768-2.064,1.393-2.448,1.393c-0.337,0-0.48-0.144-0.816-0.96c-0.96-2.352-1.872-4.176-3.024-5.953
				c-1.248-1.92-1.488-2.208-4.32-5.232C347.359,15.598,347.311,15.454,347.311,15.31z"/>
			<path fill="#333434" d="M371.597,18.286c-0.096,0-0.191,0-0.288,0c-0.239,0.048-0.432,0.048-0.527,0.048
				c-0.433,0-0.673-0.192-0.816-0.816c-0.288-1.2-0.48-2.688-0.576-4.512c0.672,0.048,1.2,0.048,1.536,0.048
				c2.593,0,5.616-0.192,8.161-0.528c0.479-3.168,0.72-5.617,0.72-7.585c0-0.24,0-0.624,0-1.104c5.568,0.72,6.625,1.056,6.576,1.92
				c0,0.24-0.096,0.384-0.288,0.816c-0.575,1.104-0.624,1.248-1.392,5.041c1.872-0.336,4.272-0.96,5.232-1.296
				c0.192-0.096,0.24-0.096,0.384-0.096c0.433,0,0.528,0.192,0.912,1.872c0.192,0.96,0.384,2.304,0.384,2.688
				c0,0.336-0.144,0.528-0.575,0.624c-0.864,0.288-0.864,0.288-7.441,1.44c-2.208,9.745-4.512,16.945-8.208,25.586
				c-0.24,0.624-0.48,0.864-0.769,0.864c-0.624,0-2.304-0.672-3.937-1.584c-0.815-0.432-1.056-0.672-1.056-0.912
				c0-0.192,0.144-0.528,0.384-1.008c3.648-6.913,6.289-14.257,8.112-22.178C376.014,17.902,374.526,18.046,371.597,18.286z
				 M392.095,36.528c1.392,0.912,3.408,1.344,6.24,1.344c3.12,0,5.809-0.288,7.345-0.768c0.384-0.096,0.48-0.144,0.672-0.144
				c0.433,0,0.624,0.144,0.769,0.576c0.336,1.008,0.576,2.977,0.576,4.464c0,0.624-0.192,0.864-0.816,1.008
				c-1.584,0.336-4.272,0.528-7.104,0.528c-6.001,0-9.361-0.96-11.569-3.264c-0.815-0.864-1.488-1.968-1.872-3.168
				c-0.288-0.672-0.479-1.488-0.479-1.776c0-0.816,1.439-1.68,3.936-2.496C390.319,34.848,390.895,35.712,392.095,36.528z
				 M405.584,22.559c-0.96-0.144-2.977-0.24-4.656-0.24c-3.553,0-5.041,0.144-9.265,0.864c-0.097,0.048-0.24,0.048-0.337,0.048
				c-0.287,0-0.432-0.096-0.527-0.384c-0.145-0.336-0.336-2.688-0.336-3.696c0-0.624,0.096-0.912,0.479-1.056
				c0.192-0.096,0.48-0.144,1.488-0.336c3.265-0.576,6.001-0.816,9.361-0.816c2.784,0,4.224,0.096,4.56,0.336
				c0.24,0.192,0.288,0.576,0.288,2.16c0,1.392-0.096,2.64-0.191,2.928c-0.048,0.144-0.24,0.24-0.48,0.24
				C405.873,22.606,405.728,22.606,405.584,22.559z"/>
			<path fill="#333434" d="M424.877,16.846c-2.593,0-2.688,0-2.977-0.576c-0.288-0.48-0.624-2.496-0.769-4.608
				c1.776,0.192,3.505,0.288,5.809,0.288c1.393,0,3.265-0.048,5.232-0.192c0.385-2.88,0.48-3.889,0.48-5.665
				c0-0.816-0.048-1.44-0.145-2.544c2.353,0.144,5.041,0.576,6.097,0.96c0.385,0.144,0.528,0.288,0.528,0.672
				c0,0.288-0.048,0.48-0.336,1.056c-0.432,0.96-0.624,1.728-0.912,3.264c-0.144,0.912-0.192,1.104-0.288,1.728
				c3.937-0.48,7.873-1.344,10.609-2.4c0.384-0.096,0.575-0.144,0.768-0.144c0.336,0,0.48,0.24,0.672,1.2
				c0.192,1.056,0.433,2.977,0.433,3.504c0,0.576-0.192,0.672-1.633,1.008c-3.792,0.768-8.544,1.488-11.856,1.776
				c-1.44,5.761-2.112,7.633-3.841,10.849c2.688-2.112,4.129-2.928,6.433-3.744c2.064-0.768,4.08-1.104,6.24-1.104
				c3.505,0,6.337,0.96,8.161,2.785c1.681,1.68,2.641,4.176,2.641,6.769c0,3.552-1.681,6.432-5.281,8.833
				c-2.64,1.824-7.008,3.36-11.377,3.937c-0.768,0.096-1.536,0.192-1.823,0.192c-0.721,0-1.057-0.24-1.393-0.816
				c-0.912-1.729-1.68-2.736-2.929-3.937c4.465-0.192,7.873-0.816,11.329-2.064c3.648-1.296,5.761-3.504,5.761-6.049
				c0-3.264-1.968-5.232-5.232-5.232c-5.425,0-11.473,3.36-15.361,8.497c-0.288,0.336-0.576,0.528-0.864,0.528
				c-0.864,0-4.176-3.024-4.176-3.792c0-0.24,0.048-0.336,0.527-0.96c2.545-3.457,4.513-8.305,5.905-14.257
				C430.494,16.654,425.405,16.846,424.877,16.846z"/>
			<path fill="#333434" d="M507.392,32.688c-1.44,1.248-1.44,1.248-3.504,3.072c-0.769,0.72-1.104,0.96-2.257,1.776
				c3.024,1.584,5.232,2.304,9.841,3.216c-1.487,1.632-2.063,2.592-2.928,4.705c-6.289-1.872-9.889-3.696-13.777-7.057v3.457
				c-3.744,0.912-7.633,1.68-16.369,3.216c-0.769,0.144-1.009,0.192-1.824,0.336l-0.769-5.281c0.433,0.048,0.624,0.048,0.816,0.048
				c1.056,0,2.496-0.096,4.704-0.384v-9.025h-4.752c-0.769,6.193-2.112,10.321-4.753,14.881c-1.344-1.68-2.352-2.736-4.128-4.176
				c1.776-2.736,2.736-5.28,3.456-8.881c0.96-4.656,1.44-11.809,1.44-21.602c0-3.553-0.048-5.137-0.24-6.961
				c1.584,0.192,3.408,0.24,6.049,0.24h25.058c2.496,0,3.984-0.048,5.329-0.192c-0.097,1.296-0.145,2.304-0.145,4.08v3.601
				c0,1.92,0.048,2.736,0.145,4.032c-1.393-0.096-3.169-0.144-5.041-0.144h-2.736v3.072h2.736c2.641,0,3.36-0.048,4.465-0.192v4.56
				c-1.345-0.096-2.832-0.144-4.561-0.144h-2.641v3.601h4.081c2.544,0,3.984-0.048,5.185-0.24v4.705
				c-1.536-0.144-3.121-0.24-5.089-0.24h-2.064L507.392,32.688z M484.35,16.222v-0.576h-6.912
				c-0.097,5.041-0.192,8.161-0.433,10.897h7.345v-3.601h-1.728c-1.729,0-2.785,0.048-3.937,0.144v-4.56
				c1.008,0.144,2.16,0.192,3.937,0.192h1.728V16.222z M503.84,11.709V8.493h-26.402v3.216H503.84z M486.174,30.767v8.353
				c2.88-0.432,2.88-0.432,7.825-1.44c-2.257-2.256-3.36-3.84-4.705-6.913H486.174z M496.255,18.718v-3.072h-7.152v3.072H496.255z
				 M496.255,26.543v-3.601h-7.152v3.601H496.255z M494.335,30.767c0.815,1.68,1.775,2.833,3.6,4.32
				c1.824-1.344,3.408-2.88,4.513-4.32H494.335z"/>
		</g>
	</g>
</g>
<g>
</g>
<g>
</g>
<g>
</g>
<g>
</g>
<g>
</g>
<g>
</g>
<g>
</g>
<g>
</g>
<g>
</g>
<g>
</g>
<g>
</g>
<g>
</g>
<g>
</g>
<g>
</g>
<g>
</g>
</svg>
