<?xml version="1.0" encoding="utf-8"?>
<!-- Generator: Adobe Illustrator 16.0.0, SVG Export Plug-In . SVG Version: 6.00 Build 0)  -->
<!DOCTYPE svg PUBLIC "-//W3C//DTD SVG 1.1//EN" "http://www.w3.org/Graphics/SVG/1.1/DTD/svg11.dtd">
<svg version="1.1" xmlns="http://www.w3.org/2000/svg" xmlns:xlink="http://www.w3.org/1999/xlink" x="0px" y="0px"
	 width="284.979px" height="86.257px" viewBox="0 0 284.979 86.257" enable-background="new 0 0 284.979 86.257"
	 xml:space="preserve">
<g id="レイヤー_1" display="none">
	<g display="inline">
		<defs>
			<rect id="SVGID_1_" x="-1130.165" y="-216.745" width="858.898" height="612.288"/>
		</defs>
		<clipPath id="SVGID_2_">
			<use xlink:href="#SVGID_1_"  overflow="visible"/>
		</clipPath>
		<g clip-path="url(#SVGID_2_)">
			<defs>
				<path id="SVGID_3_" d="M-765.763,69.397c0-35.866,29.181-65.047,65.046-65.047c35.867,0,65.048,29.181,65.048,65.047
					c0,35.867-29.181,65.047-65.048,65.047C-736.582,134.445-765.763,105.264-765.763,69.397 M-826.699,69.397
					c0,69.467,56.516,125.982,125.982,125.982c69.468,0,125.982-56.515,125.982-125.982c0-69.467-56.515-125.983-125.982-125.983
					C-770.183-56.585-826.699-0.069-826.699,69.397"/>
			</defs>
			<clipPath id="SVGID_4_">
				<use xlink:href="#SVGID_3_"  overflow="visible"/>
			</clipPath>
			<g opacity="0.03" clip-path="url(#SVGID_4_)">
				<g>
					<defs>
						<rect id="SVGID_5_" x="-777.689" y="-34.443" width="205.55" height="203.11"/>
					</defs>
					<clipPath id="SVGID_6_">
						<use xlink:href="#SVGID_5_"  overflow="visible"/>
					</clipPath>
					<path clip-path="url(#SVGID_6_)" fill="none" stroke="#DA2B7B" stroke-width="22.677" stroke-miterlimit="10" d="
						M-758.755,72.678c1.546,21.657,9.032,43.4,23.868,59.254c15.748,16.828,39.104,25.864,62.147,25.377
						c23.042-0.488,45.533-10.161,62.701-25.537c13.028-11.669,23.348-27.115,25.899-44.418c1.539-10.444,0.217-21.12-2.104-31.418
						c-2.875-12.765-7.356-25.329-14.768-36.113c-14.394-20.942-38.601-33.323-63.255-39.475
						c-9.713-2.424-19.739-4.019-29.721-3.265c-18.316,1.383-35.39,10.694-48.796,23.25c-9.582,8.976-17.684,19.913-21.437,32.494
						c-3.752,12.582-2.738,26.934,4.537,37.864c1.487,2.234,3.063,5.621,0.867,7.163"/>
				</g>
			</g>
			<g opacity="0.03" clip-path="url(#SVGID_4_)">
				<g>
					<defs>
						<rect id="SVGID_7_" x="-790.267" y="-57.652" width="221.397" height="216.373"/>
					</defs>
					<clipPath id="SVGID_8_">
						<use xlink:href="#SVGID_7_"  overflow="visible"/>
					</clipPath>
					<path clip-path="url(#SVGID_8_)" fill="none" stroke="#FFFFFF" stroke-width="22.677" stroke-miterlimit="10" d="
						M-778.933,57.323c0.8-27.771,12.318-55.248,32.167-74.687s47.927-30.43,75.661-28.789c27.734,1.641,54.611,16.14,70.541,38.902
						c7.489,10.702,12.555,22.962,15.984,35.566c3.55,13.042,5.402,26.701,3.777,40.119c-3.48,28.732-23.374,54.225-49.161,67.365
						c-25.786,13.141-56.661,14.579-84.579,6.947c-25.704-7.028-51.183-24.009-57.62-49.868c-2.842-11.413-1.832-23.921-7.23-34.371
						"/>
				</g>
			</g>
			<g opacity="0.03" clip-path="url(#SVGID_4_)">
				<g>
					<defs>
						<rect id="SVGID_9_" x="-780.85" y="-15.337" width="177.186" height="176.044"/>
					</defs>
					<clipPath id="SVGID_10_">
						<use xlink:href="#SVGID_9_"  overflow="visible"/>
					</clipPath>
					<path clip-path="url(#SVGID_10_)" fill="none" stroke="#3DB1D9" stroke-width="22.677" stroke-miterlimit="10" d="
						M-767.57,75.938c-1.173-24.696,10.506-49.653,30.219-64.576s46.903-19.389,70.354-11.558
						c7.774,2.597,15.106,6.441,21.844,11.109c9.906,6.864,18.686,15.715,23.946,26.56c4.335,8.937,6.149,18.96,6.202,28.893
						c0.15,27.61-14.007,55.111-37.084,70.271c-23.076,15.16-54.46,17.102-78.818,4.101c-24.358-13.002-40.321-40.724-38.457-68.271
						"/>
				</g>
			</g>
			<g opacity="0.03" clip-path="url(#SVGID_4_)">
				<g>
					<defs>
						<rect id="SVGID_11_" x="-820.39" y="-61.589" width="257.09" height="257.975"/>
					</defs>
					<clipPath id="SVGID_12_">
						<use xlink:href="#SVGID_11_"  overflow="visible"/>
					</clipPath>
					<path clip-path="url(#SVGID_12_)" fill="none" stroke="#53AB40" stroke-width="22.677" stroke-miterlimit="10" d="
						M-801.23,13.68c-3.751,6.731-5.158,14.496-6.11,22.143c-2.067,16.588-2.263,33.409-0.583,50.042
						c0.866,8.567,2.248,17.163,5.38,25.184c3.571,9.144,9.311,17.275,15.48,24.912c11.542,14.285,24.927,27.295,40.686,36.725
						c10.417,6.233,21.964,10.888,34.046,12.055c10.464,1.011,21.015-0.61,31.246-3.025c41.809-9.867,82.035-35.479,99.182-74.866
						c4.082-9.378,6.804-19.424,7.21-29.644c0.486-12.221-2.339-24.387-6.639-35.837c-17.096-45.528-59.163-80.756-106.984-89.595
						c-10.519-1.945-21.324-2.692-31.935-1.332c-13.059,1.673-25.536,6.493-37.293,12.419
						c-11.076,5.583-21.788,12.301-30.111,21.498c-8.323,9.196-14.11,21.135-14.055,33.538"/>
				</g>
			</g>
			<g opacity="0.03" clip-path="url(#SVGID_4_)">
				<g>
					<defs>
						<rect id="SVGID_13_" x="-790.789" y="-47.414" width="213.296" height="203.988"/>
					</defs>
					<clipPath id="SVGID_14_">
						<use xlink:href="#SVGID_13_"  overflow="visible"/>
					</clipPath>
					<path clip-path="url(#SVGID_14_)" fill="none" stroke="#DD3618" stroke-width="22.677" stroke-miterlimit="10" d="
						M-778.427,39.346c-2.927,19.006,0.477,38.931,9.546,55.888c11.229,20.993,30.994,37.063,53.551,44.678
						c22.558,7.614,47.667,6.896,70.094-1.094c9.15-3.26,17.954-7.74,25.372-14.013c6.365-5.383,11.609-12.001,15.98-19.099
						c16.488-26.778,20.106-61.611,7.482-90.413c-12.625-28.802-41.883-50.142-73.308-51.313c-18.77-0.7-37.107,5.301-54.625,12.073
						c-12.302,4.756-25.353,10.726-31.604,22.341c-5.452,10.13-5.11,23.576-13.669,31.263c-2.636,2.368-5.966,3.995-8.119,6.809
						c-2.154,2.813-2.454,7.598,0.626,9.349"/>
				</g>
			</g>
			<g opacity="0.03" clip-path="url(#SVGID_4_)">
				<g>
					<defs>
						<rect id="SVGID_15_" x="-829.438" y="-61.889" width="257.443" height="258.273"/>
					</defs>
					<clipPath id="SVGID_16_">
						<use xlink:href="#SVGID_15_"  overflow="visible"/>
					</clipPath>
					<path clip-path="url(#SVGID_16_)" fill="none" stroke="#310C09" stroke-width="22.677" stroke-miterlimit="10" d="
						M-745.998,180.739c7.033,3.149,14.891,3.874,22.591,4.157c16.706,0.612,33.48-0.658,49.902-3.781
						c8.46-1.609,16.902-3.735,24.62-7.556c8.797-4.354,16.399-10.78,23.468-17.592c13.225-12.743,25.019-27.211,33.039-43.731
						c5.301-10.92,8.934-22.829,9.042-34.967c0.095-10.512-2.439-20.882-5.737-30.863c-13.475-40.79-42.494-78.63-83.226-92.279
						c-9.698-3.25-19.943-5.085-30.16-4.599c-12.217,0.58-24.091,4.455-35.122,9.736c-43.864,21-75.292,65.976-79.93,114.387
						c-1.02,10.648-0.822,21.477,1.457,31.928c2.805,12.864,8.694,24.873,15.622,36.069c6.527,10.548,14.153,20.634,24.04,28.123
						c9.887,7.489,22.285,12.214,34.636,11.078"/>
				</g>
			</g>
			<g opacity="0.03" clip-path="url(#SVGID_4_)">
				<g>
					<defs>
						<rect id="SVGID_17_" x="-792.083" y="-20.053" width="220.995" height="217.416"/>
					</defs>
					<clipPath id="SVGID_18_">
						<use xlink:href="#SVGID_17_"  overflow="visible"/>
					</clipPath>
					<path clip-path="url(#SVGID_18_)" fill="none" stroke="#A9C00B" stroke-width="22.677" stroke-miterlimit="10" d="
						M-779.586,64.791c-4.034,27.488,2.537,56.547,18.709,79.138s41.915,38.29,69.512,41.49c27.598,3.2,56.584-6.411,76.225-26.062
						c9.234-9.239,16.352-20.434,21.918-32.251c5.76-12.227,9.956-25.356,10.686-38.854c1.562-28.899-13.603-57.46-36.717-74.878
						c-23.112-17.418-53.269-24.196-82.086-21.528c-26.534,2.457-54.575,14.757-65.405,39.104
						c-4.78,10.747-5.958,23.24-13.088,32.595"/>
				</g>
			</g>
			<g opacity="0.03" clip-path="url(#SVGID_4_)">
				<g>
					<defs>
						<rect id="SVGID_19_" x="-801.818" y="-41.41" width="229.365" height="225.784"/>
					</defs>
					<clipPath id="SVGID_20_">
						<use xlink:href="#SVGID_19_"  overflow="visible"/>
					</clipPath>
					<path clip-path="url(#SVGID_20_)" fill="none" stroke="#B1D9BC" stroke-width="22.677" stroke-miterlimit="10" d="
						M-789.378,64.462c1.589-17.608,9.352-34.277,20.045-48.357c26.797-35.285,75.009-54.613,117.66-42.612
						c42.65,12.002,74.594,57.586,66.669,101.179c-3.259,17.925-12.418,34.336-23.673,48.665
						c-20.212,25.729-49.162,46.271-81.739,49.321c-28.669,2.685-58.327-9.096-77.341-30.72
						c-19.014-21.623-26.903-52.545-20.574-80.635"/>
				</g>
			</g>
			<g opacity="0.03" clip-path="url(#SVGID_4_)">
				<g>
					<defs>
						<rect id="SVGID_21_" x="-788.194" y="-28.194" width="209.852" height="200.399"/>
					</defs>
					<clipPath id="SVGID_22_">
						<use xlink:href="#SVGID_21_"  overflow="visible"/>
					</clipPath>
					<path clip-path="url(#SVGID_22_)" fill="none" stroke="#C5CECA" stroke-width="22.677" stroke-miterlimit="10" d="
						M-764.214,53.173c5.283-21.06,16.431-41.173,33.794-54.209c18.431-13.838,43.002-18.682,65.61-14.2
						c22.608,4.482,43.077,17.913,57.314,36.037c10.804,13.754,18.285,30.758,17.792,48.241
						c-0.297,10.552-3.453,20.836-7.526,30.575c-5.048,12.072-11.644,23.667-20.814,33c-17.811,18.125-43.8,26.114-69.149,27.893
						c-9.985,0.7-20.137,0.528-29.835-1.946c-17.798-4.543-32.995-16.677-44.017-31.371c-7.878-10.503-13.958-22.68-15.469-35.723
						c-1.51-13.042,1.981-27,11.043-36.5c1.853-1.942,3.993-5.004,2.097-6.903"/>
				</g>
			</g>
			<g opacity="0.03" clip-path="url(#SVGID_4_)">
				<g>
					<defs>
						<rect id="SVGID_23_" x="-829.438" y="-59.739" width="257.443" height="258.272"/>
					</defs>
					<clipPath id="SVGID_24_">
						<use xlink:href="#SVGID_23_"  overflow="visible"/>
					</clipPath>
					<path clip-path="url(#SVGID_24_)" fill="none" stroke="#570B6E" stroke-width="22.677" stroke-miterlimit="10" d="
						M-655.435,182.888c-7.033,3.15-14.892,3.874-22.591,4.157c-16.706,0.613-33.48-0.658-49.902-3.781
						c-8.46-1.609-16.902-3.735-24.62-7.555c-8.797-4.354-16.399-10.781-23.468-17.592c-13.224-12.743-25.018-27.211-33.039-43.732
						c-5.301-10.92-8.933-22.829-9.042-34.967c-0.095-10.512,2.44-20.882,5.737-30.863c13.475-40.79,42.495-78.63,83.226-92.279
						c9.698-3.25,19.943-5.085,30.16-4.599c12.217,0.58,24.091,4.455,35.122,9.736c43.864,21,75.292,65.976,79.93,114.387
						c1.021,10.648,0.822,21.477-1.457,31.928c-2.805,12.864-8.694,24.873-15.622,36.069c-6.526,10.548-14.152,20.634-24.04,28.123
						c-9.887,7.49-22.285,12.214-34.636,11.079"/>
				</g>
			</g>
			<g opacity="0.03" clip-path="url(#SVGID_4_)">
				<g>
					<defs>
						<rect id="SVGID_25_" x="-785.865" y="-20.639" width="187.99" height="195.609"/>
					</defs>
					<clipPath id="SVGID_26_">
						<use xlink:href="#SVGID_25_"  overflow="visible"/>
					</clipPath>
					<path clip-path="url(#SVGID_26_)" fill="none" stroke="#671479" stroke-width="22.677" stroke-miterlimit="10" d="
						M-773.02,76.912c-2.019-10.254,0.461-20.985,4.983-30.407c4.521-9.421,10.991-17.749,17.409-25.996
						c5.542-7.12,11.216-14.366,18.707-19.395c8.168-5.484,17.987-7.973,27.734-9.303c15.905-2.171,32.507-1.422,47.392,4.59
						c21.111,8.527,37.324,27.548,43.937,49.336c6.612,21.789,3.958,45.939-5.766,66.528c-9.785,20.716-26.998,38.246-48.394,46.438
						c-21.396,8.19-46.862,6.312-65.738-6.673c-12.441-8.557-21.529-21.308-27.938-34.979
						c-6.409-13.673-10.339-28.351-14.211-42.946"/>
				</g>
			</g>
			<g opacity="0.03" clip-path="url(#SVGID_4_)">
				<g>
					<defs>
						<rect id="SVGID_27_" x="-796.109" y="-27.506" width="215.57" height="207.295"/>
					</defs>
					<clipPath id="SVGID_28_">
						<use xlink:href="#SVGID_27_"  overflow="visible"/>
					</clipPath>
					<path clip-path="url(#SVGID_28_)" fill="none" stroke="#E87806" stroke-width="22.677" stroke-miterlimit="10" d="
						M-784.063,73.828c0.421-19.394,7.293-38.594,19.274-53.85c14.833-18.889,37.284-31.393,61.028-35.006
						c23.743-3.612,48.563,1.5,69.443,13.366c8.52,4.842,16.48,10.834,22.752,18.365c5.38,6.462,9.431,13.956,12.529,21.773
						c11.69,29.491,9.184,64.731-8.403,91.133c-17.588,26.401-50.394,42.477-81.818,38.136
						c-18.768-2.593-35.935-11.767-52.152-21.562c-11.389-6.881-23.309-15.099-27.485-27.731
						c-3.642-11.019-0.946-24.318-8.102-33.453c-2.204-2.814-5.228-5.014-6.874-8.187c-1.647-3.172-1.107-7.979,2.259-9.179"/>
				</g>
			</g>
			<g opacity="0.03" clip-path="url(#SVGID_4_)">
				<g>
					<defs>
						<rect id="SVGID_29_" x="-792.083" y="-20.053" width="220.995" height="217.416"/>
					</defs>
					<clipPath id="SVGID_30_">
						<use xlink:href="#SVGID_29_"  overflow="visible"/>
					</clipPath>
					<path clip-path="url(#SVGID_30_)" fill="none" stroke="#DF5797" stroke-width="22.677" stroke-miterlimit="10" d="
						M-779.586,64.791c-4.034,27.488,2.537,56.547,18.709,79.138s41.915,38.29,69.512,41.49c27.598,3.2,56.584-6.411,76.225-26.062
						c9.234-9.239,16.352-20.434,21.918-32.251c5.76-12.227,9.956-25.356,10.686-38.854c1.562-28.899-13.603-57.46-36.717-74.878
						c-23.112-17.418-53.269-24.196-82.086-21.528c-26.534,2.457-54.575,14.757-65.405,39.104
						c-4.78,10.747-5.958,23.24-13.088,32.595"/>
				</g>
			</g>
			<g opacity="0.03" clip-path="url(#SVGID_4_)">
				<g>
					<defs>
						<rect id="SVGID_31_" x="-785.865" y="-20.639" width="187.99" height="195.609"/>
					</defs>
					<clipPath id="SVGID_32_">
						<use xlink:href="#SVGID_31_"  overflow="visible"/>
					</clipPath>
					<path clip-path="url(#SVGID_32_)" fill="none" stroke="#671479" stroke-width="22.677" stroke-miterlimit="10" d="
						M-773.02,76.912c-2.019-10.254,0.461-20.985,4.983-30.407c4.521-9.421,10.991-17.749,17.409-25.996
						c5.542-7.12,11.216-14.366,18.707-19.395c8.168-5.484,17.987-7.973,27.734-9.303c15.905-2.171,32.507-1.422,47.392,4.59
						c21.111,8.527,37.324,27.548,43.937,49.336c6.612,21.789,3.958,45.939-5.766,66.528c-9.785,20.716-26.998,38.246-48.394,46.438
						c-21.396,8.19-46.862,6.312-65.738-6.673c-12.441-8.557-21.529-21.308-27.938-34.979
						c-6.409-13.673-10.339-28.351-14.211-42.946"/>
				</g>
			</g>
			<g opacity="0.03" clip-path="url(#SVGID_4_)">
				<g>
					<defs>
						<rect id="SVGID_33_" x="-822.816" y="-60.661" width="259.794" height="256.478"/>
					</defs>
					<clipPath id="SVGID_34_">
						<use xlink:href="#SVGID_33_"  overflow="visible"/>
					</clipPath>
					<path clip-path="url(#SVGID_34_)" fill="none" stroke="#EFAE19" stroke-width="22.677" stroke-miterlimit="10" d="
						M-809.123,103.899c-2.525-7.28-2.562-15.172-2.172-22.868c0.845-16.695,3.573-33.294,8.116-49.382
						c2.34-8.287,5.194-16.512,9.671-23.868c5.104-8.384,12.17-15.397,19.571-21.845c13.847-12.064,29.288-22.552,46.445-29.102
						c11.34-4.329,23.521-6.909,35.622-5.96c10.48,0.822,20.59,4.251,30.246,8.405c39.46,16.978,74.627,49.186,84.674,90.952
						c2.393,9.945,3.327,20.311,1.953,30.446c-1.643,12.12-6.538,23.611-12.76,34.14c-24.743,41.867-72.288,69.256-120.918,69.656
						c-10.697,0.088-21.467-1.053-31.68-4.234c-12.571-3.915-24.021-10.829-34.57-18.706c-9.939-7.422-19.322-15.897-25.921-26.4
						c-6.6-10.502-10.225-23.264-8.017-35.47"/>
				</g>
			</g>
			<g opacity="0.03" clip-path="url(#SVGID_4_)">
				<g>
					<defs>
						<rect id="SVGID_35_" x="-820.39" y="-61.589" width="257.09" height="257.975"/>
					</defs>
					<clipPath id="SVGID_36_">
						<use xlink:href="#SVGID_35_"  overflow="visible"/>
					</clipPath>
					<path clip-path="url(#SVGID_36_)" fill="none" stroke="#84BE53" stroke-width="22.677" stroke-miterlimit="10" d="
						M-801.23,13.68c-3.751,6.731-5.158,14.496-6.11,22.143c-2.067,16.588-2.263,33.409-0.583,50.042
						c0.866,8.567,2.248,17.163,5.38,25.184c3.571,9.144,9.311,17.275,15.48,24.912c11.542,14.285,24.927,27.295,40.686,36.725
						c10.417,6.233,21.964,10.888,34.046,12.055c10.464,1.011,21.015-0.61,31.246-3.025c41.809-9.867,82.035-35.479,99.182-74.866
						c4.082-9.378,6.804-19.424,7.21-29.644c0.486-12.221-2.339-24.387-6.639-35.837c-17.096-45.528-59.163-80.756-106.984-89.595
						c-10.519-1.945-21.324-2.692-31.935-1.332c-13.059,1.673-25.536,6.493-37.293,12.419
						c-11.076,5.583-21.788,12.301-30.111,21.498c-8.323,9.196-14.11,21.135-14.055,33.538"/>
				</g>
			</g>
			<g opacity="0.03" clip-path="url(#SVGID_4_)">
				<g>
					<defs>
						<rect id="SVGID_37_" x="-803.019" y="-35.6" width="210.769" height="210.741"/>
					</defs>
					<clipPath id="SVGID_38_">
						<use xlink:href="#SVGID_37_"  overflow="visible"/>
					</clipPath>
					<path clip-path="url(#SVGID_38_)" fill="none" stroke="#742E85" stroke-width="22.677" stroke-miterlimit="10" d="
						M-699.328,163.788c16.232-0.046,32.101-5.812,45.835-14.466c34.42-21.687,55.957-64.239,48.392-104.211
						c-7.563-39.972-46.703-72.838-87.211-69.078c-16.657,1.547-32.401,8.612-46.406,17.759
						c-25.152,16.429-46.259,41.266-51.656,70.819c-4.749,26.007,3.653,54.078,21.91,73.2
						c18.257,19.123,45.909,28.814,72.109,25.272"/>
				</g>
			</g>
			<g opacity="0.03" clip-path="url(#SVGID_4_)">
				<g>
					<defs>
						<rect id="SVGID_39_" x="-811.924" y="-52.172" width="243.274" height="240.187"/>
					</defs>
					<clipPath id="SVGID_40_">
						<use xlink:href="#SVGID_39_"  overflow="visible"/>
					</clipPath>
					<path clip-path="url(#SVGID_40_)" fill="none" stroke="#CCC0DF" stroke-width="22.677" stroke-miterlimit="10" d="
						M-798.395,101.711c-2.349-6.773-2.383-14.115-2.021-21.274c0.786-15.533,3.324-30.975,7.551-45.942
						c2.177-7.71,4.832-15.362,8.997-22.205c4.749-7.8,11.322-14.324,18.207-20.323c12.883-11.223,27.248-20.981,43.21-27.075
						c10.55-4.027,21.881-6.427,33.14-5.544c9.75,0.764,19.154,3.954,28.138,7.819c36.712,15.795,69.428,45.759,78.775,84.615
						c2.226,9.252,3.095,18.896,1.816,28.325c-1.527,11.275-6.082,21.966-11.871,31.761
						c-23.019,38.949-67.251,64.431-112.493,64.803c-9.952,0.082-19.972-0.979-29.473-3.938
						c-11.695-3.643-22.347-10.074-32.162-17.403c-9.246-6.904-17.975-14.789-24.115-24.561c-6.14-9.771-9.512-21.643-7.458-32.999"
						/>
				</g>
			</g>
			<g opacity="0.03" clip-path="url(#SVGID_4_)">
				<g>
					<defs>
						<rect id="SVGID_41_" x="-784.871" y="-18.906" width="176.468" height="176.261"/>
					</defs>
					<clipPath id="SVGID_42_">
						<use xlink:href="#SVGID_41_"  overflow="visible"/>
					</clipPath>
					<path clip-path="url(#SVGID_42_)" fill="none" stroke="#3DB1D9" stroke-width="22.677" stroke-miterlimit="10" d="
						M-686.911,143.93c-24.5,3.32-50.38-6.14-66.964-24.477s-23.404-45.035-17.645-69.079c1.908-7.971,5.099-15.61,9.162-22.728
						c5.975-10.468,14.027-19.985,24.372-26.17c8.525-5.098,18.352-7.778,28.242-8.698c27.492-2.555,56.123,9.152,73.236,30.819
						c17.112,21.667,21.782,52.763,10.953,78.161c-10.828,25.397-37.053,43.716-64.657,44.261"/>
				</g>
			</g>
			<g opacity="0.03" clip-path="url(#SVGID_4_)">
				<g>
					<defs>
						<rect id="SVGID_43_" x="-807.082" y="-25.068" width="196.1" height="187.2"/>
					</defs>
					<clipPath id="SVGID_44_">
						<use xlink:href="#SVGID_43_"  overflow="visible"/>
					</clipPath>
					<path clip-path="url(#SVGID_44_)" fill="none" stroke="#F0AEA7" stroke-width="22.677" stroke-miterlimit="10" d="
						M-715.967,149.275c10.039,2.905,20.945,1.37,30.725-2.314c9.779-3.683,18.64-9.401,27.415-15.076
						c7.576-4.901,15.289-9.923,20.952-16.946c6.174-7.658,9.51-17.223,11.685-26.817c3.548-15.655,4.249-32.26-0.442-47.61
						c-6.655-21.776-24.189-39.584-45.319-48.071c-21.129-8.486-45.419-7.947-66.777-0.054
						c-21.49,7.942-40.453,23.562-50.478,44.162s-10.372,46.133,0.917,66.069c7.44,13.141,19.35,23.304,32.412,30.881
						c13.062,7.576,27.342,12.771,41.544,17.899"/>
				</g>
			</g>
			<g opacity="0.03" clip-path="url(#SVGID_4_)">
				<g>
					<defs>
						<rect id="SVGID_45_" x="-793.029" y="-18.906" width="193.79" height="193.562"/>
					</defs>
					<clipPath id="SVGID_46_">
						<use xlink:href="#SVGID_45_"  overflow="visible"/>
					</clipPath>
					<path clip-path="url(#SVGID_46_)" fill="none" stroke="#000F12" stroke-width="22.677" stroke-miterlimit="10" d="
						M-706.956,160.994c27.26,3.695,56.055-6.83,74.507-27.232c18.451-20.403,26.039-50.107,19.632-76.86
						c-2.123-8.868-5.673-17.368-10.194-25.287c-6.647-11.647-15.606-22.236-27.117-29.118c-9.484-5.672-20.419-8.655-31.424-9.677
						c-30.588-2.844-62.444,10.182-81.484,34.289c-19.041,24.108-24.237,58.706-12.188,86.965s41.227,48.64,71.941,49.246"/>
				</g>
			</g>
			<g opacity="0.03" clip-path="url(#SVGID_4_)">
				<g>
					<defs>
						<rect id="SVGID_47_" x="-793.029" y="-18.906" width="188.314" height="188.091"/>
					</defs>
					<clipPath id="SVGID_48_">
						<use xlink:href="#SVGID_47_"  overflow="visible"/>
					</clipPath>
					<path clip-path="url(#SVGID_48_)" fill="none" stroke="#000F12" stroke-width="22.677" stroke-miterlimit="10" d="
						M-709.348,155.599c26.388,3.576,54.261-6.612,72.122-26.361c17.861-19.75,25.206-48.504,19.004-74.4
						c-2.055-8.585-5.492-16.812-9.868-24.478c-6.435-11.275-15.106-21.525-26.249-28.187c-9.182-5.49-19.766-8.377-30.418-9.367
						c-29.608-2.752-60.445,9.856-78.876,33.192c-18.431,23.337-23.46,56.827-11.797,84.182
						c11.663,27.354,39.907,47.083,69.639,47.669"/>
				</g>
			</g>
			<g opacity="0.03" clip-path="url(#SVGID_4_)">
				<g>
					<defs>
						<rect id="SVGID_49_" x="-789.909" y="-52.854" width="216.796" height="221.25"/>
					</defs>
					<clipPath id="SVGID_50_">
						<use xlink:href="#SVGID_49_"  overflow="visible"/>
					</clipPath>
					<path clip-path="url(#SVGID_50_)" fill="none" stroke="#A9C00B" stroke-width="22.677" stroke-miterlimit="10" d="
						M-696.968,156.873c27.735,1.623,56.111-7.456,77.206-25.535c21.096-18.08,34.491-45.092,35.274-72.864
						c0.781-27.772-11.318-55.81-32.606-73.663c-10.008-8.394-21.78-14.508-34.038-19.024c-12.683-4.672-26.128-7.708-39.637-7.258
						c-28.926,0.962-56.056,18.559-71.393,43.102c-15.338,24.543-19.462,55.175-14.292,83.651
						c4.761,26.219,19.457,53.083,44.656,61.749c11.122,3.825,23.671,3.91,33.611,10.197"/>
				</g>
			</g>
			<g opacity="0.03" clip-path="url(#SVGID_4_)">
				<g>
					<defs>
						<rect id="SVGID_51_" x="-807.082" y="-25.068" width="196.1" height="187.2"/>
					</defs>
					<clipPath id="SVGID_52_">
						<use xlink:href="#SVGID_51_"  overflow="visible"/>
					</clipPath>
					<path clip-path="url(#SVGID_52_)" fill="none" stroke="#F0AEA7" stroke-width="22.677" stroke-miterlimit="10" d="
						M-715.967,149.275c10.039,2.905,20.945,1.37,30.725-2.314c9.779-3.683,18.64-9.401,27.415-15.076
						c7.576-4.901,15.289-9.923,20.952-16.946c6.174-7.658,9.51-17.223,11.685-26.817c3.548-15.655,4.249-32.26-0.442-47.61
						c-6.655-21.776-24.189-39.584-45.319-48.071c-21.129-8.486-45.419-7.947-66.777-0.054
						c-21.49,7.942-40.453,23.562-50.478,44.162s-10.372,46.133,0.917,66.069c7.44,13.141,19.35,23.304,32.412,30.881
						c13.062,7.576,27.342,12.771,41.544,17.899"/>
				</g>
			</g>
			<g opacity="0.03" clip-path="url(#SVGID_4_)">
				<g>
					<defs>
						<rect id="SVGID_53_" x="-784.871" y="-18.906" width="176.468" height="176.261"/>
					</defs>
					<clipPath id="SVGID_54_">
						<use xlink:href="#SVGID_53_"  overflow="visible"/>
					</clipPath>
					<path clip-path="url(#SVGID_54_)" fill="none" stroke="#C6E2C4" stroke-width="22.677" stroke-miterlimit="10" d="
						M-686.911,143.93c-24.5,3.32-50.38-6.14-66.964-24.477s-23.404-45.035-17.645-69.079c1.908-7.971,5.099-15.61,9.162-22.728
						c5.975-10.468,14.027-19.985,24.372-26.17c8.525-5.098,18.352-7.778,28.242-8.698c27.492-2.555,56.123,9.152,73.236,30.819
						c17.112,21.667,21.782,52.763,10.953,78.161c-10.828,25.397-37.053,43.716-64.657,44.261"/>
				</g>
			</g>
			<g opacity="0.03" clip-path="url(#SVGID_4_)">
				<g>
					<defs>
						<rect id="SVGID_55_" x="-804.06" y="-51.239" width="201.78" height="207.975"/>
					</defs>
					<clipPath id="SVGID_56_">
						<use xlink:href="#SVGID_55_"  overflow="visible"/>
					</clipPath>
					<path clip-path="url(#SVGID_56_)" fill="none" stroke="#DA2B7B" stroke-width="22.677" stroke-miterlimit="10" d="
						M-690.927,135.433c21.44-3.427,42.448-12.78,56.948-28.941c15.392-17.155,22.359-41.21,19.864-64.122
						c-2.495-22.913-14.09-44.475-30.905-60.237c-12.76-11.962-29.046-20.896-46.506-21.929
						c-10.538-0.624-21.058,1.624-31.115,4.832c-12.466,3.977-24.591,9.537-34.688,17.86
						c-19.608,16.163-29.833,41.357-33.812,66.455c-1.568,9.886-2.283,20.014-0.662,29.891
						c2.974,18.125,13.737,34.324,27.414,46.583c9.777,8.764,21.378,15.882,34.239,18.523c12.861,2.642,27.07,0.38,37.324-7.82
						c2.096-1.676,5.333-3.541,7.06-1.487"/>
				</g>
			</g>
			<g opacity="0.03" clip-path="url(#SVGID_4_)">
				<g>
					<defs>
						<rect id="SVGID_57_" x="-799.152" y="-51.239" width="201.78" height="207.975"/>
					</defs>
					<clipPath id="SVGID_58_">
						<use xlink:href="#SVGID_57_"  overflow="visible"/>
					</clipPath>
					<path clip-path="url(#SVGID_58_)" fill="none" stroke="#C5CECA" stroke-width="22.677" stroke-miterlimit="10" d="
						M-710.506,135.433c-21.44-3.427-42.448-12.78-56.948-28.941c-15.392-17.155-22.359-41.21-19.864-64.122
						c2.495-22.913,14.09-44.475,30.905-60.237c12.76-11.962,29.047-20.896,46.506-21.929c10.538-0.624,21.058,1.624,31.115,4.832
						c12.466,3.977,24.591,9.537,34.688,17.86c19.607,16.163,29.833,41.357,33.812,66.455c1.568,9.886,2.283,20.014,0.662,29.891
						c-2.975,18.125-13.737,34.324-27.414,46.583c-9.777,8.764-21.378,15.882-34.239,18.523c-12.86,2.642-27.069,0.38-37.324-7.82
						c-2.096-1.676-5.333-3.541-7.06-1.487"/>
				</g>
			</g>
			<g opacity="0.03" clip-path="url(#SVGID_4_)">
				<g>
					<defs>
						<rect id="SVGID_59_" x="-801.057" y="-41.336" width="221.334" height="217.892"/>
					</defs>
					<clipPath id="SVGID_60_">
						<use xlink:href="#SVGID_59_"  overflow="visible"/>
					</clipPath>
					<path clip-path="url(#SVGID_60_)" fill="none" stroke="#215EAD" stroke-width="22.677" stroke-miterlimit="10" d="
						M-788.659,60.862c1.528-16.924,8.989-32.945,19.266-46.478c25.755-33.914,72.095-52.491,113.088-40.956
						c40.994,11.535,71.696,55.348,64.079,97.247c-3.133,17.229-11.936,33.002-22.754,46.773
						c-19.426,24.73-47.252,44.475-78.562,47.406c-27.556,2.58-56.062-8.743-74.336-29.526
						c-18.275-20.784-25.858-50.504-19.775-77.502"/>
				</g>
			</g>
			<g opacity="0.03" clip-path="url(#SVGID_4_)">
				<g>
					<defs>
						<rect id="SVGID_61_" x="-804.06" y="-51.239" width="201.78" height="207.975"/>
					</defs>
					<clipPath id="SVGID_62_">
						<use xlink:href="#SVGID_61_"  overflow="visible"/>
					</clipPath>
					<path clip-path="url(#SVGID_62_)" fill="none" stroke="#DA2B7B" stroke-width="22.677" stroke-miterlimit="10" d="
						M-690.927,135.433c21.44-3.427,42.448-12.78,56.948-28.941c15.392-17.155,22.359-41.21,19.864-64.122
						c-2.495-22.913-14.09-44.475-30.905-60.237c-12.76-11.962-29.046-20.896-46.506-21.929
						c-10.538-0.624-21.058,1.624-31.115,4.832c-12.466,3.977-24.591,9.537-34.688,17.86
						c-19.608,16.163-29.833,41.357-33.812,66.455c-1.568,9.886-2.283,20.014-0.662,29.891
						c2.974,18.125,13.737,34.324,27.414,46.583c9.777,8.764,21.378,15.882,34.239,18.523c12.861,2.642,27.07,0.38,37.324-7.82
						c2.096-1.676,5.333-3.541,7.06-1.487"/>
				</g>
			</g>
			<g opacity="0.03" clip-path="url(#SVGID_4_)">
				<g>
					<defs>
						<rect id="SVGID_63_" x="-828.319" y="-52.854" width="216.795" height="221.25"/>
					</defs>
					<clipPath id="SVGID_64_">
						<use xlink:href="#SVGID_63_"  overflow="visible"/>
					</clipPath>
					<path clip-path="url(#SVGID_64_)" fill="none" stroke="#FFFFFF" stroke-width="22.677" stroke-miterlimit="10" d="
						M-704.465,156.873c-27.735,1.623-56.111-7.456-77.206-25.535c-21.096-18.08-34.491-45.092-35.274-72.864
						c-0.782-27.772,11.318-55.81,32.606-73.663c10.008-8.394,21.78-14.508,34.038-19.024c12.683-4.672,26.128-7.708,39.637-7.258
						c28.926,0.962,56.056,18.559,71.393,43.102c15.338,24.543,19.462,55.175,14.292,83.651
						c-4.762,26.219-19.457,53.083-44.656,61.749c-11.122,3.825-23.671,3.91-33.611,10.197"/>
				</g>
			</g>
			<g opacity="0.03" clip-path="url(#SVGID_4_)">
				<g>
					<defs>
						<rect id="SVGID_65_" x="-789.909" y="-52.854" width="216.796" height="221.25"/>
					</defs>
					<clipPath id="SVGID_66_">
						<use xlink:href="#SVGID_65_"  overflow="visible"/>
					</clipPath>
					<path clip-path="url(#SVGID_66_)" fill="none" stroke="#155E3B" stroke-width="22.677" stroke-miterlimit="10" d="
						M-696.968,156.873c27.735,1.623,56.111-7.456,77.206-25.535c21.096-18.08,34.491-45.092,35.274-72.864
						c0.781-27.772-11.318-55.81-32.606-73.663c-10.008-8.394-21.78-14.508-34.038-19.024c-12.683-4.672-26.128-7.708-39.637-7.258
						c-28.926,0.962-56.056,18.559-71.393,43.102c-15.338,24.543-19.462,55.175-14.292,83.651
						c4.761,26.219,19.457,53.083,44.656,61.749c11.122,3.825,23.671,3.91,33.611,10.197"/>
				</g>
			</g>
			<g opacity="0.03" clip-path="url(#SVGID_4_)">
				<g>
					<defs>
						<rect id="SVGID_67_" x="-796.008" y="-29.144" width="196.484" height="189.029"/>
					</defs>
					<clipPath id="SVGID_68_">
						<use xlink:href="#SVGID_67_"  overflow="visible"/>
					</clipPath>
					<path clip-path="url(#SVGID_68_)" fill="none" stroke="#F7E38C" stroke-width="22.677" stroke-miterlimit="10" d="
						M-784.033,63.287c0.38-17.475,6.572-34.775,17.367-48.523c13.365-17.019,33.596-28.286,54.99-31.541
						c21.394-3.256,43.758,1.351,62.573,12.043c7.678,4.363,14.851,9.762,20.5,16.548c4.85,5.823,8.499,12.575,11.291,19.619
						c10.534,26.573,8.275,58.326-7.572,82.116s-45.407,38.274-73.724,34.362c-16.911-2.336-32.38-10.603-46.992-19.43
						c-10.262-6.198-21.003-13.603-24.766-24.987c-3.281-9.928-0.852-21.912-7.3-30.144c-1.986-2.535-4.711-4.517-6.194-7.376
						c-1.484-2.858-0.998-7.189,2.036-8.271"/>
				</g>
			</g>
			<g opacity="0.03" clip-path="url(#SVGID_4_)">
				<g>
					<defs>
						<rect id="SVGID_69_" x="-798.666" y="-34.443" width="199.582" height="199.555"/>
					</defs>
					<clipPath id="SVGID_70_">
						<use xlink:href="#SVGID_69_"  overflow="visible"/>
					</clipPath>
					<path clip-path="url(#SVGID_70_)" fill="none" stroke="#B1D9BC" stroke-width="22.677" stroke-miterlimit="10" d="
						M-697.282,153.758c-15.267-0.042-30.192-5.466-43.109-13.604c-32.372-20.397-52.629-60.418-45.514-98.014
						c7.115-37.595,43.926-68.506,82.024-64.969c15.666,1.454,30.474,8.099,43.646,16.702
						c23.656,15.452,43.508,38.811,48.584,66.607c4.467,24.461-3.437,50.862-20.607,68.847
						c-17.171,17.983-43.179,27.099-67.819,23.768"/>
				</g>
			</g>
			<g opacity="0.03" clip-path="url(#SVGID_4_)">
				<g>
					<defs>
						<rect id="SVGID_71_" x="-790.45" y="-25.068" width="196.1" height="187.2"/>
					</defs>
					<clipPath id="SVGID_72_">
						<use xlink:href="#SVGID_71_"  overflow="visible"/>
					</clipPath>
					<path clip-path="url(#SVGID_72_)" fill="none" stroke="#671479" stroke-width="22.677" stroke-miterlimit="10" d="
						M-685.465,149.275c-10.039,2.905-20.945,1.37-30.725-2.314c-9.78-3.683-18.64-9.401-27.415-15.076
						c-7.576-4.901-15.289-9.923-20.952-16.946c-6.174-7.658-9.51-17.223-11.685-26.817c-3.548-15.655-4.249-32.26,0.442-47.61
						c6.656-21.776,24.19-39.584,45.32-48.071c21.129-8.486,45.418-7.947,66.777-0.054c21.49,7.942,40.453,23.562,50.479,44.162
						c10.024,20.6,10.372,46.133-0.917,66.069c-7.44,13.141-19.351,23.304-32.412,30.881c-13.062,7.576-27.343,12.771-41.544,17.899
						"/>
				</g>
			</g>
			<g opacity="0.03" clip-path="url(#SVGID_4_)">
				<g>
					<defs>
						<rect id="SVGID_73_" x="-828.319" y="-52.854" width="216.795" height="221.25"/>
					</defs>
					<clipPath id="SVGID_74_">
						<use xlink:href="#SVGID_73_"  overflow="visible"/>
					</clipPath>
					<path clip-path="url(#SVGID_74_)" fill="none" stroke="#FFFFFF" stroke-width="22.677" stroke-miterlimit="10" d="
						M-704.465,156.873c-27.735,1.623-56.111-7.456-77.206-25.535c-21.096-18.08-34.491-45.092-35.274-72.864
						c-0.782-27.772,11.318-55.81,32.606-73.663c10.008-8.394,21.78-14.508,34.038-19.024c12.683-4.672,26.128-7.708,39.637-7.258
						c28.926,0.962,56.056,18.559,71.393,43.102c15.338,24.543,19.462,55.175,14.292,83.651
						c-4.762,26.219-19.457,53.083-44.656,61.749c-11.122,3.825-23.671,3.91-33.611,10.197"/>
				</g>
			</g>
			<g opacity="0.03" clip-path="url(#SVGID_4_)">
				<g>
					<defs>
						<rect id="SVGID_75_" x="-791.634" y="-22.969" width="189.665" height="197.939"/>
					</defs>
					<clipPath id="SVGID_76_">
						<use xlink:href="#SVGID_75_"  overflow="visible"/>
					</clipPath>
					<path clip-path="url(#SVGID_76_)" fill="none" stroke="#2B6AB7" stroke-width="22.677" stroke-miterlimit="10" d="
						M-702.702,162.9c17.59,1.154,35.515-3.546,50.274-13.184c18.272-11.931,31.371-31.265,36.521-52.472
						c5.151-21.207,2.489-44.08-6.599-63.922c-3.708-8.095-8.502-15.777-14.823-22.05c-5.424-5.382-11.886-9.643-18.717-13.067
						c-25.771-12.918-57.87-13.44-83.163,0.39s-42.443,42.253-41.002,71.045c0.861,17.195,7.806,33.462,15.389,48.917
						c5.326,10.854,11.821,22.297,22.927,27.076c9.686,4.17,21.938,2.783,29.641,9.984c2.373,2.218,4.125,5.13,6.867,6.871
						c2.741,1.742,7.135,1.634,8.487-1.318"/>
				</g>
			</g>
			<g opacity="0.03" clip-path="url(#SVGID_4_)">
				<g>
					<defs>
						<rect id="SVGID_77_" x="-790.45" y="-25.068" width="196.1" height="187.2"/>
					</defs>
					<clipPath id="SVGID_78_">
						<use xlink:href="#SVGID_77_"  overflow="visible"/>
					</clipPath>
					<path clip-path="url(#SVGID_78_)" fill="none" stroke="#671479" stroke-width="22.677" stroke-miterlimit="10" d="
						M-685.465,149.275c-10.039,2.905-20.945,1.37-30.725-2.314c-9.78-3.683-18.64-9.401-27.415-15.076
						c-7.576-4.901-15.289-9.923-20.952-16.946c-6.174-7.658-9.51-17.223-11.685-26.817c-3.548-15.655-4.249-32.26,0.442-47.61
						c6.656-21.776,24.19-39.584,45.32-48.071c21.129-8.486,45.418-7.947,66.777-0.054c21.49,7.942,40.453,23.562,50.479,44.162
						c10.024,20.6,10.372,46.133-0.917,66.069c-7.44,13.141-19.351,23.304-32.412,30.881c-13.062,7.576-27.343,12.771-41.544,17.899
						"/>
				</g>
			</g>
			<g opacity="0.03" clip-path="url(#SVGID_4_)">
				<g>
					<defs>
						<rect id="SVGID_79_" x="-799.152" y="-51.239" width="201.78" height="207.975"/>
					</defs>
					<clipPath id="SVGID_80_">
						<use xlink:href="#SVGID_79_"  overflow="visible"/>
					</clipPath>
					<path clip-path="url(#SVGID_80_)" fill="none" stroke="#195E28" stroke-width="22.677" stroke-miterlimit="10" d="
						M-710.506,135.433c-21.44-3.427-42.448-12.78-56.948-28.941c-15.392-17.155-22.359-41.21-19.864-64.122
						c2.495-22.913,14.09-44.475,30.905-60.237c12.76-11.962,29.047-20.896,46.506-21.929c10.538-0.624,21.058,1.624,31.115,4.832
						c12.466,3.977,24.591,9.537,34.688,17.86c19.607,16.163,29.833,41.357,33.812,66.455c1.568,9.886,2.283,20.014,0.662,29.891
						c-2.975,18.125-13.737,34.324-27.414,46.583c-9.777,8.764-21.378,15.882-34.239,18.523c-12.86,2.642-27.069,0.38-37.324-7.82
						c-2.096-1.676-5.333-3.541-7.06-1.487"/>
				</g>
			</g>
			<g opacity="0.03" clip-path="url(#SVGID_4_)">
				<g>
					<defs>
						<rect id="SVGID_81_" x="-778.963" y="-34.443" width="194.007" height="202.495"/>
					</defs>
					<clipPath id="SVGID_82_">
						<use xlink:href="#SVGID_81_"  overflow="visible"/>
					</clipPath>
					<path clip-path="url(#SVGID_82_)" fill="none" stroke="#F7E38C" stroke-width="22.677" stroke-miterlimit="10" d="
						M-675.906,155.961c-18.047,1.186-36.437-3.638-51.581-13.524c-18.749-12.242-32.186-32.078-37.471-53.837
						c-5.284-21.759-2.553-45.226,6.771-65.584c3.805-8.306,8.723-16.187,15.208-22.623c5.565-5.522,12.195-9.894,19.204-13.407
						c26.441-13.254,59.374-13.789,85.325,0.401c25.951,14.189,43.547,43.351,42.068,72.891
						c-0.883,17.642-8.009,34.332-15.789,50.189c-5.464,11.138-12.128,22.877-23.523,27.78c-9.938,4.278-22.509,2.855-30.411,10.244
						c-2.435,2.276-4.232,5.263-7.046,7.05c-2.812,1.787-7.319,1.676-8.709-1.353"/>
				</g>
			</g>
			<g opacity="0.03" clip-path="url(#SVGID_4_)">
				<g>
					<defs>
						<rect id="SVGID_83_" x="-788.125" y="-23.905" width="199.251" height="199.226"/>
					</defs>
					<clipPath id="SVGID_84_">
						<use xlink:href="#SVGID_83_"  overflow="visible"/>
					</clipPath>
					<path clip-path="url(#SVGID_84_)" fill="none" stroke="#B1D9BC" stroke-width="22.677" stroke-miterlimit="10" d="
						M-686.909,163.967c-15.239-0.042-30.135-5.456-43.029-13.579c-32.311-20.358-52.53-60.306-45.428-97.83
						c7.101-37.525,43.843-68.379,81.871-64.848c15.636,1.451,30.416,8.084,43.563,16.671
						c23.612,15.423,43.427,38.739,48.493,66.482c4.458,24.416-3.429,50.767-20.569,68.718
						c-17.139,17.951-43.097,27.049-67.692,23.724"/>
				</g>
			</g>
			<g opacity="0.03" clip-path="url(#SVGID_4_)">
				<g>
					<defs>
						<rect id="SVGID_85_" x="-829.438" y="-59.739" width="257.443" height="258.272"/>
					</defs>
					<clipPath id="SVGID_86_">
						<use xlink:href="#SVGID_85_"  overflow="visible"/>
					</clipPath>
					<path clip-path="url(#SVGID_86_)" fill="none" stroke="#53AB40" stroke-width="22.677" stroke-miterlimit="10" d="
						M-745.998,182.888c7.033,3.15,14.891,3.874,22.591,4.157c16.706,0.613,33.48-0.658,49.902-3.781
						c8.46-1.609,16.902-3.735,24.62-7.555c8.797-4.354,16.399-10.781,23.468-17.592c13.225-12.743,25.019-27.211,33.039-43.732
						c5.301-10.92,8.934-22.829,9.042-34.967c0.095-10.512-2.439-20.882-5.737-30.863c-13.475-40.79-42.494-78.63-83.226-92.279
						c-9.698-3.25-19.943-5.085-30.16-4.599c-12.217,0.58-24.091,4.455-35.122,9.736c-43.864,21-75.292,65.976-79.93,114.387
						c-1.02,10.648-0.822,21.477,1.457,31.928c2.805,12.864,8.694,24.873,15.622,36.069c6.527,10.548,14.153,20.634,24.04,28.123
						c9.887,7.49,22.285,12.214,34.636,11.079"/>
				</g>
			</g>
			<g opacity="0.03" clip-path="url(#SVGID_4_)">
				<g>
					<defs>
						<rect id="SVGID_87_" x="-829.438" y="-59.739" width="257.443" height="258.272"/>
					</defs>
					<clipPath id="SVGID_88_">
						<use xlink:href="#SVGID_87_"  overflow="visible"/>
					</clipPath>
					<path clip-path="url(#SVGID_88_)" fill="none" stroke="#EFAE19" stroke-width="22.677" stroke-miterlimit="10" d="
						M-655.435,182.888c-7.033,3.15-14.892,3.874-22.591,4.157c-16.706,0.613-33.48-0.658-49.902-3.781
						c-8.46-1.609-16.902-3.735-24.62-7.555c-8.797-4.354-16.399-10.781-23.468-17.592c-13.224-12.743-25.018-27.211-33.039-43.732
						c-5.301-10.92-8.933-22.829-9.042-34.967c-0.095-10.512,2.44-20.882,5.737-30.863c13.475-40.79,42.495-78.63,83.226-92.279
						c9.698-3.25,19.943-5.085,30.16-4.599c12.217,0.58,24.091,4.455,35.122,9.736c43.864,21,75.292,65.976,79.93,114.387
						c1.021,10.648,0.822,21.477-1.457,31.928c-2.805,12.864-8.694,24.873-15.622,36.069c-6.526,10.548-14.152,20.634-24.04,28.123
						c-9.887,7.49-22.285,12.214-34.636,11.079"/>
				</g>
			</g>
			<g opacity="0.03" clip-path="url(#SVGID_4_)">
				<g>
					<defs>
						<rect id="SVGID_89_" x="-819.568" y="-48.498" width="244.348" height="244.314"/>
					</defs>
					<clipPath id="SVGID_90_">
						<use xlink:href="#SVGID_89_"  overflow="visible"/>
					</clipPath>
					<path clip-path="url(#SVGID_90_)" fill="none" stroke="#6D0E18" stroke-width="22.677" stroke-miterlimit="10" d="
						M-699.391,184.459c19.132-0.053,37.832-6.85,54.019-17.047c40.563-25.56,65.945-75.708,57.031-122.816
						c-8.915-47.108-55.041-85.841-102.78-81.41c-19.631,1.823-38.185,10.149-54.691,20.93
						c-29.642,19.361-54.517,48.632-60.877,83.461c-5.598,30.651,4.304,63.732,25.821,86.268
						c21.516,22.536,54.105,33.957,84.982,29.783"/>
				</g>
			</g>
			<g opacity="0.03" clip-path="url(#SVGID_4_)">
				<g>
					<defs>
						<rect id="SVGID_91_" x="-779.968" y="-35.5" width="194.933" height="203.469"/>
					</defs>
					<clipPath id="SVGID_92_">
						<use xlink:href="#SVGID_91_"  overflow="visible"/>
					</clipPath>
					<path clip-path="url(#SVGID_92_)" fill="none" stroke="#F7E38C" stroke-width="22.677" stroke-miterlimit="10" d="
						M-676.415,155.875c-18.146,1.19-36.634-3.657-51.86-13.6c-18.85-12.307-32.361-32.251-37.674-54.127
						c-5.313-21.877-2.567-45.471,6.808-65.939c3.825-8.351,8.77-16.275,15.29-22.745c5.595-5.553,12.262-9.948,19.308-13.48
						c26.584-13.326,59.695-13.864,85.788,0.402c26.091,14.267,43.781,43.587,42.295,73.286
						c-0.888,17.738-8.053,34.518-15.874,50.462c-5.494,11.197-12.194,22.999-23.65,27.931c-9.992,4.301-22.631,2.87-30.577,10.299
						c-2.446,2.288-4.255,5.291-7.083,7.087c-2.828,1.798-7.359,1.687-8.756-1.359"/>
				</g>
			</g>
			<g opacity="0.03" clip-path="url(#SVGID_4_)">
				<g>
					<defs>
						<rect id="SVGID_93_" x="-777.689" y="-34.443" width="205.55" height="203.11"/>
					</defs>
					<clipPath id="SVGID_94_">
						<use xlink:href="#SVGID_93_"  overflow="visible"/>
					</clipPath>
					<path clip-path="url(#SVGID_94_)" fill="none" stroke="#DA2B7B" stroke-width="22.677" stroke-miterlimit="10" d="
						M-758.755,72.678c1.546,21.657,9.032,43.4,23.868,59.254c15.748,16.828,39.104,25.864,62.147,25.377
						c23.042-0.488,45.533-10.161,62.701-25.537c13.028-11.669,23.348-27.115,25.899-44.418c1.539-10.444,0.217-21.12-2.104-31.418
						c-2.875-12.765-7.356-25.329-14.768-36.113c-14.394-20.942-38.601-33.323-63.255-39.475
						c-9.713-2.424-19.739-4.019-29.721-3.265c-18.316,1.383-35.39,10.694-48.796,23.25c-9.582,8.976-17.684,19.913-21.437,32.494
						c-3.752,12.582-2.738,26.934,4.537,37.864c1.487,2.234,3.063,5.621,0.867,7.163"/>
				</g>
			</g>
			<g opacity="0.03" clip-path="url(#SVGID_4_)">
				<g>
					<defs>
						<rect id="SVGID_95_" x="-802.567" y="-34.443" width="213.632" height="223.094"/>
					</defs>
					<clipPath id="SVGID_96_">
						<use xlink:href="#SVGID_95_"  overflow="visible"/>
					</clipPath>
					<path clip-path="url(#SVGID_96_)" fill="none" stroke="#2B6AB7" stroke-width="22.677" stroke-miterlimit="10" d="
						M-702.499,176.474c20.114,1.32,40.611-4.054,57.49-15.074c20.896-13.645,35.873-35.752,41.764-60.004
						c5.89-24.251,2.846-50.407-7.546-73.097c-4.241-9.258-9.724-18.042-16.951-25.215c-6.202-6.155-13.592-11.027-21.404-14.943
						c-29.469-14.772-66.175-15.368-95.099,0.447c-28.923,15.815-48.535,48.317-46.887,81.241
						c0.984,19.663,8.926,38.265,17.598,55.94c6.09,12.411,13.518,25.495,26.217,30.962c11.077,4.768,25.087,3.182,33.896,11.417
						c2.713,2.537,4.717,5.865,7.852,7.856c3.135,1.992,8.159,1.869,9.707-1.508"/>
				</g>
			</g>
			<g opacity="0.03" clip-path="url(#SVGID_4_)">
				<g>
					<defs>
						<rect id="SVGID_97_" x="-793.01" y="-38.899" width="210.092" height="213.01"/>
					</defs>
					<clipPath id="SVGID_98_">
						<use xlink:href="#SVGID_97_"  overflow="visible"/>
					</clipPath>
					<path clip-path="url(#SVGID_98_)" fill="none" stroke="#742E85" stroke-width="22.677" stroke-miterlimit="10" d="
						M-781.42,57.72c-1.376,16.239,3.003,32.613,10.456,47.106c18.678,36.321,59.351,61.585,99.99,57.518
						c40.639-4.068,76.934-40.336,76.717-81.178c-0.089-16.794-5.777-33.158-13.701-47.966
						c-14.229-26.592-37.222-49.875-66.307-57.858c-25.596-7.025-54.404-1.079-75.126,15.508
						c-20.722,16.586-32.834,43.393-31.584,69.906"/>
				</g>
			</g>
			<g opacity="0.03" clip-path="url(#SVGID_4_)">
				<g>
					<defs>
						<rect id="SVGID_99_" x="-782.119" y="-26.897" width="199.29" height="202.039"/>
					</defs>
					<clipPath id="SVGID_100_">
						<use xlink:href="#SVGID_99_"  overflow="visible"/>
					</clipPath>
					<path clip-path="url(#SVGID_100_)" fill="none" stroke="#742E85" stroke-width="22.677" stroke-miterlimit="10" d="
						M-770.543,64.806c-1.296,15.303,2.83,30.734,9.853,44.391c17.601,34.228,55.93,58.034,94.226,54.201
						c38.297-3.834,72.499-38.011,72.295-76.498c-0.084-15.826-5.444-31.247-12.911-45.201c-13.409-25.06-35.077-47-62.484-54.523
						c-24.121-6.621-51.269-1.017-70.796,14.613c-19.528,15.631-30.941,40.892-29.764,65.877"/>
				</g>
			</g>
			<g opacity="0.03" clip-path="url(#SVGID_4_)">
				<g>
					<defs>
						<rect id="SVGID_101_" x="-778.806" y="-23.905" width="174.883" height="176.907"/>
					</defs>
					<clipPath id="SVGID_102_">
						<use xlink:href="#SVGID_101_"  overflow="visible"/>
					</clipPath>
					<path clip-path="url(#SVGID_102_)" fill="none" stroke="#000F12" stroke-width="22.677" stroke-miterlimit="10" d="
						M-765.163,48.433c-5.443,24.118,1.724,50.724,18.547,68.843c16.822,18.118,42.823,27.238,67.278,23.598
						c8.105-1.207,15.995-3.719,23.439-7.146c10.948-5.04,21.131-12.231,28.195-21.999c5.821-8.048,9.348-17.604,11.125-27.376
						c4.941-27.164-4.226-56.706-24.318-75.643c-20.093-18.936-50.663-26.298-76.909-17.724
						c-26.245,8.574-46.779,33.102-49.727,60.555"/>
				</g>
			</g>
			<g opacity="0.03" clip-path="url(#SVGID_4_)">
				<g>
					<defs>
						<rect id="SVGID_103_" x="-784.357" y="-37.6" width="187.018" height="196.544"/>
					</defs>
					<clipPath id="SVGID_104_">
						<use xlink:href="#SVGID_103_"  overflow="visible"/>
					</clipPath>
					<path clip-path="url(#SVGID_104_)" fill="none" stroke="#F0AEA7" stroke-width="22.677" stroke-miterlimit="10" d="
						M-770.362,46.526c-3.769,9.747-3.19,20.746-0.373,30.81s7.742,19.388,12.631,28.625c4.221,7.974,8.551,16.095,15.055,22.349
						c7.091,6.818,16.329,10.974,25.697,13.977c15.286,4.9,31.766,7.045,47.467,3.709c22.273-4.731,41.542-20.647,51.837-40.957
						c10.296-20.309,11.876-44.554,5.874-66.519c-6.038-22.1-19.946-42.352-39.594-54.135
						c-19.648-11.782-45.053-14.353-65.897-4.844c-13.738,6.267-24.902,17.246-33.588,29.598s-15.105,26.124-21.453,39.825"/>
				</g>
			</g>
			<g opacity="0.03" clip-path="url(#SVGID_4_)">
				<g>
					<defs>
						<rect id="SVGID_105_" x="-781.028" y="-28.194" width="209.851" height="200.399"/>
					</defs>
					<clipPath id="SVGID_106_">
						<use xlink:href="#SVGID_105_"  overflow="visible"/>
					</clipPath>
					<path clip-path="url(#SVGID_106_)" fill="none" stroke="#C5CECA" stroke-width="22.677" stroke-miterlimit="10" d="
						M-757.049,53.173c5.283-21.06,16.431-41.173,33.794-54.209c18.431-13.838,43.002-18.682,65.61-14.2
						c22.607,4.482,43.077,17.913,57.313,36.037c10.805,13.754,18.285,30.758,17.792,48.241
						c-0.297,10.552-3.452,20.836-7.525,30.575c-5.048,12.072-11.645,23.667-20.815,33c-17.81,18.125-43.799,26.114-69.148,27.893
						c-9.985,0.7-20.138,0.528-29.835-1.946c-17.798-4.543-32.995-16.677-44.017-31.371c-7.878-10.503-13.958-22.68-15.469-35.723
						c-1.51-13.042,1.981-27,11.043-36.5c1.853-1.942,3.993-5.004,2.097-6.903"/>
				</g>
			</g>
			<g opacity="0.03" clip-path="url(#SVGID_4_)">
				<g>
					<defs>
						<rect id="SVGID_107_" x="-784.357" y="-37.6" width="187.018" height="196.544"/>
					</defs>
					<clipPath id="SVGID_108_">
						<use xlink:href="#SVGID_107_"  overflow="visible"/>
					</clipPath>
					<path clip-path="url(#SVGID_108_)" fill="none" stroke="#F0AEA7" stroke-width="22.677" stroke-miterlimit="10" d="
						M-770.362,46.526c-3.769,9.747-3.19,20.746-0.373,30.81s7.742,19.388,12.631,28.625c4.221,7.974,8.551,16.095,15.055,22.349
						c7.091,6.818,16.329,10.974,25.697,13.977c15.286,4.9,31.766,7.045,47.467,3.709c22.273-4.731,41.542-20.647,51.837-40.957
						c10.296-20.309,11.876-44.554,5.874-66.519c-6.038-22.1-19.946-42.352-39.594-54.135
						c-19.648-11.782-45.053-14.353-65.897-4.844c-13.738,6.267-24.902,17.246-33.588,29.598s-15.105,26.124-21.453,39.825"/>
				</g>
			</g>
			<g opacity="0.03" clip-path="url(#SVGID_4_)">
				<g>
					<defs>
						<rect id="SVGID_109_" x="-780.85" y="-15.337" width="177.186" height="176.044"/>
					</defs>
					<clipPath id="SVGID_110_">
						<use xlink:href="#SVGID_109_"  overflow="visible"/>
					</clipPath>
					<path clip-path="url(#SVGID_110_)" fill="none" stroke="#3DB1D9" stroke-width="22.677" stroke-miterlimit="10" d="
						M-767.57,75.938c-1.173-24.696,10.506-49.653,30.219-64.576s46.903-19.389,70.354-11.558
						c7.774,2.597,15.106,6.441,21.844,11.109c9.906,6.864,18.686,15.715,23.946,26.56c4.335,8.937,6.149,18.96,6.202,28.893
						c0.15,27.61-14.007,55.111-37.084,70.271c-23.076,15.16-54.46,17.102-78.818,4.101c-24.358-13.002-40.321-40.724-38.457-68.271
						"/>
				</g>
			</g>
			<g opacity="0.03" clip-path="url(#SVGID_4_)">
				<g>
					<defs>
						<rect id="SVGID_111_" x="-790.267" y="-57.652" width="221.397" height="216.373"/>
					</defs>
					<clipPath id="SVGID_112_">
						<use xlink:href="#SVGID_111_"  overflow="visible"/>
					</clipPath>
					<path clip-path="url(#SVGID_112_)" fill="none" stroke="#FFFFFF" stroke-width="22.677" stroke-miterlimit="10" d="
						M-778.933,57.323c0.8-27.771,12.318-55.248,32.167-74.687s47.927-30.43,75.661-28.789c27.734,1.641,54.611,16.14,70.541,38.902
						c7.489,10.702,12.555,22.962,15.984,35.566c3.55,13.042,5.402,26.701,3.777,40.119c-3.48,28.732-23.374,54.225-49.161,67.365
						c-25.786,13.141-56.661,14.579-84.579,6.947c-25.704-7.028-51.183-24.009-57.62-49.868c-2.842-11.413-1.832-23.921-7.23-34.371
						"/>
				</g>
			</g>
			<g opacity="0.03" clip-path="url(#SVGID_4_)">
				<g>
					<defs>
						<rect id="SVGID_113_" x="-778.806" y="-23.905" width="174.883" height="176.907"/>
					</defs>
					<clipPath id="SVGID_114_">
						<use xlink:href="#SVGID_113_"  overflow="visible"/>
					</clipPath>
					<path clip-path="url(#SVGID_114_)" fill="none" stroke="#000F12" stroke-width="22.677" stroke-miterlimit="10" d="
						M-765.163,48.433c-5.443,24.118,1.724,50.724,18.547,68.843c16.822,18.118,42.823,27.238,67.278,23.598
						c8.105-1.207,15.995-3.719,23.439-7.146c10.948-5.04,21.131-12.231,28.195-21.999c5.821-8.048,9.348-17.604,11.125-27.376
						c4.941-27.164-4.226-56.706-24.318-75.643c-20.093-18.936-50.663-26.298-76.909-17.724
						c-26.245,8.574-46.779,33.102-49.727,60.555"/>
				</g>
			</g>
			<g opacity="0.03" clip-path="url(#SVGID_4_)">
				<g>
					<defs>
						<rect id="SVGID_115_" x="-776.042" y="-31.958" width="199.432" height="190.8"/>
					</defs>
					<clipPath id="SVGID_116_">
						<use xlink:href="#SVGID_115_"  overflow="visible"/>
					</clipPath>
					<path clip-path="url(#SVGID_116_)" fill="none" stroke="#2B6AB7" stroke-width="22.677" stroke-miterlimit="10" d="
						M-763.754,49.316c-2.714,17.623,0.442,36.1,8.852,51.823c10.412,19.466,28.74,34.369,49.656,41.429
						c20.917,7.06,44.2,6.394,64.996-1.015c8.485-3.023,16.648-7.178,23.526-12.993c5.902-4.991,10.765-11.128,14.818-17.709
						c15.29-24.831,18.645-57.13,6.938-83.837c-11.707-26.708-38.837-46.496-67.977-47.582
						c-17.403-0.648-34.407,4.916-50.651,11.195c-11.408,4.41-23.51,9.947-29.306,20.716c-5.056,9.393-4.738,21.862-12.674,28.99
						c-2.444,2.195-5.533,3.704-7.529,6.313c-1.997,2.609-2.276,7.046,0.58,8.67"/>
				</g>
			</g>
		</g>
	</g>
	<text transform="matrix(1 0 0 1 -798.1743 272.6743)" display="inline"><tspan x="0" y="0" fill="#333334" font-family="'Avenir-Black'" font-size="12">2017.3.4</tspan><tspan x="54.527" y="-0.611" fill="#333334" font-family="'KoburinaGoStd-W6-83pv-RKSJ-H'" font-size="7.2" letter-spacing="2">(土</tspan><tspan x="68.502" y="-0.611" fill="#333334" font-family="'KoburinaGoStd-W6-83pv-RKSJ-H'" font-size="7.2">) </tspan><tspan x="74.003" y="0" fill="#333334" font-family="'Avenir-Black'" font-size="12">3.5</tspan><tspan x="93.563" y="-0.611" fill="#333334" font-family="'KoburinaGoStd-W6-83pv-RKSJ-H'" font-size="7.2" letter-spacing="2">(日</tspan><tspan x="107.539" y="-0.611" fill="#333334" font-family="'KoburinaGoStd-W6-83pv-RKSJ-H'" font-size="7.2">) </tspan><tspan x="113.039" y="0" fill="#333334" font-family="'Avenir-Black'" font-size="12">11:00~19:00</tspan></text>
	<text transform="matrix(1 0 0 1 -788.7637 289.314)" display="inline"><tspan x="0" y="0" fill="#333334" font-family="'KoburinaGoStd-W6-83pv-RKSJ-H'" font-size="10.8">六本</tspan><tspan x="22.68" y="0" fill="#333334" font-family="'KoburinaGoStd-W6-83pv-RKSJ-H'" font-size="10.8" letter-spacing="1">木</tspan><tspan x="35.1" y="-1.182" fill="#333334" font-family="'Avenir-Black'" font-size="10.8">Axi</tspan><tspan x="53.536" y="-1.182" fill="#333334" font-family="'Avenir-Black'" font-size="10.8" letter-spacing="-1">s</tspan><tspan x="59.346" y="0" fill="#333334" font-family="'KoburinaGoStd-W6-83pv-RKSJ-H'" font-size="10.8">ギャラリー　入場無料</tspan></text>
	<g display="inline">
		
			<text transform="matrix(1 0 0 1 -791.9893 247.5444)" fill="#343434" font-family="'KoburinaGoStd-W6-83pv-RKSJ-H'" font-size="17.0079">で</text>
		
			<text transform="matrix(1 0 0 1 -771.2905 247.5444)" fill="#343434" font-family="'KoburinaGoStd-W6-83pv-RKSJ-H'" font-size="17.0079">き</text>
		
			<text transform="matrix(1 0 0 1 -751.9526 247.5444)" fill="#343434" font-family="'KoburinaGoStd-W6-83pv-RKSJ-H'" font-size="17.0079">ご</text>
		
			<text transform="matrix(1 0 0 1 -732.9546 247.5444)" fill="#343434" font-family="'KoburinaGoStd-W6-83pv-RKSJ-H'" font-size="17.0079">と</text>
		
			<text transform="matrix(1 0 0 1 -713.2769 247.5444)" fill="#343434" font-family="'KoburinaGoStd-W6-83pv-RKSJ-H'" font-size="17.0079">の</text>
		
			<text transform="matrix(1 0 0 1 -691.5576 247.5444)" fill="#343434" font-family="'KoburinaGoStd-W6-83pv-RKSJ-H'" font-size="17.0079">か</text>
		
			<text transform="matrix(1 0 0 1 -670.5186 247.5444)" fill="#343434" font-family="'KoburinaGoStd-W6-83pv-RKSJ-H'" font-size="17.0079">た</text>
		
			<text transform="matrix(1 0 0 1 -650.501 247.5444)" fill="#343434" font-family="'KoburinaGoStd-W6-83pv-RKSJ-H'" font-size="17.0079">ち</text>
		
			<text transform="matrix(1 0 0 1 -629.8018 247.5444)" fill="#343434" font-family="'KoburinaGoStd-W6-83pv-RKSJ-H'" font-size="17.0079">展</text>
	</g>
	<g display="inline">
		<text transform="matrix(1 0 0 1 -0.8818 60.146)"><tspan x="0" y="0" fill="#333334" font-family="'Avenir-Black'" font-size="18">2017.3.4</tspan><tspan x="81.794" y="-0.917" fill="#333334" font-family="'KoburinaGoStd-W6-83pv-RKSJ-H'" font-size="10.8" letter-spacing="3">(土</tspan><tspan x="102.757" y="-0.917" fill="#333334" font-family="'KoburinaGoStd-W6-83pv-RKSJ-H'" font-size="10.8">) </tspan><tspan x="111.008" y="0" fill="#333334" font-family="'Avenir-Black'" font-size="18">3.5</tspan><tspan x="140.349" y="-0.917" fill="#333334" font-family="'KoburinaGoStd-W6-83pv-RKSJ-H'" font-size="10.8" letter-spacing="3">(日</tspan><tspan x="161.312" y="-0.917" fill="#333334" font-family="'KoburinaGoStd-W6-83pv-RKSJ-H'" font-size="10.8">) </tspan><tspan x="169.562" y="0" fill="#333334" font-family="'Avenir-Black'" font-size="18">11:00~19:00</tspan></text>
		<text transform="matrix(1 0 0 1 13.2334 85.1064)"><tspan x="0" y="0" fill="#333334" font-family="'KoburinaGoStd-W6-83pv-RKSJ-H'" font-size="16.2">六本</tspan><tspan x="34.021" y="0" fill="#333334" font-family="'KoburinaGoStd-W6-83pv-RKSJ-H'" font-size="16.2" letter-spacing="2">木</tspan><tspan x="52.65" y="-1.772" fill="#333334" font-family="'Avenir-Black'" font-size="16.2">Axi</tspan><tspan x="80.303" y="-1.772" fill="#333334" font-family="'Avenir-Black'" font-size="16.2" letter-spacing="-2">s</tspan><tspan x="89.019" y="0" fill="#333334" font-family="'KoburinaGoStd-W6-83pv-RKSJ-H'" font-size="16.2">ギャラリー　入場無料</tspan></text>
		<g>
			
				<text transform="matrix(1 0 0 1 8.3955 22.4507)" fill="#343434" font-family="'KoburinaGoStd-W6-83pv-RKSJ-H'" font-size="25.5119">で</text>
			
				<text transform="matrix(1 0 0 1 39.4434 22.4507)" fill="#343434" font-family="'KoburinaGoStd-W6-83pv-RKSJ-H'" font-size="25.5119">き</text>
			
				<text transform="matrix(1 0 0 1 68.4502 22.4507)" fill="#343434" font-family="'KoburinaGoStd-W6-83pv-RKSJ-H'" font-size="25.5119">ご</text>
			
				<text transform="matrix(1 0 0 1 96.9473 22.4507)" fill="#343434" font-family="'KoburinaGoStd-W6-83pv-RKSJ-H'" font-size="25.5119">と</text>
			
				<text transform="matrix(1 0 0 1 126.4639 22.4507)" fill="#343434" font-family="'KoburinaGoStd-W6-83pv-RKSJ-H'" font-size="25.5119">の</text>
			
				<text transform="matrix(1 0 0 1 159.043 22.4507)" fill="#343434" font-family="'KoburinaGoStd-W6-83pv-RKSJ-H'" font-size="25.5119">か</text>
			
				<text transform="matrix(1 0 0 1 190.6016 22.4507)" fill="#343434" font-family="'KoburinaGoStd-W6-83pv-RKSJ-H'" font-size="25.5119">た</text>
			
				<text transform="matrix(1 0 0 1 220.6279 22.4507)" fill="#343434" font-family="'KoburinaGoStd-W6-83pv-RKSJ-H'" font-size="25.5119">ち</text>
			
				<text transform="matrix(1 0 0 1 251.6768 22.4507)" fill="#343434" font-family="'KoburinaGoStd-W6-83pv-RKSJ-H'" font-size="25.5119">展</text>
		</g>
	</g>
</g>
<g id="レイヤー_2">
	<g>
		<g>
			<path fill="#333334" d="M0,57.284l4.95-4.446c0.252-0.228,0.504-0.486,0.756-0.774s0.378-0.624,0.378-1.008
				c0-0.432-0.156-0.771-0.468-1.017c-0.312-0.246-0.678-0.369-1.098-0.369c-0.504,0-0.897,0.156-1.18,0.468
				s-0.44,0.696-0.477,1.152l-2.7-0.198c0.036-0.66,0.174-1.233,0.414-1.719s0.558-0.891,0.954-1.215
				c0.396-0.324,0.86-0.567,1.395-0.729c0.534-0.162,1.113-0.243,1.737-0.243c0.576,0,1.116,0.081,1.62,0.243
				c0.504,0.162,0.941,0.402,1.313,0.72c0.372,0.318,0.663,0.717,0.873,1.197s0.315,1.038,0.315,1.674
				c0,0.408-0.042,0.777-0.126,1.107s-0.201,0.63-0.351,0.9c-0.15,0.27-0.327,0.52-0.531,0.747c-0.204,0.228-0.427,0.45-0.666,0.666
				l-3.87,3.33h5.652v2.376H0V57.284z"/>
			<path fill="#333334" d="M11.269,53.774c0-0.756,0.069-1.524,0.207-2.304c0.138-0.78,0.384-1.488,0.738-2.124
				c0.354-0.636,0.837-1.155,1.449-1.557c0.611-0.402,1.392-0.603,2.34-0.603c0.947,0,1.728,0.201,2.34,0.603
				c0.612,0.402,1.095,0.921,1.449,1.557c0.354,0.636,0.6,1.344,0.738,2.124c0.138,0.78,0.206,1.548,0.206,2.304
				s-0.068,1.524-0.206,2.304c-0.139,0.78-0.385,1.488-0.738,2.124c-0.354,0.636-0.837,1.155-1.449,1.557
				c-0.612,0.402-1.393,0.603-2.34,0.603c-0.948,0-1.729-0.201-2.34-0.603c-0.612-0.402-1.096-0.92-1.449-1.557
				c-0.354-0.636-0.601-1.344-0.738-2.124S11.269,54.53,11.269,53.774z M13.969,53.774c0,0.336,0.015,0.738,0.045,1.206
				s0.111,0.918,0.243,1.35s0.333,0.798,0.603,1.098c0.271,0.3,0.651,0.45,1.144,0.45c0.479,0,0.857-0.15,1.134-0.45
				s0.479-0.666,0.612-1.098c0.132-0.432,0.213-0.882,0.243-1.35c0.029-0.468,0.045-0.87,0.045-1.206s-0.016-0.738-0.045-1.206
				c-0.03-0.468-0.111-0.918-0.243-1.35c-0.133-0.432-0.336-0.798-0.612-1.098s-0.654-0.45-1.134-0.45
				c-0.492,0-0.873,0.15-1.144,0.45c-0.27,0.3-0.471,0.666-0.603,1.098c-0.132,0.432-0.213,0.882-0.243,1.35
				C13.983,53.036,13.969,53.438,13.969,53.774z"/>
			<path fill="#333334" d="M27.414,50.426l-2.556,2.25l-1.53-1.764l4.158-3.51h2.521v12.744h-2.593V50.426z"/>
			<path fill="#333334" d="M40.753,49.886h-6.3v-2.484h9.324v2.376l-5.094,10.368h-3.15L40.753,49.886z"/>
			<path fill="#333334" d="M46.351,58.598c0-0.228,0.042-0.444,0.126-0.648s0.201-0.381,0.352-0.531
				c0.149-0.15,0.326-0.267,0.53-0.351c0.204-0.083,0.42-0.126,0.648-0.126c0.228,0,0.443,0.042,0.647,0.126
				c0.204,0.084,0.381,0.201,0.531,0.351c0.15,0.15,0.268,0.327,0.352,0.531c0.083,0.204,0.126,0.42,0.126,0.648
				s-0.043,0.444-0.126,0.648c-0.084,0.204-0.201,0.381-0.352,0.531c-0.15,0.15-0.327,0.267-0.531,0.351s-0.42,0.126-0.647,0.126
				c-0.229,0-0.444-0.042-0.648-0.126s-0.381-0.201-0.53-0.351c-0.15-0.15-0.268-0.327-0.352-0.531S46.351,58.826,46.351,58.598z"/>
			<path fill="#333334" d="M55.459,52.424h0.882c0.253,0,0.498-0.018,0.738-0.054c0.24-0.036,0.459-0.105,0.657-0.207
				s0.356-0.246,0.477-0.432s0.181-0.429,0.181-0.729c0-0.384-0.153-0.702-0.459-0.954c-0.307-0.252-0.682-0.378-1.125-0.378
				c-0.421,0-0.769,0.114-1.044,0.342c-0.276,0.228-0.456,0.51-0.54,0.846l-2.971-0.612c0.145-0.552,0.36-1.023,0.648-1.413
				c0.288-0.39,0.63-0.705,1.026-0.945c0.396-0.24,0.837-0.417,1.322-0.531c0.486-0.114,0.999-0.171,1.539-0.171
				c0.564,0,1.107,0.069,1.629,0.207c0.522,0.138,0.981,0.354,1.377,0.648c0.396,0.294,0.711,0.663,0.945,1.107
				c0.234,0.444,0.352,0.972,0.352,1.584c0,0.708-0.187,1.314-0.559,1.818c-0.372,0.504-0.912,0.828-1.62,0.972v0.054
				c0.384,0.048,0.723,0.162,1.018,0.342c0.294,0.18,0.543,0.402,0.747,0.666c0.203,0.264,0.359,0.564,0.468,0.9
				c0.107,0.336,0.162,0.69,0.162,1.062c0,0.636-0.123,1.194-0.369,1.674s-0.576,0.879-0.99,1.197s-0.9,0.555-1.458,0.711
				s-1.149,0.234-1.772,0.234c-1.141,0-2.122-0.264-2.943-0.792c-0.822-0.528-1.365-1.362-1.629-2.502l2.844-0.666
				c0.096,0.457,0.291,0.816,0.585,1.08c0.294,0.264,0.729,0.396,1.305,0.396c0.588,0,1.023-0.153,1.306-0.459
				c0.281-0.306,0.423-0.699,0.423-1.179c0-0.36-0.075-0.639-0.225-0.837c-0.15-0.198-0.346-0.345-0.586-0.441
				c-0.239-0.096-0.51-0.153-0.81-0.171s-0.601-0.027-0.9-0.027h-0.63V52.424z"/>
			<path fill="#333334" d="M64.136,58.598c0-0.228,0.042-0.444,0.126-0.648s0.201-0.381,0.352-0.531
				c0.149-0.15,0.326-0.267,0.53-0.351c0.204-0.083,0.42-0.126,0.648-0.126c0.228,0,0.443,0.042,0.647,0.126
				c0.204,0.084,0.381,0.201,0.531,0.351c0.15,0.15,0.268,0.327,0.352,0.531c0.083,0.204,0.126,0.42,0.126,0.648
				s-0.043,0.444-0.126,0.648c-0.084,0.204-0.201,0.381-0.352,0.531c-0.15,0.15-0.327,0.267-0.531,0.351s-0.42,0.126-0.647,0.126
				c-0.229,0-0.444-0.042-0.648-0.126s-0.381-0.201-0.53-0.351c-0.15-0.15-0.268-0.327-0.352-0.531S64.136,58.826,64.136,58.598z"/>
			<path fill="#333334" d="M75.35,57.59h-5.562v-2.268l5.202-7.92h2.952v7.92h1.638v2.268h-1.638v2.556H75.35V57.59z M75.35,50.93
				h-0.036l-2.826,4.392h2.862V50.93z"/>
			<path fill="#333334" d="M84.467,50.932c-0.659,1.091-0.919,1.664-1.167,2.517c-0.238,0.832-0.356,1.707-0.356,2.647
				s0.118,1.815,0.356,2.636c0.248,0.854,0.519,1.426,1.167,2.517l-0.919,0.324c-0.745-1.134-1.037-1.718-1.34-2.658
				c-0.28-0.918-0.432-1.858-0.432-2.819s0.151-1.901,0.432-2.831c0.303-0.94,0.595-1.523,1.34-2.658L84.467,50.932z"/>
			<path fill="#333334" d="M92.556,51.623c0-0.443-0.021-0.821-0.075-1.221h1.351c-0.055,0.378-0.076,0.746-0.076,1.221v1.88h2.074
				c0.584,0,0.951-0.022,1.34-0.065v1.221c-0.41-0.043-0.811-0.065-1.34-0.065h-2.074v3.749h2.733c0.583,0,1.069-0.022,1.437-0.065
				v1.242c-0.41-0.054-0.864-0.075-1.437-0.075H90.05c-0.584,0-1.069,0.021-1.48,0.075v-1.242c0.378,0.043,0.843,0.065,1.48,0.065
				h2.506v-3.749h-1.88c-0.529,0-0.929,0.022-1.339,0.065v-1.221c0.356,0.043,0.788,0.065,1.339,0.065h1.88V51.623z"/>
			<path fill="#333334" d="M102.955,50.607c0.746,1.145,1.037,1.718,1.329,2.658c0.303,0.929,0.443,1.858,0.443,2.831
				s-0.141,1.901-0.433,2.819c-0.303,0.94-0.594,1.523-1.34,2.658l-0.918-0.324c0.659-1.091,0.918-1.664,1.167-2.517
				c0.237-0.821,0.356-1.685,0.356-2.636s-0.119-1.815-0.356-2.647c-0.249-0.854-0.508-1.426-1.167-2.517L102.955,50.607z"/>
			<path fill="#333334" d="M114.014,52.424h0.882c0.253,0,0.498-0.018,0.738-0.054c0.24-0.036,0.459-0.105,0.657-0.207
				s0.356-0.246,0.477-0.432s0.181-0.429,0.181-0.729c0-0.384-0.153-0.702-0.459-0.954c-0.307-0.252-0.682-0.378-1.125-0.378
				c-0.421,0-0.769,0.114-1.044,0.342c-0.276,0.228-0.456,0.51-0.54,0.846l-2.971-0.612c0.145-0.552,0.36-1.023,0.648-1.413
				c0.288-0.39,0.63-0.705,1.026-0.945c0.396-0.24,0.837-0.417,1.322-0.531c0.486-0.114,0.999-0.171,1.539-0.171
				c0.564,0,1.107,0.069,1.629,0.207c0.522,0.138,0.981,0.354,1.377,0.648c0.396,0.294,0.711,0.663,0.945,1.107
				c0.234,0.444,0.352,0.972,0.352,1.584c0,0.708-0.187,1.314-0.559,1.818c-0.372,0.504-0.912,0.828-1.62,0.972v0.054
				c0.384,0.048,0.723,0.162,1.018,0.342c0.294,0.18,0.543,0.402,0.747,0.666c0.203,0.264,0.359,0.564,0.468,0.9
				c0.107,0.336,0.162,0.69,0.162,1.062c0,0.636-0.123,1.194-0.369,1.674s-0.576,0.879-0.99,1.197s-0.9,0.555-1.458,0.711
				s-1.149,0.234-1.772,0.234c-1.141,0-2.122-0.264-2.943-0.792c-0.822-0.528-1.365-1.362-1.629-2.502l2.844-0.666
				c0.096,0.457,0.291,0.816,0.585,1.08c0.294,0.264,0.729,0.396,1.305,0.396c0.588,0,1.023-0.153,1.306-0.459
				c0.281-0.306,0.423-0.699,0.423-1.179c0-0.36-0.075-0.639-0.225-0.837c-0.15-0.198-0.346-0.345-0.586-0.441
				c-0.239-0.096-0.51-0.153-0.81-0.171s-0.601-0.027-0.9-0.027h-0.63V52.424z"/>
			<path fill="#333334" d="M122.69,58.598c0-0.228,0.042-0.444,0.126-0.648s0.201-0.381,0.352-0.531
				c0.149-0.15,0.326-0.267,0.53-0.351c0.204-0.083,0.42-0.126,0.648-0.126c0.228,0,0.443,0.042,0.647,0.126
				c0.204,0.084,0.381,0.201,0.531,0.351c0.15,0.15,0.268,0.327,0.352,0.531c0.083,0.204,0.126,0.42,0.126,0.648
				s-0.043,0.444-0.126,0.648c-0.084,0.204-0.201,0.381-0.352,0.531c-0.15,0.15-0.327,0.267-0.531,0.351s-0.42,0.126-0.647,0.126
				c-0.229,0-0.444-0.042-0.648-0.126s-0.381-0.201-0.53-0.351c-0.15-0.15-0.268-0.327-0.352-0.531S122.69,58.826,122.69,58.598z"/>
			<path fill="#333334" d="M137.216,49.778h-5.058l-0.054,1.962c0.275-0.096,0.653-0.144,1.134-0.144
				c0.647,0,1.242,0.096,1.782,0.288c0.54,0.192,1.005,0.471,1.395,0.837s0.693,0.81,0.909,1.332
				c0.216,0.522,0.324,1.107,0.324,1.755c0,0.72-0.123,1.362-0.369,1.926c-0.246,0.564-0.585,1.042-1.018,1.431
				c-0.432,0.39-0.944,0.687-1.538,0.891c-0.595,0.204-1.239,0.306-1.936,0.306c-1.104,0-2.028-0.27-2.771-0.81
				c-0.745-0.54-1.255-1.355-1.53-2.448l2.826-0.648c0.071,0.456,0.264,0.825,0.575,1.107c0.312,0.282,0.702,0.423,1.171,0.423
				c0.575,0,1.034-0.18,1.377-0.54c0.342-0.36,0.513-0.816,0.513-1.368c0-0.42-0.087-0.765-0.261-1.035
				c-0.175-0.27-0.402-0.486-0.685-0.648s-0.597-0.273-0.944-0.333c-0.349-0.06-0.696-0.09-1.045-0.09
				c-0.443,0-0.891,0.042-1.341,0.126c-0.449,0.084-0.885,0.198-1.305,0.342l0.144-7.038h7.704V49.778z"/>
			<path fill="#333334" d="M143.021,50.932c-0.659,1.091-0.919,1.664-1.167,2.517c-0.238,0.832-0.356,1.707-0.356,2.647
				s0.118,1.815,0.356,2.636c0.248,0.854,0.519,1.426,1.167,2.517l-0.919,0.324c-0.745-1.134-1.037-1.718-1.34-2.658
				c-0.28-0.918-0.432-1.858-0.432-2.819s0.151-1.901,0.432-2.831c0.303-0.94,0.595-1.523,1.34-2.658L143.021,50.932z"/>
			<path fill="#333334" d="M148.193,51.904c0-0.399-0.021-0.767-0.054-1.113c0.313,0.043,0.659,0.054,1.156,0.054h5.023
				c0.497,0,0.811-0.011,1.112-0.054c-0.043,0.389-0.054,0.703-0.054,1.07v6.687c0,0.529,0.011,0.875,0.054,1.264h-1.242v-0.627
				h-4.818v0.627h-1.242c0.043-0.378,0.064-0.767,0.064-1.264V51.904z M149.371,54.356h4.818v-2.409h-4.818V54.356z M149.371,58.094
				h4.818v-2.647h-4.818V58.094z"/>
			<path fill="#333334" d="M161.51,50.607c0.746,1.145,1.037,1.718,1.329,2.658c0.303,0.929,0.443,1.858,0.443,2.831
				s-0.141,1.901-0.433,2.819c-0.303,0.94-0.594,1.523-1.34,2.658l-0.918-0.324c0.659-1.091,0.918-1.664,1.167-2.517
				c0.237-0.821,0.356-1.685,0.356-2.636s-0.119-1.815-0.356-2.647c-0.249-0.854-0.508-1.426-1.167-2.517L161.51,50.607z"/>
			<path fill="#333334" d="M173.864,50.426l-2.556,2.25l-1.53-1.764l4.158-3.51h2.521v12.744h-2.593V50.426z"/>
			<path fill="#333334" d="M185.421,50.426l-2.556,2.25l-1.53-1.764l4.158-3.51h2.521v12.744h-2.593V50.426z"/>
			<path fill="#333334" d="M192.801,52.838c0-0.228,0.042-0.444,0.126-0.648c0.084-0.204,0.201-0.381,0.352-0.531
				c0.149-0.15,0.326-0.267,0.53-0.351s0.42-0.126,0.648-0.126c0.228,0,0.443,0.042,0.647,0.126s0.381,0.201,0.531,0.351
				s0.268,0.327,0.352,0.531c0.083,0.204,0.126,0.42,0.126,0.648c0,0.228-0.043,0.444-0.126,0.648
				c-0.084,0.204-0.201,0.381-0.352,0.531s-0.327,0.267-0.531,0.351s-0.42,0.126-0.647,0.126c-0.229,0-0.444-0.042-0.648-0.126
				s-0.381-0.201-0.53-0.351c-0.15-0.15-0.268-0.327-0.352-0.531C192.843,53.282,192.801,53.066,192.801,52.838z M192.801,58.598
				c0-0.228,0.042-0.444,0.126-0.648s0.201-0.381,0.352-0.531c0.149-0.15,0.326-0.267,0.53-0.351
				c0.204-0.083,0.42-0.126,0.648-0.126c0.228,0,0.443,0.042,0.647,0.126c0.204,0.084,0.381,0.201,0.531,0.351
				c0.15,0.15,0.268,0.327,0.352,0.531c0.083,0.204,0.126,0.42,0.126,0.648s-0.043,0.444-0.126,0.648
				c-0.084,0.204-0.201,0.381-0.352,0.531c-0.15,0.15-0.327,0.267-0.531,0.351s-0.42,0.126-0.647,0.126
				c-0.229,0-0.444-0.042-0.648-0.126s-0.381-0.201-0.53-0.351c-0.15-0.15-0.268-0.327-0.352-0.531S192.801,58.826,192.801,58.598z"
				/>
			<path fill="#333334" d="M198.615,53.774c0-0.756,0.069-1.524,0.207-2.304c0.138-0.78,0.384-1.488,0.738-2.124
				c0.354-0.636,0.837-1.155,1.449-1.557c0.611-0.402,1.392-0.603,2.34-0.603c0.947,0,1.728,0.201,2.34,0.603
				c0.612,0.402,1.095,0.921,1.449,1.557c0.354,0.636,0.6,1.344,0.738,2.124c0.138,0.78,0.206,1.548,0.206,2.304
				s-0.068,1.524-0.206,2.304c-0.139,0.78-0.385,1.488-0.738,2.124c-0.354,0.636-0.837,1.155-1.449,1.557
				c-0.612,0.402-1.393,0.603-2.34,0.603c-0.948,0-1.729-0.201-2.34-0.603c-0.612-0.402-1.096-0.92-1.449-1.557
				c-0.354-0.636-0.601-1.344-0.738-2.124S198.615,54.53,198.615,53.774z M201.315,53.774c0,0.336,0.015,0.738,0.045,1.206
				s0.111,0.918,0.243,1.35s0.333,0.798,0.603,1.098c0.271,0.3,0.651,0.45,1.144,0.45c0.479,0,0.857-0.15,1.134-0.45
				s0.479-0.666,0.612-1.098c0.132-0.432,0.213-0.882,0.243-1.35c0.029-0.468,0.045-0.87,0.045-1.206s-0.016-0.738-0.045-1.206
				c-0.03-0.468-0.111-0.918-0.243-1.35c-0.133-0.432-0.336-0.798-0.612-1.098s-0.654-0.45-1.134-0.45
				c-0.492,0-0.873,0.15-1.144,0.45c-0.27,0.3-0.471,0.666-0.603,1.098c-0.132,0.432-0.213,0.882-0.243,1.35
				C201.33,53.036,201.315,53.438,201.315,53.774z"/>
			<path fill="#333334" d="M210.171,53.774c0-0.756,0.069-1.524,0.207-2.304c0.138-0.78,0.384-1.488,0.738-2.124
				c0.354-0.636,0.837-1.155,1.449-1.557c0.611-0.402,1.392-0.603,2.34-0.603c0.947,0,1.728,0.201,2.34,0.603
				c0.612,0.402,1.095,0.921,1.449,1.557c0.354,0.636,0.6,1.344,0.738,2.124c0.138,0.78,0.206,1.548,0.206,2.304
				s-0.068,1.524-0.206,2.304c-0.139,0.78-0.385,1.488-0.738,2.124c-0.354,0.636-0.837,1.155-1.449,1.557
				c-0.612,0.402-1.393,0.603-2.34,0.603c-0.948,0-1.729-0.201-2.34-0.603c-0.612-0.402-1.096-0.92-1.449-1.557
				c-0.354-0.636-0.601-1.344-0.738-2.124S210.171,54.53,210.171,53.774z M212.871,53.774c0,0.336,0.015,0.738,0.045,1.206
				s0.111,0.918,0.243,1.35s0.333,0.798,0.603,1.098c0.271,0.3,0.651,0.45,1.144,0.45c0.479,0,0.857-0.15,1.134-0.45
				s0.479-0.666,0.612-1.098c0.132-0.432,0.213-0.882,0.243-1.35c0.029-0.468,0.045-0.87,0.045-1.206s-0.016-0.738-0.045-1.206
				c-0.03-0.468-0.111-0.918-0.243-1.35c-0.133-0.432-0.336-0.798-0.612-1.098s-0.654-0.45-1.134-0.45
				c-0.492,0-0.873,0.15-1.144,0.45c-0.27,0.3-0.471,0.666-0.603,1.098c-0.132,0.432-0.213,0.882-0.243,1.35
				C212.886,53.036,212.871,53.438,212.871,53.774z"/>
			<path fill="#333334" d="M231.286,54.89c-0.097,0.192-0.214,0.381-0.352,0.567s-0.297,0.351-0.477,0.495
				c-0.181,0.144-0.388,0.261-0.621,0.351c-0.234,0.09-0.501,0.135-0.801,0.135c-0.312,0-0.637-0.057-0.973-0.171
				c-0.336-0.114-0.678-0.249-1.025-0.405c-0.336-0.144-0.666-0.288-0.99-0.432s-0.606-0.216-0.846-0.216
				c-0.181,0-0.346,0.039-0.495,0.117c-0.15,0.078-0.288,0.174-0.414,0.288s-0.243,0.243-0.352,0.387
				c-0.107,0.144-0.216,0.288-0.323,0.432l-0.648-1.944c0.096-0.192,0.213-0.381,0.351-0.567c0.139-0.186,0.298-0.351,0.478-0.495
				s0.387-0.261,0.621-0.351c0.233-0.09,0.501-0.135,0.801-0.135c0.312,0,0.636,0.057,0.972,0.171
				c0.336,0.114,0.678,0.249,1.026,0.405c0.336,0.144,0.666,0.288,0.99,0.432s0.605,0.216,0.846,0.216
				c0.18,0,0.345-0.039,0.495-0.117c0.149-0.078,0.288-0.174,0.414-0.288s0.243-0.243,0.351-0.387
				c0.108-0.144,0.217-0.288,0.324-0.432L231.286,54.89z"/>
			<path fill="#333334" d="M239.205,50.426l-2.556,2.25l-1.53-1.764l4.158-3.51h2.521v12.744h-2.593V50.426z"/>
			<path fill="#333334" d="M251.067,55.592c-0.145,0.036-0.288,0.066-0.433,0.09c-0.144,0.024-0.294,0.036-0.449,0.036
				c-0.601,0-1.146-0.108-1.639-0.324s-0.912-0.51-1.26-0.882c-0.349-0.372-0.618-0.813-0.81-1.323
				c-0.192-0.51-0.288-1.053-0.288-1.629c0-0.66,0.123-1.257,0.369-1.791c0.245-0.534,0.581-0.993,1.008-1.377
				c0.426-0.384,0.927-0.681,1.503-0.891s1.199-0.315,1.872-0.315c0.659,0,1.28,0.105,1.862,0.315s1.086,0.507,1.513,0.891
				c0.426,0.384,0.762,0.843,1.008,1.377c0.246,0.534,0.369,1.131,0.369,1.791c0,0.456-0.042,0.873-0.126,1.251
				s-0.195,0.735-0.333,1.071c-0.139,0.336-0.301,0.657-0.486,0.963c-0.187,0.306-0.381,0.621-0.585,0.945l-2.79,4.356h-3.294
				L251.067,55.592z M248.889,51.668c0,0.576,0.189,1.053,0.567,1.431s0.873,0.567,1.485,0.567c0.611,0,1.106-0.189,1.484-0.567
				s0.567-0.855,0.567-1.431s-0.189-1.053-0.567-1.431c-0.378-0.378-0.873-0.567-1.484-0.567c-0.612,0-1.107,0.189-1.485,0.567
				C249.078,50.615,248.889,51.092,248.889,51.668z"/>
			<path fill="#333334" d="M258.142,52.838c0-0.228,0.042-0.444,0.126-0.648c0.084-0.204,0.201-0.381,0.352-0.531
				c0.149-0.15,0.326-0.267,0.53-0.351s0.42-0.126,0.648-0.126c0.228,0,0.443,0.042,0.647,0.126s0.381,0.201,0.531,0.351
				s0.268,0.327,0.352,0.531c0.083,0.204,0.126,0.42,0.126,0.648c0,0.228-0.043,0.444-0.126,0.648
				c-0.084,0.204-0.201,0.381-0.352,0.531s-0.327,0.267-0.531,0.351s-0.42,0.126-0.647,0.126c-0.229,0-0.444-0.042-0.648-0.126
				s-0.381-0.201-0.53-0.351c-0.15-0.15-0.268-0.327-0.352-0.531C258.184,53.282,258.142,53.066,258.142,52.838z M258.142,58.598
				c0-0.228,0.042-0.444,0.126-0.648s0.201-0.381,0.352-0.531c0.149-0.15,0.326-0.267,0.53-0.351
				c0.204-0.083,0.42-0.126,0.648-0.126c0.228,0,0.443,0.042,0.647,0.126c0.204,0.084,0.381,0.201,0.531,0.351
				c0.15,0.15,0.268,0.327,0.352,0.531c0.083,0.204,0.126,0.42,0.126,0.648s-0.043,0.444-0.126,0.648
				c-0.084,0.204-0.201,0.381-0.352,0.531c-0.15,0.15-0.327,0.267-0.531,0.351s-0.42,0.126-0.647,0.126
				c-0.229,0-0.444-0.042-0.648-0.126s-0.381-0.201-0.53-0.351c-0.15-0.15-0.268-0.327-0.352-0.531S258.142,58.826,258.142,58.598z"
				/>
			<path fill="#333334" d="M263.955,53.774c0-0.756,0.069-1.524,0.207-2.304c0.138-0.78,0.384-1.488,0.738-2.124
				c0.354-0.636,0.837-1.155,1.449-1.557c0.611-0.402,1.392-0.603,2.34-0.603c0.947,0,1.728,0.201,2.34,0.603
				c0.612,0.402,1.095,0.921,1.449,1.557c0.354,0.636,0.6,1.344,0.738,2.124c0.138,0.78,0.206,1.548,0.206,2.304
				s-0.068,1.524-0.206,2.304c-0.139,0.78-0.385,1.488-0.738,2.124c-0.354,0.636-0.837,1.155-1.449,1.557
				c-0.612,0.402-1.393,0.603-2.34,0.603c-0.948,0-1.729-0.201-2.34-0.603c-0.612-0.402-1.096-0.92-1.449-1.557
				c-0.354-0.636-0.601-1.344-0.738-2.124S263.955,54.53,263.955,53.774z M266.655,53.774c0,0.336,0.015,0.738,0.045,1.206
				s0.111,0.918,0.243,1.35s0.333,0.798,0.603,1.098c0.271,0.3,0.651,0.45,1.144,0.45c0.479,0,0.857-0.15,1.134-0.45
				s0.479-0.666,0.612-1.098c0.132-0.432,0.213-0.882,0.243-1.35c0.029-0.468,0.045-0.87,0.045-1.206s-0.016-0.738-0.045-1.206
				c-0.03-0.468-0.111-0.918-0.243-1.35c-0.133-0.432-0.336-0.798-0.612-1.098s-0.654-0.45-1.134-0.45
				c-0.492,0-0.873,0.15-1.144,0.45c-0.27,0.3-0.471,0.666-0.603,1.098c-0.132,0.432-0.213,0.882-0.243,1.35
				C266.67,53.036,266.655,53.438,266.655,53.774z"/>
			<path fill="#333334" d="M275.512,53.774c0-0.756,0.069-1.524,0.207-2.304c0.138-0.78,0.384-1.488,0.738-2.124
				c0.354-0.636,0.837-1.155,1.449-1.557c0.611-0.402,1.392-0.603,2.34-0.603c0.947,0,1.728,0.201,2.34,0.603
				c0.612,0.402,1.095,0.921,1.449,1.557c0.354,0.636,0.6,1.344,0.738,2.124c0.138,0.78,0.206,1.548,0.206,2.304
				s-0.068,1.524-0.206,2.304c-0.139,0.78-0.385,1.488-0.738,2.124c-0.354,0.636-0.837,1.155-1.449,1.557
				c-0.612,0.402-1.393,0.603-2.34,0.603c-0.948,0-1.729-0.201-2.34-0.603c-0.612-0.402-1.096-0.92-1.449-1.557
				c-0.354-0.636-0.601-1.344-0.738-2.124S275.512,54.53,275.512,53.774z M278.212,53.774c0,0.336,0.015,0.738,0.045,1.206
				s0.111,0.918,0.243,1.35s0.333,0.798,0.603,1.098c0.271,0.3,0.651,0.45,1.144,0.45c0.479,0,0.857-0.15,1.134-0.45
				s0.479-0.666,0.612-1.098c0.132-0.432,0.213-0.882,0.243-1.35c0.029-0.468,0.045-0.87,0.045-1.206s-0.016-0.738-0.045-1.206
				c-0.03-0.468-0.111-0.918-0.243-1.35c-0.133-0.432-0.336-0.798-0.612-1.098s-0.654-0.45-1.134-0.45
				c-0.492,0-0.873,0.15-1.144,0.45c-0.27,0.3-0.471,0.666-0.603,1.098c-0.132,0.432-0.213,0.882-0.243,1.35
				C278.227,53.036,278.212,53.438,278.212,53.774z"/>
		</g>
		<g>
			<path fill="#333334" d="M19.861,78.397c-0.098,0.259-0.098,0.259-0.292,0.827c-0.891,2.609-2.285,5.007-3.954,6.757
				c-0.486-0.502-0.907-0.843-1.588-1.264c1.054-0.907,1.734-1.782,2.544-3.225c0.503-0.907,0.892-1.847,1.231-2.949
				c0.065-0.178,0.13-0.454,0.195-0.81L19.861,78.397z M20.282,73.39c0-0.502-0.032-0.939-0.097-1.41h2.042
				c-0.065,0.47-0.098,0.924-0.098,1.41v1.313h4.051c0.811,0,1.475-0.033,2.107-0.097v1.928c-0.795-0.081-0.795-0.081-2.155-0.097
				h-9.626c-1.037,0-1.523,0.016-2.155,0.097v-1.928c0.632,0.064,1.394,0.097,2.22,0.097h3.711V73.39z M24.382,77.701
				c0.162,0.697,0.39,1.312,0.957,2.544c0.81,1.75,1.896,3.322,3.144,4.521c-0.632,0.389-0.989,0.681-1.572,1.28
				c-1.733-1.977-3.03-4.262-4.067-7.146c-0.097-0.259-0.13-0.324-0.211-0.502L24.382,77.701z"/>
			<path fill="#333334" d="M33.354,76.048c-0.664,0-1.248,0.033-1.848,0.097v-1.912c0.632,0.081,1.103,0.113,1.848,0.113h4.003
				v-1.102c0-0.616-0.033-0.989-0.098-1.442h1.944c-0.064,0.438-0.097,0.843-0.097,1.426v1.118h4.213
				c0.778,0,1.329-0.032,1.88-0.113v1.912c-0.664-0.064-1.183-0.097-1.88-0.097h-3.338c0.729,1.312,1.458,2.35,2.333,3.257
				c1.054,1.118,2.172,1.961,3.403,2.609c-0.486,0.583-0.745,0.989-1.069,1.702c-0.988-0.681-1.718-1.264-2.609-2.155v1.75
				c-0.47-0.065-0.907-0.081-1.556-0.081h-1.377v1.069c0,0.746,0.032,1.377,0.113,1.929h-1.978c0.081-0.583,0.114-1.199,0.114-1.945
				v-1.053h-1.231c-0.665,0-1.086,0.016-1.556,0.081v-1.734c-0.892,0.924-1.54,1.491-2.528,2.171
				c-0.308-0.697-0.535-1.053-1.054-1.621c2.317-1.442,4.214-3.549,5.413-5.979H33.354z M37.357,79.013
				c0-0.47,0.048-1.118,0.113-1.734c-0.811,1.669-1.556,2.739-2.819,4.116c0.372,0.049,0.647,0.065,1.394,0.065h1.312V79.013z
				 M40.598,81.46c0.729,0,0.989-0.016,1.378-0.065c-1.231-1.231-1.896-2.155-3.015-4.132c0.098,0.648,0.146,1.28,0.146,1.734v2.463
				H40.598z"/>
			<path fill="#333334" d="M56.701,76.404c1.345,2.577,3.273,4.505,6.061,6.012c-0.615,0.665-0.729,0.826-1.199,1.653
				c-1.409-0.988-2.252-1.669-3.014-2.479c-1.021-1.085-1.734-2.058-2.512-3.516c0.081,0.664,0.113,1.264,0.113,1.75v4.359
				c0,0.746,0.032,1.377,0.113,1.929h-2.025c0.081-0.551,0.113-1.199,0.113-1.945V79.84c0-0.389,0.032-1.053,0.081-1.685
				c-1.167,2.398-2.836,4.262-5.331,5.979c-0.373-0.697-0.697-1.134-1.167-1.588c2.576-1.475,4.78-3.775,5.85-6.142h-3.402
				c-0.697,0-1.28,0.033-1.864,0.097V74.67c0.567,0.081,1.135,0.114,1.864,0.114h3.97v-1.475c0-0.583-0.032-0.988-0.097-1.442h1.993
				c-0.065,0.454-0.098,0.859-0.098,1.442v1.475h4.181c0.778,0,1.378-0.033,1.88-0.114v1.831c-0.567-0.064-1.216-0.097-1.88-0.097
				H56.701z"/>
			<path fill="#333334" d="M70.825,71.865h2.09l4.989,11.47h-2.852l-0.988-2.43h-4.455l-0.955,2.43h-2.787L70.825,71.865z
				 M71.797,75.202l-1.394,3.564h2.803L71.797,75.202z"/>
			<path fill="#333334" d="M81.678,79.123l-2.624-3.661h2.867l1.394,2.138l1.345-2.138h2.705l-2.56,3.661l3.029,4.212h-2.867
				l-1.718-2.625l-1.847,2.625h-2.835L81.678,79.123z"/>
			<path fill="#333334" d="M89.211,72.983c0-0.389,0.138-0.721,0.413-0.997s0.607-0.413,0.997-0.413
				c0.389,0,0.721,0.138,0.996,0.413s0.413,0.607,0.413,0.997c0,0.389-0.138,0.721-0.413,0.996s-0.607,0.413-0.996,0.413
				c-0.39,0-0.722-0.138-0.997-0.413S89.211,73.372,89.211,72.983z M89.405,75.461h2.431v7.873h-2.431V75.461z"/>
			<path fill="#333334" d="M98.85,77.778c-0.356-0.443-0.826-0.664-1.409-0.664c-0.205,0-0.405,0.048-0.6,0.146
				s-0.291,0.265-0.291,0.502c0,0.194,0.1,0.337,0.299,0.429c0.2,0.092,0.454,0.173,0.762,0.243s0.637,0.146,0.988,0.227
				c0.351,0.081,0.681,0.208,0.988,0.381s0.562,0.408,0.762,0.705c0.199,0.297,0.299,0.694,0.299,1.191
				c0,0.508-0.11,0.926-0.332,1.255c-0.221,0.33-0.505,0.594-0.85,0.794c-0.347,0.2-0.735,0.34-1.167,0.421
				s-0.858,0.122-1.279,0.122c-0.551,0-1.107-0.079-1.669-0.235s-1.037-0.435-1.426-0.834l1.475-1.636
				c0.227,0.281,0.478,0.494,0.753,0.64s0.597,0.219,0.964,0.219c0.281,0,0.535-0.041,0.762-0.122s0.34-0.229,0.34-0.445
				c0-0.205-0.1-0.359-0.3-0.462c-0.199-0.103-0.453-0.189-0.761-0.259c-0.309-0.07-0.638-0.146-0.988-0.227
				c-0.352-0.081-0.681-0.203-0.988-0.365c-0.308-0.162-0.562-0.391-0.762-0.688c-0.2-0.297-0.3-0.694-0.3-1.19
				c0-0.464,0.095-0.864,0.284-1.199c0.188-0.335,0.437-0.61,0.745-0.827c0.308-0.216,0.661-0.375,1.061-0.478
				s0.805-0.154,1.215-0.154c0.519,0,1.042,0.076,1.571,0.227c0.529,0.151,0.978,0.421,1.345,0.81L98.85,77.778z"/>
			<path fill="#333334" d="M107.811,72.596c0.729-0.146,1.426-0.21,2.058-0.21c0.324,0,0.438,0.081,0.438,0.308
				c0,0.065,0,0.114-0.049,0.276c-0.016,0.097-0.032,0.21-0.032,0.324c0,0.292,0.032,0.567,0.243,1.75
				c1.312-0.211,2.853-0.551,3.549-0.762c0.113-0.049,0.146-0.049,0.243-0.049c0.113,0,0.162,0.097,0.227,0.405
				c0.065,0.308,0.194,1.134,0.194,1.264c0,0.195-0.064,0.227-0.696,0.292c-0.405,0.032-0.632,0.065-1.442,0.21
				c-0.292,0.049-0.292,0.049-1.767,0.308c0.275,1.426,0.275,1.426,0.422,2.188c0.356-0.065,0.356-0.065,0.713-0.129
				c1.62-0.292,2.723-0.535,3.468-0.762c0.259-0.081,0.421-0.13,0.47-0.13c0.13,0,0.179,0.065,0.227,0.227
				c0.13,0.421,0.292,1.199,0.292,1.458c0,0.146-0.032,0.162-0.519,0.243c-0.259,0.048-0.259,0.048-0.794,0.146
				c-0.875,0.146-0.875,0.146-3.517,0.6c0.422,2.042,0.422,2.042,1.005,4.392c0.032,0.13,0.049,0.227,0.049,0.259
				c0,0.162-0.065,0.211-0.341,0.308c-0.453,0.162-1.296,0.34-1.522,0.34c-0.162,0-0.195-0.049-0.243-0.356
				c-0.114-0.778-0.373-2.22-0.794-4.603c-3.307,0.616-3.565,0.681-4.489,1.005c-0.211,0.065-0.275,0.081-0.356,0.081
				c-0.13,0-0.211-0.065-0.292-0.243c-0.194-0.405-0.356-0.924-0.551-1.718c0.843-0.032,1.734-0.162,5.38-0.794
				c-0.194-0.956-0.324-1.653-0.438-2.204c-2.949,0.519-2.949,0.519-3.775,0.762c-0.13,0.049-0.162,0.049-0.194,0.049
				c-0.26,0-0.26,0-0.729-1.896c0.892-0.016,0.892-0.016,4.375-0.583C108.361,74.12,108.102,73.196,107.811,72.596z M115.395,74.816
				c-0.341-0.632-0.697-1.102-1.199-1.621c-0.098-0.097-0.098-0.113-0.098-0.162c0-0.097,0.098-0.194,0.373-0.405
				c0.259-0.195,0.356-0.243,0.453-0.243c0.13,0,0.292,0.129,0.697,0.567c0.519,0.583,0.892,1.086,0.892,1.215
				c0,0.195-0.729,0.778-0.94,0.778C115.508,74.946,115.459,74.914,115.395,74.816z M117.646,73.585
				c-0.097,0.064-0.243,0.162-0.292,0.178c-0.016,0.016-0.016,0.016-0.081,0.032c-0.016,0-0.032,0.016-0.048,0.016
				c-0.049,0-0.114-0.048-0.146-0.129c-0.227-0.421-0.826-1.199-1.247-1.604c-0.033-0.032-0.033-0.032-0.081-0.113
				c0.097-0.162,0.097-0.162,0.259-0.275c0.243-0.162,0.503-0.324,0.535-0.324c0.194,0.032,0.194,0.032,0.389,0.194
				c0.438,0.389,1.215,1.361,1.215,1.556C118.148,73.196,117.971,73.358,117.646,73.585z"/>
			<path fill="#333334" d="M130.59,76.761c0.162-0.097,0.227-0.113,0.341-0.113c0.389,0,1.441,1.07,1.441,1.458
				c0,0.113-0.048,0.178-0.162,0.275c-0.227,0.194-0.308,0.275-0.519,0.632c-0.421,0.697-1.021,1.475-1.652,2.139
				c-0.26,0.275-0.405,0.373-0.535,0.373c-0.097,0-0.194-0.049-0.308-0.13c-0.438-0.34-0.664-0.454-1.361-0.697
				c0.907-0.6,1.523-1.183,2.236-2.171c-2.106,0.502-2.106,0.502-3.37,0.826c0.68,2.69,0.923,3.565,1.522,5.575
				c0.033,0.146,0.049,0.21,0.049,0.275c0,0.146-0.162,0.243-0.6,0.356c-0.275,0.081-0.826,0.178-0.972,0.178
				c-0.195,0-0.228-0.064-0.309-0.535c-0.146-0.859-0.729-3.208-1.328-5.429c-1.199,0.34-1.394,0.389-2.01,0.681
				c-0.179,0.081-0.275,0.113-0.356,0.113c-0.308,0-0.664-0.729-0.94-1.863c0.811-0.032,1.199-0.097,2.885-0.47
				c-0.34-1.264-0.502-1.718-0.892-2.431c0.876-0.146,1.523-0.21,1.945-0.21c0.275,0,0.389,0.081,0.389,0.259
				c0,0.048,0,0.081-0.017,0.178c-0.032,0.097-0.032,0.162-0.032,0.243c0,0.324,0.065,0.648,0.292,1.604
				C129.439,77.182,130.201,76.988,130.59,76.761z"/>
			<path fill="#333334" d="M139.189,78.511c-0.032,0-0.113,0.016-0.13,0.016c-0.356,0-0.502-0.551-0.615-2.22
				c0.794,0.13,1.912,0.178,4.926,0.178c3.241,0,4.116,0,4.424-0.032c0.243-0.016,0.292-0.033,0.616-0.13
				c0.113-0.048,0.21-0.064,0.308-0.064c0.243,0,0.438,0.113,0.697,0.389c0.438,0.502,0.729,0.956,0.729,1.15
				c0,0.178-0.081,0.308-0.275,0.519c-0.13,0.114-0.211,0.259-0.519,0.957c-1.086,2.382-2.301,3.84-4.213,5.056
				c-0.875,0.567-2.285,1.215-2.609,1.215c-0.227,0-0.356-0.097-0.632-0.421c-0.421-0.502-0.616-0.681-1.069-0.907
				c1.848-0.551,3.532-1.475,4.731-2.625c0.907-0.875,1.588-2.009,2.059-3.419C141.475,78.252,140.34,78.3,139.189,78.511z
				 M144.488,72.758c1.686,0,1.686,0,3.549-0.129c0.064,0,0.081,0,0.194,0c0.211,0,0.292,0.162,0.308,0.648
				c0,0.194,0,0.373,0.017,0.535c0,0.033,0,0.065,0,0.065c0,0.583-0.064,0.746-0.275,0.746c-0.064,0-0.194-0.016-0.34-0.016
				c-0.309-0.033-1.523-0.065-2.026-0.065c-2.431,0-4.164,0.032-5.12,0.113c-0.049,0-0.098,0-0.13,0
				c-0.422,0-0.486-0.243-0.583-2.058C141.134,72.726,142.155,72.758,144.488,72.758z"/>
			<path fill="#333334" d="M159.198,77.555c0,0.373,0.016,1.118,0.032,1.572c0,0.162,0.017,0.324,0.017,0.389
				c0,0.324-0.228,0.389-1.491,0.389c-0.486,0-0.583-0.065-0.583-0.34c0-0.065,0-0.211,0-0.324c0.064-1.264,0.097-1.961,0.097-3.111
				c0-1.88-0.049-2.609-0.178-3.452c0.826,0.016,1.588,0.065,1.96,0.146c0.228,0.048,0.356,0.162,0.356,0.356
				c0,0.081-0.016,0.129-0.048,0.227c-0.13,0.324-0.162,0.632-0.162,1.41V77.555z M165.502,75.448c0,2.317-0.146,3.825-0.454,4.959
				c-0.583,2.058-1.88,3.711-3.792,4.764c-0.405,0.227-0.713,0.356-0.826,0.356s-0.194-0.049-0.308-0.178
				c-0.373-0.47-0.665-0.729-1.232-1.102c1.037-0.389,1.912-0.94,2.626-1.637c0.826-0.81,1.36-1.782,1.652-2.949
				c0.211-0.924,0.356-2.674,0.356-4.537c0-1.313-0.049-1.961-0.162-2.561c0.973,0.016,1.556,0.081,2.059,0.178
				c0.21,0.048,0.308,0.129,0.308,0.292c0,0.081-0.017,0.146-0.064,0.292c-0.13,0.356-0.162,0.681-0.162,1.442V75.448z"/>
			<path fill="#333334" d="M177.779,78.009c2.966,0,4.667-0.033,6.304-0.146c0.049,0,0.146,0,0.211,0
				c0.486,0,0.486,0.016,0.486,1.312c0,0.665-0.049,0.778-0.324,0.778c0,0-0.049,0-0.064,0c-1.07-0.048-1.67-0.048-6.353-0.048
				c-1.718,0-2.577,0.016-4.067,0.065c-0.113,0-0.243,0-0.47,0c-0.519,0-0.6,0.016-0.908,0.064c-0.081,0-0.146,0.016-0.178,0.016
				c-0.179,0-0.292-0.081-0.324-0.227c-0.098-0.405-0.162-1.231-0.162-1.977C173.242,77.976,174.393,78.009,177.779,78.009z"/>
			<path fill="#333334" d="M209.548,74.185c-0.438,0-0.875,0.032-1.491,0.081v-1.864c0.486,0.065,0.762,0.081,1.459,0.081h2.479
				c0.648,0,1.037-0.016,1.427-0.081c-0.049,0.34-0.065,0.681-0.065,0.988c0,2.188,0.567,4.262,1.669,6.142
				c0.648,1.086,1.427,2.026,2.479,2.998c0.794,0.713,1.248,1.037,2.317,1.669c-0.6,0.583-0.891,0.973-1.312,1.767
				c-1.571-1.102-2.738-2.236-3.808-3.662c-0.552-0.762-0.908-1.361-1.361-2.301c-0.39-0.859-0.535-1.248-0.794-2.22
				c-0.552,1.993-1.184,3.322-2.221,4.7c-0.988,1.312-2.171,2.382-3.856,3.516c-0.324-0.664-0.697-1.134-1.28-1.62
				c1.329-0.762,2.091-1.361,3.128-2.447c1.215-1.264,2.171-2.917,2.674-4.602c0.308-1.069,0.438-1.88,0.502-3.144H209.548z"/>
			<path fill="#333334" d="M228.566,81.331c-0.615,0.551-0.988,0.811-1.896,1.329c-0.194-0.34-0.26-0.454-0.6-0.827
				c-0.973,0.583-1.588,0.908-3.095,1.637c-0.017,0.016-0.098,0.049-0.211,0.113l-0.146,0.081l-0.39-1.815
				c0.405-0.097,0.956-0.292,1.75-0.632v-4.1h-0.453c-0.454,0-0.794,0.016-1.199,0.081v-1.653c0.356,0.049,0.713,0.065,1.215,0.065
				h0.438v-1.928c0-0.811-0.032-1.28-0.097-1.734h1.814c-0.081,0.502-0.097,0.923-0.097,1.734v1.928h0.291
				c0.503,0,0.795-0.016,1.086-0.048v1.604c-0.34-0.032-0.648-0.048-1.086-0.048h-0.291v3.338c0.356-0.194,0.534-0.292,1.053-0.583
				v1.086c0.843-0.519,1.378-0.988,1.848-1.588h-0.356c-0.648,0-1.086,0.032-1.426,0.081v-1.556c0.34,0.064,0.729,0.081,1.442,0.081
				h6.806c0.745,0,1.231-0.032,1.62-0.081v1.539c-0.47-0.048-0.907-0.064-1.604-0.064h-4.765c-0.13,0.227-0.211,0.356-0.421,0.648
				h4.942c0.762,0,1.037-0.016,1.522-0.048c-0.032,0.259-0.048,0.486-0.064,0.923c-0.081,1.912-0.308,3.517-0.632,4.213
				c-0.324,0.713-0.826,0.924-2.188,0.924c-0.389,0-0.681-0.016-1.312-0.049c-0.065-0.567-0.179-0.988-0.422-1.426
				c-0.826,0.729-1.49,1.167-2.561,1.701c-0.356-0.502-0.6-0.778-1.118-1.183c1.346-0.583,2.01-0.973,2.836-1.669
				c0.632-0.551,1.135-1.199,1.604-2.074h-0.924c-0.972,1.458-2.301,2.496-4.326,3.403c-0.26-0.486-0.486-0.746-0.973-1.167
				c1.767-0.681,2.787-1.296,3.598-2.236H228.566z M229.037,77.312c-0.633,0-1.103,0.016-1.427,0.048
				c0.049-0.438,0.065-0.859,0.065-1.491v-2.269c0-0.648-0.017-0.94-0.065-1.41c0.486,0.064,0.827,0.081,1.572,0.081h4.537
				c0.811,0,1.184-0.016,1.669-0.081c-0.048,0.405-0.064,0.745-0.064,1.539v2.155c0,0.665,0.017,1.151,0.064,1.458
				c-0.372-0.016-0.762-0.032-1.409-0.032H229.037z M229.28,74.298h4.407v-0.665h-4.407V74.298z M229.28,76.064h4.407v-0.632h-4.407
				V76.064z M234.012,81.331c-0.6,1.296-1.216,2.171-2.172,3.047c0.665,0.097,1.151,0.129,1.604,0.129
				c0.567,0,0.729-0.162,0.875-0.827c0.113-0.551,0.194-1.231,0.275-2.35H234.012z"/>
			<path fill="#333334" d="M241.624,75.303c-0.503,0.486-0.681,0.632-1.28,1.102c-0.486-0.6-0.697-0.81-1.135-1.183
				c1.458-1.054,2.317-1.945,2.885-2.998c0.146-0.275,0.275-0.551,0.324-0.778l1.814,0.356c-0.113,0.178-0.113,0.178-0.324,0.551
				c-0.13,0.243-0.259,0.454-0.486,0.794h7.52c0.956,0,1.491-0.033,1.977-0.097v1.717c-0.566-0.048-0.647-0.064-1.539-0.081v2.074
				h0.616c0.729,0,1.069-0.016,1.522-0.081v1.717c-0.453-0.064-0.81-0.081-1.522-0.081h-0.616v2.074h0.308
				c0.762,0,1.054-0.016,1.491-0.081v1.701c-0.405-0.065-0.778-0.081-1.459-0.081h-10.598c-0.615,0-0.907,0.016-1.377,0.081V80.31
				c0.405,0.064,0.81,0.081,1.522,0.081h0.357v-2.074h-0.665c-0.713,0-1.053,0.017-1.523,0.081V76.68
				c0.438,0.064,0.794,0.081,1.523,0.081h0.665V75.303z M239.403,85.025c0.956-0.924,1.41-1.621,1.929-2.933l1.426,0.729
				c-0.632,1.507-1.021,2.155-1.993,3.273L239.403,85.025z M243.163,76.761h1.264v-2.074h-1.264V76.761z M243.163,80.391h1.264
				v-2.074h-1.264V80.391z M243.876,86.03c0.017-0.389,0.017-0.389,0.017-0.632c0-0.6-0.13-2.025-0.243-2.755l1.523-0.178
				c0.259,1.41,0.34,2.107,0.404,3.403L243.876,86.03z M247.133,76.761v-2.074h-1.296v2.074H247.133z M247.133,80.391v-2.074h-1.296
				v2.074H247.133z M247.506,85.981c-0.243-1.507-0.34-1.944-0.729-3.273l1.491-0.34c0.438,1.215,0.648,1.929,0.924,3.241
				L247.506,85.981z M249.84,76.761v-2.074h-1.313v2.074H249.84z M249.84,80.391v-2.074h-1.313v2.074H249.84z M251.93,85.998
				c-0.567-1.296-0.939-1.944-1.863-3.257l1.345-0.665c0.892,1.102,1.345,1.783,2.01,2.981L251.93,85.998z"/>
			<path fill="#333334" d="M262.345,81.898c-0.081,0.21-0.098,0.275-0.179,0.519c-0.648-0.697-1.086-1.329-1.572-2.188
				c0.081,1.085,0.098,1.296,0.098,1.766v2.577c0,0.745,0.017,1.167,0.081,1.621h-1.782c0.064-0.502,0.097-0.94,0.097-1.653V82.53
				c0-0.616,0.032-1.329,0.065-1.847c-0.697,1.685-1.199,2.577-2.026,3.484c-0.178-0.616-0.438-1.15-0.794-1.604
				c1.021-1.054,1.669-2.091,2.512-4.051h-0.81c-0.681,0-1.037,0.016-1.41,0.081v-1.653c0.373,0.065,0.664,0.081,1.394,0.081h1.054
				v-3.678c0-0.697-0.017-1.15-0.081-1.523h1.782c-0.064,0.405-0.081,0.762-0.081,1.507v3.694h0.729c0.6,0,0.858-0.016,1.199-0.064
				v1.62c-0.356-0.048-0.681-0.064-1.232-0.064h-0.551c0.584,1.004,1.15,1.685,1.993,2.382c-0.194,0.356-0.259,0.486-0.421,0.875
				c0.356-0.032,0.907-0.113,1.426-0.227l3.646-0.811v-7.098c0-0.907-0.017-1.329-0.098-1.815h1.88
				c-0.081,0.519-0.098,0.94-0.098,1.799v6.741c0.681-0.162,0.924-0.227,1.313-0.389l0.34,1.782
				c-0.405,0.049-0.777,0.114-1.507,0.259l-0.146,0.033v2.285c0,0.859,0.017,1.329,0.098,1.831h-1.88
				c0.081-0.535,0.098-0.891,0.098-1.847v-1.88l-3.306,0.746c-0.665,0.146-1.118,0.259-1.475,0.389L262.345,81.898z M257.839,72.661
				c0.503,1.394,0.729,2.188,0.956,3.354l-1.312,0.567c-0.243-1.442-0.519-2.382-0.972-3.322L257.839,72.661z M263.171,73.212
				c-0.389,1.426-0.6,1.977-1.231,3.371L260.788,76c0.52-1.054,0.762-1.864,1.07-3.371L263.171,73.212z M263.948,76.729
				c1.231,0.859,1.912,1.426,2.723,2.285l-1.069,1.28c-1.086-1.183-1.604-1.637-2.739-2.398L263.948,76.729z M264.451,72.839
				c1.312,0.94,1.814,1.361,2.706,2.301l-1.054,1.312c-1.167-1.248-1.183-1.264-2.755-2.415L264.451,72.839z"/>
		</g>
		<g>
			
				<text transform="matrix(1 0 0 1 8.3955 22.4507)" fill="#343434" font-family="'KoburinaGoStd-W6-83pv-RKSJ-H'" font-size="25.5119">で</text>
			
				<text transform="matrix(1 0 0 1 39.4434 22.4507)" fill="#343434" font-family="'KoburinaGoStd-W6-83pv-RKSJ-H'" font-size="25.5119">き</text>
			
				<text transform="matrix(1 0 0 1 68.4502 22.4507)" fill="#343434" font-family="'KoburinaGoStd-W6-83pv-RKSJ-H'" font-size="25.5119">ご</text>
			
				<text transform="matrix(1 0 0 1 96.9473 22.4507)" fill="#343434" font-family="'KoburinaGoStd-W6-83pv-RKSJ-H'" font-size="25.5119">と</text>
			
				<text transform="matrix(1 0 0 1 126.4639 22.4507)" fill="#343434" font-family="'KoburinaGoStd-W6-83pv-RKSJ-H'" font-size="25.5119">の</text>
			
				<text transform="matrix(1 0 0 1 159.043 22.4507)" fill="#343434" font-family="'KoburinaGoStd-W6-83pv-RKSJ-H'" font-size="25.5119">か</text>
			
				<text transform="matrix(1 0 0 1 190.6016 22.4507)" fill="#343434" font-family="'KoburinaGoStd-W6-83pv-RKSJ-H'" font-size="25.5119">た</text>
			
				<text transform="matrix(1 0 0 1 220.6279 22.4507)" fill="#343434" font-family="'KoburinaGoStd-W6-83pv-RKSJ-H'" font-size="25.5119">ち</text>
			
				<text transform="matrix(1 0 0 1 251.6768 22.4507)" fill="#343434" font-family="'KoburinaGoStd-W6-83pv-RKSJ-H'" font-size="25.5119">展</text>
		</g>
	</g>
</g>
</svg>
