<?xml version="1.0" encoding="utf-8"?>
<!-- Generator: Adobe Illustrator 16.0.0, SVG Export Plug-In . SVG Version: 6.00 Build 0)  -->
<!DOCTYPE svg PUBLIC "-//W3C//DTD SVG 1.1//EN" "http://www.w3.org/Graphics/SVG/1.1/DTD/svg11.dtd">
<svg version="1.1" id="レイヤー_1" xmlns="http://www.w3.org/2000/svg" xmlns:xlink="http://www.w3.org/1999/xlink" x="0px"
	 y="0px" width="602.287px" height="84.879px" viewBox="0 0 602.287 84.879" enable-background="new 0 0 602.287 84.879"
	 xml:space="preserve">
<g>
	<g>
		<path fill="#333434" d="M0,22.439l11-9.88c0.56-0.506,1.12-1.08,1.68-1.72s0.84-1.387,0.84-2.24c0-0.96-0.347-1.713-1.04-2.26
			c-0.694-0.546-1.507-0.82-2.44-0.82c-1.12,0-1.994,0.347-2.62,1.04C6.793,7.254,6.44,8.106,6.36,9.12l-6-0.44
			c0.08-1.466,0.386-2.74,0.92-3.82C1.813,3.78,2.52,2.88,3.4,2.16c0.88-0.721,1.913-1.261,3.1-1.62C7.687,0.18,8.973,0,10.36,0
			c1.28,0,2.48,0.18,3.6,0.54c1.12,0.359,2.093,0.894,2.92,1.6c0.826,0.707,1.473,1.594,1.94,2.66c0.466,1.066,0.7,2.307,0.7,3.72
			c0,0.907-0.094,1.728-0.28,2.46c-0.187,0.734-0.447,1.4-0.78,2c-0.333,0.601-0.727,1.154-1.18,1.66
			c-0.454,0.507-0.947,1-1.48,1.48L7.2,23.52h12.56v5.28H0V22.439z"/>
		<path fill="#333434" d="M24.04,14.64c0-1.68,0.153-3.386,0.46-5.12c0.307-1.732,0.854-3.306,1.64-4.72
			c0.786-1.413,1.86-2.566,3.22-3.46C30.72,0.446,32.453,0,34.56,0c2.106,0,3.84,0.446,5.2,1.34s2.433,2.047,3.22,3.46
			c0.787,1.414,1.333,2.987,1.64,4.72c0.306,1.734,0.46,3.44,0.46,5.12s-0.154,3.387-0.46,5.12c-0.307,1.733-0.854,3.307-1.64,4.72
			c-0.787,1.414-1.86,2.567-3.22,3.46c-1.36,0.894-3.094,1.341-5.2,1.341c-2.107,0-3.84-0.447-5.2-1.341
			c-1.36-0.893-2.434-2.046-3.22-3.46c-0.787-1.413-1.333-2.986-1.64-4.72S24.04,16.319,24.04,14.64z M30.04,14.64
			c0,0.747,0.033,1.641,0.1,2.68c0.066,1.04,0.246,2.04,0.54,3c0.293,0.961,0.74,1.774,1.34,2.44c0.6,0.667,1.446,1,2.54,1
			c1.066,0,1.906-0.333,2.52-1c0.613-0.666,1.066-1.479,1.36-2.44c0.293-0.96,0.473-1.96,0.54-3c0.066-1.039,0.1-1.933,0.1-2.68
			c0-0.746-0.034-1.64-0.1-2.68s-0.247-2.04-0.54-3C38.146,8,37.693,7.187,37.08,6.52c-0.614-0.666-1.454-1-2.52-1
			c-1.094,0-1.94,0.334-2.54,1c-0.6,0.667-1.047,1.48-1.34,2.44c-0.294,0.96-0.474,1.96-0.54,3C30.073,13,30.04,13.894,30.04,14.64z
			"/>
		<path fill="#333434" d="M57.919,7.2l-5.68,5l-3.4-3.92l9.24-7.801h5.6V28.8h-5.76V7.2z"/>
		<path fill="#333434" d="M85.559,6h-14V0.479h20.72v5.28L80.959,28.8h-7L85.559,6z"/>
		<path fill="#333434" d="M94.999,25.359c0-0.506,0.093-0.985,0.28-1.439c0.186-0.453,0.446-0.847,0.78-1.18
			c0.333-0.334,0.727-0.594,1.18-0.78c0.453-0.187,0.933-0.28,1.44-0.28c0.506,0,0.986,0.094,1.44,0.28
			c0.453,0.187,0.846,0.446,1.18,0.78c0.333,0.333,0.593,0.727,0.78,1.18c0.187,0.454,0.28,0.934,0.28,1.439
			c0,0.507-0.094,0.987-0.28,1.44c-0.187,0.454-0.447,0.847-0.78,1.18c-0.334,0.334-0.727,0.594-1.18,0.78
			c-0.454,0.187-0.934,0.28-1.44,0.28c-0.507,0-0.987-0.094-1.44-0.28c-0.454-0.187-0.847-0.446-1.18-0.78
			c-0.333-0.333-0.594-0.726-0.78-1.18C95.092,26.347,94.999,25.866,94.999,25.359z"/>
		<path fill="#333434" d="M115.238,11.64h1.96c0.56,0,1.106-0.04,1.64-0.12c0.533-0.08,1.02-0.232,1.46-0.46
			c0.44-0.226,0.793-0.546,1.06-0.96c0.267-0.413,0.4-0.953,0.4-1.62c0-0.853-0.34-1.56-1.02-2.12c-0.68-0.56-1.514-0.84-2.5-0.84
			c-0.934,0-1.707,0.254-2.32,0.761c-0.614,0.507-1.014,1.133-1.2,1.88l-6.6-1.36c0.32-1.227,0.8-2.273,1.44-3.14
			s1.4-1.566,2.28-2.101c0.88-0.533,1.86-0.926,2.94-1.18c1.08-0.253,2.22-0.38,3.42-0.38c1.253,0,2.46,0.153,3.62,0.46
			c1.16,0.307,2.18,0.787,3.06,1.439c0.88,0.654,1.58,1.475,2.1,2.46c0.52,0.987,0.78,2.16,0.78,3.521c0,1.573-0.414,2.92-1.24,4.04
			c-0.827,1.12-2.027,1.84-3.6,2.16v0.12c0.854,0.106,1.606,0.359,2.26,0.76c0.653,0.399,1.206,0.894,1.66,1.479
			c0.453,0.587,0.8,1.254,1.04,2c0.24,0.747,0.36,1.534,0.36,2.36c0,1.414-0.274,2.653-0.82,3.72c-0.547,1.067-1.28,1.954-2.2,2.66
			c-0.92,0.707-2,1.233-3.24,1.58c-1.24,0.347-2.554,0.521-3.94,0.521c-2.534,0-4.714-0.587-6.54-1.761
			c-1.827-1.173-3.034-3.026-3.62-5.56l6.32-1.48c0.213,1.014,0.646,1.814,1.3,2.4c0.653,0.587,1.62,0.88,2.9,0.88
			c1.307,0,2.273-0.34,2.9-1.02c0.626-0.681,0.94-1.554,0.94-2.62c0-0.801-0.167-1.42-0.5-1.86c-0.334-0.44-0.767-0.767-1.3-0.979
			c-0.534-0.214-1.134-0.341-1.8-0.381c-0.667-0.04-1.334-0.06-2-0.06h-1.4V11.64z"/>
		<path fill="#333434" d="M132.518,25.359c0-0.506,0.093-0.985,0.28-1.439c0.186-0.453,0.446-0.847,0.78-1.18
			c0.333-0.334,0.727-0.594,1.18-0.78c0.453-0.187,0.933-0.28,1.44-0.28c0.506,0,0.986,0.094,1.44,0.28
			c0.453,0.187,0.846,0.446,1.18,0.78c0.333,0.333,0.593,0.727,0.78,1.18c0.187,0.454,0.28,0.934,0.28,1.439
			c0,0.507-0.094,0.987-0.28,1.44c-0.187,0.454-0.447,0.847-0.78,1.18c-0.334,0.334-0.727,0.594-1.18,0.78
			c-0.454,0.187-0.934,0.28-1.44,0.28c-0.507,0-0.987-0.094-1.44-0.28c-0.454-0.187-0.847-0.446-1.18-0.78
			c-0.333-0.333-0.594-0.726-0.78-1.18C132.611,26.347,132.518,25.866,132.518,25.359z"/>
		<path fill="#333434" d="M157.438,23.12h-12.36v-5.04l11.56-17.601h6.56V18.08h3.64v5.04h-3.64v5.68h-5.76V23.12z M157.438,8.319
			h-0.08l-6.28,9.761h6.36V8.319z"/>
		<path fill="#333434" d="M181.694,7.327c-1.464,2.424-2.04,3.696-2.592,5.593c-0.528,1.848-0.792,3.792-0.792,5.88
			c0,2.089,0.264,4.032,0.792,5.856c0.552,1.896,1.152,3.169,2.592,5.593l-2.04,0.72c-1.656-2.52-2.304-3.815-2.976-5.904
			c-0.624-2.04-0.96-4.128-0.96-6.265c0-2.136,0.336-4.224,0.96-6.288c0.672-2.088,1.32-3.385,2.976-5.904L181.694,7.327z"/>
		<path fill="#333434" d="M198.47,8.863c0-0.984-0.048-1.824-0.168-2.712h3c-0.12,0.84-0.168,1.656-0.168,2.712v4.177h4.608
			c1.296,0,2.112-0.049,2.976-0.145v2.712c-0.912-0.096-1.8-0.144-2.976-0.144h-4.608v8.329h6.072c1.296,0,2.376-0.049,3.192-0.145
			v2.761c-0.912-0.12-1.92-0.168-3.192-0.168h-14.305c-1.296,0-2.376,0.048-3.288,0.168v-2.761c0.84,0.096,1.872,0.145,3.288,0.145
			h5.568v-8.329h-4.176c-1.176,0-2.064,0.048-2.976,0.144v-2.712c0.792,0.096,1.752,0.145,2.976,0.145h4.176V8.863z"/>
		<path fill="#333434" d="M220.381,6.607c1.656,2.544,2.304,3.816,2.952,5.904c0.672,2.064,0.984,4.128,0.984,6.288
			s-0.312,4.225-0.96,6.265c-0.672,2.089-1.32,3.385-2.976,5.904l-2.041-0.72c1.464-2.424,2.041-3.696,2.592-5.593
			c0.528-1.824,0.792-3.744,0.792-5.856s-0.264-4.032-0.792-5.88c-0.552-1.896-1.128-3.169-2.592-5.593L220.381,6.607z"/>
		<path fill="#333434" d="M239.365,11.64h1.96c0.56,0,1.106-0.04,1.64-0.12c0.533-0.08,1.02-0.232,1.46-0.46
			c0.44-0.226,0.793-0.546,1.06-0.96c0.267-0.413,0.4-0.953,0.4-1.62c0-0.853-0.34-1.56-1.02-2.12c-0.68-0.56-1.514-0.84-2.5-0.84
			c-0.934,0-1.707,0.254-2.32,0.761c-0.614,0.507-1.014,1.133-1.2,1.88l-6.6-1.36c0.32-1.227,0.8-2.273,1.44-3.14
			s1.4-1.566,2.28-2.101c0.88-0.533,1.86-0.926,2.94-1.18c1.08-0.253,2.22-0.38,3.42-0.38c1.253,0,2.46,0.153,3.62,0.46
			c1.16,0.307,2.18,0.787,3.06,1.439c0.88,0.654,1.58,1.475,2.1,2.46c0.52,0.987,0.78,2.16,0.78,3.521c0,1.573-0.414,2.92-1.24,4.04
			c-0.827,1.12-2.027,1.84-3.6,2.16v0.12c0.854,0.106,1.606,0.359,2.26,0.76c0.653,0.399,1.206,0.894,1.66,1.479
			c0.453,0.587,0.8,1.254,1.04,2c0.24,0.747,0.36,1.534,0.36,2.36c0,1.414-0.274,2.653-0.82,3.72c-0.547,1.067-1.28,1.954-2.2,2.66
			c-0.92,0.707-2,1.233-3.24,1.58c-1.24,0.347-2.554,0.521-3.94,0.521c-2.534,0-4.714-0.587-6.54-1.761
			c-1.827-1.173-3.034-3.026-3.62-5.56l6.32-1.48c0.213,1.014,0.646,1.814,1.3,2.4c0.653,0.587,1.62,0.88,2.9,0.88
			c1.307,0,2.273-0.34,2.9-1.02c0.626-0.681,0.94-1.554,0.94-2.62c0-0.801-0.167-1.42-0.5-1.86c-0.334-0.44-0.767-0.767-1.3-0.979
			c-0.534-0.214-1.134-0.341-1.8-0.381c-0.667-0.04-1.334-0.06-2-0.06h-1.4V11.64z"/>
		<path fill="#333434" d="M256.645,25.359c0-0.506,0.093-0.985,0.28-1.439c0.186-0.453,0.446-0.847,0.78-1.18
			c0.333-0.334,0.727-0.594,1.18-0.78c0.453-0.187,0.933-0.28,1.44-0.28c0.506,0,0.986,0.094,1.44,0.28
			c0.453,0.187,0.846,0.446,1.18,0.78c0.333,0.333,0.593,0.727,0.78,1.18c0.187,0.454,0.28,0.934,0.28,1.439
			c0,0.507-0.094,0.987-0.28,1.44c-0.187,0.454-0.447,0.847-0.78,1.18c-0.334,0.334-0.727,0.594-1.18,0.78
			c-0.454,0.187-0.934,0.28-1.44,0.28c-0.507,0-0.987-0.094-1.44-0.28c-0.454-0.187-0.847-0.446-1.18-0.78
			c-0.333-0.333-0.594-0.726-0.78-1.18C256.737,26.347,256.645,25.866,256.645,25.359z"/>
		<path fill="#333434" d="M288.924,5.76h-11.24l-0.12,4.36c0.613-0.214,1.453-0.32,2.52-0.32c1.44,0,2.76,0.214,3.96,0.64
			c1.2,0.427,2.233,1.047,3.1,1.86c0.866,0.813,1.54,1.8,2.02,2.96s0.72,2.46,0.72,3.9c0,1.6-0.274,3.026-0.82,4.279
			c-0.547,1.254-1.3,2.314-2.26,3.181s-2.1,1.526-3.42,1.979c-1.32,0.453-2.754,0.681-4.3,0.681c-2.454,0-4.507-0.601-6.16-1.801
			c-1.654-1.199-2.787-3.013-3.4-5.439l6.28-1.44c0.16,1.014,0.586,1.834,1.28,2.46c0.693,0.627,1.56,0.94,2.6,0.94
			c1.28,0,2.3-0.4,3.06-1.2s1.14-1.813,1.14-3.04c0-0.933-0.194-1.7-0.58-2.3c-0.387-0.601-0.894-1.08-1.52-1.44
			c-0.627-0.359-1.327-0.606-2.1-0.739c-0.774-0.134-1.547-0.2-2.32-0.2c-0.987,0-1.98,0.094-2.98,0.279
			c-1,0.188-1.967,0.44-2.9,0.761l0.32-15.641h17.12V5.76z"/>
		<path fill="#333434" d="M305.82,7.327c-1.465,2.424-2.041,3.696-2.592,5.593c-0.529,1.848-0.793,3.792-0.793,5.88
			c0,2.089,0.264,4.032,0.793,5.856c0.551,1.896,1.151,3.169,2.592,5.593l-2.041,0.72c-1.656-2.52-2.304-3.815-2.976-5.904
			c-0.624-2.04-0.96-4.128-0.96-6.265c0-2.136,0.336-4.224,0.96-6.288c0.672-2.088,1.319-3.385,2.976-5.904L305.82,7.327z"/>
		<path fill="#333434" d="M316.115,9.487c0-0.888-0.048-1.704-0.12-2.473c0.696,0.097,1.464,0.12,2.568,0.12h11.161
			c1.104,0,1.8-0.023,2.473-0.12c-0.097,0.864-0.121,1.561-0.121,2.377v14.857c0,1.176,0.024,1.943,0.121,2.808h-2.761v-1.392
			h-10.705v1.392h-2.761c0.097-0.84,0.145-1.704,0.145-2.808V9.487z M318.731,14.936h10.705V9.583h-10.705V14.936z M318.731,23.24
			h10.705v-5.88h-10.705V23.24z"/>
		<path fill="#333434" d="M344.508,6.607c1.655,2.544,2.304,3.816,2.951,5.904c0.672,2.064,0.984,4.128,0.984,6.288
			s-0.312,4.225-0.96,6.265c-0.672,2.089-1.32,3.385-2.976,5.904l-2.041-0.72c1.465-2.424,2.041-3.696,2.592-5.593
			c0.529-1.824,0.793-3.744,0.793-5.856s-0.264-4.032-0.793-5.88c-0.551-1.896-1.127-3.169-2.592-5.593L344.508,6.607z"/>
		<path fill="#333434" d="M366.371,7.2l-5.681,5l-3.399-3.92l9.24-7.801h5.6V28.8h-5.76V7.2z"/>
		<path fill="#333434" d="M388.051,7.2l-5.681,5l-3.399-3.92l9.24-7.801h5.6V28.8h-5.76V7.2z"/>
		<path fill="#333434" d="M402.45,9.56c0-0.506,0.093-0.986,0.28-1.439c0.186-0.453,0.445-0.847,0.779-1.181
			c0.334-0.333,0.727-0.593,1.18-0.779s0.934-0.28,1.44-0.28s0.986,0.094,1.44,0.28c0.453,0.187,0.846,0.446,1.18,0.779
			c0.333,0.334,0.594,0.728,0.779,1.181c0.188,0.453,0.281,0.934,0.281,1.439c0,0.507-0.094,0.987-0.281,1.44
			c-0.186,0.453-0.446,0.847-0.779,1.18c-0.334,0.334-0.727,0.594-1.18,0.78c-0.454,0.187-0.934,0.28-1.44,0.28
			s-0.987-0.094-1.44-0.28s-0.846-0.446-1.18-0.78c-0.334-0.333-0.594-0.727-0.779-1.18C402.543,10.547,402.45,10.066,402.45,9.56z
			 M402.45,22.359c0-0.506,0.093-0.985,0.28-1.439c0.186-0.453,0.445-0.847,0.779-1.18c0.334-0.334,0.727-0.594,1.18-0.78
			s0.934-0.28,1.44-0.28s0.986,0.094,1.44,0.28c0.453,0.187,0.846,0.446,1.18,0.78c0.333,0.333,0.594,0.727,0.779,1.18
			c0.188,0.454,0.281,0.934,0.281,1.439c0,0.507-0.094,0.987-0.281,1.44c-0.186,0.454-0.446,0.847-0.779,1.18
			c-0.334,0.334-0.727,0.594-1.18,0.78c-0.454,0.187-0.934,0.28-1.44,0.28s-0.987-0.094-1.44-0.28s-0.846-0.446-1.18-0.78
			c-0.334-0.333-0.594-0.726-0.779-1.18C402.543,23.347,402.45,22.866,402.45,22.359z"/>
		<path fill="#333434" d="M416.369,14.64c0-1.68,0.153-3.386,0.46-5.12c0.307-1.732,0.854-3.306,1.64-4.72
			c0.787-1.413,1.86-2.566,3.221-3.46c1.359-0.894,3.093-1.34,5.199-1.34c2.107,0,3.841,0.446,5.201,1.34
			c1.359,0.894,2.433,2.047,3.219,3.46c0.787,1.414,1.334,2.987,1.641,4.72c0.307,1.734,0.46,3.44,0.46,5.12s-0.153,3.387-0.46,5.12
			s-0.854,3.307-1.641,4.72c-0.786,1.414-1.859,2.567-3.219,3.46c-1.36,0.894-3.094,1.341-5.201,1.341
			c-2.106,0-3.84-0.447-5.199-1.341c-1.36-0.893-2.434-2.046-3.221-3.46c-0.786-1.413-1.333-2.986-1.64-4.72
			S416.369,16.319,416.369,14.64z M422.369,14.64c0,0.747,0.033,1.641,0.1,2.68c0.066,1.04,0.246,2.04,0.541,3
			c0.293,0.961,0.74,1.774,1.34,2.44c0.6,0.667,1.445,1,2.539,1c1.066,0,1.906-0.333,2.521-1c0.613-0.666,1.066-1.479,1.36-2.44
			c0.293-0.96,0.473-1.96,0.539-3c0.066-1.039,0.101-1.933,0.101-2.68c0-0.746-0.034-1.64-0.101-2.68s-0.246-2.04-0.539-3
			c-0.294-0.96-0.747-1.773-1.36-2.44c-0.614-0.666-1.454-1-2.521-1c-1.094,0-1.939,0.334-2.539,1c-0.6,0.667-1.047,1.48-1.34,2.44
			c-0.295,0.96-0.475,1.96-0.541,3S422.369,13.894,422.369,14.64z"/>
		<path fill="#333434" d="M442.049,14.64c0-1.68,0.153-3.386,0.46-5.12c0.307-1.732,0.854-3.306,1.64-4.72
			c0.787-1.413,1.86-2.566,3.221-3.46c1.359-0.894,3.093-1.34,5.199-1.34c2.107,0,3.841,0.446,5.201,1.34
			c1.359,0.894,2.433,2.047,3.219,3.46c0.787,1.414,1.334,2.987,1.641,4.72c0.307,1.734,0.46,3.44,0.46,5.12s-0.153,3.387-0.46,5.12
			s-0.854,3.307-1.641,4.72c-0.786,1.414-1.859,2.567-3.219,3.46c-1.36,0.894-3.094,1.341-5.201,1.341
			c-2.106,0-3.84-0.447-5.199-1.341c-1.36-0.893-2.434-2.046-3.221-3.46c-0.786-1.413-1.333-2.986-1.64-4.72
			S442.049,16.319,442.049,14.64z M448.049,14.64c0,0.747,0.033,1.641,0.1,2.68c0.066,1.04,0.246,2.04,0.541,3
			c0.293,0.961,0.74,1.774,1.34,2.44c0.6,0.667,1.445,1,2.539,1c1.066,0,1.906-0.333,2.521-1c0.613-0.666,1.066-1.479,1.36-2.44
			c0.293-0.96,0.473-1.96,0.539-3c0.066-1.039,0.101-1.933,0.101-2.68c0-0.746-0.034-1.64-0.101-2.68s-0.246-2.04-0.539-3
			c-0.294-0.96-0.747-1.773-1.36-2.44c-0.614-0.666-1.454-1-2.521-1c-1.094,0-1.939,0.334-2.539,1c-0.6,0.667-1.047,1.48-1.34,2.44
			c-0.295,0.96-0.475,1.96-0.541,3S448.049,13.894,448.049,14.64z"/>
		<path fill="#333434" d="M486.969,17.12c-0.214,0.427-0.474,0.847-0.78,1.26c-0.307,0.414-0.659,0.78-1.06,1.1
			c-0.4,0.32-0.86,0.58-1.381,0.78c-0.52,0.2-1.113,0.3-1.779,0.3c-0.693,0-1.414-0.126-2.16-0.38
			c-0.746-0.253-1.507-0.553-2.279-0.899c-0.748-0.32-1.48-0.641-2.201-0.961c-0.719-0.319-1.346-0.479-1.879-0.479
			c-0.4,0-0.768,0.087-1.101,0.26c-0.333,0.174-0.64,0.387-0.92,0.641c-0.28,0.253-0.54,0.54-0.78,0.859
			c-0.24,0.32-0.48,0.641-0.72,0.96l-1.44-4.319c0.213-0.427,0.474-0.847,0.78-1.261c0.306-0.413,0.66-0.779,1.06-1.1
			c0.4-0.32,0.86-0.58,1.381-0.78c0.52-0.2,1.113-0.3,1.779-0.3c0.693,0,1.414,0.127,2.16,0.38c0.746,0.254,1.506,0.554,2.28,0.9
			c0.746,0.319,1.479,0.64,2.2,0.96c0.72,0.319,1.346,0.479,1.88,0.479c0.399,0,0.767-0.086,1.101-0.26
			c0.332-0.173,0.639-0.386,0.92-0.64c0.279-0.254,0.539-0.54,0.779-0.86s0.48-0.64,0.721-0.96L486.969,17.12z"/>
		<path fill="#333434" d="M500.568,7.2l-5.68,5l-3.4-3.92l9.24-7.801h5.6V28.8h-5.76V7.2z"/>
		<path fill="#333434" d="M524.928,18.68c-0.32,0.08-0.64,0.147-0.959,0.2c-0.32,0.054-0.654,0.08-1,0.08
			c-1.334,0-2.547-0.24-3.641-0.72c-1.094-0.48-2.027-1.134-2.801-1.96c-0.773-0.827-1.373-1.807-1.799-2.94
			c-0.428-1.133-0.641-2.34-0.641-3.62c0-1.466,0.273-2.793,0.82-3.979c0.546-1.187,1.293-2.207,2.24-3.061
			c0.945-0.853,2.06-1.513,3.34-1.979c1.279-0.467,2.666-0.7,4.16-0.7c1.466,0,2.846,0.233,4.14,0.7
			c1.293,0.467,2.413,1.127,3.36,1.979c0.945,0.854,1.693,1.874,2.24,3.061c0.545,1.187,0.819,2.514,0.819,3.979
			c0,1.014-0.094,1.94-0.28,2.78s-0.434,1.634-0.74,2.38c-0.307,0.747-0.666,1.46-1.08,2.14c-0.413,0.681-0.846,1.38-1.299,2.101
			l-6.201,9.68h-7.319L524.928,18.68z M520.088,9.96c0,1.28,0.42,2.34,1.26,3.18s1.94,1.26,3.301,1.26c1.359,0,2.459-0.42,3.3-1.26
			c0.84-0.84,1.26-1.899,1.26-3.18s-0.42-2.34-1.26-3.18c-0.841-0.841-1.94-1.261-3.3-1.261c-1.36,0-2.461,0.42-3.301,1.261
			C520.508,7.62,520.088,8.68,520.088,9.96z"/>
		<path fill="#333434" d="M541.648,9.56c0-0.506,0.092-0.986,0.279-1.439c0.186-0.453,0.446-0.847,0.779-1.181
			c0.334-0.333,0.727-0.593,1.181-0.779c0.453-0.187,0.933-0.28,1.44-0.28c0.506,0,0.986,0.094,1.439,0.28s0.846,0.446,1.18,0.779
			c0.334,0.334,0.594,0.728,0.78,1.181s0.28,0.934,0.28,1.439c0,0.507-0.094,0.987-0.28,1.44s-0.446,0.847-0.78,1.18
			c-0.334,0.334-0.727,0.594-1.18,0.78s-0.934,0.28-1.439,0.28c-0.508,0-0.987-0.094-1.44-0.28c-0.454-0.187-0.847-0.446-1.181-0.78
			c-0.333-0.333-0.594-0.727-0.779-1.18C541.74,10.547,541.648,10.066,541.648,9.56z M541.648,22.359
			c0-0.506,0.092-0.985,0.279-1.439c0.186-0.453,0.446-0.847,0.779-1.18c0.334-0.334,0.727-0.594,1.181-0.78
			c0.453-0.187,0.933-0.28,1.44-0.28c0.506,0,0.986,0.094,1.439,0.28s0.846,0.446,1.18,0.78c0.334,0.333,0.594,0.727,0.78,1.18
			c0.187,0.454,0.28,0.934,0.28,1.439c0,0.507-0.094,0.987-0.28,1.44c-0.187,0.454-0.446,0.847-0.78,1.18
			c-0.334,0.334-0.727,0.594-1.18,0.78s-0.934,0.28-1.439,0.28c-0.508,0-0.987-0.094-1.44-0.28c-0.454-0.187-0.847-0.446-1.181-0.78
			c-0.333-0.333-0.594-0.726-0.779-1.18C541.74,23.347,541.648,22.866,541.648,22.359z"/>
		<path fill="#333434" d="M555.567,14.64c0-1.68,0.153-3.386,0.46-5.12c0.307-1.732,0.854-3.306,1.641-4.72
			c0.785-1.413,1.859-2.566,3.22-3.46S563.98,0,566.088,0c2.105,0,3.84,0.446,5.199,1.34c1.36,0.894,2.434,2.047,3.221,3.46
			c0.786,1.414,1.333,2.987,1.64,4.72c0.306,1.734,0.46,3.44,0.46,5.12s-0.154,3.387-0.46,5.12c-0.307,1.733-0.854,3.307-1.64,4.72
			c-0.787,1.414-1.86,2.567-3.221,3.46c-1.359,0.894-3.094,1.341-5.199,1.341c-2.107,0-3.84-0.447-5.2-1.341
			c-1.36-0.893-2.435-2.046-3.22-3.46c-0.787-1.413-1.334-2.986-1.641-4.72S555.567,16.319,555.567,14.64z M561.567,14.64
			c0,0.747,0.033,1.641,0.101,2.68c0.066,1.04,0.246,2.04,0.539,3c0.293,0.961,0.74,1.774,1.34,2.44c0.601,0.667,1.447,1,2.541,1
			c1.066,0,1.906-0.333,2.52-1c0.613-0.666,1.066-1.479,1.36-2.44c0.293-0.96,0.474-1.96,0.54-3c0.066-1.039,0.1-1.933,0.1-2.68
			c0-0.746-0.033-1.64-0.1-2.68s-0.247-2.04-0.54-3c-0.294-0.96-0.747-1.773-1.36-2.44c-0.613-0.666-1.453-1-2.52-1
			c-1.094,0-1.94,0.334-2.541,1c-0.6,0.667-1.047,1.48-1.34,2.44s-0.473,1.96-0.539,3C561.601,13,561.567,13.894,561.567,14.64z"/>
		<path fill="#333434" d="M581.247,14.64c0-1.68,0.153-3.386,0.46-5.12c0.307-1.732,0.854-3.306,1.641-4.72
			c0.785-1.413,1.859-2.566,3.22-3.46S589.66,0,591.768,0c2.105,0,3.84,0.446,5.199,1.34c1.36,0.894,2.434,2.047,3.221,3.46
			c0.786,1.414,1.333,2.987,1.64,4.72c0.306,1.734,0.46,3.44,0.46,5.12s-0.154,3.387-0.46,5.12c-0.307,1.733-0.854,3.307-1.64,4.72
			c-0.787,1.414-1.86,2.567-3.221,3.46c-1.359,0.894-3.094,1.341-5.199,1.341c-2.107,0-3.84-0.447-5.2-1.341
			c-1.36-0.893-2.435-2.046-3.22-3.46c-0.787-1.413-1.334-2.986-1.641-4.72S581.247,16.319,581.247,14.64z M587.247,14.64
			c0,0.747,0.033,1.641,0.101,2.68c0.066,1.04,0.246,2.04,0.539,3c0.293,0.961,0.74,1.774,1.34,2.44c0.601,0.667,1.447,1,2.541,1
			c1.066,0,1.906-0.333,2.52-1c0.613-0.666,1.066-1.479,1.36-2.44c0.293-0.96,0.474-1.96,0.54-3c0.066-1.039,0.1-1.933,0.1-2.68
			c0-0.746-0.033-1.64-0.1-2.68s-0.247-2.04-0.54-3c-0.294-0.96-0.747-1.773-1.36-2.44c-0.613-0.666-1.453-1-2.52-1
			c-1.094,0-1.94,0.334-2.541,1c-0.6,0.667-1.047,1.48-1.34,2.44s-0.473,1.96-0.539,3C587.28,13,587.247,13.894,587.247,14.64z"/>
	</g>
	<g>
		<path fill="#333434" d="M29.89,67.421c-0.216,0.576-0.216,0.576-0.648,1.836c-1.98,5.795-5.075,11.123-8.783,15.01
			c-1.08-1.115-2.016-1.871-3.528-2.808c2.34-2.016,3.852-3.959,5.651-7.163c1.116-2.016,1.98-4.104,2.736-6.551
			c0.144-0.396,0.288-1.008,0.432-1.8L29.89,67.421z M30.826,56.299c0-1.116-0.072-2.088-0.216-3.132h4.536
			c-0.144,1.044-0.216,2.052-0.216,3.132v2.915h8.999c1.8,0,3.276-0.071,4.68-0.216v4.283c-1.764-0.18-1.764-0.18-4.788-0.216
			H22.439c-2.304,0-3.383,0.036-4.787,0.216v-4.283c1.404,0.145,3.095,0.216,4.931,0.216h8.243V56.299z M39.933,65.873
			c0.36,1.548,0.864,2.916,2.124,5.651c1.8,3.888,4.211,7.379,6.983,10.043c-1.404,0.864-2.195,1.512-3.491,2.844
			c-3.852-4.392-6.731-9.467-9.035-15.874c-0.216-0.576-0.288-0.72-0.468-1.116L39.933,65.873z"/>
		<path fill="#333434" d="M59.879,62.202c-1.476,0-2.771,0.071-4.104,0.216V58.17c1.404,0.181,2.448,0.252,4.104,0.252h8.891v-2.447
			c0-1.368-0.072-2.195-0.216-3.204h4.319c-0.144,0.973-0.216,1.872-0.216,3.168v2.483h9.359c1.728,0,2.952-0.071,4.175-0.252v4.248
			c-1.476-0.145-2.627-0.216-4.175-0.216h-7.415c1.62,2.915,3.24,5.219,5.183,7.234c2.34,2.484,4.824,4.355,7.559,5.796
			c-1.08,1.296-1.656,2.195-2.375,3.779c-2.196-1.512-3.815-2.808-5.795-4.787v3.887c-1.044-0.144-2.016-0.18-3.456-0.18h-3.06
			v2.376c0,1.655,0.072,3.06,0.252,4.283h-4.391c0.18-1.296,0.252-2.663,0.252-4.319v-2.34h-2.736c-1.476,0-2.412,0.036-3.456,0.18
			V74.26c-1.98,2.052-3.419,3.312-5.615,4.824c-0.684-1.548-1.188-2.34-2.34-3.6c5.147-3.204,9.359-7.883,12.022-13.282H59.879z
			 M68.77,68.789c0-1.044,0.108-2.483,0.252-3.852c-1.8,3.707-3.456,6.083-6.264,9.143c0.828,0.108,1.44,0.145,3.096,0.145h2.916
			V68.789z M75.969,74.225c1.62,0,2.196-0.036,3.06-0.145c-2.735-2.735-4.211-4.787-6.695-9.179
			c0.216,1.439,0.324,2.844,0.324,3.852v5.472H75.969z"/>
		<path fill="#333434" d="M111.753,62.994c2.988,5.723,7.271,10.006,13.462,13.354c-1.368,1.477-1.62,1.836-2.664,3.672
			c-3.132-2.195-5.003-3.708-6.695-5.507c-2.268-2.412-3.852-4.572-5.579-7.812c0.18,1.476,0.252,2.808,0.252,3.888v9.683
			c0,1.656,0.072,3.06,0.252,4.283h-4.5c0.18-1.224,0.252-2.663,0.252-4.319v-9.61c0-0.864,0.072-2.34,0.18-3.744
			c-2.591,5.328-6.299,9.467-11.842,13.282c-0.828-1.548-1.548-2.52-2.592-3.527c5.723-3.275,10.619-8.387,12.995-13.642h-7.559
			c-1.548,0-2.844,0.071-4.14,0.216v-4.067c1.26,0.18,2.52,0.252,4.14,0.252h8.819v-3.276c0-1.296-0.072-2.195-0.216-3.203h4.428
			c-0.144,1.008-0.216,1.907-0.216,3.203v3.276h9.287c1.728,0,3.06-0.072,4.175-0.252v4.067c-1.26-0.145-2.699-0.216-4.175-0.216
			H111.753z"/>
		<path fill="#333434" d="M141.636,56.786h3.132l10.908,25.488h-4.032l-2.556-6.3h-12.132l-2.52,6.3h-4.032L141.636,56.786z
			 M147.828,72.95l-4.752-11.7h-0.072l-4.824,11.7H147.828z"/>
		<path fill="#333434" d="M162.84,73.166l-6.048-7.956h4.176l4.14,6.049l4.068-6.049h3.924l-5.832,7.956l6.912,9.108h-4.176
			l-5.04-7.164l-5.04,7.164h-3.996L162.84,73.166z"/>
		<path fill="#333434" d="M176.34,59.091c0-0.648,0.234-1.206,0.702-1.675c0.468-0.468,1.026-0.701,1.674-0.701
			s1.206,0.233,1.674,0.701c0.468,0.469,0.702,1.026,0.702,1.675c0,0.647-0.234,1.206-0.702,1.674
			c-0.468,0.468-1.026,0.702-1.674,0.702s-1.206-0.234-1.674-0.702S176.34,59.738,176.34,59.091z M177.096,65.21h3.24v17.064h-3.24
			V65.21z"/>
		<path fill="#333434" d="M194.556,69.494c-0.384-0.479-0.858-0.882-1.422-1.206c-0.564-0.323-1.254-0.485-2.07-0.485
			c-0.768,0-1.434,0.162-1.998,0.485c-0.564,0.324-0.846,0.799-0.846,1.422c0,0.505,0.162,0.913,0.486,1.225
			c0.324,0.312,0.708,0.564,1.152,0.756c0.444,0.192,0.918,0.336,1.422,0.432c0.504,0.097,0.936,0.181,1.296,0.252
			c0.696,0.169,1.35,0.373,1.962,0.612c0.612,0.24,1.14,0.553,1.584,0.937c0.444,0.384,0.792,0.852,1.044,1.403
			c0.252,0.553,0.378,1.225,0.378,2.017c0,0.96-0.204,1.781-0.612,2.466c-0.408,0.684-0.936,1.242-1.584,1.674
			s-1.386,0.744-2.214,0.936c-0.828,0.192-1.662,0.288-2.502,0.288c-1.417,0-2.659-0.216-3.726-0.647
			c-1.068-0.433-2.022-1.225-2.862-2.376l2.448-2.017c0.527,0.528,1.116,0.997,1.764,1.404c0.648,0.408,1.44,0.612,2.376,0.612
			c0.408,0,0.822-0.042,1.242-0.126s0.792-0.216,1.116-0.396c0.324-0.18,0.588-0.407,0.792-0.684
			c0.204-0.275,0.306-0.594,0.306-0.954c0-0.479-0.15-0.876-0.45-1.188c-0.3-0.312-0.661-0.558-1.08-0.737
			c-0.42-0.181-0.864-0.324-1.332-0.433c-0.468-0.107-0.882-0.197-1.242-0.27c-0.697-0.168-1.356-0.36-1.98-0.576
			s-1.176-0.504-1.656-0.864c-0.48-0.359-0.864-0.815-1.152-1.368c-0.288-0.552-0.432-1.235-0.432-2.052
			c0-0.888,0.186-1.661,0.558-2.321c0.372-0.66,0.864-1.206,1.476-1.639c0.612-0.432,1.308-0.756,2.088-0.972
			c0.779-0.216,1.566-0.324,2.358-0.324c1.152,0,2.256,0.216,3.312,0.648c1.056,0.432,1.896,1.151,2.52,2.159L194.556,69.494z"/>
		<path fill="#333434" d="M213.166,54.535c1.62-0.324,3.167-0.469,4.571-0.469c0.72,0,0.972,0.181,0.972,0.685
			c0,0.144,0,0.252-0.108,0.611c-0.036,0.216-0.072,0.468-0.072,0.721c0,0.647,0.072,1.26,0.54,3.887
			c2.916-0.468,6.335-1.224,7.883-1.691c0.252-0.108,0.324-0.108,0.54-0.108c0.252,0,0.36,0.217,0.504,0.9s0.432,2.52,0.432,2.808
			c0,0.432-0.144,0.504-1.548,0.647c-0.9,0.072-1.404,0.145-3.204,0.469c-0.648,0.107-0.648,0.107-3.923,0.684
			c0.612,3.167,0.612,3.167,0.936,4.859c0.792-0.145,0.792-0.145,1.583-0.288c3.6-0.647,6.047-1.188,7.703-1.691
			c0.576-0.181,0.936-0.288,1.044-0.288c0.288,0,0.396,0.144,0.504,0.504c0.288,0.936,0.648,2.663,0.648,3.239
			c0,0.324-0.072,0.36-1.152,0.54c-0.576,0.108-0.576,0.108-1.764,0.324c-1.944,0.323-1.944,0.323-7.811,1.332
			c0.936,4.535,0.936,4.535,2.231,9.754c0.072,0.288,0.108,0.504,0.108,0.576c0,0.36-0.144,0.468-0.756,0.684
			c-1.008,0.36-2.879,0.757-3.383,0.757c-0.36,0-0.432-0.108-0.54-0.792c-0.252-1.729-0.828-4.932-1.764-10.223
			c-7.343,1.367-7.919,1.512-9.971,2.231c-0.468,0.144-0.612,0.18-0.792,0.18c-0.288,0-0.468-0.144-0.648-0.54
			c-0.432-0.899-0.792-2.052-1.224-3.815c1.872-0.072,3.852-0.359,11.95-1.764c-0.432-2.124-0.72-3.672-0.972-4.896
			c-6.551,1.152-6.551,1.152-8.387,1.692c-0.288,0.107-0.36,0.107-0.432,0.107c-0.576,0-0.576,0-1.62-4.211
			c1.98-0.036,1.98-0.036,9.719-1.296C214.389,57.918,213.813,55.866,213.166,54.535z M230.011,59.466
			c-0.756-1.403-1.548-2.447-2.664-3.6c-0.216-0.216-0.216-0.252-0.216-0.359c0-0.216,0.216-0.433,0.828-0.9
			c0.576-0.432,0.792-0.54,1.008-0.54c0.288,0,0.648,0.288,1.548,1.26c1.152,1.296,1.979,2.412,1.979,2.7
			c0,0.432-1.62,1.728-2.087,1.728C230.263,59.754,230.155,59.682,230.011,59.466z M235.015,56.73
			c-0.216,0.144-0.54,0.36-0.648,0.396c-0.036,0.036-0.036,0.036-0.18,0.072c-0.036,0-0.072,0.036-0.108,0.036
			c-0.108,0-0.252-0.108-0.324-0.288c-0.504-0.936-1.836-2.663-2.772-3.563c-0.072-0.072-0.072-0.072-0.18-0.252
			c0.216-0.36,0.216-0.36,0.576-0.612c0.54-0.359,1.116-0.72,1.188-0.72c0.432,0.072,0.432,0.072,0.864,0.433
			c0.972,0.863,2.7,3.023,2.7,3.455C236.13,55.866,235.734,56.227,235.015,56.73z"/>
		<path fill="#333434" d="M259.279,63.785c0.36-0.216,0.504-0.252,0.756-0.252c0.864,0,3.203,2.376,3.203,3.24
			c0,0.252-0.108,0.396-0.36,0.611c-0.504,0.433-0.684,0.612-1.152,1.404c-0.936,1.548-2.268,3.275-3.671,4.751
			c-0.576,0.612-0.9,0.828-1.188,0.828c-0.216,0-0.432-0.108-0.684-0.288c-0.972-0.756-1.476-1.008-3.024-1.548
			c2.016-1.332,3.384-2.627,4.967-4.823c-4.679,1.116-4.679,1.116-7.487,1.836c1.512,5.976,2.052,7.919,3.383,12.383
			c0.072,0.323,0.108,0.468,0.108,0.611c0,0.324-0.36,0.54-1.332,0.792c-0.612,0.18-1.836,0.396-2.16,0.396
			c-0.432,0-0.504-0.145-0.684-1.188c-0.324-1.907-1.62-7.127-2.952-12.059c-2.664,0.756-3.095,0.864-4.463,1.512
			c-0.396,0.181-0.612,0.252-0.792,0.252c-0.684,0-1.476-1.619-2.087-4.139c1.8-0.072,2.664-0.217,6.407-1.044
			c-0.756-2.808-1.116-3.815-1.98-5.399c1.944-0.324,3.384-0.468,4.319-0.468c0.612,0,0.864,0.18,0.864,0.575
			c0,0.108,0,0.181-0.036,0.396c-0.072,0.216-0.072,0.359-0.072,0.54c0,0.72,0.144,1.439,0.648,3.563
			C256.724,64.722,258.416,64.289,259.279,63.785z"/>
		<path fill="#333434" d="M273.898,67.673c-0.072,0-0.252,0.036-0.288,0.036c-0.792,0-1.116-1.224-1.368-4.932
			c1.764,0.288,4.248,0.396,10.943,0.396c7.199,0,9.143,0,9.827-0.072c0.54-0.036,0.648-0.072,1.367-0.288
			c0.252-0.107,0.469-0.144,0.685-0.144c0.54,0,0.972,0.252,1.548,0.863c0.972,1.116,1.619,2.124,1.619,2.556
			c0,0.396-0.18,0.685-0.611,1.152c-0.288,0.252-0.468,0.576-1.152,2.124c-2.411,5.291-5.111,8.53-9.358,11.23
			c-1.944,1.26-5.075,2.699-5.795,2.699c-0.504,0-0.792-0.216-1.404-0.936c-0.936-1.116-1.368-1.512-2.375-2.016
			c4.104-1.224,7.847-3.275,10.511-5.831c2.016-1.944,3.527-4.464,4.571-7.596C278.974,67.097,276.454,67.205,273.898,67.673z
			 M285.668,54.895c3.744,0,3.744,0,7.883-0.288c0.144,0,0.18,0,0.432,0c0.468,0,0.647,0.36,0.685,1.44c0,0.432,0,0.827,0.035,1.188
			c0,0.072,0,0.144,0,0.144c0,1.296-0.144,1.656-0.611,1.656c-0.145,0-0.432-0.036-0.756-0.036
			c-0.684-0.072-3.383-0.144-4.499-0.144c-5.399,0-9.251,0.071-11.375,0.252c-0.108,0-0.216,0-0.288,0
			c-0.936,0-1.08-0.54-1.296-4.571C278.218,54.822,280.485,54.895,285.668,54.895z"/>
		<path fill="#333434" d="M313.857,65.55c0,0.827,0.035,2.483,0.072,3.491c0,0.359,0.035,0.72,0.035,0.864
			c0,0.72-0.504,0.863-3.312,0.863c-1.079,0-1.296-0.144-1.296-0.756c0-0.144,0-0.468,0-0.72c0.145-2.808,0.217-4.355,0.217-6.911
			c0-4.176-0.108-5.795-0.396-7.667c1.836,0.036,3.527,0.144,4.355,0.324c0.504,0.107,0.792,0.359,0.792,0.791
			c0,0.181-0.036,0.288-0.108,0.505c-0.287,0.72-0.359,1.403-0.359,3.131V65.55z M327.859,60.87c0,5.147-0.324,8.495-1.008,11.015
			c-1.296,4.571-4.176,8.243-8.423,10.582c-0.899,0.504-1.584,0.792-1.836,0.792s-0.433-0.107-0.685-0.396
			c-0.827-1.044-1.475-1.62-2.734-2.448c2.303-0.863,4.246-2.087,5.83-3.635c1.836-1.8,3.023-3.96,3.672-6.552
			c0.469-2.052,0.792-5.939,0.792-10.078c0-2.916-0.108-4.355-0.36-5.688c2.16,0.036,3.456,0.18,4.572,0.396
			c0.468,0.108,0.684,0.288,0.684,0.648c0,0.18-0.036,0.323-0.145,0.647c-0.287,0.792-0.359,1.512-0.359,3.204V60.87z"/>
		<path fill="#333434" d="M350.648,66.558c6.588,0,10.367-0.072,14.003-0.324c0.108,0,0.323,0,0.468,0c1.08,0,1.08,0.036,1.08,2.915
			c0,1.477-0.108,1.729-0.721,1.729c0,0-0.107,0-0.144,0c-2.376-0.108-3.708-0.108-14.11-0.108c-3.815,0-5.723,0.036-9.035,0.145
			c-0.252,0-0.539,0-1.043,0c-1.152,0-1.332,0.035-2.016,0.144c-0.181,0-0.324,0.036-0.396,0.036c-0.396,0-0.648-0.18-0.72-0.504
			c-0.216-0.9-0.36-2.735-0.36-4.392C340.57,66.485,343.126,66.558,350.648,66.558z"/>
		<path fill="#333434" d="M414.945,58.062c-0.972,0-1.943,0.072-3.312,0.18v-4.14c1.08,0.145,1.692,0.181,3.239,0.181h5.508
			c1.439,0,2.304-0.036,3.168-0.181c-0.108,0.756-0.145,1.512-0.145,2.196c0,4.859,1.26,9.467,3.707,13.642
			c1.44,2.412,3.168,4.5,5.508,6.659c1.764,1.584,2.771,2.304,5.147,3.708c-1.332,1.296-1.979,2.159-2.915,3.924
			c-3.492-2.448-6.084-4.968-8.459-8.136c-1.225-1.691-2.017-3.023-3.024-5.111c-0.864-1.907-1.188-2.771-1.764-4.931
			c-1.224,4.427-2.628,7.379-4.931,10.438c-2.196,2.915-4.824,5.291-8.567,7.811c-0.72-1.476-1.548-2.52-2.844-3.6
			c2.952-1.691,4.644-3.023,6.947-5.435c2.699-2.808,4.823-6.479,5.938-10.224c0.685-2.375,0.973-4.175,1.116-6.982H414.945z"/>
		<path fill="#333434" d="M457.209,73.937c-1.368,1.224-2.196,1.8-4.212,2.951c-0.432-0.756-0.575-1.008-1.331-1.836
			c-2.16,1.296-3.528,2.017-6.876,3.636c-0.036,0.036-0.216,0.108-0.468,0.252l-0.324,0.181l-0.863-4.032
			c0.899-0.216,2.123-0.647,3.887-1.403v-9.107h-1.008c-1.008,0-1.764,0.036-2.663,0.181v-3.672
			c0.792,0.108,1.583,0.144,2.699,0.144h0.972v-4.283c0-1.8-0.072-2.844-0.215-3.852h4.031c-0.181,1.116-0.217,2.052-0.217,3.852
			v4.283h0.648c1.115,0,1.764-0.035,2.412-0.107v3.563c-0.756-0.072-1.44-0.108-2.412-0.108h-0.648v7.415
			c0.793-0.432,1.188-0.647,2.34-1.296v2.412c1.872-1.151,3.061-2.195,4.104-3.527h-0.791c-1.44,0-2.412,0.071-3.168,0.18v-3.455
			c0.756,0.144,1.619,0.18,3.203,0.18h15.118c1.655,0,2.735-0.072,3.6-0.18v3.419c-1.044-0.107-2.016-0.144-3.563-0.144h-10.582
			c-0.289,0.504-0.469,0.792-0.937,1.439h10.979c1.692,0,2.304-0.036,3.384-0.107c-0.072,0.575-0.107,1.079-0.145,2.052
			c-0.18,4.247-0.684,7.811-1.403,9.358c-0.72,1.584-1.836,2.052-4.859,2.052c-0.864,0-1.512-0.036-2.915-0.108
			c-0.145-1.26-0.396-2.195-0.937-3.167c-1.836,1.619-3.312,2.592-5.688,3.779c-0.792-1.116-1.331-1.728-2.483-2.628
			c2.987-1.296,4.463-2.159,6.299-3.707c1.404-1.224,2.52-2.664,3.564-4.607h-2.053c-2.159,3.239-5.111,5.543-9.61,7.559
			c-0.576-1.08-1.08-1.655-2.159-2.592c3.923-1.512,6.19-2.879,7.99-4.967H457.209z M458.252,65.01
			c-1.403,0-2.447,0.035-3.167,0.107c0.108-0.972,0.144-1.907,0.144-3.312v-5.039c0-1.44-0.035-2.088-0.144-3.132
			c1.079,0.145,1.836,0.18,3.491,0.18h10.079c1.8,0,2.628-0.035,3.708-0.18c-0.108,0.9-0.145,1.656-0.145,3.42v4.787
			c0,1.476,0.036,2.556,0.145,3.239c-0.828-0.036-1.692-0.071-3.133-0.071H458.252z M458.793,58.314h9.79v-1.476h-9.79V58.314z
			 M458.793,62.237h9.79v-1.403h-9.79V62.237z M469.303,73.937c-1.332,2.88-2.699,4.823-4.823,6.767
			c1.476,0.216,2.556,0.288,3.563,0.288c1.26,0,1.62-0.359,1.943-1.836c0.252-1.224,0.433-2.735,0.613-5.219H469.303z"/>
		<path fill="#333434" d="M486.227,60.546c-1.116,1.08-1.512,1.404-2.844,2.448c-1.08-1.332-1.549-1.8-2.52-2.628
			c3.238-2.34,5.146-4.319,6.406-6.659c0.324-0.612,0.612-1.224,0.721-1.728l4.031,0.791c-0.252,0.396-0.252,0.396-0.721,1.225
			c-0.287,0.54-0.575,1.008-1.079,1.764h16.702c2.123,0,3.311-0.072,4.391-0.216v3.815c-1.26-0.108-1.439-0.145-3.419-0.181v4.607
			h1.368c1.619,0,2.375-0.035,3.383-0.18v3.815c-1.008-0.144-1.799-0.18-3.383-0.18h-1.368v4.607h0.684
			c1.692,0,2.34-0.036,3.312-0.18v3.779c-0.9-0.145-1.728-0.18-3.239-0.18H485.11c-1.368,0-2.017,0.035-3.06,0.18v-3.779
			c0.9,0.144,1.799,0.18,3.383,0.18h0.793v-4.607h-1.477c-1.584,0-2.34,0.036-3.383,0.18v-3.815c0.971,0.145,1.764,0.18,3.383,0.18
			h1.477V60.546z M481.295,82.144c2.123-2.052,3.131-3.6,4.283-6.516l3.168,1.62c-1.404,3.348-2.268,4.787-4.428,7.271
			L481.295,82.144z M489.646,63.785h2.808v-4.607h-2.808V63.785z M489.646,71.849h2.808v-4.607h-2.808V71.849z M491.229,84.375
			c0.036-0.864,0.036-0.864,0.036-1.404c0-1.331-0.288-4.499-0.54-6.119l3.384-0.396c0.576,3.132,0.756,4.68,0.899,7.559
			L491.229,84.375z M498.465,63.785v-4.607h-2.88v4.607H498.465z M498.465,71.849v-4.607h-2.88v4.607H498.465z M499.293,84.267
			c-0.541-3.348-0.756-4.319-1.621-7.271l3.312-0.756c0.972,2.699,1.439,4.283,2.052,7.199L499.293,84.267z M504.476,63.785v-4.607
			h-2.915v4.607H504.476z M504.476,71.849v-4.607h-2.915v4.607H504.476z M509.119,84.303c-1.26-2.879-2.088-4.319-4.14-7.234
			l2.987-1.477c1.98,2.448,2.988,3.96,4.464,6.623L509.119,84.303z"/>
		<path fill="#333434" d="M532.27,75.196c-0.181,0.468-0.217,0.611-0.396,1.151c-1.439-1.548-2.412-2.951-3.492-4.859
			c0.18,2.412,0.217,2.88,0.217,3.924v5.724c0,1.655,0.035,2.592,0.18,3.6h-3.959c0.144-1.116,0.215-2.088,0.215-3.672V76.6
			c0-1.367,0.072-2.951,0.145-4.104c-1.548,3.744-2.664,5.724-4.5,7.739c-0.396-1.368-0.971-2.556-1.764-3.563
			c2.268-2.34,3.708-4.644,5.58-8.999h-1.801c-1.512,0-2.303,0.036-3.131,0.181v-3.672c0.828,0.144,1.476,0.18,3.096,0.18h2.34
			V56.19c0-1.548-0.036-2.556-0.18-3.384h3.959c-0.145,0.9-0.18,1.692-0.18,3.348v8.207h1.619c1.332,0,1.908-0.036,2.664-0.144v3.6
			c-0.792-0.108-1.512-0.145-2.736-0.145h-1.223c1.295,2.232,2.555,3.744,4.427,5.292c-0.433,0.791-0.575,1.079-0.937,1.943
			c0.793-0.072,2.017-0.252,3.168-0.504l8.1-1.8V56.839c0-2.017-0.036-2.952-0.217-4.032h4.176c-0.18,1.152-0.216,2.088-0.216,3.996
			v14.974c1.512-0.359,2.052-0.504,2.915-0.863l0.756,3.959c-0.899,0.108-1.727,0.252-3.347,0.576l-0.324,0.072v5.075
			c0,1.907,0.036,2.951,0.216,4.067h-4.176c0.181-1.188,0.217-1.979,0.217-4.104v-4.176l-7.344,1.656
			c-1.476,0.323-2.483,0.575-3.275,0.863L532.27,75.196z M522.262,54.679c1.116,3.096,1.62,4.859,2.124,7.451l-2.915,1.26
			c-0.541-3.204-1.152-5.291-2.16-7.379L522.262,54.679z M534.104,55.902c-0.864,3.168-1.331,4.392-2.735,7.487l-2.557-1.296
			c1.152-2.34,1.692-4.14,2.377-7.487L534.104,55.902z M535.832,63.714c2.736,1.907,4.248,3.167,6.047,5.075l-2.375,2.844
			c-2.412-2.628-3.563-3.636-6.084-5.327L535.832,63.714z M536.948,55.074c2.915,2.088,4.031,3.024,6.011,5.111l-2.34,2.916
			c-2.592-2.771-2.627-2.808-6.119-5.363L536.948,55.074z"/>
	</g>
</g>
</svg>
