<?xml version="1.0" encoding="utf-8"?>
<!-- Generator: Adobe Illustrator 16.0.0, SVG Export Plug-In . SVG Version: 6.00 Build 0)  -->
<!DOCTYPE svg PUBLIC "-//W3C//DTD SVG 1.1//EN" "http://www.w3.org/Graphics/SVG/1.1/DTD/svg11.dtd">
<svg version="1.1" id="レイヤー_1" xmlns="http://www.w3.org/2000/svg" xmlns:xlink="http://www.w3.org/1999/xlink" x="0px"
	 y="0px" width="32px" height="32px" viewBox="0 0 32 32" style="enable-background:new 0 0 32 32;" xml:space="preserve">
<style type="text/css">
<![CDATA[
	.st0{fill:none;stroke:#FFFFFF;stroke-width:0.2465;stroke-miterlimit:10;}
	.st1{fill:#3F382E;}
]]>
</style>
<g>
	<path class="st1" d="M31.083,6.632c-0.864,1.257-1.898,2.33-3.102,3.221c0.024,0.182,0.038,0.458,0.038,0.825
		c0,2.095-0.393,4.163-1.179,6.205c-0.786,2.043-1.892,3.922-3.319,5.637c-1.427,1.716-3.286,3.104-5.578,4.163
		c-2.291,1.062-4.797,1.591-7.521,1.591c-3.378,0-6.546-0.929-9.506-2.789c0.943,0.079,1.441,0.118,1.493,0.118
		c2.828,0,5.381-0.891,7.659-2.671c-1.335-0.026-2.533-0.438-3.594-1.237c-1.061-0.799-1.787-1.827-2.181-3.084
		c0.341,0.079,0.733,0.118,1.179,0.118c0.576,0,1.127-0.079,1.649-0.236c-1.439-0.288-2.631-0.989-3.573-2.101
		c-0.943-1.112-1.415-2.416-1.415-3.907v-0.079c0.917,0.471,1.847,0.72,2.788,0.746c-1.832-1.257-2.749-2.972-2.749-5.145
		c0-1.074,0.275-2.121,0.825-3.143C4.57,6.776,6.462,8.308,8.675,9.46c2.212,1.153,4.575,1.781,7.09,1.886
		c-0.104-0.577-0.157-1.048-0.157-1.414c0-1.703,0.604-3.163,1.808-4.38c1.203-1.217,2.658-1.827,4.358-1.827
		c1.781,0,3.301,0.668,4.558,2.003c1.31-0.262,2.605-0.772,3.888-1.532c-0.444,1.519-1.335,2.671-2.67,3.457
		C28.699,7.497,29.879,7.156,31.083,6.632z"/>
</g>
</svg>
